<?xml version="1.0" encoding="UTF-8"?>
<svg id="Layer_1" data-name="Layer 1" xmlns="http://www.w3.org/2000/svg" version="1.1" xmlns:xlink="http://www.w3.org/1999/xlink" viewBox="0 0 100 100">
  <defs>
    <style>
      .cls-1 {
        fill: url(#linear-gradient-38);
      }

      .cls-1, .cls-2, .cls-3, .cls-4, .cls-5, .cls-6, .cls-7, .cls-8, .cls-9, .cls-10, .cls-11, .cls-12, .cls-13, .cls-14, .cls-15, .cls-16, .cls-17, .cls-18, .cls-19, .cls-20, .cls-21, .cls-22, .cls-23, .cls-24, .cls-25, .cls-26, .cls-27, .cls-28, .cls-29, .cls-30, .cls-31, .cls-32, .cls-33, .cls-34, .cls-35, .cls-36, .cls-37, .cls-38, .cls-39, .cls-40, .cls-41, .cls-42, .cls-43, .cls-44, .cls-45, .cls-46, .cls-47, .cls-48 {
        stroke-width: 0px;
      }

      .cls-2 {
        fill: url(#linear-gradient-12);
      }

      .cls-3 {
        fill: url(#linear-gradient-17);
      }

      .cls-4 {
        fill: url(#linear-gradient-19);
      }

      .cls-5 {
        fill: url(#linear-gradient-33);
      }

      .cls-6 {
        fill: url(#linear-gradient);
      }

      .cls-7 {
        fill: url(#linear-gradient-21);
      }

      .cls-8 {
        fill: url(#linear-gradient-6);
      }

      .cls-9 {
        fill: url(#linear-gradient-42);
      }

      .cls-10 {
        fill: url(#linear-gradient-15);
      }

      .cls-11 {
        fill: url(#linear-gradient-11);
      }

      .cls-12 {
        fill: url(#linear-gradient-5);
      }

      .cls-13 {
        fill: url(#linear-gradient-31);
      }

      .cls-14 {
        fill: url(#linear-gradient-34);
      }

      .cls-15 {
        fill: url(#linear-gradient-41);
      }

      .cls-16 {
        fill: url(#linear-gradient-40);
      }

      .cls-17 {
        fill: url(#linear-gradient-13);
      }

      .cls-18 {
        fill: url(#linear-gradient-23);
      }

      .cls-19 {
        fill: url(#linear-gradient-25);
      }

      .cls-20 {
        fill: url(#linear-gradient-43);
      }

      .cls-21 {
        fill: url(#linear-gradient-16);
      }

      .cls-22 {
        fill: url(#linear-gradient-22);
      }

      .cls-23 {
        fill: url(#linear-gradient-35);
      }

      .cls-24 {
        fill: url(#linear-gradient-32);
      }

      .cls-25 {
        fill: url(#linear-gradient-20);
      }

      .cls-26 {
        fill: url(#linear-gradient-14);
      }

      .cls-27 {
        fill: url(#linear-gradient-2);
      }

      .cls-28 {
        fill: url(#linear-gradient-45);
      }

      .cls-29 {
        fill: url(#linear-gradient-7);
      }

      .cls-30 {
        fill: url(#linear-gradient-39);
      }

      .cls-31 {
        fill: url(#linear-gradient-3);
      }

      .cls-32 {
        fill: url(#linear-gradient-9);
      }

      .cls-33 {
        fill: url(#linear-gradient-27);
      }

      .cls-34 {
        fill: url(#linear-gradient-36);
      }

      .cls-35 {
        fill: url(#linear-gradient-48);
      }

      .cls-49 {
        fill: #d8bb9d;
        font-family: EngraversGothicBT-Regular, 'EngraversGothic BT';
        font-size: 5.1px;
        letter-spacing: .06em;
      }

      .cls-36 {
        fill: url(#linear-gradient-8);
      }

      .cls-37 {
        fill: url(#linear-gradient-47);
      }

      .cls-38 {
        fill: url(#linear-gradient-24);
      }

      .cls-39 {
        fill: url(#linear-gradient-26);
      }

      .cls-40 {
        fill: url(#linear-gradient-18);
      }

      .cls-41 {
        fill: url(#linear-gradient-30);
      }

      .cls-42 {
        fill: url(#linear-gradient-44);
      }

      .cls-43 {
        fill: url(#linear-gradient-29);
      }

      .cls-44 {
        fill: url(#linear-gradient-46);
      }

      .cls-45 {
        fill: url(#linear-gradient-28);
      }

      .cls-46 {
        fill: url(#linear-gradient-10);
      }

      .cls-47 {
        fill: url(#linear-gradient-4);
      }

      .cls-48 {
        fill: url(#linear-gradient-37);
      }
    </style>
    <linearGradient id="linear-gradient" x1="14.78" y1="81.36" x2="16.32" y2="81.36" gradientUnits="userSpaceOnUse">
      <stop offset="0" stop-color="#a37859"/>
      <stop offset="1" stop-color="#e8ceb0"/>
    </linearGradient>
    <linearGradient id="linear-gradient-2" x1="14.74" y1="81.36" x2="16.36" y2="81.36" xlink:href="#linear-gradient"/>
    <linearGradient id="linear-gradient-3" x1="17.35" y1="81.68" x2="18.95" y2="81.68" xlink:href="#linear-gradient"/>
    <linearGradient id="linear-gradient-4" x1="17.3" y1="81.68" x2="18.99" y2="81.68" xlink:href="#linear-gradient"/>
    <linearGradient id="linear-gradient-5" x1="20.18" y1="81.69" x2="22.21" y2="81.69" xlink:href="#linear-gradient"/>
    <linearGradient id="linear-gradient-6" x1="20.14" y1="81.69" x2="22.25" y2="81.69" xlink:href="#linear-gradient"/>
    <linearGradient id="linear-gradient-7" x1="23.61" y1="81.68" x2="24.75" y2="81.68" xlink:href="#linear-gradient"/>
    <linearGradient id="linear-gradient-8" x1="23.56" y1="81.68" x2="24.79" y2="81.68" xlink:href="#linear-gradient"/>
    <linearGradient id="linear-gradient-9" x1="26.12" y1="82.06" x2="27.73" y2="82.06" xlink:href="#linear-gradient"/>
    <linearGradient id="linear-gradient-10" x1="26.08" y1="82.06" x2="27.77" y2="82.06" xlink:href="#linear-gradient"/>
    <linearGradient id="linear-gradient-11" x1="31.64" y1="81.37" x2="34.48" y2="81.37" xlink:href="#linear-gradient"/>
    <linearGradient id="linear-gradient-12" x1="31.6" y1="81.37" x2="34.53" y2="81.37" xlink:href="#linear-gradient"/>
    <linearGradient id="linear-gradient-13" x1="35.84" y1="81.69" x2="37.86" y2="81.69" xlink:href="#linear-gradient"/>
    <linearGradient id="linear-gradient-14" x1="35.79" y1="81.69" x2="37.91" y2="81.69" xlink:href="#linear-gradient"/>
    <linearGradient id="linear-gradient-15" x1="39.31" y1="81.68" x2="41.79" y2="81.68" xlink:href="#linear-gradient"/>
    <linearGradient id="linear-gradient-16" x1="39.27" y1="81.68" x2="41.84" y2="81.68" xlink:href="#linear-gradient"/>
    <linearGradient id="linear-gradient-17" x1="43.24" y1="81.69" x2="45.26" y2="81.69" xlink:href="#linear-gradient"/>
    <linearGradient id="linear-gradient-18" x1="43.2" y1="81.69" x2="45.31" y2="81.69" xlink:href="#linear-gradient"/>
    <linearGradient id="linear-gradient-19" x1="46.71" y1="81.68" x2="48.21" y2="81.68" xlink:href="#linear-gradient"/>
    <linearGradient id="linear-gradient-20" x1="46.67" y1="81.68" x2="48.26" y2="81.68" xlink:href="#linear-gradient"/>
    <linearGradient id="linear-gradient-21" x1="49.45" x2="50.53" xlink:href="#linear-gradient"/>
    <linearGradient id="linear-gradient-22" x1="49.41" y1="81.36" x2="50.58" y2="81.36" xlink:href="#linear-gradient"/>
    <linearGradient id="linear-gradient-23" x1="54.38" y1="81.68" x2="56.91" y2="81.68" xlink:href="#linear-gradient"/>
    <linearGradient id="linear-gradient-24" x1="54.34" y1="81.68" x2="56.95" y2="81.68" xlink:href="#linear-gradient"/>
    <linearGradient id="linear-gradient-25" x1="58.32" x2="58.66" xlink:href="#linear-gradient"/>
    <linearGradient id="linear-gradient-26" x1="58.28" y1="81.36" x2="58.71" y2="81.36" xlink:href="#linear-gradient"/>
    <linearGradient id="linear-gradient-27" x1="60" x2="61.08" xlink:href="#linear-gradient"/>
    <linearGradient id="linear-gradient-28" x1="59.96" y1="81.36" x2="61.12" y2="81.36" xlink:href="#linear-gradient"/>
    <linearGradient id="linear-gradient-29" x1="62.43" x2="63.94" xlink:href="#linear-gradient"/>
    <linearGradient id="linear-gradient-30" x1="62.39" y1="81.36" x2="63.98" y2="81.36" xlink:href="#linear-gradient"/>
    <linearGradient id="linear-gradient-31" x1="67.84" x2="69.37" xlink:href="#linear-gradient"/>
    <linearGradient id="linear-gradient-32" x1="67.79" y1="81.36" x2="69.41" y2="81.36" xlink:href="#linear-gradient"/>
    <linearGradient id="linear-gradient-33" x1="70.81" y1="81.69" x2="72.31" y2="81.69" xlink:href="#linear-gradient"/>
    <linearGradient id="linear-gradient-34" x1="70.77" y1="81.69" x2="72.36" y2="81.69" xlink:href="#linear-gradient"/>
    <linearGradient id="linear-gradient-35" x1="73.75" y1="81.68" x2="74.89" y2="81.68" xlink:href="#linear-gradient"/>
    <linearGradient id="linear-gradient-36" x1="73.7" y1="81.68" x2="74.93" y2="81.68" xlink:href="#linear-gradient"/>
    <linearGradient id="linear-gradient-37" x1="76.27" x2="76.62" xlink:href="#linear-gradient"/>
    <linearGradient id="linear-gradient-38" x1="76.23" y1="81.36" x2="76.66" y2="81.36" xlink:href="#linear-gradient"/>
    <linearGradient id="linear-gradient-39" x1="77.96" x2="79.04" xlink:href="#linear-gradient"/>
    <linearGradient id="linear-gradient-40" x1="77.92" y1="81.36" x2="79.08" y2="81.36" xlink:href="#linear-gradient"/>
    <linearGradient id="linear-gradient-41" x1="80.36" y1="82.06" x2="81.96" y2="82.06" xlink:href="#linear-gradient"/>
    <linearGradient id="linear-gradient-42" x1="80.32" y1="82.06" x2="82.01" y2="82.06" xlink:href="#linear-gradient"/>
    <linearGradient id="linear-gradient-43" x1="33.35" y1="32.87" x2="70.37" y2="32.87" xlink:href="#linear-gradient"/>
    <linearGradient id="linear-gradient-44" x1="1.17" y1="62.59" x2="27.65" y2="62.59" xlink:href="#linear-gradient"/>
    <linearGradient id="linear-gradient-45" x1="26.36" y1="66.29" x2="49.2" y2="66.29" xlink:href="#linear-gradient"/>
    <linearGradient id="linear-gradient-46" x1="50.8" y1="62.6" x2="54.68" y2="62.6" xlink:href="#linear-gradient"/>
    <linearGradient id="linear-gradient-47" x1="55.74" y1="66.23" x2="73.83" y2="66.23" xlink:href="#linear-gradient"/>
    <linearGradient id="linear-gradient-48" x1="72.74" y1="66.24" x2="95.58" y2="66.24" xlink:href="#linear-gradient"/>
  </defs>
  <g>
    <g>
      <g>
        <path class="cls-6" d="M14.78,80.15s.01-.07.04-.09c.03-.03.06-.04.09-.04h1.27s.07.01.09.04.04.06.04.09-.01.07-.04.09c-.03.03-.06.04-.09.04h-1.14v.93h.76s.07.01.09.04c.03.03.04.06.04.09s-.01.07-.04.09c-.03.03-.06.04-.09.04h-.76v.96h1.14s.07.01.09.04.04.06.04.09-.01.07-.04.09-.06.04-.09.04h-1.27s-.07-.01-.09-.04c-.03-.03-.04-.06-.04-.09v-2.42Z"/>
        <path class="cls-27" d="M16.19,82.75h-1.27s-.09-.02-.12-.05c-.03-.03-.05-.07-.05-.12v-2.42s.02-.09.05-.12c.03-.03.08-.05.12-.05h1.27s.09.02.12.05c.03.03.05.08.05.12s-.02.09-.05.12c-.03.03-.07.05-.12.05h-1.1v.85h.72s.09.02.12.05c.03.03.05.08.05.12s-.02.09-.05.12c-.03.03-.08.05-.12.05h-.72v.88h1.1s.09.02.12.05c.03.03.05.08.05.12s-.02.09-.05.12c-.03.03-.08.05-.12.05ZM14.91,80.07s-.04,0-.06.03c-.02.02-.02.04-.02.06v2.42s0,.04.02.06c.02.02.04.03.06.03h1.27s.04,0,.06-.03.03-.04.03-.06,0-.04-.03-.06-.04-.03-.06-.03h-1.19v-1.05h.81s.04,0,.06-.02c.02-.02.02-.04.02-.06s0-.04-.03-.06c-.02-.02-.04-.02-.06-.02h-.81v-1.02h1.19s.04,0,.06-.02c.02-.02.03-.04.03-.06s0-.04-.03-.06-.04-.03-.06-.03h-1.27Z"/>
      </g>
      <g>
        <path class="cls-31" d="M17.36,80.85s-.02-.07,0-.1c.01-.03.03-.06.06-.07.04-.01.08-.01.11,0,.03.02.06.04.07.07l.54,1.49.57-1.49s.04-.05.07-.07c.03-.01.07-.01.1,0,.03.01.06.04.07.07.01.03.01.07,0,.1,0,0-.01.03-.03.09-.02.05-.05.14-.1.27s-.12.31-.2.53c-.09.23-.19.51-.33.86-.01.03-.03.06-.05.08-.02.02-.05.03-.09.03s-.07-.01-.09-.04-.04-.05-.05-.07c-.12-.32-.22-.59-.3-.82s-.15-.4-.2-.54c-.05-.14-.09-.23-.11-.3-.02-.06-.03-.09-.03-.1Z"/>
        <path class="cls-47" d="M18.14,82.75c-.05,0-.09-.02-.13-.05-.03-.03-.05-.06-.06-.08l-.3-.82c-.08-.22-.15-.4-.2-.54-.05-.14-.09-.23-.11-.3-.02-.06-.03-.09-.03-.1-.02-.04-.02-.09,0-.13.01-.05.04-.08.09-.1.05-.02.1-.02.15,0s.07.05.09.09l.51,1.38.52-1.38s.05-.07.1-.09c.04-.02.09-.02.13,0,.04.02.08.05.09.1.02.04.02.09,0,.13,0,0-.01.03-.03.08-.02.05-.05.14-.1.28-.05.13-.12.31-.2.53-.09.23-.2.51-.33.86-.01.04-.03.07-.06.09-.03.03-.07.04-.12.04ZM17.4,80.85s.01.04.03.09c.02.06.06.16.11.29.05.14.12.31.2.54l.3.82s.02.03.04.05c.03.03.1.03.12,0,.02-.02.03-.03.04-.06.13-.35.24-.63.33-.86.09-.22.15-.4.2-.53.05-.13.08-.22.1-.27.02-.05.03-.08.03-.09,0-.02,0-.04,0-.06,0-.02-.02-.04-.05-.05-.02,0-.04,0-.06,0-.02,0-.04.02-.05.04l-.61,1.59-.58-1.6s-.02-.03-.04-.04c-.02-.01-.05-.01-.08,0-.02,0-.03.02-.04.05,0,.03,0,.05,0,.07h0Z"/>
      </g>
      <g>
        <path class="cls-12" d="M20.45,81.81c.01.09.04.17.09.25.04.08.1.14.17.2.07.06.14.1.22.13s.17.05.26.05c.1,0,.2-.02.29-.06.09-.04.17-.09.24-.16.03-.03.06-.04.09-.04s.07.01.09.04.04.06.04.09-.01.07-.04.09c-.09.1-.2.18-.31.22s-.25.07-.4.07c-.14,0-.27-.03-.39-.08s-.23-.12-.32-.21c-.09-.09-.17-.2-.22-.32-.05-.12-.08-.26-.08-.4s.03-.27.08-.39.12-.23.21-.32c.09-.09.2-.16.32-.22.12-.05.26-.08.4-.09.13,0,.26.03.38.08.12.05.22.12.32.21.09.09.17.19.22.31.05.12.08.25.09.39,0,.05,0,.08-.04.11-.03.03-.06.04-.09.04h-1.63ZM21.19,80.94c-.09,0-.18.02-.26.05-.08.03-.16.08-.22.13-.07.05-.12.12-.16.19s-.07.16-.09.24h1.48c-.02-.09-.05-.17-.09-.24-.04-.08-.1-.14-.17-.19-.07-.05-.14-.1-.22-.13-.08-.03-.17-.05-.26-.05Z"/>
        <path class="cls-8" d="M21.19,82.74c-.14,0-.28-.03-.41-.08-.13-.05-.24-.13-.33-.22-.1-.09-.17-.21-.23-.33-.06-.13-.08-.27-.08-.42s.03-.28.08-.41c.05-.13.13-.24.22-.33.09-.09.21-.17.34-.23.13-.06.27-.09.42-.09h0c.14,0,.27.03.4.08.12.05.23.13.33.22.1.09.17.2.23.33.06.12.09.26.09.4,0,.07-.02.12-.05.14-.04.03-.08.05-.12.05h-1.57c.02.07.04.13.07.18.04.07.09.13.16.19.06.05.13.09.21.12.17.06.36.06.52,0,.08-.04.16-.09.23-.15.07-.07.18-.07.25,0,.03.03.05.08.05.12s-.02.09-.05.12c-.09.11-.21.18-.33.23-.12.05-.26.07-.42.07ZM21.2,80.72c-.14,0-.27.03-.39.09-.12.05-.22.12-.31.21-.09.09-.16.19-.2.3-.05.12-.07.24-.07.37s.03.27.08.39c.05.12.12.22.21.3.09.08.19.15.31.2.12.05.24.07.38.07.15,0,.27-.02.39-.06.11-.04.21-.11.29-.21.02-.02.03-.04.03-.06s0-.04-.03-.06c-.03-.03-.09-.03-.12,0-.07.07-.16.13-.25.17-.18.08-.4.08-.59,0-.09-.03-.17-.08-.24-.14-.07-.06-.13-.13-.17-.21-.05-.08-.08-.17-.09-.26v-.05s1.67,0,1.67,0c.02,0,.04,0,.07-.03.01,0,.03-.03.02-.07,0-.13-.03-.26-.09-.37-.05-.11-.12-.22-.21-.3-.09-.09-.19-.15-.3-.21-.11-.05-.23-.08-.36-.08ZM21.99,81.6h-1.59v-.05c.03-.09.06-.18.11-.26.05-.08.1-.15.17-.21.07-.06.15-.1.23-.14.17-.07.38-.07.56,0,.09.03.17.08.23.14s.13.13.18.21c.05.08.08.17.1.26v.05ZM20.51,81.51h1.37c-.02-.06-.04-.12-.07-.18-.04-.07-.09-.13-.16-.18-.06-.05-.13-.09-.21-.12-.15-.06-.34-.06-.49,0-.08.03-.15.07-.21.12-.06.05-.11.11-.15.18-.03.06-.06.12-.07.18Z"/>
      </g>
      <g>
        <path class="cls-29" d="M23.61,80.79s.01-.07.04-.09c.03-.03.06-.04.09-.04s.07.01.09.04.04.06.04.09v.21c.09-.1.2-.18.32-.24.13-.06.26-.09.41-.09.04,0,.08.01.11.04.03.03.04.06.04.09s-.01.07-.04.09c-.03.03-.06.04-.11.04-.1,0-.19.02-.28.06s-.16.09-.23.16c-.07.06-.12.14-.16.23s-.06.18-.07.28v.93s-.01.07-.04.09c-.03.03-.06.04-.09.04s-.07-.01-.09-.04-.04-.06-.04-.09v-1.78Z"/>
        <path class="cls-36" d="M23.74,82.75s-.09-.02-.12-.05c-.03-.03-.05-.08-.05-.12v-1.78s.02-.09.05-.12c.07-.07.18-.07.25,0,.03.03.05.08.05.12v.1c.08-.07.16-.13.26-.17.13-.06.28-.1.43-.1.06,0,.1.02.14.05.04.03.05.08.05.12s-.02.09-.05.12c-.04.03-.08.05-.14.05-.09,0-.18.02-.26.06-.08.04-.15.09-.22.15-.06.06-.11.13-.15.21-.04.08-.06.17-.06.26v.92s-.02.09-.05.12c-.03.03-.07.05-.12.05ZM23.74,80.71s-.04,0-.06.02c-.02.02-.03.04-.03.06v1.78s0,.04.03.06c.03.03.09.03.12,0,.02-.02.03-.04.03-.06v-.93c0-.1.03-.2.07-.3.04-.09.1-.17.17-.24.07-.07.15-.12.24-.16.09-.04.19-.06.3-.07.03,0,.06,0,.08-.03.02-.02.03-.04.03-.06s0-.04-.03-.06-.04-.03-.08-.03c-.14,0-.27.03-.39.09-.12.06-.22.13-.31.23l-.08.09v-.32s0-.04-.03-.06c-.02-.02-.04-.02-.06-.02Z"/>
      </g>
      <g>
        <path class="cls-32" d="M27.48,80.74s.04-.05.07-.07c.03-.01.07-.01.1,0,.03.01.06.04.07.07.01.03.01.07,0,.1l-.96,2.53s-.04.06-.07.07c-.03.02-.06.02-.1,0-.03-.01-.06-.04-.07-.07s-.02-.07,0-.1l.25-.68h0c-.12-.33-.22-.6-.3-.82-.08-.22-.15-.4-.2-.54-.05-.14-.09-.23-.11-.3s-.03-.09-.03-.1c-.01-.03-.02-.07,0-.1.01-.03.03-.06.06-.07.04-.01.08-.01.11,0,.03.02.06.04.07.07l.55,1.49.57-1.49Z"/>
        <path class="cls-46" d="M26.64,83.51s-.04,0-.06-.01c-.04-.02-.08-.05-.1-.09-.02-.04-.02-.09,0-.13l.25-.67-.29-.8c-.08-.22-.15-.4-.2-.54-.05-.14-.09-.23-.11-.3-.02-.06-.03-.09-.03-.1-.02-.04-.02-.09,0-.13.02-.05.04-.08.09-.1.05-.02.1-.02.15,0,.04.02.07.05.09.09l.51,1.38.53-1.38s.05-.07.09-.09c.04-.02.09-.02.13,0,.04.02.08.05.09.1.02.04.02.09,0,.13l-.95,2.53s-.05.08-.09.1c-.02.01-.05.02-.07.02ZM26.18,80.85s.01.03.03.08c.02.06.06.16.11.29.05.14.12.31.2.54l.3.84v.02s-.25.68-.25.68c0,.02,0,.04,0,.06.01.02.03.04.05.05.02,0,.04,0,.06,0,.02-.01.04-.03.05-.05l.95-2.53s.01-.04,0-.07c0-.02-.02-.04-.05-.05-.02,0-.04,0-.06,0-.02,0-.04.02-.05.04l-.61,1.6-.59-1.6s-.02-.03-.04-.04c-.02-.01-.05-.01-.08,0-.02,0-.03.02-.04.05,0,.02,0,.05,0,.07v.02h0Z"/>
      </g>
      <g>
        <path class="cls-11" d="M33.99,80.66l-.78,1.95s-.03.05-.05.07c-.02.02-.05.03-.08.03s-.05-.01-.08-.03-.04-.04-.05-.06l-.79-1.97-.28,1.94s-.02.06-.05.08-.05.03-.08.03c-.04,0-.08-.02-.1-.05s-.03-.06-.03-.1l.34-2.42s.02-.06.04-.08c.02-.02.05-.03.09-.03.06,0,.1.03.12.08l.85,2.12.85-2.12c.02-.05.06-.08.12-.08.03,0,.06.01.09.03.02.02.04.05.04.08l.29,2.42s0,.07-.03.1-.05.04-.09.04c-.04,0-.07-.01-.1-.03-.03-.02-.04-.05-.05-.08l-.23-1.93Z"/>
        <path class="cls-2" d="M33.09,82.75s-.07-.01-.11-.04c-.03-.03-.05-.05-.06-.08l-.73-1.82-.25,1.78s-.03.08-.06.11c-.03.03-.07.04-.11.04-.06,0-.1-.03-.13-.06-.03-.04-.05-.08-.04-.13l.34-2.42s.03-.08.06-.1c.03-.03.07-.04.11-.04.08,0,.13.04.16.11l.81,2.02.81-2.02c.03-.07.09-.11.16-.11.04,0,.08.02.12.05.03.03.05.07.06.11l.29,2.42c0,.07-.02.11-.04.13-.03.03-.07.05-.11.06h0c-.05,0-.1-.01-.13-.04-.03-.03-.05-.06-.06-.1l-.21-1.76-.71,1.79s-.04.06-.06.08c-.03.03-.07.04-.1.04ZM32.16,80.48l.85,2.12s.02.03.04.05c.03.03.06.03.09,0,.02-.02.03-.03.04-.05l.84-2.11.26,2.1s.01.04.03.05c.02.01.04.02.07.02.02,0,.04-.01.06-.03,0,0,.02-.02.01-.06l-.29-2.42s-.01-.04-.03-.06c-.02-.01-.03-.02-.06-.02-.04,0-.07.02-.08.05l-.89,2.22-.89-2.22s-.04-.05-.08-.05c-.02,0-.04,0-.06.02-.02.01-.03.03-.03.05l-.34,2.42s0,.05.02.06c.02.02.04.03.07.03.01,0,.03,0,.05-.02.02-.01.03-.03.03-.06l.3-2.11Z"/>
      </g>
      <g>
        <path class="cls-17" d="M36.86,80.67c.13,0,.26.03.38.08.12.05.23.13.32.22.09.09.17.2.22.32.05.12.08.25.08.39s-.03.27-.08.39-.13.23-.22.32c-.09.09-.2.16-.32.22s-.26.08-.4.08-.27-.03-.39-.08c-.12-.05-.23-.12-.32-.21-.09-.09-.16-.2-.22-.32-.05-.12-.08-.26-.08-.4s.03-.27.08-.39c.05-.12.12-.23.21-.32s.2-.16.32-.22c.12-.05.26-.08.4-.09ZM36.1,81.69c0,.1.02.2.06.29.04.09.09.17.16.24.07.07.15.12.24.16.09.04.19.06.29.06s.2-.02.29-.06c.09-.04.17-.09.24-.16.07-.07.12-.15.16-.24.04-.09.06-.19.06-.29s-.02-.2-.06-.29c-.04-.09-.09-.17-.16-.24s-.15-.12-.24-.16c-.09-.04-.19-.06-.29-.06s-.2.02-.29.06c-.09.04-.17.09-.24.16-.07.07-.12.15-.16.24-.04.09-.06.19-.06.29Z"/>
        <path class="cls-26" d="M36.85,82.74c-.14,0-.28-.03-.41-.08-.13-.05-.24-.13-.33-.22-.1-.09-.17-.2-.23-.33-.06-.13-.08-.27-.08-.42s.03-.28.08-.41c.05-.13.13-.24.22-.33.09-.09.21-.17.34-.23s.27-.09.42-.09h0c.14,0,.27.03.4.09.13.06.24.13.33.23.1.1.17.21.23.34.06.13.09.27.09.41s-.03.28-.08.41c-.05.13-.13.24-.22.33-.09.1-.21.17-.33.23-.13.06-.27.08-.42.08ZM36.86,80.72c-.14,0-.27.03-.39.09-.12.05-.22.12-.31.21-.09.09-.16.19-.2.3-.05.12-.07.24-.07.37s.03.27.08.39c.05.12.12.22.21.3.09.09.19.15.31.2.23.1.52.1.76,0,.12-.05.22-.12.31-.21.09-.09.16-.19.21-.31.05-.12.08-.24.08-.37s-.03-.26-.08-.38c-.05-.12-.12-.22-.21-.31s-.19-.16-.31-.21c-.12-.05-.24-.08-.37-.08ZM36.85,82.49c-.11,0-.21-.02-.31-.06-.1-.04-.18-.1-.25-.17-.07-.07-.13-.16-.17-.25-.04-.1-.06-.2-.06-.31s.02-.21.06-.31c.04-.1.1-.18.17-.25.07-.07.16-.13.25-.17.19-.08.42-.08.62,0,.1.04.18.1.25.17.07.07.13.16.17.25.04.1.06.2.06.31s-.02.21-.06.31c-.04.1-.1.18-.17.25-.07.07-.16.13-.25.17-.1.04-.2.06-.31.06ZM36.85,80.98c-.1,0-.19.02-.27.06-.09.04-.16.09-.23.15-.06.06-.12.14-.15.23-.04.09-.06.18-.06.28s.02.19.06.27c.04.09.09.16.15.23s.14.12.23.15c.17.07.38.07.55,0,.09-.04.16-.09.23-.15.06-.06.12-.14.15-.23.04-.08.06-.18.06-.27s-.02-.19-.06-.28c-.04-.09-.09-.16-.15-.23s-.14-.12-.23-.15c-.09-.04-.18-.06-.28-.06Z"/>
      </g>
      <g>
        <path class="cls-10" d="M39.31,80.79s.01-.07.04-.09.06-.04.09-.04.07.01.09.04c.03.03.04.06.04.09v.05s.11-.09.19-.13c.08-.04.16-.06.24-.06.12,0,.22.03.32.08.09.05.17.12.23.21.06-.09.14-.16.24-.21.09-.05.2-.08.32-.08.09,0,.18.02.27.05.08.04.16.09.22.15s.11.13.15.22c.04.08.05.17.05.27v1.23s-.01.07-.04.09c-.03.03-.06.04-.09.04s-.07-.01-.09-.04c-.03-.03-.04-.06-.04-.09v-1.23c0-.06-.01-.11-.03-.17-.02-.05-.05-.1-.09-.14-.04-.04-.08-.07-.14-.09-.05-.02-.11-.03-.17-.03s-.11.01-.17.03-.1.05-.13.09c-.04.04-.07.08-.09.14-.02.05-.03.11-.03.17v1.23s-.01.07-.04.09c-.03.03-.06.04-.09.04s-.07-.01-.09-.04c-.03-.03-.04-.06-.04-.09v-1.23c0-.12-.05-.22-.13-.31-.08-.08-.18-.12-.3-.12s-.22.04-.3.12c-.08.08-.12.18-.13.29v1.25s-.01.07-.04.09-.06.04-.09.04-.07-.01-.09-.04c-.03-.03-.04-.06-.04-.09v-1.78Z"/>
        <path class="cls-21" d="M41.66,82.75s-.09-.02-.12-.05c-.03-.03-.05-.08-.05-.12v-1.23c0-.05,0-.1-.03-.15-.02-.05-.05-.09-.08-.12s-.08-.06-.12-.08c-.09-.04-.2-.04-.3,0-.05.02-.09.05-.12.08-.03.04-.06.08-.08.12-.02.05-.03.1-.03.15v1.23s-.02.09-.05.12c-.07.07-.18.07-.25,0-.03-.03-.05-.07-.05-.12v-1.23c0-.11-.04-.2-.12-.27-.07-.07-.16-.11-.26-.11s-.19.03-.26.11c-.07.07-.11.16-.12.26v1.25s-.02.09-.05.12c-.07.07-.18.07-.25,0-.03-.03-.05-.07-.05-.12v-1.78s.02-.09.05-.12c.07-.07.18-.07.25,0,.02.02.04.05.05.08.04-.03.08-.05.13-.08.08-.04.17-.06.26-.06.12,0,.24.03.34.08.08.05.16.1.21.18.06-.07.13-.13.22-.18.18-.1.43-.11.62-.02.09.04.17.09.23.16.06.07.12.14.16.23.04.09.06.18.06.29v1.23s-.02.09-.05.12c-.03.03-.08.05-.12.05ZM41.11,80.87c.06,0,.13.01.18.04.06.02.11.06.15.1.04.04.08.09.1.15.02.06.04.12.04.18v1.23s0,.04.03.06c.03.03.09.03.12,0,.02-.02.02-.04.02-.06v-1.23c0-.09-.02-.17-.05-.25-.03-.08-.08-.15-.14-.2-.06-.06-.13-.1-.2-.14-.18-.08-.39-.07-.55.02-.09.05-.16.11-.22.2l-.04.05-.03-.05c-.06-.08-.13-.15-.22-.19-.09-.05-.19-.07-.3-.07-.07,0-.15.02-.22.05-.07.04-.13.08-.18.12l-.07.07v-.15s0-.04-.03-.06c-.03-.03-.09-.03-.12,0-.02.02-.03.04-.03.06v1.78s0,.04.02.06c.03.03.09.03.12,0,.02-.02.03-.04.03-.06v-1.25c0-.13.05-.24.14-.32.09-.09.2-.13.33-.13s.24.05.33.13c.09.09.14.2.15.33v1.23s0,.04.02.06c.03.03.09.03.12,0,.02-.02.02-.04.02-.06v-1.23c0-.06.01-.13.04-.18.02-.06.06-.11.1-.15.04-.04.09-.08.15-.1.06-.02.12-.04.18-.04Z"/>
      </g>
      <g>
        <path class="cls-3" d="M43.51,81.81c.01.09.04.17.09.25.04.08.1.14.17.2.07.06.14.1.22.13s.17.05.26.05c.1,0,.2-.02.29-.06.09-.04.17-.09.24-.16.03-.03.06-.04.09-.04s.07.01.09.04.04.06.04.09-.01.07-.04.09c-.09.1-.2.18-.31.22s-.25.07-.4.07c-.14,0-.27-.03-.39-.08s-.23-.12-.32-.21c-.09-.09-.17-.2-.22-.32-.05-.12-.08-.26-.08-.4s.03-.27.08-.39.12-.23.21-.32c.09-.09.2-.16.32-.22.12-.05.26-.08.4-.09.13,0,.26.03.38.08.12.05.22.12.32.21.09.09.17.19.22.31.05.12.08.25.09.39,0,.05,0,.08-.04.11-.03.03-.06.04-.09.04h-1.63ZM44.25,80.94c-.09,0-.18.02-.26.05-.08.03-.16.08-.22.13-.07.05-.12.12-.16.19s-.07.16-.09.24h1.48c-.02-.09-.05-.17-.09-.24-.04-.08-.1-.14-.17-.19-.07-.05-.14-.1-.22-.13-.08-.03-.17-.05-.26-.05Z"/>
        <path class="cls-40" d="M44.25,82.74c-.14,0-.28-.03-.41-.08-.13-.05-.24-.13-.33-.22-.1-.09-.17-.21-.23-.33-.06-.13-.08-.27-.08-.42s.03-.28.08-.41c.05-.13.13-.24.22-.33.09-.09.21-.17.34-.23.13-.06.27-.09.42-.09h0c.14,0,.27.03.4.08.12.05.23.13.33.22.1.09.17.2.23.33.06.12.09.26.09.4,0,.07-.02.12-.05.14-.04.03-.08.05-.12.05h-1.57c.02.07.04.13.07.18.04.07.09.13.16.19.06.05.13.09.21.12.17.06.36.06.52,0,.08-.04.16-.09.23-.15.07-.07.18-.07.25,0,.03.03.05.08.05.12s-.02.09-.05.12c-.09.11-.21.18-.33.23-.12.05-.26.07-.42.07ZM44.26,80.72c-.14,0-.27.03-.39.09-.12.05-.22.12-.31.21-.09.09-.16.19-.2.3-.05.12-.07.24-.07.37s.03.27.08.39c.05.12.12.22.21.3.09.08.19.15.31.2.12.05.24.07.38.07.15,0,.27-.02.39-.06.11-.04.21-.11.29-.21.02-.02.03-.04.03-.06s0-.04-.03-.06c-.03-.03-.09-.03-.12,0-.07.07-.16.13-.25.17-.18.08-.4.08-.59,0-.09-.03-.17-.08-.24-.14-.07-.06-.13-.13-.17-.21-.05-.08-.08-.17-.09-.26v-.05s1.67,0,1.67,0c.02,0,.04,0,.07-.03.01,0,.03-.03.02-.07,0-.13-.03-.26-.09-.37-.05-.11-.12-.22-.21-.3-.09-.09-.19-.15-.3-.21-.11-.05-.23-.08-.36-.08ZM45.04,81.6h-1.59v-.05c.03-.09.06-.18.11-.26.05-.08.1-.15.17-.21.07-.06.15-.1.23-.14.17-.07.38-.07.56,0,.09.03.17.08.23.14s.13.13.18.21c.05.08.08.17.1.26v.05ZM43.57,81.51h1.37c-.02-.06-.04-.12-.07-.18-.04-.07-.09-.13-.16-.18-.06-.05-.13-.09-.21-.12-.15-.06-.34-.06-.49,0-.08.03-.15.07-.21.12-.06.05-.11.11-.15.18-.03.06-.06.12-.07.18Z"/>
      </g>
      <g>
        <path class="cls-4" d="M48.08,82.7s-.07-.01-.09-.04-.04-.06-.04-.09v-1.15c0-.07-.01-.13-.04-.19-.03-.06-.06-.11-.11-.16-.04-.04-.1-.08-.16-.1-.06-.03-.12-.04-.19-.04s-.13.01-.19.04c-.06.03-.11.06-.16.1-.04.04-.08.09-.1.15-.03.06-.04.12-.04.18v1.17s-.01.07-.04.09c-.03.03-.06.04-.09.04s-.07-.01-.09-.04c-.03-.03-.04-.06-.04-.09v-1.78s.01-.07.04-.09c.03-.03.06-.04.09-.04s.07.01.09.04c.03.03.04.06.04.09v.05c.06-.06.14-.1.22-.13s.17-.05.27-.05c.1,0,.2.02.29.06.09.04.17.09.24.16.07.07.12.15.16.24.04.09.06.19.06.29v1.15s-.01.07-.04.09c-.03.03-.06.04-.09.04Z"/>
        <path class="cls-25" d="M48.08,82.75s-.09-.02-.12-.05c-.03-.03-.05-.08-.05-.12v-1.15c0-.06-.01-.12-.04-.17-.02-.05-.06-.1-.1-.14-.04-.04-.09-.07-.14-.1-.11-.05-.24-.05-.35,0-.05.02-.1.05-.14.09-.04.04-.07.08-.09.13-.02.05-.04.11-.04.17v1.17s-.02.09-.05.12c-.07.07-.18.07-.25,0-.03-.03-.05-.08-.05-.12v-1.78s.02-.09.05-.12c.07-.07.18-.07.25,0,.03.03.04.06.05.09.05-.03.11-.06.16-.09.18-.07.41-.07.59,0,.1.04.18.1.25.17.07.07.13.16.17.25.04.1.06.2.06.31v1.15s-.02.09-.05.12c-.03.03-.07.05-.12.05ZM47.46,80.89c.07,0,.14.01.21.04.06.03.12.07.17.11.05.05.09.11.12.17.03.07.04.14.04.21v1.15s0,.04.03.06c.03.03.09.03.12,0,.02-.02.03-.04.03-.06v-1.15c0-.1-.02-.19-.06-.28-.04-.09-.09-.16-.15-.23s-.14-.12-.23-.15c-.17-.07-.37-.07-.53,0-.08.03-.15.07-.21.13l-.07.06v-.15s0-.04-.03-.06c-.03-.03-.09-.03-.12,0-.02.02-.02.04-.02.06v1.78s0,.04.03.06c.03.03.09.03.12,0,.02-.02.02-.04.02-.06v-1.17c0-.07.02-.14.05-.2.03-.06.07-.12.11-.16.05-.05.1-.08.17-.11.06-.03.13-.04.21-.04Z"/>
      </g>
      <g>
        <path class="cls-7" d="M49.87,80.92h-.28s-.07-.01-.09-.04c-.03-.03-.04-.06-.04-.09s.01-.07.04-.09c.03-.03.06-.04.09-.04h.28v-.51s.01-.07.04-.09c.02-.03.06-.04.09-.04s.07.01.09.04.04.06.04.09v.51h.28s.07.01.09.04c.03.03.04.06.04.09s-.01.07-.04.09c-.03.03-.06.04-.09.04h-.28v1.65s-.01.07-.04.09c-.03.03-.06.04-.09.04s-.07-.01-.09-.04c-.03-.03-.04-.06-.04-.09v-1.65Z"/>
        <path class="cls-22" d="M50,82.75s-.09-.02-.12-.05c-.03-.03-.05-.07-.05-.12v-1.6h-.24s-.09-.02-.12-.05c-.03-.03-.05-.08-.05-.12s.02-.09.05-.12c.03-.03.08-.05.12-.05h.24v-.47s.02-.09.05-.12c.07-.07.18-.07.24,0,.03.03.05.07.05.12v.47h.24s.09.02.12.05c.03.03.05.08.05.12s-.02.09-.05.12c-.03.03-.08.05-.12.05h-.23v1.6s-.02.09-.05.12c-.03.03-.08.05-.12.05ZM49.59,80.71s-.05,0-.06.03c-.02.02-.02.04-.02.06s0,.04.03.06.04.03.06.03h.32v1.69s0,.04.02.06c.03.03.09.03.12,0,.02-.02.02-.04.02-.06v-1.69h.32s.04,0,.06-.03.03-.04.03-.06,0-.04-.03-.06c-.02-.02-.04-.02-.06-.02h-.32v-.55s0-.04-.02-.06c-.03-.03-.09-.03-.12,0-.02.02-.02.04-.02.06v.55h-.32Z"/>
      </g>
      <g>
        <path class="cls-18" d="M55.32,80.86s-.01-.07,0-.1c.01-.04.04-.06.07-.08.03-.01.07-.01.1,0s.06.04.07.07l.09.25.1-.25s.04-.05.07-.07c.03-.01.07-.01.1,0,.03.01.06.04.07.07s.01.07,0,.1c0,0,0,.01-.01.03,0,.02-.02.05-.03.09-.02.04-.04.09-.06.16-.03.07-.06.15-.09.25l.32.86.57-1.48s.03-.05.07-.07c.03-.01.07-.01.1,0,.03.01.06.04.07.07.01.03.01.07,0,.1,0,0-.01.03-.03.09-.02.05-.05.14-.1.27-.05.13-.12.31-.2.53-.09.23-.19.51-.33.86-.01.03-.03.06-.05.08-.02.02-.05.03-.09.03s-.07-.01-.09-.04c-.02-.02-.04-.05-.05-.07-.06-.17-.12-.33-.17-.47-.05-.14-.1-.27-.14-.39-.04.11-.09.24-.14.38-.05.14-.12.3-.18.47-.01.03-.03.06-.05.08-.02.02-.05.03-.09.03s-.07-.01-.09-.04-.04-.05-.05-.07c-.12-.32-.22-.59-.3-.81s-.15-.4-.2-.54-.09-.24-.11-.3c-.02-.06-.03-.09-.03-.09-.01-.03-.02-.07,0-.1.01-.04.03-.06.06-.08.04-.02.07-.02.11,0,.03.02.06.04.07.07l.54,1.48.33-.87c-.07-.18-.12-.31-.14-.38-.03-.08-.04-.12-.04-.12Z"/>
        <path class="cls-38" d="M56.1,82.75c-.05,0-.09-.02-.12-.05-.03-.03-.05-.06-.06-.08l-.17-.47c-.04-.1-.07-.19-.1-.27-.03.08-.07.17-.1.27-.05.14-.12.3-.18.47-.01.04-.03.07-.06.09-.06.06-.18.06-.25,0-.03-.03-.05-.06-.06-.08-.12-.32-.22-.59-.3-.81l-.31-.83c-.02-.06-.03-.08-.03-.1-.02-.04-.02-.09,0-.13.01-.05.04-.08.09-.1.05-.02.1-.02.15,0,.04.02.07.05.09.09l.51,1.38.28-.74c-.06-.17-.11-.29-.14-.37-.03-.08-.04-.11-.05-.13-.02-.04-.02-.09,0-.13.02-.05.05-.08.09-.1.05-.02.09-.02.14,0,.04.02.07.05.09.09l.05.15.05-.14s.05-.07.09-.09c.05-.02.09-.02.13,0,.04.02.08.05.09.1.02.04.02.08,0,.12,0,0,0,.02-.01.03l-.09.25c-.02.06-.05.14-.09.23l.27.74.52-1.38s.05-.07.09-.09c.05-.02.09-.02.13,0,.04.02.08.05.09.1.02.04.02.09,0,.13,0,0-.01.04-.03.08-.02.05-.05.14-.1.27-.05.13-.12.31-.2.53-.09.23-.2.51-.33.86-.01.04-.03.07-.06.09-.03.03-.07.04-.12.04ZM55.64,81.61l.04.11c.04.12.09.25.14.39l.17.47s.02.03.04.05c.03.03.1.03.12,0,.02-.01.03-.03.04-.06.13-.35.24-.63.33-.86.09-.22.15-.4.2-.53.05-.13.08-.22.1-.27.02-.06.03-.09.03-.09,0-.02,0-.04,0-.06,0-.02-.02-.04-.05-.05-.02,0-.04,0-.07,0-.03.01-.04.03-.04.04l-.61,1.59-.36-.98v-.02c.04-.1.07-.18.1-.25l.09-.25s0-.02,0-.02h0s0-.05,0-.07c0-.02-.02-.04-.05-.05-.02,0-.04,0-.06,0-.02,0-.04.02-.05.04l-.14.36-.13-.36s-.02-.03-.05-.04c-.02-.01-.04-.01-.06,0-.02,0-.03.03-.04.05,0,.03,0,.05,0,.07h0s.01.04.04.12c.03.08.08.21.14.38v.02s0,.02,0,.02l-.37.98-.58-1.59s-.03-.03-.05-.05c-.01,0-.03-.02-.07,0-.02,0-.03.02-.04.05,0,.03,0,.05,0,.08v.02h0s.01.03.03.08l.31.83c.08.22.18.49.3.81,0,.02.02.03.04.05.03.03.1.03.12,0,.02-.02.03-.03.04-.06.07-.18.13-.33.18-.47.05-.14.1-.27.14-.38l.04-.11Z"/>
      </g>
      <g>
        <path class="cls-19" d="M58.32,80.2s.02-.09.05-.12.07-.05.12-.05.09.02.12.05.05.07.05.12-.02.09-.05.12-.07.05-.12.05-.09-.02-.12-.05-.05-.07-.05-.12ZM58.36,80.79s.01-.07.04-.09c.03-.03.06-.04.09-.04s.07.01.09.04c.03.03.04.06.04.09v1.78s-.01.07-.04.09c-.03.03-.06.04-.09.04s-.07-.01-.09-.04c-.03-.03-.04-.06-.04-.09v-1.78Z"/>
        <path class="cls-39" d="M58.49,82.75s-.09-.02-.12-.05c-.03-.03-.05-.08-.05-.12v-1.78s.02-.09.05-.12c.07-.07.18-.07.25,0,.03.03.05.08.05.12v1.78s-.02.09-.05.12c-.03.03-.08.05-.12.05ZM58.49,80.71s-.04,0-.06.02c-.02.02-.02.04-.02.06v1.78s0,.04.03.06c.03.03.09.03.12,0,.02-.02.02-.04.02-.06v-1.78s0-.04-.03-.06c-.02-.02-.04-.02-.06-.02ZM58.49,80.41c-.06,0-.11-.02-.15-.06s-.06-.09-.06-.15.02-.11.06-.15c.08-.08.22-.08.3,0,.04.04.06.09.06.15s-.02.11-.06.15-.09.06-.15.06ZM58.49,80.07s-.07.01-.09.04-.04.05-.04.09.01.07.04.09c.05.05.13.05.18,0,.03-.03.04-.05.04-.09s-.01-.07-.04-.09-.05-.04-.09-.04Z"/>
      </g>
      <g>
        <path class="cls-33" d="M60.41,80.92h-.28s-.07-.01-.09-.04c-.03-.03-.04-.06-.04-.09s.01-.07.04-.09c.03-.03.06-.04.09-.04h.28v-.51s.01-.07.04-.09c.02-.03.06-.04.09-.04s.07.01.09.04.04.06.04.09v.51h.28s.07.01.09.04c.03.03.04.06.04.09s-.01.07-.04.09c-.03.03-.06.04-.09.04h-.28v1.65s-.01.07-.04.09c-.03.03-.06.04-.09.04s-.07-.01-.09-.04c-.03-.03-.04-.06-.04-.09v-1.65Z"/>
        <path class="cls-45" d="M60.54,82.75s-.09-.02-.12-.05c-.03-.03-.05-.07-.05-.12v-1.6h-.24s-.09-.02-.12-.05c-.03-.03-.05-.08-.05-.12s.02-.09.05-.12c.03-.03.08-.05.12-.05h.24v-.47s.02-.09.05-.12c.07-.07.18-.07.24,0,.03.03.05.07.05.12v.47h.24s.09.02.12.05c.03.03.05.08.05.12s-.02.09-.05.12c-.03.03-.08.05-.12.05h-.23v1.6s-.02.09-.05.12c-.03.03-.08.05-.12.05ZM60.14,80.71s-.05,0-.06.03c-.02.02-.02.04-.02.06s0,.04.03.06.04.03.06.03h.32v1.69s0,.04.02.06c.03.03.09.03.12,0,.02-.02.02-.04.02-.06v-1.69h.32s.04,0,.06-.03.03-.04.03-.06,0-.04-.03-.06c-.02-.02-.04-.02-.06-.02h-.32v-.55s0-.04-.02-.06c-.03-.03-.09-.03-.12,0-.02.02-.02.04-.02.06v.55h-.32Z"/>
      </g>
      <g>
        <path class="cls-43" d="M63.81,82.7s-.07-.01-.09-.04c-.03-.03-.04-.06-.04-.09v-1.14c0-.07-.01-.13-.04-.19s-.06-.11-.11-.16-.1-.08-.16-.1c-.06-.03-.12-.04-.19-.04s-.13.01-.19.04-.11.06-.16.1c-.04.04-.08.09-.1.15s-.04.12-.04.18v1.17s-.01.07-.04.09c-.02.02-.06.04-.09.04-.04,0-.07-.01-.09-.04-.02-.03-.04-.06-.04-.09v-2.42s.01-.07.04-.09.06-.04.09-.04.07.01.09.04.04.06.04.09v.7c.06-.06.14-.1.22-.13.08-.03.17-.05.27-.05.1,0,.2.02.29.06.09.04.17.09.24.16s.12.15.16.24c.04.09.06.19.06.29v1.14s-.01.07-.04.09-.06.04-.09.04Z"/>
        <path class="cls-41" d="M63.81,82.75s-.09-.02-.12-.05c-.03-.03-.05-.07-.05-.12v-1.14c0-.06-.01-.12-.04-.17-.02-.05-.06-.1-.1-.14s-.09-.07-.14-.1c-.11-.05-.24-.05-.35,0-.05.02-.1.05-.14.09-.04.04-.07.08-.09.13-.02.05-.04.11-.04.17v1.16c0,.05-.02.09-.05.13-.06.06-.18.07-.25,0-.03-.03-.05-.07-.05-.12v-2.42s.02-.09.05-.12c.07-.07.18-.07.25,0,.03.03.05.08.05.12v.62s.1-.06.16-.09c.18-.07.41-.07.59,0,.1.04.18.1.25.17.07.07.13.16.17.25.04.1.06.2.06.31v1.14s-.02.09-.05.12c-.03.03-.08.05-.12.05ZM63.18,80.89c.07,0,.14.01.21.04.07.03.12.07.17.11.05.05.09.11.12.17.03.07.04.14.04.21v1.14s0,.04.02.06c.03.03.09.03.12,0,.02-.02.03-.04.03-.06v-1.14c0-.1-.02-.19-.06-.28-.04-.09-.09-.16-.15-.23-.06-.06-.14-.12-.23-.15-.17-.07-.36-.07-.53,0-.08.03-.15.07-.21.13l-.07.06v-.8s0-.04-.03-.06c-.03-.03-.09-.03-.12,0-.02.02-.03.04-.03.06v2.42s.01.04.03.06c.03.03.09.03.12,0,.02-.02.02-.04.02-.06v-1.17c0-.07.02-.14.05-.2s.07-.12.11-.16c.05-.05.11-.08.17-.11.06-.03.13-.04.21-.04Z"/>
      </g>
      <g>
        <path class="cls-13" d="M68.1,81.46v1.11s-.01.07-.04.09c-.03.03-.06.04-.09.04s-.07-.01-.09-.04-.04-.06-.04-.09v-2.41s.01-.07.04-.09.06-.04.09-.04h.68c.1,0,.19.02.28.06s.16.09.23.15c.07.07.12.14.16.23.04.09.06.18.06.28s-.02.19-.06.28c-.04.09-.09.16-.16.23s-.14.12-.23.15-.18.06-.28.06h-.55ZM68.65,81.2c.06,0,.12-.01.18-.04.06-.02.1-.06.15-.1.04-.04.07-.09.1-.14.02-.05.04-.11.04-.18s-.01-.12-.04-.18c-.02-.06-.06-.1-.1-.15s-.09-.07-.15-.1c-.06-.02-.11-.04-.18-.04h-.55v.91h.55Z"/>
        <path class="cls-24" d="M67.97,82.75s-.09-.02-.12-.05c-.03-.03-.05-.08-.05-.12v-2.41s.02-.09.05-.12c.03-.04.08-.05.12-.05h.68c.11,0,.21.02.3.06.09.04.17.09.24.16s.12.15.16.24c.04.09.06.19.06.29s-.02.2-.06.3c-.04.09-.1.17-.16.24-.07.07-.15.12-.24.16-.09.04-.19.06-.3.06h-.51v1.07s-.02.09-.05.12c-.03.03-.07.05-.12.05ZM67.97,80.07s-.04,0-.06.03c-.02.02-.03.04-.03.06v2.41s0,.04.03.06c.03.03.09.03.12,0,.02-.02.03-.04.03-.06v-1.16h.6c.09,0,.18-.02.26-.05.08-.04.15-.08.22-.14.06-.06.11-.13.15-.21.04-.08.05-.17.05-.26s-.02-.18-.05-.26c-.04-.08-.08-.15-.15-.22-.06-.06-.13-.11-.22-.15-.08-.04-.17-.05-.26-.05h-.68ZM68.65,81.24h-.6v-1h.6c.07,0,.13.01.19.04.06.03.11.06.16.11s.08.1.11.16c.03.06.04.13.04.19s-.01.14-.04.2c-.03.06-.06.11-.11.16-.05.05-.1.08-.16.11s-.13.04-.19.04ZM68.14,81.15h.51c.06,0,.11-.01.16-.03.05-.02.09-.05.13-.09.04-.04.07-.08.09-.13.02-.05.03-.1.03-.16s-.01-.11-.03-.16c-.02-.05-.05-.1-.09-.13-.04-.04-.08-.07-.13-.09s-.1-.03-.16-.03h-.51v.83Z"/>
      </g>
      <g>
        <path class="cls-5" d="M70.94,80.67s.07.01.09.04c.03.03.04.06.04.09v1.15c0,.07.01.13.04.19.03.06.06.11.11.16.04.04.1.08.16.1.06.03.12.04.19.04s.13-.01.19-.04.11-.06.15-.1.08-.09.1-.15c.03-.06.04-.12.04-.18v-1.17s.01-.07.04-.09c.03-.03.06-.04.09-.04s.07.01.09.04c.03.03.04.06.04.09v1.77s-.01.07-.04.09c-.03.03-.06.04-.09.04s-.07-.01-.09-.04-.04-.06-.04-.09v-.05c-.06.06-.14.1-.22.13-.08.03-.17.05-.27.05-.1,0-.2-.02-.29-.06-.09-.04-.17-.09-.24-.16-.07-.07-.12-.15-.16-.24-.04-.09-.06-.19-.06-.29v-1.15s.01-.07.04-.09c.03-.03.06-.04.09-.04Z"/>
        <path class="cls-14" d="M72.18,82.75s-.09-.02-.12-.05c-.03-.03-.04-.06-.05-.09-.05.03-.11.06-.17.09-.18.07-.41.07-.59,0-.1-.04-.18-.1-.25-.17-.07-.07-.13-.16-.17-.25-.04-.1-.06-.2-.06-.31v-1.15s.02-.09.05-.12c.07-.07.18-.07.25,0,.03.03.05.07.05.12v1.15c0,.06.01.12.04.17.02.06.06.1.1.14s.09.07.14.1c.11.05.24.05.35,0,.05-.02.1-.05.14-.09.04-.04.07-.08.1-.14.02-.05.04-.11.04-.17v-1.17s.02-.09.05-.12c.07-.07.18-.07.25,0,.03.03.05.07.05.12v1.77s-.02.09-.05.12c-.03.03-.07.05-.12.05ZM72.1,82.42v.15s0,.04.03.06c.03.03.09.03.12,0,.02-.02.03-.04.03-.06v-1.77s0-.04-.02-.06c-.03-.03-.09-.03-.12,0-.02.02-.03.04-.03.06v1.17c0,.07-.02.14-.05.2-.03.06-.07.12-.11.16-.05.05-.1.08-.17.11-.13.05-.28.05-.41,0-.06-.03-.12-.07-.17-.11-.05-.05-.09-.11-.12-.17s-.04-.13-.04-.21v-1.15s0-.04-.03-.06c-.03-.03-.09-.03-.12,0-.02.02-.03.04-.03.06v1.15c0,.1.02.19.06.28.04.09.09.16.15.23.06.06.14.12.23.15.17.07.36.07.53,0,.08-.03.15-.07.21-.13l.07-.06Z"/>
      </g>
      <g>
        <path class="cls-23" d="M73.75,80.79s.01-.07.04-.09c.03-.03.06-.04.09-.04s.07.01.09.04.04.06.04.09v.21c.09-.1.2-.18.32-.24.13-.06.26-.09.41-.09.04,0,.08.01.11.04.03.03.04.06.04.09s-.01.07-.04.09c-.03.03-.06.04-.11.04-.1,0-.19.02-.28.06s-.16.09-.23.16c-.07.06-.12.14-.16.23s-.06.18-.07.28v.93s-.01.07-.04.09c-.03.03-.06.04-.09.04s-.07-.01-.09-.04-.04-.06-.04-.09v-1.78Z"/>
        <path class="cls-34" d="M73.88,82.75s-.09-.02-.12-.05c-.03-.03-.05-.08-.05-.12v-1.78s.02-.09.05-.12c.07-.07.18-.07.25,0,.03.03.05.08.05.12v.1c.08-.07.16-.13.26-.17.13-.06.28-.1.43-.1.06,0,.1.02.14.05.04.03.05.08.05.12s-.02.09-.05.12c-.04.03-.08.05-.14.05-.09,0-.18.02-.26.06-.08.04-.15.09-.22.15-.06.06-.11.13-.15.21-.04.08-.06.17-.06.26v.92s-.02.09-.05.12c-.03.03-.07.05-.12.05ZM73.88,80.71s-.04,0-.06.02c-.02.02-.03.04-.03.06v1.78s0,.04.03.06c.03.03.09.03.12,0,.02-.02.03-.04.03-.06v-.93c0-.1.03-.2.07-.3.04-.09.1-.17.17-.24.07-.07.15-.12.24-.16.09-.04.19-.06.3-.07.03,0,.06,0,.08-.03.02-.02.03-.04.03-.06s0-.04-.03-.06-.04-.03-.08-.03c-.14,0-.27.03-.39.09-.12.06-.22.13-.31.23l-.08.09v-.32s0-.04-.03-.06c-.02-.02-.04-.02-.06-.02Z"/>
      </g>
      <g>
        <path class="cls-48" d="M76.27,80.2s.02-.09.05-.12.07-.05.12-.05.09.02.12.05.05.07.05.12-.02.09-.05.12-.07.05-.12.05-.09-.02-.12-.05-.05-.07-.05-.12ZM76.32,80.79s.01-.07.04-.09c.03-.03.06-.04.09-.04s.07.01.09.04c.03.03.04.06.04.09v1.78s-.01.07-.04.09c-.03.03-.06.04-.09.04s-.07-.01-.09-.04c-.03-.03-.04-.06-.04-.09v-1.78Z"/>
        <path class="cls-1" d="M76.45,82.75s-.09-.02-.12-.05c-.03-.03-.05-.08-.05-.12v-1.78s.02-.09.05-.12c.07-.07.18-.07.25,0,.03.03.05.08.05.12v1.78s-.02.09-.05.12c-.03.03-.08.05-.12.05ZM76.45,80.71s-.04,0-.06.02c-.02.02-.02.04-.02.06v1.78s0,.04.03.06c.03.03.09.03.12,0,.02-.02.02-.04.02-.06v-1.78s0-.04-.03-.06c-.02-.02-.04-.02-.06-.02ZM76.45,80.41c-.06,0-.11-.02-.15-.06s-.06-.09-.06-.15.02-.11.06-.15c.08-.08.22-.08.3,0,.04.04.06.09.06.15s-.02.11-.06.15-.09.06-.15.06ZM76.45,80.07s-.07.01-.09.04-.04.05-.04.09.01.07.04.09c.05.05.13.05.18,0,.03-.03.04-.05.04-.09s-.01-.07-.04-.09-.05-.04-.09-.04Z"/>
      </g>
      <g>
        <path class="cls-30" d="M78.37,80.92h-.28s-.07-.01-.09-.04c-.03-.03-.04-.06-.04-.09s.01-.07.04-.09c.03-.03.06-.04.09-.04h.28v-.51s.01-.07.04-.09c.02-.03.06-.04.09-.04s.07.01.09.04.04.06.04.09v.51h.28s.07.01.09.04c.03.03.04.06.04.09s-.01.07-.04.09c-.03.03-.06.04-.09.04h-.28v1.65s-.01.07-.04.09c-.03.03-.06.04-.09.04s-.07-.01-.09-.04c-.03-.03-.04-.06-.04-.09v-1.65Z"/>
        <path class="cls-16" d="M78.5,82.75s-.09-.02-.12-.05c-.03-.03-.05-.07-.05-.12v-1.6h-.24s-.09-.02-.12-.05c-.03-.03-.05-.08-.05-.12s.02-.09.05-.12c.03-.03.08-.05.12-.05h.24v-.47s.02-.09.05-.12c.07-.07.18-.07.24,0,.03.03.05.07.05.12v.47h.24s.09.02.12.05c.03.03.05.08.05.12s-.02.09-.05.12c-.03.03-.08.05-.12.05h-.23v1.6s-.02.09-.05.12c-.03.03-.08.05-.12.05ZM78.09,80.71s-.05,0-.06.03c-.02.02-.02.04-.02.06s0,.04.03.06.04.03.06.03h.32v1.69s0,.04.02.06c.03.03.09.03.12,0,.02-.02.02-.04.02-.06v-1.69h.32s.04,0,.06-.03.03-.04.03-.06,0-.04-.03-.06c-.02-.02-.04-.02-.06-.02h-.32v-.55s0-.04-.02-.06c-.03-.03-.09-.03-.12,0-.02.02-.02.04-.02.06v.55h-.32Z"/>
      </g>
      <g>
        <path class="cls-15" d="M81.72,80.74s.04-.05.07-.07c.03-.01.07-.01.1,0,.03.01.06.04.07.07.01.03.01.07,0,.1l-.96,2.53s-.04.06-.07.07c-.03.02-.06.02-.1,0-.03-.01-.06-.04-.07-.07s-.02-.07,0-.1l.25-.68h0c-.12-.33-.22-.6-.3-.82-.08-.22-.15-.4-.2-.54-.05-.14-.09-.23-.11-.3s-.03-.09-.03-.1c-.01-.03-.02-.07,0-.1.01-.03.03-.06.06-.07.04-.01.08-.01.11,0,.03.02.06.04.07.07l.55,1.49.57-1.49Z"/>
        <path class="cls-9" d="M80.88,83.51s-.04,0-.06-.01c-.04-.02-.08-.05-.1-.09-.02-.04-.02-.09,0-.13l.25-.67-.29-.8c-.08-.22-.15-.4-.2-.54-.05-.14-.09-.23-.11-.3-.02-.06-.03-.09-.03-.1-.02-.04-.02-.09,0-.13.02-.05.04-.08.09-.1.05-.02.1-.02.15,0,.04.02.07.05.09.09l.51,1.38.53-1.38s.05-.07.09-.09c.04-.02.09-.02.13,0,.04.02.08.05.09.1.02.04.02.09,0,.13l-.95,2.53s-.05.08-.09.1c-.02.01-.05.02-.07.02ZM80.42,80.85s.01.03.03.08c.02.06.06.16.11.29.05.14.12.31.2.54l.3.84v.02s-.25.68-.25.68c0,.02,0,.04,0,.06.01.02.03.04.05.05.02,0,.04,0,.06,0,.02-.01.04-.03.05-.05l.95-2.53s.01-.04,0-.07c0-.02-.02-.04-.05-.05-.02,0-.04,0-.06,0-.02,0-.04.02-.05.04l-.61,1.6-.59-1.6s-.02-.03-.04-.04c-.02-.01-.05-.01-.08,0-.02,0-.03.02-.04.05,0,.02,0,.05,0,.07v.02h0Z"/>
      </g>
    </g>
    <path class="cls-20" d="M69.68,41.8l-13.52-22.9c-1.89-3.2-6.52-3.21-8.43-.02l-13.64,22.9c-1.95,3.27.13,8,4.21,7.41,0,0,.03,0,.09-.03l4.28-5.6c.51-.67,1.52-.66,2.02.01l1.96,2.63,8.58-11.23c.51-.67,1.52-.66,2.02.01l3.99,5.35c.54.72,1.63.67,2.1-.1.46-.75,1.51-.82,2.07-.14l4.68,5.76c.46-1.27.39-2.73-.4-4.07Z"/>
    <g>
      <path class="cls-42" d="M21.05,68.11H7.76l-3.78,8.65c-.16.35-.42.61-.78.78-.36.17-.73.18-1.11.02s-.65-.42-.8-.78c-.16-.36-.16-.73,0-1.11l11.77-27.1c.09-.25.27-.5.52-.73.25-.24.54-.35.85-.35s.6.11.85.33c.25.22.44.47.57.76l11.68,27.1c.16.38.16.75,0,1.11-.16.36-.43.62-.8.78-.38.16-.75.15-1.11-.02-.36-.17-.62-.43-.78-.78l-3.78-8.65ZM9.04,65.18h10.73l-5.34-12.2-5.39,12.2Z"/>
      <path class="cls-28" d="M37.85,54.82c1.51,0,2.96.31,4.33.92,1.37.61,2.58,1.44,3.62,2.48,1.04,1.04,1.87,2.25,2.48,3.64.61,1.39.92,2.87.92,4.45v9.98c0,.41-.14.76-.43,1.04-.28.28-.63.43-1.04.43s-.76-.14-1.04-.43c-.28-.28-.43-.63-.43-1.04v-2.88c-1.04,1.17-2.29,2.17-3.76,3-1.47.84-3.05,1.25-4.75,1.25-1.58,0-3.05-.28-4.42-.85-1.37-.57-2.58-1.35-3.62-2.36-1.04-1.01-1.86-2.21-2.46-3.59-.6-1.39-.9-2.9-.9-4.54s.29-3.07.87-4.47c.58-1.4,1.39-2.62,2.41-3.66,1.02-1.04,2.24-1.86,3.64-2.46,1.4-.6,2.92-.9,4.56-.9ZM29.29,66.32c0,1.17.22,2.26.66,3.29.44,1.02,1.05,1.92,1.82,2.7.77.77,1.67,1.38,2.7,1.82,1.02.44,2.12.66,3.29.66s2.21-.21,3.22-.64c1.01-.43,1.9-1.02,2.67-1.77.77-.76,1.39-1.65,1.84-2.67.46-1.02.72-2.15.78-3.38,0-1.17-.22-2.27-.66-3.31-.44-1.04-1.05-1.95-1.82-2.72-.77-.77-1.68-1.38-2.72-1.82-1.04-.44-2.14-.66-3.31-.66s-2.26.22-3.29.66c-1.02.44-1.92,1.05-2.7,1.82-.77.77-1.38,1.68-1.82,2.72-.44,1.04-.66,2.14-.66,3.31Z"/>
      <path class="cls-44" d="M50.8,49.43c0-.54.19-.99.57-1.37.38-.38.83-.57,1.37-.57s.99.19,1.37.57.57.84.57,1.37-.19.99-.57,1.37c-.38.38-.84.57-1.37.57s-.99-.19-1.37-.57c-.38-.38-.57-.83-.57-1.37ZM51.27,56.2c0-.41.14-.76.43-1.04.28-.28.63-.43,1.04-.43s.76.14,1.04.43c.28.28.43.63.43,1.04v20.05c0,.41-.14.76-.43,1.04-.28.28-.63.43-1.04.43s-.76-.14-1.04-.43-.43-.63-.43-1.04v-20.05Z"/>
      <path class="cls-37" d="M55.88,56.86c-.16-.38-.17-.76-.05-1.16.13-.39.36-.67.71-.83.44-.16.85-.15,1.23.02.38.17.63.42.76.73l6.15,16.79,6.38-16.79c.16-.35.43-.6.8-.76.38-.16.74-.16,1.09,0,.38.16.64.43.78.8.14.38.13.74-.02,1.09-.03.06-.15.39-.35.97-.21.58-.58,1.62-1.13,3.1-.55,1.48-1.31,3.49-2.27,6.03-.96,2.54-2.2,5.76-3.71,9.67-.13.35-.31.63-.54.85-.24.22-.58.33-1.02.33s-.8-.13-1.06-.4c-.27-.27-.45-.53-.54-.78-1.32-3.63-2.44-6.69-3.36-9.2-.91-2.51-1.65-4.52-2.22-6.05-.57-1.53-.98-2.64-1.23-3.33-.25-.69-.38-1.06-.38-1.09Z"/>
      <path class="cls-35" d="M84.23,54.82c1.51,0,2.96.31,4.33.92,1.37.61,2.58,1.44,3.62,2.48s1.87,2.25,2.48,3.64c.62,1.39.92,2.87.92,4.45s-.3,3-.9,4.37c-.6,1.37-1.41,2.58-2.44,3.62-1.02,1.04-2.23,1.86-3.62,2.46-1.39.6-2.88.9-4.49.9s-3.05-.28-4.42-.85c-1.37-.57-2.58-1.35-3.62-2.36-1.04-1.01-1.86-2.21-2.46-3.59-.6-1.39-.9-2.9-.9-4.54s.29-3.05.87-4.42c.58-1.37,1.39-2.57,2.41-3.59,1.02-1.02,2.24-1.84,3.64-2.46,1.4-.61,2.92-.95,4.56-1.02ZM75.68,66.32c0,1.17.22,2.26.66,3.29.44,1.02,1.05,1.92,1.82,2.7.77.77,1.67,1.38,2.7,1.82,1.02.44,2.12.66,3.29.66s2.27-.22,3.31-.66c1.04-.44,1.95-1.05,2.72-1.82.77-.77,1.38-1.67,1.82-2.7.44-1.02.66-2.12.66-3.29s-.22-2.27-.66-3.31c-.44-1.04-1.05-1.95-1.82-2.72-.77-.77-1.68-1.38-2.72-1.82-1.04-.44-2.14-.66-3.31-.66s-2.26.22-3.29.66c-1.02.44-1.92,1.05-2.7,1.82s-1.38,1.68-1.82,2.72c-.44,1.04-.66,2.14-.66,3.31Z"/>
    </g>
  </g>
  <text class="cls-49" transform="translate(92.75 55.3)"><tspan x="0" y="0">TM</tspan></text>
</svg>