<?xml version="1.0" encoding="UTF-8"?>
<svg id="Layer_1" data-name="Layer 1" xmlns="http://www.w3.org/2000/svg" version="1.1" xmlns:xlink="http://www.w3.org/1999/xlink" viewBox="0 0 100 100">
  <defs>
    <style>
      .cls-1 {
        fill: url(#linear-gradient-12);
      }

      .cls-1, .cls-2, .cls-3, .cls-4, .cls-5, .cls-6, .cls-7, .cls-8, .cls-9, .cls-10, .cls-11, .cls-12, .cls-13, .cls-14, .cls-15, .cls-16, .cls-17, .cls-18, .cls-19, .cls-20 {
        stroke-width: 0px;
      }

      .cls-2 {
        fill: #217c3d;
      }

      .cls-3 {
        fill: #1c6b36;
      }

      .cls-4 {
        fill: url(#linear-gradient);
      }

      .cls-5 {
        fill: #fec75e;
      }

      .cls-6 {
        fill: url(#linear-gradient-6);
      }

      .cls-7 {
        fill: #54aa53;
      }

      .cls-21 {
        fill: #f3ab34;
        font-family: Gilroy-Medium, Gilroy;
        font-size: 3.37px;
        font-weight: 500;
      }

      .cls-8 {
        fill: url(#linear-gradient-11);
      }

      .cls-9 {
        fill: url(#linear-gradient-5);
      }

      .cls-10 {
        fill: url(#linear-gradient-13);
      }

      .cls-11 {
        fill: #16743b;
      }

      .cls-22 {
        letter-spacing: .08em;
      }

      .cls-12 {
        fill: url(#linear-gradient-14);
      }

      .cls-13 {
        fill: #a3ce45;
      }

      .cls-23 {
        fill: #000;
        font-family: Gilroy-ExtraBold, Gilroy;
        font-size: 3.12px;
        font-weight: 700;
        letter-spacing: .02em;
      }

      .cls-14 {
        fill: url(#linear-gradient-7);
      }

      .cls-15 {
        fill: url(#linear-gradient-3);
      }

      .cls-16 {
        fill: url(#linear-gradient-9);
      }

      .cls-17 {
        fill: url(#linear-gradient-2);
        opacity: .7;
      }

      .cls-18 {
        fill: url(#linear-gradient-8);
      }

      .cls-24 {
        letter-spacing: .34em;
      }

      .cls-19 {
        fill: url(#linear-gradient-10);
      }

      .cls-20 {
        fill: url(#linear-gradient-4);
      }
    </style>
    <linearGradient id="linear-gradient" x1="47.85" y1="5.05" x2="47.85" y2="65" gradientUnits="userSpaceOnUse">
      <stop offset=".16" stop-color="#ecbc09"/>
      <stop offset=".42" stop-color="#ee8133"/>
      <stop offset=".66" stop-color="#f3ab34"/>
    </linearGradient>
    <linearGradient id="linear-gradient-2" x1="47.42" y1="36.89" x2="47.42" y2="51.16" xlink:href="#linear-gradient"/>
    <linearGradient id="linear-gradient-3" x1="-1.08" y1="74.05" x2="92.8" y2="74.05" gradientUnits="userSpaceOnUse">
      <stop offset=".02" stop-color="#fff342"/>
      <stop offset=".39" stop-color="#cddc2d"/>
      <stop offset=".65" stop-color="#71b84a"/>
      <stop offset="1" stop-color="#54aa53"/>
    </linearGradient>
    <linearGradient id="linear-gradient-4" x1="-.73" x2="93.15" xlink:href="#linear-gradient-3"/>
    <linearGradient id="linear-gradient-5" x1="-.4" y1="74.04" x2="93.48" y2="74.04" xlink:href="#linear-gradient-3"/>
    <linearGradient id="linear-gradient-6" x1="-.4" y1="74.04" x2="93.48" y2="74.04" xlink:href="#linear-gradient-3"/>
    <linearGradient id="linear-gradient-7" x1="-.4" x2="93.48" xlink:href="#linear-gradient-3"/>
    <linearGradient id="linear-gradient-8" x1="-.51" y1="74.05" x2="93.37" y2="74.05" xlink:href="#linear-gradient-3"/>
    <linearGradient id="linear-gradient-9" x1="-.12" y1="74.04" x2="93.76" y2="74.04" xlink:href="#linear-gradient-3"/>
    <linearGradient id="linear-gradient-10" x1="-.38" y1="74.14" x2="93.5" y2="74.14" xlink:href="#linear-gradient-3"/>
    <linearGradient id="linear-gradient-11" x1="-1.08" y1="78.97" x2="51.68" y2="78.97" xlink:href="#linear-gradient-3"/>
    <linearGradient id="linear-gradient-12" x1="-.15" y1="76.9" x2="93.73" y2="76.9" xlink:href="#linear-gradient-3"/>
    <linearGradient id="linear-gradient-13" x1="-.15" y1="78.88" x2="93.73" y2="78.88" xlink:href="#linear-gradient-3"/>
    <linearGradient id="linear-gradient-14" x1="-.15" y1="74.12" x2="93.73" y2="74.12" xlink:href="#linear-gradient-3"/>
  </defs>
  <g>
    <path class="cls-5" d="M25.34,39.65h44.92l-2.86-10.17-6.3-7.71s-11.01-2.9-11.15-2.99-9.84-.18-9.97,0-5.62,4.4-5.62,4.4l-6.71,8.07-3.13,7.57.82.83Z"/>
    <path class="cls-3" d="M29.17,56.93s.01.01.02.02c.11.11.21.23.32.34.29.27.61.5.91.75.06.05.11.09.15.12,0,0,0,0,.01.01.17.13.34.26.51.39.38.29.76.57,1.13.85.74.55,1.49,1.09,2.25,1.61,1.32.89,2.68,1.71,4.12,2.39.14.07.28.13.42.19-.01,0,.03.01.18.08.06.03.11.05.14.06.41.16.83.32,1.25.46.78.26,1.57.47,2.37.65.48.1.96.19,1.44.27.01,0,.06,0,.12.02.13.02.33.04.39.05.81.09,1.63.14,2.45.17.88.03,1.77.05,2.64.01.14,0,.27-.02.4-.03.07-.01.15-.02.19-.04.39-.11.78-.2,1.17-.32.78-.25,1.55-.54,2.32-.81.33-.11.65-.23.98-.36.04-.02.54-.25.67-.31,1.57-.77,3.03-1.71,4.51-2.64.75-.47,1.5-.95,2.23-1.46.36-.25.7-.51,1.06-.75.01,0,.02-.02.03-.02.13-.1.25-.2.38-.3,1.12-.91,2.22-1.85,3.37-2.73-.64-.21-1.28-.41-1.93-.58-1.47-.38-2.94-.73-4.44-.97-1.54-.25-3.1-.41-4.66-.53-2.7-.2-5.39,0-8.05.48-1.43.26-2.85.61-4.21,1.13-.33.13-.66.28-1.04.2-.41-.09-.82-.15-1.24-.19-1.47-.14-2.94-.31-4.42-.38-2.45-.13-4.9,0-7.34.24-.45.04-1.55.15-2.17.32.48.47.9,1.01,1.32,1.59Z"/>
    <path class="cls-7" d="M28.91,52.12c.7-.58,1.79-.77,2.33.11,0,0-.19.04-.19.04.31-2.32,2.46-3.76,4.72-3.49-2.17.22-3.96,1.33-4.52,3.52,0,0-.06.24-.06.24-.51-1.03-1.41-.95-2.29-.42h0Z"/>
    <path class="cls-13" d="M59.86,51.27c.32-.25.79-.27,1.17-.12.13.05.25.12.37.19l-.13.05c.14-.59.47-1.15.99-1.48.52-.33,1.17-.35,1.74-.19-1.26-.21-2.27.48-2.57,1.7,0,0-.03.12-.03.12-.43-.35-1.02-.53-1.54-.28h0Z"/>
    <path class="cls-11" d="M30.9,57.76c.56.49,1.12.98,1.67,1.48.27.24.55.48.83.72.16.13.32.26.48.39.01,0,.06.04.1.08.1.07.25.18.27.2.12.09.25.18.37.27.25.18.5.35.76.52.51.34,1.04.66,1.57.97.57.34,1.16.66,1.75.96.26.13.53.26.8.38.07.03.14.06.21.09.01,0,.02,0,.04.01,1.25.43,2.47.86,3.76,1.15.56.13,1.12.23,1.69.32-.1-.02.31.04.53.06.3.03.61.05.91.07,1.26.08,2.52.06,3.78-.06.04,0,.2-.02.32-.03.03,0,.05,0,.06,0,.3-.05.6-.1.9-.16.62-.12,1.24-.27,1.85-.45.66-.19,1.31-.41,1.95-.66.15-.06.3-.12.45-.17,0,0,.01,0,.03-.01-8.21-12.05-24.56-9.38-28.19-8.61,1.07.78,2.1,1.62,3.11,2.49Z"/>
    <polygon class="cls-11" points="32.76 54.81 32.76 52.71 34.95 50.54 37.13 52.75 37.13 54.78 32.76 54.81"/>
    <g>
      <rect class="cls-2" x="47.2" y="52.83" width=".47" height="1.66"/>
      <path class="cls-2" d="M47.43,50.17c-2.44,3.37,0,3.6,0,3.6,0,0,2.44-.24,0-3.6Z"/>
    </g>
    <g>
      <rect class="cls-2" x="55.9" y="52.61" width=".28" height="1.05"/>
      <path class="cls-2" d="M56.04,50.94c-1.54,2.12,0,2.27,0,2.27,0,0,1.54-.15,0-2.27Z"/>
    </g>
    <path class="cls-3" d="M47.77,65.9c-6.14,0-12.01-2.28-16.53-6.43-4.49-4.12-7.27-9.72-7.83-15.76l1.61-.15c1.09,11.81,10.87,20.72,22.74,20.72s21.65-8.91,22.74-20.72l1.61.15c-.56,6.04-3.34,11.64-7.83,15.76-4.52,4.15-10.39,6.43-16.52,6.43Z"/>
    <path class="cls-4" d="M72.56,39.65c0-13.65-11.06-24.71-24.71-24.71s-24.71,11.06-24.71,24.71h14.09l-9.58-3.32,10.15,1.04-8.77-5.6,9.77,3.46-7.4-7.45,9.01,5.64-5.5-8.82,7.3,7.3-3.42-9.87,5.45,8.8-1.04-10.27,3.46,9.82,1.23-10.39,1.14,10.48,3.37-9.96-1.09,10.34,5.45-8.63-3.37,9.82,7.3-7.45-5.45,8.87,8.82-5.64-7.35,7.45,9.87-3.51-8.87,5.6,10.25-1.19-9.72,3.46h14.32Z"/>
    <path class="cls-17" d="M42.23,40.24c-.06.1-.19.19-.29.2-.72.04-1.44.06-2.16.05-.77,0-1.55-.09-2.3.12-.16.04-.3.15-.44.23.01.03.02.06.04.09.11.04.21.09.33.1.84.08,1.69.15,2.53.24.3.03.6.1.83.35-.22.07-.45.13-.67.13-.75,0-1.51-.07-2.26-.05-.8.02-1.6.09-2.39.15-.1,0-.2.13-.29.19.11.07.22.19.34.21.38.05.76.07,1.14.09.59.03,1.17.05,1.76.09.12,0,.24.07.35.1,0,.04,0,.07,0,.11-.26.04-.53.1-.79.11-3.02.07-6.04.14-9.06.21-.36,0-.71.05-1.06.08-.04,0-.08.02-.12,0-.35-.14-.69-.02-1.03.05-.11.02-.21.07-.32.11,0,.04,0,.08.01.12.24.03.48.08.73.1.26.02.52,0,.78.01.46.02.93.05,1.39.06.12,0,.23-.03.35-.02.24.03.47.1.7.1,1.07.03,2.13.04,3.2.05,2.04.01,4.09.01,6.13.03.39,0,.78.04,1.16.11.15.03.28.19.42.29-.14.06-.28.16-.43.19-.5.08-1,.14-1.51.2-1.26.16-2.51.31-3.77.49-.37.05-.74.17-1.1.28-.08.02-.14.13-.21.19.08.04.16.11.24.12.61.05,1.23.11,1.84.13,1.43.05,2.85.07,4.28.1.17,0,.34.02.36.2.02.17-.09.29-.29.31-.37.05-.73.12-1.1.15-.58.04-1.17.05-1.76.08-.13,0-.26.07-.39.11,0,.03,0,.06-.01.09.13.07.25.18.38.21.75.12,1.5.27,2.25.33,1.62.12,3.24.18,4.86.29.46.03.91.14,1.36.21,0,.05,0,.1,0,.15-2.12.34-4.29.19-6.43.43.13.05.27.09.41.1,1.11.06,2.23.16,3.34.16,2.83,0,5.65-.03,8.48-.09.74-.01,1.47-.14,2.21-.23.1-.01.18-.1.34-.19-.15-.08-.23-.14-.31-.15-.86-.11-1.72-.23-2.58-.33-.81-.09-1.62-.13-2.42-.23-.94-.12-1.87-.27-2.8-.45-.45-.09-.88-.27-1.32-.43-.08-.03-.12-.15-.19-.22.1-.05.19-.14.29-.15.3-.02.61,0,.91,0,1.25.04,2.5.12,3.75.12,2.73-.02,5.46-.08,8.18-.12.34,0,.69.04,1.04.07-1,.29-2.09.07-3.05.56.15.05.3.08.45.08,2.24,0,4.48,0,6.72-.23.16-.02.32-.08.47-.12.06-.02.13-.06.19-.05.4.07.59-.19.81-.46-.07-.06-.13-.16-.2-.17-.43-.07-.86-.17-1.29-.18-.86-.03-1.72,0-2.58-.01-2.02-.04-4.05-.12-6.07-.16-1.14-.02-2.29,0-3.43-.02-.14,0-.28-.06-.42-.09,0-.04,0-.08-.01-.11.2-.1.39-.24.6-.28.74-.13,1.47-.28,2.22-.32,2.1-.12,4.2-.18,6.3-.29.65-.03,1.3-.14,1.94-.23.09-.01.17-.1.25-.15,0-.03-.02-.05-.03-.08-.11-.03-.21-.09-.32-.1-.41-.04-.82-.07-1.23-.08-1.52-.05-3.05-.07-4.57-.16-2.22-.13-4.44,0-6.65-.27-.3-.04-.59-.08-.88-.29.14-.09.24-.18.34-.21.36-.09.73-.21,1.1-.23,1.28-.07,2.56-.11,3.84-.16,1.74-.06,3.48-.12,5.22-.18.18,0,.35-.05.6-.08-.13-.09-.18-.15-.24-.16-.32-.07-.65-.13-.98-.18-.76-.12-1.52-.23-2.28-.36-.12-.02-.23-.15-.34-.22.12-.08.23-.22.36-.24.5-.08,1-.17,1.51-.17,2.77-.04,5.54-.04,8.3-.1.83-.02,1.65-.14,2.48-.23.08,0,.15-.08.22-.12-.05-.03-.09-.06-.14-.09h-26.12Z"/>
  </g>
  <g>
    <path class="cls-15" d="M4.32,69.17h2.8v.11c-.14.11-.26.09-.28.3-.01.04.13.33.14.37l3.86,8.34c.01.06.09.26.15.34.07.07.18.12.33.12v.18h-2.56v-.16l.24-.15-1.04-2.39H3.59l-.85,1.97c-.07.21-.08.12-.08.36l.2.14v.23H.56v-.2c.06,0,.23-.06.31-.17.06-.07.1-.21.14-.32l3.43-8.22s.14-.38.14-.39c.04-.16-.05-.21-.26-.3v-.16ZM4.17,74.72h3.01l-1.55-3.41-1.46,3.41Z"/>
    <path class="cls-20" d="M15.64,69.17h2.8v.11c-.14.11-.26.09-.28.3-.01.04.13.33.14.37l3.85,8.34c.01.06.1.26.15.34.07.07.18.12.33.12v.18h-2.56v-.16l.24-.15-1.04-2.39h-4.37l-.85,1.97c-.07.21-.08.12-.08.36l.2.14v.23h-2.29v-.2c.06,0,.23-.06.31-.17.06-.07.09-.21.14-.32l3.43-8.22s.14-.38.14-.39c.04-.16-.05-.21-.26-.3v-.16ZM15.49,74.72h3.01l-1.55-3.41-1.46,3.41Z"/>
    <path class="cls-9" d="M23.2,69.15h5.93c1.01,0,2.62.06,3.42,1.56.42.75.42,1.98-.08,2.83-.53.86-1.41,1.16-2.14,1.33l2.37,3.47c.3.41.19.32.59.46l-.02.14h-2.86v-.14l.21-.12s0-.05-.04-.12l-.08-.15-2.47-3.62h-2.61v3.41s-.01.31.01.36c.09.15.17.21.34.21v.17h-2.59v-.17c.14-.05.23.05.36-.15.02-.05.01-.36.01-.39v-8.24c-.02-.1-.01-.32-.01-.44-.08-.27-.15-.16-.36-.23v-.16ZM25.41,70.77v2.41h3.42c.34,0,1.6.15,2.06-.68.18-.31.18-.81-.02-1.14-.4-.68-1.83-.59-2.15-.59h-3.31Z"/>
    <path class="cls-6" d="M32.44,69.15h2.81l-.02.18-.15.06v.12l2.48,3.57,2.33-3.36c.08-.17.13-.17.13-.33l-.2-.11v-.14h2.62v.18c-.38.14-.39.14-.71.57l-3.23,4.79v3.57s0,.3.01.36c.07.18.12.12.28.18v.14h-2.47v-.14c.09,0,.21-.04.28-.18.02-.06.01-.31.02-.36v-3.35l-3.57-5.12c-.31-.43-.18-.32-.62-.46v-.18Z"/>
    <path class="cls-14" d="M44.47,69.17h2.8v.11c-.14.11-.26.09-.28.3-.01.04.13.33.14.37l3.85,8.34c.01.06.1.26.15.34.07.07.18.12.33.12v.18h-2.56v-.16l.24-.15-1.04-2.39h-4.37l-.85,1.97c-.07.21-.08.12-.08.36l.2.14v.23h-2.29v-.2c.06,0,.23-.06.31-.17.06-.07.09-.21.14-.32l3.43-8.22s.14-.38.14-.39c.04-.16-.05-.21-.26-.3v-.16ZM44.32,74.72h3.01l-1.55-3.41-1.46,3.41Z"/>
    <path class="cls-18" d="M60.16,73.76c.91.52,1.41.8,1.58,1.85.12.63.04,1.54-.5,2.2-.84,1.07-2.1,1.1-2.85,1.12h-6.33s0-.17,0-.17c.12,0,.24-.07.33-.21.02-.02.01-.3.01-.33v-8.27c0-.06.01-.27-.04-.36-.09-.15-.18-.18-.33-.23l.02-.21h6.3c.66,0,2.17.02,2.82,1.26.33.63.33,1.81,0,2.4-.24.42-.52.65-1.02.96ZM54.23,70.75v2.27h3.4c.26,0,1.54.09,1.86-.52.13-.26.21-.89.04-1.22-.33-.63-1.38-.53-1.83-.53h-3.48ZM54.24,77.25h3.49c.36,0,1.62.06,2.04-.65.24-.39.23-.98.02-1.35-.39-.73-2.08-.63-2.13-.63h-3.42v2.64Z"/>
    <path class="cls-16" d="M62.34,69.15h2.55l-.04.17c-.12,0-.18.02-.27.17-.05.09-.04.26-.04.33v3.14h5.8v-3.14s-.02-.31-.04-.33c-.12-.17-.19-.11-.33-.16v-.18h2.51v.18c-.17.05-.21-.02-.28.18-.02.06-.01.3-.01.36v8.22c0,.42,0,.44.44.64v.2h-2.54v-.23l.28-.18v-3.87h-5.79v3.5c0,.11-.01.28.04.38,0,.22.09.16.31.23v.17h-2.48v-.18c.08,0,.21-.05.3-.18.05-.07.04-.27.04-.34v-8.24c0-.11-.05-.33-.08-.43-.08-.21-.18-.2-.37-.27v-.14Z"/>
    <path class="cls-19" d="M94.57,69.96l.17.09-1.25,2.19-.17-.05c0-.23.09-.26-.12-.51-.06-.1-.2-.22-.49-.39-1.17-.69-3.51-.75-4.71-.14-1.11.58-1.57,1.44-1.7,2.46-.08.73.12,2.13,1.08,2.98,1.16,1.02,3.19,1.05,4.38.69.36-.11.71-.23,1.29-.68v-1.1h-2.41c-.13.04-.18.01-.25.18l-.02.17-.15-.02v-2.33l.14.02c.06.07.04.18.21.27h4.52v.2h-.09c-.18.11-.14.32-.14.46v2.66s.01.14.04.21l.23.12v.15c-.53.33-.65.39-.79.47l-.25.09c-2.35,1.08-5.39,1.48-7.51.04-1.6-1.1-2.09-2.68-2.08-4.09.01-1.43.42-2.89,2.13-4.03,2.04-1.33,5.05-1.12,7.16-.15l.18.07c.06.02.26.12.3.12.13,0,.19-.05.3-.17Z"/>
    <path class="cls-8" d="M75.43,78.94s0,.04,0,.04c0-.02,0-.03,0-.04Z"/>
    <g>
      <path class="cls-1" d="M77.28,79.03s.31-3.29,1.66-4.26c0,0-1.35.84-1.78,2.52.06.44.03.99-.24,1.66.12.03.24.06.36.09Z"/>
      <path class="cls-10" d="M76.92,78.94h0s0-.05-.02-.13c0,.06.01.1.02.13Z"/>
      <path class="cls-12" d="M82.91,70.99c-1.33-1.66-3.8-2.04-5.12-1.88-.75.09-1.29.22-1.96.55-1.72.87-2.4,2.15-2.6,3.76-.13,1.13.18,3.19,1.53,4.4.63.56,1.38.92,2.16,1.13-.24-1.86-1.18-2.32-1.18-2.32.85.88.82,1.85.82,1.85-.83.19-1.8-.39-2.1-1.46-.29-1.07-.76-1.54-.76-1.54,1.75-.28,2.62.19,3.04.73.02-.43.07-.82.18-1.12.66-1.69,1.95-2.71,6.52-2.71,0,0-.73.42-1.27,2.12-.55,1.7-.59,4.37-4.89,4.53,1.17.24,2.35.16,3.24-.11,1.64-.51,2.73-1.59,3.21-3.19.42-1.4.23-3.41-.83-4.74Z"/>
    </g>
  </g>
  <text class="cls-21" transform="translate(13.38 84.23)"><tspan class="cls-24" x="0" y="0">ENRICHED WITH NUTRIENT</tspan><tspan class="cls-22" x="66.11" y="0">S</tspan></text>
  <text class="cls-23" transform="translate(95.14 70.12)"><tspan x="0" y="0">TM</tspan></text>
</svg>