<?xml version="1.0" encoding="UTF-8"?>
<svg id="Layer_1" data-name="Layer 1" xmlns="http://www.w3.org/2000/svg" version="1.1" viewBox="0 0 100 100">
  <defs>
    <style>
      .cls-1, .cls-2 {
        fill: #9e459a;
      }

      .cls-1, .cls-2, .cls-3 {
        stroke-width: 0px;
      }

      .cls-2, .cls-3 {
        fill-rule: evenodd;
      }

      .cls-3 {
        fill: #5e5f5f;
      }
    </style>
  </defs>
  <path class="cls-3" d="M16.99,82.63v-.59c-1.36-.14-1.66-.36-2.33-2.17-1.39-3.59-2.73-7.24-4.08-10.87l-.73.18-4.4,10.69c-.75,1.82-1.04,1.96-2.4,2.17v.59h4.61v-.59c-1.58-.17-1.75-.41-1.3-1.65.26-.81.55-1.61.9-2.55h4.5c.45,1.17.82,2.2,1.12,3.01.28.83.1,1.01-1.21,1.19v.59h5.3ZM11.47,76.92h-3.84c.63-1.65,1.29-3.41,1.96-5.11h.04l1.84,5.11h0ZM29.31,72.39c-.1-1.03-.2-2.34-.22-3.08h-9.37v.6c1.61.11,1.79.23,1.79,2.04v8.01c0,1.81-.18,1.95-1.85,2.08v.59h5.9v-.59c-1.92-.14-2.1-.26-2.1-2.08v-3.56h2.1c1.91,0,2.03.22,2.28,1.65h.62v-4.04h-.6c-.26,1.34-.38,1.54-2.29,1.54h-2.1v-4.82c0-.62.05-.67.71-.67h1.53c1.56,0,2,.18,2.36.76.3.41.44.86.62,1.68l.63-.1h0ZM46.4,76.41h-5.53v.59c2.13.17,2.26.31,2.26,1.83v1.69c0,.79-.25,1.08-.7,1.32-.45.22-1.12.36-1.81.36-4.11,0-5.91-3.46-5.91-6.43,0-3.74,2.38-6.04,5.6-6.04,2.11,0,3.75.76,4.26,3.3l.61-.14c-.17-1.44-.26-2.57-.32-3.28-.71-.18-2.4-.63-4.22-.63-4.26,0-8.25,2.34-8.25,7.05,0,4.09,3.19,6.91,7.96,6.91,1.75,0,3.54-.48,4.87-.78-.12-.52-.14-1.18-.14-1.9v-1.72c0-1.25.07-1.35,1.32-1.55v-.59h0ZM64,69.31h-5.67v.6c1.67.14,1.84.25,1.84,1.98v3.22h-7.21v-3.22c0-1.74.17-1.84,1.8-1.98v-.6h-5.64v.6c1.74.14,1.89.23,1.89,1.98v8.15c0,1.74-.15,1.86-1.83,2v.59h5.7v-.59c-1.74-.14-1.91-.27-1.91-2v-4.01h7.21v4.01c0,1.74-.17,1.86-1.98,2v.59h5.81v-.59c-1.72-.14-1.91-.25-1.91-2v-8.15c0-1.74.17-1.84,1.91-1.98v-.6h0ZM79.74,82.63v-.59c-1.36-.14-1.66-.36-2.33-2.17-1.39-3.59-2.73-7.24-4.08-10.87l-.73.18-4.4,10.69c-.75,1.82-1.04,1.96-2.4,2.17v.59h4.61v-.59c-1.58-.17-1.75-.41-1.3-1.65.26-.81.55-1.61.89-2.55h4.5c.45,1.17.82,2.2,1.12,3.01.28.83.1,1.01-1.21,1.19v.59h5.3ZM74.21,76.92h-3.84c.63-1.65,1.29-3.41,1.96-5.11h.04l1.84,5.11h0ZM96.93,69.31h-5v.6c1.5.07,1.99.34,2.08,1.3.06.59.14,1.51.14,3.42v4.78h-.06l-8.91-10.1h-3.23v.6c.98.07,1.43.23,1.87.74.38.49.45.6.45,2.1v4.4c0,1.89-.09,2.86-.17,3.5-.1,1.02-.63,1.29-1.83,1.37v.59h5.01v-.59c-1.44-.11-1.91-.36-2.01-1.43-.06-.59-.14-1.56-.14-3.45v-5.01h.04l9.19,10.68h.67v-8.2c0-1.91.06-2.83.13-3.49.1-.94.6-1.18,1.77-1.23v-.6Z"/>
  <path class="cls-3" d="M18.35,89.35c-.09-.67-.14-1.09-.18-1.46-.39-.14-.87-.26-1.37-.26-1.38,0-2.21.85-2.21,1.88,0,1.13,1.01,1.65,1.75,2.02.81.42,1.38.78,1.38,1.52s-.45,1.21-1.23,1.21c-1.09,0-1.6-1.08-1.78-1.74l-.32.09c.06.5.22,1.44.29,1.64.11.05.26.13.52.22.27.09.62.17,1.06.17,1.45,0,2.39-.88,2.39-1.99s-.93-1.62-1.83-2.06c-.87-.41-1.35-.77-1.35-1.49,0-.56.38-1.12,1.17-1.12.89,0,1.22.75,1.4,1.41l.32-.06h0ZM30.49,94.5v-.3c-.68-.07-.83-.18-1.17-1.09-.7-1.81-1.38-3.65-2.05-5.47l-.37.09-2.21,5.38c-.38.92-.53.99-1.21,1.09v.3h2.32v-.3c-.8-.08-.88-.2-.66-.83.13-.41.27-.81.45-1.28h2.27c.22.59.41,1.11.56,1.51.14.42.05.51-.61.6v.3h2.67ZM27.71,91.62h-1.94c.32-.83.65-1.72.99-2.57h.02l.93,2.57h0ZM40.22,89.34c-.05-.52-.1-1.18-.11-1.55h-4.72v.3c.81.06.9.11.9,1.03v4.03c0,.91-.09.98-.93,1.05v.3h2.97v-.3c-.97-.07-1.06-.13-1.06-1.05v-1.79h1.06c.96,0,1.02.11,1.15.83h.31v-2.03h-.3c-.13.67-.19.77-1.15.77h-1.06v-2.42c0-.31.03-.34.36-.34h.77c.78,0,1.01.09,1.19.38.15.21.22.43.31.84l.32-.05h0ZM50.13,89.34c-.05-.52-.1-1.18-.11-1.55h-4.72v.3c.81.06.9.11.9,1.03v4.03c0,.91-.09.98-.93,1.05v.3h2.97v-.3c-.97-.07-1.06-.13-1.06-1.05v-1.79h1.06c.96,0,1.02.11,1.15.83h.31v-2.03h-.3c-.13.67-.19.77-1.15.77h-1.06v-2.42c0-.31.03-.34.36-.34h.77c.78,0,1.01.09,1.19.38.15.21.22.43.31.84l.32-.05h0ZM61.5,94.3c-.24-.06-.47-.17-.74-.47-.25-.25-.47-.54-.85-1.09-.32-.47-.74-1.15-.93-1.48.75-.32,1.33-.85,1.33-1.75,0-.63-.27-1.08-.7-1.35-.4-.27-.92-.36-1.72-.36h-2.7v.3c.82.06.91.11.91,1v4.09c0,.87-.1.95-.95,1.02v.3h2.86v-.3c-.85-.07-.95-.15-.95-1.02v-1.61h.3c.55,0,.73.13.92.42.32.5.67,1.13,1.03,1.63.48.68.92.9,1.77.95.13.01.25.02.37.02l.05-.29h0ZM57.06,91.23v-2.54c0-.27.04-.39.11-.44.08-.06.25-.1.57-.1.79,0,1.52.41,1.52,1.52,0,.56-.16.96-.57,1.27-.27.21-.62.3-1.16.3h-.47ZM69.72,87.63c-2.3,0-3.7,1.71-3.7,3.58,0,1.99,1.58,3.45,3.56,3.45s3.68-1.38,3.68-3.6c0-2.07-1.68-3.42-3.54-3.42h0ZM69.5,88.02c1.39,0,2.59,1.14,2.59,3.31,0,2-1.09,2.94-2.27,2.94-1.52,0-2.64-1.43-2.64-3.33s1.13-2.92,2.32-2.92h0ZM85.62,87.79h-2.52v.3c.75.03,1,.17,1.05.66.03.3.07.76.07,1.72v2.4h-.03l-4.49-5.09h-1.62v.3c.49.03.72.12.94.37.19.25.23.3.23,1.06v2.22c0,.95-.04,1.44-.09,1.76-.05.52-.32.65-.92.69v.3h2.52v-.3c-.73-.06-.96-.18-1.01-.72-.03-.3-.07-.78-.07-1.73v-2.52h.02l4.63,5.38h.34v-4.13c0-.96.03-1.43.07-1.76.05-.47.3-.59.89-.62v-.3Z"/>
  <path class="cls-2" d="M53.81,52.99c-.18-.16.04-.45.27-.39l1.39.41c3.56,1.06,7.72,1.7,11.27.25,1.87-.76,3.36-1.91,4.55-3.48-3.92-2.04-9.31-1.55-14.08-1.31-.28.01-.36-.39-.1-.48,5.7-2.08,11.45-4.85,12.39-12.45-9.08-2.27-12.18,3.57-16.44,9.47-.16.23-.52.05-.44-.22,1.98-6.46,5.57-16.21-2.63-19.14-8.19,2.92-4.61,12.67-2.63,19.14.08.27-.28.45-.44.22-4.26-5.89-7.36-11.73-16.44-9.47.94,7.59,6.69,10.37,12.39,12.45.27.1.19.5-.1.48-4.77-.24-10.16-.73-14.08,1.31,1.19,1.57,2.68,2.72,4.55,3.48,3.55,1.44,7.71.81,11.27-.25l1.39-.41c.23-.07.45.22.27.39-5.33,4.96-15.96,3.43-20.26-2.91,3.39-2.71,8.15-3.83,14.54-2.29-7.58-2.61-11.8-6.72-12.38-13.59,8.29-2.39,14.15,1.44,18.19,8.8-1.83-4.51-6.03-18.24,3.73-21.43,1.03.43,10.99,3.42,3.69,21.43,4.04-7.37,9.9-11.19,18.19-8.8-.58,6.86-4.8,10.97-12.38,13.59,6.39-1.54,11.15-.42,14.54,2.29-3.01,5.88-14.6,7.94-20.26,2.91Z"/>
  <path class="cls-2" d="M45.33,50.45c-4.17-2.12-8.42-6.92-10.77-12.6-1.99-4.8-2.63-10.24-.74-15.23l.72.27c-1.81,4.79-1.19,10.04.73,14.67,2.28,5.51,6.38,10.16,10.4,12.21l-.34.68Z"/>
  <path class="cls-2" d="M54.67,50.45c4.17-2.12,8.42-6.92,10.77-12.6,1.99-4.8,2.63-10.24.74-15.23l-.72.27c1.81,4.79,1.19,10.04-.73,14.67-2.28,5.51-6.38,10.16-10.4,12.21l.34.68Z"/>
  <rect class="cls-1" x="49.57" y="16.52" width=".79" height="35.9"/>
  <path class="cls-2" d="M48.47,5.92c.68.18,2.24-1.4,2.98,0v9.91c0,.95-.56,1.86-1.49,2.13-.39-.04-1.49-1.2-1.49-2.13V5.92Z"/>
  <path class="cls-2" d="M32.79,29.2c1.05-4.73,2.8-9.24,6.43-13.17.5-1.06-.11-1.78-1.05-1.94-.89-.22-.56-1.42-.2-1.98-3.81,2.27-6.22,10.54-5.17,17.09Z"/>
  <path class="cls-2" d="M67.21,29.2c-1.05-4.73-2.8-9.24-6.43-13.17-.5-1.06.11-1.78,1.05-1.94.89-.22.56-1.42.2-1.98,3.81,2.27,6.22,10.54,5.17,17.09Z"/>
</svg>