<?xml version="1.0" encoding="UTF-8"?>
<svg id="Layer_1" data-name="Layer 1" xmlns="http://www.w3.org/2000/svg" version="1.1" viewBox="0 0 100 100">
  <defs>
    <style>
      .cls-1 {
        fill: #4069b2;
        stroke-width: 0px;
      }
    </style>
  </defs>
  <g>
    <path class="cls-1" d="M95.53,30.7l2.9-3.45h-39.23c-2.75,0-5.89,6.32-6.89,9.94-1,3.63.42,4.23,1.45,4.9,1.03.66-1.9,7.1-2.21,8.28-.3,1.18,1.81,1.96,1.81,1.96v2.42c1-.24,2.36,0,2.21.6-.15.6-1.15.7-.97,1.09.18.39.21.42,1.48,1.18,1.27.76-1.15,4.17.67,4.72,11.06,1.18,16.59-12.51,16.59-12.51l6.04.07,3.11-3.69h-16.19v-.97h17.01l3.43-4.08h-21.77v-.97h22.58l3.18-3.78h-27.75v-.97h28.57l3.18-3.78h-33.5v-.97h34.31ZM59.52,44.39h-2.21c-.3,0-.54-.24-.54-.54s.24-.54.54-.54h2.21c.3,0,.54.24.54.54s-.24.54-.54.54Z"/>
    <path class="cls-1" d="M48.46,50.38c-.3-1.18-3.23-7.62-2.21-8.28,1.03-.67,2.45-1.27,1.45-4.9-1-3.63-4.14-9.94-6.89-9.94H1.58l2.9,3.45h34.31v.97H5.29l3.18,3.78h28.57v.97H9.28l3.18,3.78h22.58v.97H13.27l3.43,4.08h17.01v.97h-16.19l3.11,3.69,6.04-.07s5.53,13.69,16.59,12.51c1.81-.54-.6-3.96.67-4.72,1.27-.76,1.3-.79,1.48-1.18.18-.39-.82-.48-.97-1.09-.15-.6,1.21-.85,2.21-.6v-2.42s2.12-.79,1.81-1.96ZM42.69,44.39h-2.21c-.3,0-.54-.24-.54-.54s.24-.54.54-.54h2.21c.3,0,.54.24.54.54s-.24.54-.54.54Z"/>
  </g>
  <g>
    <g>
      <path class="cls-1" d="M50.05,18.73c-1.37-1.22-3.12-2.03-4.95-2.25,1.34,1.19,2.46,2.62,3.33,4.19.72,1.3,1.26,2.7,1.58,4.15,0,.04.02.08.03.13v-.03s.02.03.02.03c0-.04.02-.08.03-.13.32-1.45.86-2.85,1.58-4.15.87-1.57,1.99-2.99,3.33-4.19-1.82.22-3.58,1.03-4.95,2.25Z"/>
      <path class="cls-1" d="M50.92,16.68c0,.48-.39.86-.86.86s-.86-.39-.86-.86.39-.86.86-.86.86.39.86.86Z"/>
    </g>
    <g>
      <g>
        <circle class="cls-1" cx="42" cy="18.38" r="1.02"/>
        <path class="cls-1" d="M47.67,23.97c-.02-.38-.06-.76-.12-1.14-.21-1.48-.67-2.93-1.57-4.11-.64-.83-1.47-1.49-2.29-2.15,0,0,0,0,0,0,.49,1.44.7,2.98.61,4.5-1.83-.79-5.44-1.81-7.42-2.06,5.25,3.59,8.14,7.81,9.73,12.38.11-.32.22-.64.31-.96.64-2.09.89-4.29.75-6.47Z"/>
      </g>
      <g>
        <path class="cls-1" d="M57.27,18.02c0,.64.52,1.17,1.17,1.17s1.17-.52,1.17-1.17-.52-1.17-1.17-1.17-1.17.52-1.17,1.17Z"/>
        <path class="cls-1" d="M52.56,23.97c.02-.38.06-.76.12-1.14.21-1.48.67-2.93,1.57-4.11.64-.83,1.47-1.49,2.29-2.15,0,0,0,0,0,0-.49,1.44-.7,2.98-.61,4.5,1.83-.79,5.44-1.81,7.42-2.06-5.25,3.59-8.14,7.81-9.73,12.38-.11-.32-.22-.64-.31-.96-.64-2.09-.89-4.29-.75-6.47Z"/>
      </g>
    </g>
  </g>
  <g>
    <path class="cls-1" d="M26.65,68.01v4.58h-.63v-.98c-.37.19-.77.29-1.19.29-.47,0-.86-.14-1.17-.42-.31-.28-.46-.66-.46-1.16s.15-.88.46-1.16c.31-.28.7-.42,1.17-.42.42,0,.82.09,1.19.27v-1.02h-3.42v-.54h5.15v.54h-1.1ZM26.03,70.94v-1.25c-.12-.09-.28-.17-.47-.24-.19-.07-.42-.11-.67-.11-.31,0-.57.08-.77.24-.2.16-.3.41-.3.75s.1.59.3.75c.2.16.45.24.77.24.43,0,.82-.13,1.15-.38Z"/>
    <path class="cls-1" d="M29,68.01v4.58h-.62v-4.58h-1.17v-.54h2.93v.54h-1.14Z"/>
    <path class="cls-1" d="M34.04,68.01v4.58h-.63v-1.26c-.38.21-.76.31-1.15.31-.46,0-.87-.11-1.22-.34s-.61-.49-.79-.79l.12-.33c.25-.13.46-.28.63-.45.16-.16.25-.37.25-.61,0-.37-.16-.74-.49-1.13h-1.16v-.54h5.53v.54h-1.1ZM31.47,68.01c.27.37.4.75.4,1.14,0,.31-.07.57-.21.78-.14.21-.34.41-.61.61.14.16.31.28.52.37s.42.13.64.13.44-.04.66-.11c.21-.07.39-.18.54-.32v-2.62h-1.94Z"/>
    <path class="cls-1" d="M33.23,72.52c.16-.05.32-.07.49-.07.3,0,.54.11.73.32.19.21.28.47.28.76,0,.35-.12.63-.37.84-.25.21-.56.31-.93.31-.42,0-.79-.11-1.11-.32-.32-.21-.64-.48-.97-.81l.38-.42c.33.31.62.56.86.72.25.17.51.25.8.25.2,0,.38-.05.52-.15s.22-.24.22-.42c0-.16-.04-.28-.12-.36s-.2-.13-.36-.13c-.1,0-.22.02-.35.07-.13.04-.21.08-.25.1l-.22-.54c.1-.05.24-.1.39-.15Z"/>
    <path class="cls-1" d="M40.21,70.05c-.25.31-.58.59-1,.85l1.36,1.45-.43.4-1.49-1.64c-.25,0-.45-.05-.61-.18-.16-.13-.24-.29-.24-.49,0-.12.04-.23.11-.32.07-.09.19-.17.34-.22l.55.57c.33-.17.61-.38.84-.61s.34-.53.34-.89c0-.31-.07-.55-.2-.74-.13-.19-.31-.28-.52-.28-.16,0-.3.04-.4.13-.1.09-.16.21-.16.38,0,.13.05.24.14.34.09.1.23.2.4.3l-.33.48c-.54-.32-.81-.7-.81-1.12,0-.32.11-.59.33-.79.22-.21.5-.31.82-.31.37,0,.68.14.93.42.25.28.38.64.38,1.09,0,.49-.12.88-.37,1.19ZM42.6,68.01v4.58h-.63v-4.58h-1.03v-.54h2.76v.54h-1.1Z"/>
    <path class="cls-1" d="M48.15,65.89c.67.39,1.31.99,1.94,1.81h-.76c-.97-1.22-2.12-1.83-3.47-1.83-.39,0-.69.08-.9.25-.21.17-.32.39-.32.67s.09.51.27.68h1.12v.54h-1.13v4.58h-.62v-4.58h-1.11v-.54h1.06c-.13-.24-.19-.48-.19-.73,0-.42.16-.76.47-1.03.31-.27.76-.4,1.35-.4.87,0,1.63.19,2.3.58Z"/>
    <path class="cls-1" d="M50.94,69.02c.24.11.47.3.69.55l-.25.62c-.18-.29-.36-.49-.55-.6-.19-.11-.43-.16-.74-.16-.22,0-.5.1-.83.29v2.87h-.6v-1.07c-.29.16-.61.25-.97.25-.47,0-.86-.13-1.16-.4-.3-.27-.45-.63-.45-1.08s.15-.81.45-1.08c.3-.27.68-.4,1.16-.4.3,0,.62.09.97.26v-1.06h-3.21v-.54h5.33v.54h-1.53v1.08c.3-.16.58-.24.84-.24.32,0,.6.06.84.17ZM48.67,70.89v-1.2c-.31-.21-.61-.31-.92-.31s-.56.08-.75.24c-.18.16-.27.38-.27.67s.1.53.29.68.45.23.79.23c.31,0,.6-.1.86-.3Z"/>
    <path class="cls-1" d="M54.54,68.01v4.58h-.63v-2.71h-1.29c-.35,0-.6.05-.75.16-.15.1-.22.3-.22.58,0,.22.08.5.23.83.15.33.34.66.54,1.02l-.53.29c-.3-.52-.52-.93-.67-1.23-.15-.31-.22-.61-.22-.92,0-.46.13-.8.38-1.02.25-.22.64-.33,1.17-.33h1.36v-1.25h-3.67v-.54h5.4v.54h-1.1Z"/>
    <path class="cls-1" d="M62.76,68.01v4.58h-.63v-1.95c-.4.09-.83.13-1.29.13-.4,0-.85-.08-1.37-.24-.12.07-.24.13-.36.18l1.34,1.72-.53.36-1.93-2.58.46-.36.28.36c.24-.07.45-.18.62-.35.17-.16.26-.4.26-.71,0-.49-.15-.87-.46-1.14h-1.58v-.54h6.3v.54h-1.1ZM59.86,68.01c.24.33.36.72.36,1.17,0,.34-.09.64-.26.89.31.07.65.1,1.01.1.48,0,.87-.05,1.17-.16v-2h-2.28Z"/>
    <path class="cls-1" d="M62.37,66.65c-.07-.08-.11-.17-.11-.29,0-.12.04-.22.11-.3.08-.08.17-.12.29-.12.13,0,.23.04.3.12s.11.18.11.3c0,.11-.04.21-.11.29s-.18.12-.3.12c-.12,0-.22-.04-.29-.12Z"/>
    <path class="cls-1" d="M68.31,65.89c.67.39,1.31.99,1.94,1.81h-.76c-.97-1.22-2.12-1.83-3.47-1.83-.39,0-.69.08-.9.25-.21.17-.32.39-.32.67s.09.51.27.68h1.12v.54h-1.13v4.58h-.62v-4.58h-1.11v-.54h1.05c-.13-.24-.19-.48-.19-.73,0-.42.16-.76.47-1.03.31-.27.76-.4,1.35-.4.87,0,1.63.19,2.3.58Z"/>
    <path class="cls-1" d="M70.07,68.01v4.58h-.63v-4.58h-1.86v3.57h-.43l-.84-1.02v-.38h.65v-2.17h-1.3v-.54h5.51v.54h-1.1Z"/>
    <path class="cls-1" d="M74.66,68.01v4.58h-.63v-2.28h-1.58v1.02h-.45l-.72-1.14v-.42h2.75v-1.76h-3.4v-.54h5.13v.54h-1.1Z"/>
    <path class="cls-1" d="M77.01,68.01v4.58h-.62v-4.58h-1.17v-.54h1.13c-.16-.55-.37-.95-.65-1.2-.28-.25-.56-.37-.84-.37-.23,0-.41.06-.52.18-.12.12-.17.29-.17.52s.08.42.24.62c.16.2.32.35.48.44h-.72s-.1-.05-.2-.14c-.1-.09-.19-.22-.28-.39-.09-.16-.13-.36-.13-.58,0-.37.11-.67.33-.9.22-.23.55-.35,1.01-.35.3,0,.59.09.88.27s.53.43.75.76c.21.33.37.71.47,1.13h1.11v.54h-1.09Z"/>
    <path class="cls-1" d="M25.89,77.52v4.58h-.63v-1.95c-.4.09-.83.13-1.29.13-.4,0-.85-.08-1.37-.24-.12.07-.24.13-.36.18l1.34,1.72-.53.36-1.93-2.58.46-.36.28.36c.24-.07.45-.18.62-.35.17-.16.26-.4.26-.71,0-.49-.15-.87-.46-1.14h-1.58v-.54h6.3v.54h-1.1ZM22.98,77.52c.24.33.36.72.36,1.17,0,.34-.09.64-.26.89.31.07.65.1,1.01.1.48,0,.87-.05,1.17-.16v-2h-2.28Z"/>
    <path class="cls-1" d="M29.59,79.56c-.25.31-.58.59-1,.85l1.36,1.45-.43.4-1.49-1.64c-.25,0-.45-.05-.61-.18-.16-.13-.24-.29-.24-.49,0-.12.04-.23.11-.32.07-.09.19-.17.34-.22l.55.57c.33-.17.61-.38.84-.61s.34-.53.34-.89c0-.31-.07-.55-.2-.74-.13-.19-.31-.28-.52-.28-.16,0-.3.04-.4.13-.1.09-.16.21-.16.38,0,.13.05.24.14.34.09.1.23.2.4.3l-.33.48c-.54-.32-.81-.7-.81-1.12,0-.32.11-.59.33-.79.22-.21.5-.31.82-.31.37,0,.68.14.93.42.25.28.38.64.38,1.09,0,.49-.12.88-.37,1.19ZM31.98,77.52v4.58h-.63v-4.58h-1.03v-.54h2.76v.54h-1.1Z"/>
    <path class="cls-1" d="M37.99,78.53c.24.11.47.3.68.55l-.25.62c-.18-.29-.36-.49-.55-.6-.19-.11-.43-.16-.74-.16-.22,0-.5.1-.83.29v2.87h-.59v-1.07c-.29.16-.61.25-.97.25-.47,0-.86-.13-1.16-.4-.3-.27-.45-.63-.45-1.08s.15-.81.45-1.08c.3-.27.68-.4,1.16-.4.3,0,.62.09.97.26v-1.06h-3.21v-.54h5.33v.54h-1.53v1.08c.3-.16.58-.24.84-.24.32,0,.6.06.84.17ZM35.71,80.41v-1.2c-.31-.21-.61-.31-.92-.31s-.56.08-.75.24c-.18.16-.27.38-.27.67s.1.53.29.68.45.23.79.23c.31,0,.6-.1.86-.3Z"/>
    <path class="cls-1" d="M41.58,77.52v4.58h-.63v-2.71h-1.29c-.35,0-.6.05-.75.16-.15.1-.22.3-.22.58,0,.22.08.5.23.83.15.33.33.66.54,1.02l-.53.29c-.3-.52-.52-.93-.67-1.23-.15-.31-.22-.61-.22-.92,0-.46.13-.8.38-1.02.25-.22.64-.33,1.17-.33h1.36v-1.25h-3.67v-.54h5.4v.54h-1.1Z"/>
    <path class="cls-1" d="M48.66,77.52v4.58h-.63v-.98c-.37.19-.77.29-1.19.29-.47,0-.86-.14-1.17-.42-.31-.28-.46-.66-.46-1.16s.15-.88.46-1.16c.31-.28.7-.42,1.17-.42.42,0,.82.09,1.19.27v-1.02h-3.42v-.54h5.15v.54h-1.1ZM48.03,80.45v-1.25c-.12-.09-.28-.17-.47-.24-.19-.07-.42-.11-.67-.11-.31,0-.57.08-.77.24-.2.16-.3.41-.3.75s.1.59.3.75c.2.16.45.24.77.24.43,0,.82-.13,1.15-.38Z"/>
    <path class="cls-1" d="M51.01,77.52v4.58h-.62v-4.58h-1.17v-.54h2.93v.54h-1.14Z"/>
    <path class="cls-1" d="M56.05,77.52v4.58h-.63v-1.26c-.38.21-.76.31-1.14.31-.46,0-.87-.11-1.22-.34s-.61-.49-.79-.79l.12-.33c.25-.13.46-.28.63-.45.16-.16.25-.37.25-.61,0-.37-.16-.74-.49-1.13h-1.16v-.54h5.53v.54h-1.1ZM53.48,77.52c.27.37.4.75.4,1.14,0,.31-.07.57-.21.78s-.34.41-.61.61c.14.16.31.28.52.37.2.09.42.13.64.13s.44-.04.66-.11c.21-.07.39-.18.54-.32v-2.62h-1.94Z"/>
    <path class="cls-1" d="M55.24,82.03c.16-.05.32-.07.49-.07.3,0,.54.11.73.32.19.21.28.47.28.76,0,.35-.12.63-.37.84-.25.21-.56.31-.93.31-.42,0-.79-.11-1.11-.32-.32-.21-.64-.48-.97-.81l.38-.42c.33.31.62.56.86.72.25.17.51.25.8.25.2,0,.38-.05.52-.15.15-.1.22-.24.22-.42,0-.16-.04-.28-.12-.36s-.2-.13-.36-.13c-.1,0-.22.02-.35.07s-.21.08-.25.1l-.22-.54c.1-.05.24-.1.39-.15Z"/>
    <path class="cls-1" d="M63.42,77.52v4.58h-.63v-1.35c-.43.13-.8.19-1.12.19-.54,0-.95-.15-1.24-.44s-.43-.67-.43-1.15v-1.84h-.92v-.54h5.44v.54h-1.1ZM60.63,77.52v1.84c0,.31.09.56.28.75.19.18.43.28.74.28.33,0,.71-.07,1.14-.22v-2.64h-2.17Z"/>
    <path class="cls-1" d="M67.5,75.48c.37.43.73,1.01,1.1,1.73h-.68c-.55-1.19-1.12-1.78-1.72-1.78-.23,0-.42.07-.56.22s-.21.34-.21.56c0,.29.1.55.29.77h1.12v.54h-1.13v4.58h-.62v-4.58h-1.11v-.54h1.07c-.15-.25-.22-.51-.22-.77,0-.4.13-.73.39-.99.26-.26.6-.39,1.02-.39.48,0,.9.22,1.27.65Z"/>
    <path class="cls-1" d="M68.61,77.52c.24.31.36.7.36,1.17,0,.4-.1.73-.31.98s-.47.44-.77.56l1.3,1.66-.53.36-1.91-2.53.46-.36.28.36c.24-.07.45-.18.62-.35.17-.16.26-.4.26-.71,0-.49-.15-.87-.46-1.14h-1.58v-.54h3.61v.54h-1.32Z"/>
    <path class="cls-1" d="M73.44,77.52v4.58h-.63v-.98c-.37.19-.77.29-1.19.29-.47,0-.86-.14-1.17-.42-.31-.28-.46-.66-.46-1.16s.15-.88.46-1.16c.31-.28.7-.42,1.17-.42.42,0,.82.09,1.19.27v-1.02h-3.42v-.54h5.15v.54h-1.1ZM72.82,80.45v-1.25c-.12-.09-.28-.17-.47-.24-.19-.07-.42-.11-.67-.11-.31,0-.57.08-.77.24-.2.16-.3.41-.3.75s.1.59.3.75c.2.16.45.24.77.24.43,0,.82-.13,1.14-.38Z"/>
    <path class="cls-1" d="M75.79,77.52v4.58h-.62v-4.58h-1.17v-.54h2.93v.54h-1.14Z"/>
    <path class="cls-1" d="M78.69,77.52c.24.31.36.7.36,1.17,0,.4-.1.73-.31.98s-.47.44-.77.56l1.3,1.66-.53.36-1.91-2.53.46-.36.28.36c.24-.07.45-.18.62-.35.17-.16.26-.4.26-.71,0-.49-.15-.87-.46-1.14h-1.58v-.54h3.61v.54h-1.32Z"/>
  </g>
  <circle class="cls-1" cx="50.04" cy="31.4" r="2.25"/>
</svg>