<?xml version="1.0" encoding="UTF-8"?>
<svg id="Layer_1" data-name="Layer 1" xmlns="http://www.w3.org/2000/svg" version="1.1" viewBox="0 0 100 100">
  <defs>
    <style>
      .cls-1 {
        fill: #119447;
      }

      .cls-1, .cls-2, .cls-3, .cls-4, .cls-5, .cls-6, .cls-7, .cls-8, .cls-9, .cls-10, .cls-11, .cls-12, .cls-13, .cls-14, .cls-15 {
        stroke-width: 0px;
      }

      .cls-1, .cls-2, .cls-3, .cls-4, .cls-5, .cls-6, .cls-8, .cls-9, .cls-10, .cls-11, .cls-12, .cls-13, .cls-14, .cls-15 {
        fill-rule: evenodd;
      }

      .cls-2 {
        fill: #ed1b6a;
      }

      .cls-3 {
        fill: #f15b2c;
      }

      .cls-4 {
        fill: #f59522;
      }

      .cls-5 {
        fill: #ffc518;
      }

      .cls-6 {
        fill: #b21e52;
      }

      .cls-7, .cls-12 {
        fill: #383436;
      }

      .cls-8 {
        fill: #25b255;
      }

      .cls-9 {
        fill: #1b924a;
      }

      .cls-10 {
        fill: #46b549;
      }

      .cls-11 {
        fill: #8ec741;
      }

      .cls-13 {
        fill: #f9c41d;
      }

      .cls-14 {
        fill: #b31e55;
      }

      .cls-15 {
        fill: #f15a2e;
      }
    </style>
  </defs>
  <g>
    <path class="cls-7" d="M45.17,44.14c0,.67.17,1.18.53,1.54.36.36.87.54,1.54.54h2.02v6.04h-3.69c-2.28,0-4.04-.63-5.3-1.9-1.26-1.27-1.89-3.05-1.89-5.36V13.85h6.79v30.29ZM16.15,52.61c-3.39,0-5.92-.7-7.61-2.1-1.69-1.4-2.53-3.52-2.53-6.37s.85-4.75,2.56-6.1c1.7-1.36,4.25-2.04,7.67-2.04h7.89l.4,4.91h-8.26c-1.35,0-2.36.26-3.01.79-.66.53-.99,1.33-.99,2.43s.43,1.98,1.29,2.53c.86.54,2.17.82,3.93.82,2.15,0,3.76-.23,4.81-.67,1.06-.43,1.58-1.13,1.58-2.05l.59,3.93c-.32.86-.88,1.58-1.69,2.17-.8.58-1.77,1.01-2.91,1.31-1.14.29-2.37.43-3.72.43ZM23.88,34.85c0-1.53-.49-2.72-1.46-3.56-.98-.85-2.35-1.27-4.13-1.27-1.14,0-2.26.17-3.35.5-1.1.33-2.07.8-2.93,1.4l-4.55-3.54c1.16-1.24,2.67-2.22,4.55-2.91,1.87-.69,3.95-1.04,6.25-1.04,2.51,0,4.66.4,6.44,1.2,1.77.8,3.13,1.96,4.06,3.49.92,1.52,1.39,3.36,1.39,5.5v17.6h-6.27v-17.36Z"/>
    <path class="cls-7" d="M84.5,89.04c-1.32,0-2.57-.12-3.78-.35-1.21-.24-2.34-.58-3.38-1.03-1.05-.46-2-1.01-2.84-1.65l3.11-3.59c1.14.75,2.3,1.31,3.48,1.69,1.18.39,2.32.58,3.42.58,1.55,0,2.73-.2,3.54-.58.81-.39,1.21-.96,1.21-1.72,0-.56-.2-.98-.6-1.26-.4-.29-.91-.48-1.51-.58-.61-.11-1.45-.2-2.56-.3-.18-.01-.37-.03-.56-.04-.2-.01-.39-.03-.59-.06-.06,0-.12,0-.17,0-.06,0-.12-.01-.18-.01-1.56-.16-2.83-.38-3.83-.67-1-.29-1.84-.83-2.51-1.64-.68-.82-1.02-1.97-1.02-3.48,0-1.42.34-2.61,1.02-3.59.67-.97,1.67-1.71,2.98-2.21,1.32-.5,2.94-.75,4.86-.75,1.15,0,2.26.1,3.34.31,1.09.21,2.13.51,3.12.9.99.39,1.92.88,2.79,1.47l-3.06,3.46c-1.05-.58-2.1-1.03-3.16-1.33-1.07-.31-2.1-.45-3.09-.45-1.34,0-2.37.18-3.06.54-.7.36-1.05.89-1.05,1.59,0,.46.19.79.58,1.03.39.23.87.39,1.45.49.58.09,1.43.18,2.51.26.12.01.23.02.34.03.1,0,.21.02.33.03.06.01.12.02.17.02.06,0,.11,0,.15.02,1.64.13,3.01.34,4.1.63,1.09.29,2.01.88,2.76,1.75.75.87,1.13,2.14,1.13,3.81,0,1.46-.36,2.68-1.07,3.68-.71.99-1.77,1.75-3.16,2.27-1.4.52-3.13.77-5.18.77M61.76,89.04c-1.32,0-2.57-.12-3.78-.35-1.21-.24-2.34-.58-3.38-1.03-1.05-.46-2-1.01-2.84-1.65l3.11-3.59c1.14.75,2.3,1.31,3.48,1.69,1.18.39,2.32.58,3.42.58,1.55,0,2.73-.2,3.54-.58.81-.39,1.21-.96,1.21-1.72,0-.56-.2-.98-.6-1.26-.4-.29-.91-.48-1.51-.58-.61-.11-1.45-.2-2.56-.3-.18-.01-.37-.03-.56-.04-.2-.01-.39-.03-.59-.06-.06,0-.12,0-.17,0-.06,0-.12-.01-.18-.01-1.56-.16-2.83-.38-3.83-.67-1-.29-1.84-.83-2.51-1.64-.68-.82-1.02-1.97-1.02-3.48,0-1.42.34-2.61,1.02-3.59.67-.97,1.67-1.71,2.98-2.21,1.32-.5,2.94-.75,4.86-.75,1.15,0,2.26.1,3.34.31,1.09.21,2.13.51,3.12.9.99.39,1.92.88,2.79,1.47l-3.06,3.46c-1.05-.58-2.1-1.03-3.16-1.33-1.07-.31-2.1-.45-3.09-.45-1.34,0-2.37.18-3.06.54-.7.36-1.05.89-1.05,1.59,0,.46.19.79.58,1.03.39.23.87.39,1.45.49.58.09,1.43.18,2.51.26.12.01.23.02.34.03.1,0,.21.02.33.03.06.01.12.02.17.02.06,0,.11,0,.15.02,1.64.13,3.01.34,4.1.63,1.09.29,2.01.88,2.76,1.75.75.87,1.13,2.14,1.13,3.81,0,1.46-.36,2.68-1.07,3.68-.71.99-1.77,1.75-3.16,2.27-1.4.52-3.13.77-5.18.77ZM42.42,68.09h5.12v20.65h-5.12v-20.65ZM42.42,59.81h5.12v4.75h-5.12v-4.75ZM35,82.66c0,.5.13.89.4,1.16.27.27.66.41,1.16.41h1.52v4.56h-2.78c-1.72,0-3.05-.48-4-1.43-.95-.96-1.43-2.3-1.43-4.04v-23.5h5.12v22.85ZM6.01,59.81h5.12v28.93h-5.12v-28.93ZM16.51,89.04c-1.34,0-2.51-.31-3.49-.92-.98-.62-1.71-1.49-2.18-2.62l.3-4.52c0,.79.15,1.45.45,2,.3.55.74.97,1.31,1.26.57.29,1.26.43,2.08.43,1.27,0,2.26-.37,2.95-1.12.7-.75,1.05-1.8,1.05-3.16v-3.88c0-1.39-.35-2.47-1.05-3.23-.69-.76-1.68-1.14-2.95-1.14-.81,0-1.51.14-2.08.43-.57.29-1.01.71-1.31,1.26-.3.56-.45,1.22-.45,2.01l-.45-4.28c.64-1.21,1.48-2.14,2.51-2.8,1.03-.66,2.17-.98,3.43-.98,1.57,0,2.92.34,4.03,1.01,1.12.68,1.97,1.67,2.56,2.97.58,1.31.88,2.89.88,4.73v3.9c0,1.82-.29,3.38-.88,4.66-.6,1.28-1.46,2.27-2.59,2.95-1.13.69-2.5,1.03-4.1,1.03Z"/>
  </g>
  <path class="cls-8" d="M65.07,50.91c.32-.23.67-.44,1.09-.6.58-.22,1.16-.43,1.73-.64-3.5-1.27-6.39-3.55-8.28-6.41-2.07-3.13-3.02-6.77-2.58-10.45.36-3.06,1.82-6.78,3.7-8.28,1.29-1.03,3.13-1.32,4.6-2.59,2.75-2.38,2.69-5.31,6.82-9.09.43-.4,1.32-1.08,1.68-1.51,0,0-5.06-.46-6.74-.36-2.67.15-4.78,1.38-6.47,2.77-2.77,2.29-4.98,6.07-4.53,10.45,1.52-2.06,2.67-3.94,4.92-5.44-1.89,2.79-2.73,4.07-4.28,7.2-5.27,10.64-.28,20.71,8.33,24.96Z"/>
  <path class="cls-10" d="M46.83,18.25c1.57,2.8-.71,6.91,3.48,9.92.69.5,1.85,1.51,2.61,1.83l-2.39-6.46c2.46,3.21,2.69,2.96,3.24,7.08l.59-.97c.41-.94.72-1.89.78-2.98.09-1.74-.51-3.24-1.42-4.39-1.16-1.48-4.64-3.7-6.88-4.02"/>
  <path class="cls-12" d="M78.92,30.68c1.66,1.92,2.67,4.42,2.67,7.16,0,6.05-4.9,10.95-10.95,10.95s-10.95-4.9-10.95-10.95c0-5.67,4.31-10.34,9.84-10.9l5.64-3.62c-1.43-.45-2.95-.69-4.53-.69-8.4,0-15.21,6.81-15.21,15.21s6.81,15.21,15.21,15.21,15.21-6.81,15.21-15.21c0-3.6-1.26-6.91-3.35-9.51l-3.57,2.36Z"/>
  <path class="cls-2" d="M72.22,40.22c1.17,1.61,2.37,3.19,3.54,4.79.7.95,1.26.98,2.21.05.99-.96,3.14-3.13.93-3.75l-5.77-1.6-.49-.08-.42.6Z"/>
  <path class="cls-1" d="M69.18,39.69c-1.27.61-3.39,1.24-4.81,1.75-2.52.9-3.49,1.04-1.6,3.37,1.88,2.32,2.22,1.7,3.78-.42.87-1.18,2.29-2.82,2.99-4.04l-.35-.65Z"/>
  <path class="cls-3" d="M71.04,40.96c.11.43.02,1.58.01,2.11,0,.68-.16,3.87-.09,4.21.3,1.56,3.1.37,4.07-.16,1.04-.57.83-1.24.25-2.01-1.05-1.41-2.23-3.22-3.36-4.5l-.88.35Z"/>
  <path class="cls-5" d="M69.88,40.69c-.38.39-2.67,3.54-3.2,4.26-.49.67-1.3,1.43-.78,2.16.34.49,1.57.76,2.11.88,2.86.63,2.51-.52,2.55-2.54.02-1.34.22-3.46.08-4.52l-.75-.23Z"/>
  <path class="cls-14" d="M77.77,37.96c-2.22.63-3.73.65-5.1.99.29.36.82.4,1.2.5.42.1.74.23,1.12.33.42.11.79.2,1.2.31,3.39.92,4.4,1.86,4.97-.85.68-3.25-1.79-1.74-3.4-1.28"/>
  <path class="cls-11" d="M69.13,39.12c-.53-.18-1.77-.13-2.41-.19-4.23-.42-6.27-2.05-6.07.69.22,3.05,1.14,2.3,3.48,1.45.66-.24,4.81-1.59,5-1.95"/>
  <path class="cls-11" d="M80.67,33.89c-.51-1.84-3.21-.83-2.82.87.44,1.88,3.31.92,2.82-.87"/>
  <path class="cls-15" d="M63.24,34.68c1.11.8,2.76-1.07,1.36-1.99-1.14-.74-2.65,1.06-1.36,1.99"/>
  <path class="cls-2" d="M73.54,33.54c.98.82,2.82-.72,1.53-1.87-1.04-.92-2.74.84-1.53,1.87"/>
  <path class="cls-13" d="M68.02,30.71c.99.83,2.73-.83,1.56-1.87-1.07-.94-2.79.84-1.56,1.87"/>
  <path class="cls-9" d="M73.89,36.68c-.13-1.12-1.76-.61-1.71.25.07,1.22,1.84.88,1.71-.25"/>
  <path class="cls-13" d="M75.53,36.73c.73.53,1.95-.66,1.03-1.39-.83-.66-1.96.7-1.03,1.39"/>
  <path class="cls-6" d="M68.48,34.9c-1.02.34-1.44.91-.52,1.76.41-.06.87.01,1.13-.57.23-.52-.15-.89-.61-1.19"/>
  <path class="cls-13" d="M65.39,36.19c-1.64.72-.67,1.83-.05,1.75,1.05-.14,1.17-1.3.05-1.75"/>
  <path class="cls-4" d="M71.56,39.8c-.1-1.45.09-3.83.18-5.32.1-1.67-.23-3.8.78-4.87.68-.71,8.47-3.62,9.91-4.08-.13-.41-.21-.78-.44-1.11-.21-.3-.05-.1-.2-.23-1.9.73-9.31,3.31-10.36,4.34-1.39,1.37-1.09,2.71-1.23,4.94-.1,1.66-.21,3.71-.23,5.45l1.59.88Z"/>
  <path class="cls-7" d="M87.65,23.57v-6.56h1.98l1.19,4.48,1.18-4.48h1.99v6.56h-1.23v-5.17l-1.3,5.17h-1.28l-1.3-5.17v5.17h-1.23ZM83.54,23.57v-5.45h-1.95v-1.11h5.21v1.11h-1.94v5.45h-1.33Z"/>
</svg>