<?xml version="1.0" encoding="UTF-8"?>
<svg id="Layer_1" data-name="Layer 1" xmlns="http://www.w3.org/2000/svg" version="1.1" viewBox="0 0 100 100">
  <defs>
    <style>
      .cls-1 {
        stroke-width: 0px;
      }

      .cls-1, .cls-2, .cls-3 {
        fill: #553820;
      }

      .cls-2 {
        font-family: Lufga-Regular, Lufga;
        font-size: 5.24px;
        letter-spacing: .22em;
      }

      .cls-3 {
        font-family: Lufga-Medium, Lufga;
        font-size: 6.92px;
        font-weight: 500;
        letter-spacing: .22em;
      }
    </style>
  </defs>
  <g>
    <path class="cls-1" d="M25.98,51.21h-4.83s0-.05-.01-.08c.08-.02.16-.06.25-.06.62-.04.62-.03.62-.66,0-3.09,0-6.17,0-9.26,0-.18,0-.35,0-.53l-.12-.03c-.05.12-.13.24-.16.36-.57,2.43-1.14,4.87-1.71,7.3-.2.87-.41,1.75-.6,2.63-.06.27-.18.4-.48.38-.4-.03-.81-.02-1.21,0-.3.02-.41-.12-.48-.39-.88-3.27-1.77-6.53-2.66-9.8-.05-.18-.12-.35-.18-.53-.04,0-.07,0-.11,0-.02.15-.07.3-.07.45,0,3.18,0,6.37,0,9.55,0,.38.11.58.52.54.1-.01.21.02.3.13h-1.97s0-.05,0-.07c.07-.02.14-.05.22-.06q.65-.05.65-.68c0-3.27,0-6.53,0-9.8q0-.66-.66-.7c-.06,0-.13-.03-.2-.13.09-.02.18-.05.27-.06,1.23,0,2.47,0,3.7,0,.32,0,.39.18.45.42.64,2.5,1.29,5,1.94,7.5.05.19.12.37.18.56.04,0,.08,0,.12,0,.17-.72.35-1.44.52-2.16.46-1.96.92-3.93,1.37-5.89.07-.32.2-.43.53-.42,1.15.02,2.3,0,3.45,0,.12,0,.23.02.35.03,0,.03,0,.07,0,.1-.11.02-.22.05-.32.04-.43-.04-.55.16-.54.57.02,1.31,0,2.63,0,3.94,0,1.99,0,3.99,0,5.98q0,.64.65.69c.05,0,.11.01.16.03.02,0,.03.04.07.11Z"/>
    <path class="cls-1" d="M49.48,49.11c.13,1.32-.55,2.18-1.72,2.23-.55.02-1.11,0-1.64-.1-.68-.13-1.09-.62-1.2-1.28-.11-.65-.13-1.31-.18-1.97-.04-.56-.02-1.13-.1-1.69-.09-.66-.45-.94-1.11-.93-1.1,0-.94-.15-.95.94,0,1.4,0,2.79,0,4.19,0,.57,0,.57.58.58.15,0,.29.01.44.02,0,.04,0,.07,0,.11h-5.13v-.1c.2-.01.41-.03.63-.03.27,0,.4-.1.4-.39,0-3.46,0-6.92,0-10.38,0-.32-.14-.42-.43-.41-.2,0-.4,0-.6,0,0-.05,0-.1,0-.14.11-.01.22-.04.32-.04,2.16.02,4.33.03,6.49.09.53.01,1.06.17,1.58.3.87.22,1.38.82,1.5,1.69.07.47.08.97,0,1.44-.19,1.12-.96,1.74-2.22,1.88-.16.02-.31.06-.46.09,0,.04,0,.08-.01.12.16.04.32.09.48.12,1.25.27,1.81.96,1.84,2.24.02.76.03,1.52.1,2.28.02.2.21.47.39.55.29.13.54-.07.66-.35.13-.31.21-.63.35-1.04ZM42.57,42.55c0,.75-.01,1.49.01,2.24,0,.13.15.37.25.37.93.08,1.86-.17,2.14-1.31.22-.91.22-1.83.04-2.75-.11-.58-.45-.98-1.05-1.1-.32-.06-.66-.08-.99-.11-.29-.03-.42.11-.42.41.01.75,0,1.49,0,2.24Z"/>
    <path class="cls-1" d="M87.48,51.34c-.05-1.23-.09-2.47-.14-3.7.05-.01.09-.02.14-.03.07.11.15.22.21.33.55.94,1.2,1.8,2.07,2.47.99.76,2.08,1.05,3.26.48,1.26-.61,1.36-2.35.16-3.08-.57-.34-1.23-.55-1.86-.79-.7-.27-1.44-.44-2.1-.77-1.52-.75-1.94-1.89-1.83-3.46.11-1.57,1.18-2.72,2.65-3.1,1.04-.27,2.06-.14,3.08.12.26.06.51.17.77.18.28.02.57-.05.95-.09v3.07c-.1-.15-.18-.28-.27-.39-.56-.72-1.07-1.49-1.7-2.13-.79-.8-1.8-.85-2.82-.49-.64.22-1.02.71-1.08,1.39-.07.73.2,1.3.89,1.58.76.32,1.57.54,2.34.84.74.29,1.5.57,2.19.97.7.41,1.07,1.11,1.2,1.91.39,2.45-.82,4.25-3.02,4.65-1.16.21-2.31-.02-3.46-.24-.14-.03-.28-.04-.41-.08-.45-.13-.85-.14-1.08.4-.04-.02-.07-.03-.11-.05Z"/>
    <path class="cls-1" d="M71.07,39.76h5.77s.01.08.02.12c-.1.02-.21.07-.31.07-.36,0-.72.01-1.08,0-.25,0-.35.08-.34.34.01.46,0,.91,0,1.37,0,2.93,0,5.87,0,8.8,0,.41.09.55.52.55,1.23,0,2.22-.44,2.91-1.47.37-.55.7-1.13,1.04-1.69.07-.12.16-.23.24-.34l.12.04c0,.25.02.51,0,.76-.07.84-.18,1.67-.22,2.51-.02.39-.18.44-.51.44-2.33-.01-4.66,0-6.99,0-.31,0-.61,0-.92,0-.08,0-.17-.05-.25-.07,0-.04,0-.08,0-.12.17-.02.35-.06.52-.05.28.01.39-.08.39-.38,0-3.43,0-6.86,0-10.29,0-.29-.11-.4-.39-.38-.17,0-.34-.02-.51-.04,0-.05,0-.1,0-.16Z"/>
    <path class="cls-1" d="M61.08,51.05c.15-.02.31-.06.45-.04.39.04.53-.1.52-.51-.02-1.66,0-3.32,0-4.98,0-1.67-.01-3.35,0-5.02,0-.42-.11-.59-.54-.54-.14.02-.3-.03-.53-.06.35-.23,5.48-.25,5.95-.05-.15.05-.24.11-.33.11-.32.01-.64.03-.96,0-.4-.03-.53.13-.53.52.01,2.21,0,4.43,0,6.64,0,1.13,0,2.27,0,3.4,0,.35.11.48.48.49,1.3.04,2.33-.44,3.04-1.53.36-.54.67-1.11,1.01-1.67.07-.11.14-.21.21-.32.04,0,.08.02.12.03.02.14.05.28.04.41-.08,1.02-.17,2.04-.24,3.05-.02.26-.19.26-.38.26-.61,0-1.22,0-1.83,0-2.01,0-4.02,0-6.03,0-.16,0-.31-.03-.47-.04,0-.05,0-.11,0-.16Z"/>
    <path class="cls-1" d="M37.84,51.22h-5.19c0-.05,0-.1,0-.15.22,0,.44,0,.66,0,.44-.01.48-.06.34-.46-.32-.97-.66-1.94-.98-2.91-.09-.27-.23-.36-.51-.36-.89.02-1.78.02-2.66,0-.26,0-.4.08-.49.33-.34.99-.7,1.98-1.06,2.97-.11.31-.03.44.3.43.25-.01.51,0,.76,0,0,.04,0,.09,0,.13h-2.29s-.01-.04-.02-.06c.08-.02.16-.08.23-.07.39.06.56-.15.69-.49,1.29-3.49,2.59-6.97,3.87-10.46.16-.44.39-.52.8-.51.39.01.68,0,.85.49,1.25,3.47,2.54,6.93,3.8,10.4.14.39.3.64.75.57.04,0,.1.03.14.05,0,.03,0,.06,0,.1ZM30.98,42.69s-.1,0-.15,0c-.52,1.44-1.03,2.88-1.57,4.36h3.17c-.5-1.5-.98-2.93-1.46-4.37Z"/>
    <path class="cls-1" d="M57.82,51.2h-5.04s0-.07,0-.11c.2-.01.4-.03.59-.03.25,0,.4-.09.4-.36,0-1.58,0-3.16-.01-4.73,0-.21-.11-.43-.21-.62-.79-1.65-1.6-3.29-2.37-4.94-.18-.38-.38-.63-.83-.54-.04,0-.1-.03-.14-.11h5.03s0,.06,0,.09c-.3.02-.6.04-1.01.06.77,1.78,1.52,3.5,2.27,5.22.05,0,.1.01.15.02.79-1.73,1.57-3.46,2.41-5.29h-1.62s0-.07,0-.11h2.97s0,.08,0,.13c-.24,0-.48-.03-.71.01-.15.03-.35.13-.41.25-.8,1.72-1.58,3.45-2.35,5.18-.06.14-.05.32-.06.49,0,1.56,0,3.13,0,4.69q0,.56.58.57c.12,0,.24.02.35.03,0,.04,0,.07,0,.11Z"/>
    <path class="cls-1" d="M3.46,51.2H1.22c.02-.06.03-.08.03-.08.69.07.81-.46.98-.93,1.26-3.4,2.53-6.79,3.78-10.19.11-.3.28-.39.58-.38.93.04.76-.15,1.1.77,1.23,3.35,2.47,6.69,3.69,10.04.15.42.32.73.83.66.03,0,.06.04.16.12h-5.21s0-.07-.01-.1c.34-.03.67-.05,1.06-.08-.04-.17-.05-.3-.09-.43-.32-.96-.65-1.91-.97-2.87-.09-.27-.22-.4-.53-.39-.87.02-1.75.02-2.62,0-.28,0-.43.07-.53.34-.34.98-.68,1.96-1.04,2.93-.13.34-.02.46.32.45.24,0,.48,0,.72,0,0,.05,0,.09,0,.14ZM3.73,47.05h3.17c-.5-1.5-.98-2.94-1.46-4.37-.05,0-.1,0-.15.01-.51,1.43-1.03,2.86-1.57,4.36Z"/>
    <path class="cls-1" d="M85.88,51.22h-4.86v-.11c.12-.01.25-.05.38-.04.36.03.47-.12.47-.48-.01-2.95,0-5.9,0-8.84,0-.46-.02-.91,0-1.37.02-.36-.1-.52-.47-.48-.13.01-.26-.02-.39-.03,0-.03,0-.07,0-.1h4.86s0,.06.01.09c-.13.02-.27.05-.4.04-.36-.03-.47.12-.47.48.01,3,0,6.01,0,9.01,0,.4.02.8,0,1.2-.03.36.1.52.47.48.13-.01.26.02.39.02,0,.04,0,.08,0,.12Z"/>
  </g>
  <text class="cls-2" transform="translate(12.27 60.24)"><tspan x="0" y="0">SPICE UP YOUR LIFE!</tspan></text>
  <text class="cls-3" transform="translate(95.78 43.43)"><tspan x="0" y="0">®</tspan></text>
</svg>