<?xml version="1.0" encoding="UTF-8"?>
<svg id="Layer_1" data-name="Layer 1" xmlns="http://www.w3.org/2000/svg" version="1.1" viewBox="0 0 100 100">
  <defs>
    <style>
      .cls-1 {
        fill: #a8c6bf;
        stroke-width: 0px;
      }
    </style>
  </defs>
  <path class="cls-1" d="M11.79,51.21h0c.48-.06.94-.19,1.35-.38.46-.22.87-.52,1.21-.88.35-.37.62-.79.82-1.27.2-.48.29-.99.29-1.54,0-.51-.09-.99-.26-1.43-.17-.44-.41-.85-.72-1.2-.3-.36-.66-.66-1.07-.91-.27-.17-.57-.3-.87-.39.53-.3.97-.72,1.33-1.25.45-.66.68-1.43.68-2.28,0-.56-.11-1.09-.32-1.59-.21-.49-.5-.93-.87-1.3-.37-.37-.81-.67-1.31-.88-.5-.21-1.04-.32-1.6-.32H1.94v15.64h9.69l.17-.02ZM11.27,41.01c-.1.4-.26.76-.47,1.06-.2.3-.47.53-.8.71-.33.17-.72.26-1.18.26h-3.76v-6.7h3.76c.46,0,.86.08,1.19.25.33.17.59.4.8.69.21.3.36.66.47,1.06.1.41.15.86.15,1.33s-.05.92-.15,1.33ZM12.31,47.14c0,.47-.05.92-.15,1.33-.1.4-.26.76-.47,1.06-.21.3-.47.53-.79.71-.32.17-.71.26-1.17.26h-4.66v-6.73h4.66c.46,0,.85.09,1.17.26.32.17.58.41.79.71.21.3.36.66.47,1.06.1.41.15.86.15,1.33Z"/>
  <path class="cls-1" d="M41.83,50.84h3.16l-2.77-6.8c.53-.12,1.03-.28,1.48-.5.52-.25.98-.56,1.36-.93.38-.37.69-.79.91-1.25.22-.46.34-.96.34-1.47,0-.6-.15-1.17-.45-1.69-.3-.52-.7-.97-1.21-1.36-.5-.38-1.1-.69-1.77-.91-.67-.22-1.4-.34-2.16-.34h-8.14v7.85h-5.08l-3.39-7.85h-2.86l3.03,7.99c-2.71.45-6.89,2.04-8.97,7.48h2.07s1.72-5.9,7.23-6.63l.24.64,2.55,6.17h3.49l-3-6.93c1.81-.05,3.4-.09,4.71-.14v6.68h3.13v-6.64h3.47l2.65,6.64ZM35.71,43.54v-7.29h3.83c.66,0,1.23.1,1.69.29.46.19.83.45,1.12.77.28.32.5.71.63,1.15.13.45.2.94.2,1.44s-.07.99-.2,1.44c-.13.44-.34.83-.63,1.15-.28.32-.66.58-1.12.77-.46.19-1.03.29-1.69.29h-3.83Z"/>
  <path class="cls-1" d="M62.95,51.26v-7.77h-5.71v.73h2.58v5.3c-1.44.85-3.07.72-4.63-.28-.89-.57-1.81-1.33-2.73-2.25-.73-.73-1.37-1.47-1.91-2.21-.53-.73-.91-1.47-1.13-2.2-.21-.72-.24-1.45-.07-2.17.16-.72.61-1.44,1.32-2.15.51-.51,1.02-.88,1.54-1.11.52-.23,1.04-.34,1.55-.34.89,0,1.8.28,2.69.84.91.57,1.83,1.31,2.73,2.2l.05.05h3.83l-.13-.25c-.33-.63-.75-1.22-1.24-1.73-.49-.52-1.05-.97-1.67-1.34-.61-.37-1.28-.67-1.99-.88-.71-.21-1.45-.31-2.22-.31-1.1,0-2.15.21-3.12.63-.97.42-1.83.99-2.56,1.72-.72.72-1.3,1.58-1.73,2.55-.42.97-.64,2.03-.64,3.15s.22,2.15.64,3.12c.42.97,1,1.83,1.73,2.55.72.72,1.58,1.3,2.55,1.73.97.42,2.02.64,3.12.64.8,0,1.56-.11,2.27-.33.61-.19,1.19-.44,1.73-.75v.85h3.13Z"/>
  <path class="cls-1" d="M79.94,46.55c.42-.97.63-2.02.63-3.12s-.21-2.17-.63-3.14c-.42-.97-.99-1.83-1.72-2.55s-1.58-1.3-2.55-1.72c-.97-.42-2.03-.63-3.14-.63s-2.15.21-3.12.63c-.97.42-1.83.99-2.55,1.72-.72.72-1.3,1.58-1.73,2.55-.42.97-.64,2.03-.64,3.15s.22,2.15.64,3.12c.42.97,1,1.83,1.73,2.55s1.58,1.3,2.55,1.73c.97.42,2.02.64,3.12.64s2.17-.22,3.15-.64c.97-.42,1.83-1,2.55-1.73.72-.72,1.3-1.58,1.72-2.55ZM79.03,46.46c-.17.7-.62,1.42-1.33,2.13-.52.52-1.05.91-1.58,1.14-.52.23-1.05.35-1.56.35-.9,0-1.79-.28-2.67-.84-.89-.57-1.81-1.33-2.73-2.25-.73-.73-1.37-1.47-1.91-2.21-.53-.73-.91-1.47-1.13-2.2-.21-.72-.24-1.45-.07-2.17.16-.72.61-1.44,1.32-2.15.51-.51,1.03-.88,1.54-1.12.51-.23,1.04-.35,1.55-.35.91,0,1.83.3,2.74.89.93.6,1.86,1.38,2.78,2.3.73.73,1.36,1.46,1.9,2.19.53.72.9,1.45,1.1,2.17.2.71.22,1.43.05,2.13Z"/>
  <polygon class="cls-1" points="84.98 51.23 88.14 51.23 88.14 36.34 93.83 36.34 93.83 35.59 79.29 35.59 79.29 36.34 84.98 36.34 84.98 51.23"/>
  <rect class="cls-1" x="94.94" y="35.59" width="3.13" height="15.64"/>
  <path class="cls-1" d="M6.81,58.94c-.21-.2-.46-.37-.74-.48-.28-.12-.59-.18-.91-.18H1.81v6.24h1.45v-1.72h1.24l1.17,1.7h1.53l-1.27-1.83c.17-.06.33-.13.47-.22.22-.13.41-.3.57-.49.16-.19.28-.41.37-.65.09-.24.14-.5.14-.76,0-.31-.06-.61-.19-.88-.12-.27-.29-.51-.5-.71ZM3.27,58.77h1.43c.25,0,.45.04.62.13.17.09.3.21.41.36.11.16.19.34.24.56.05.22.08.46.08.71s-.03.49-.08.71c-.05.21-.13.4-.24.56-.1.15-.24.27-.41.36-.17.09-.38.13-.62.13h-1.43v-3.52Z"/>
  <polygon class="cls-1" points="10.77 64.51 15.97 64.51 15.97 64.02 12.23 64.02 12.23 61.69 15.17 61.69 15.17 61.2 12.23 61.2 12.23 58.77 15.97 58.77 15.97 58.27 10.77 58.27 10.77 64.51"/>
  <path class="cls-1" d="M21,58.27l-2.54,6.24h.53l.94-2.34h2.47l1,2.34h1.62l-2.8-6.24h-1.22ZM20.13,61.68l1.01-2.48,1.06,2.48h-2.07Z"/>
  <polygon class="cls-1" points="29.43 58.27 27.97 58.27 27.97 64.51 33.08 64.51 33.08 64.02 29.43 64.02 29.43 58.27"/>
  <polygon class="cls-1" points="52.67 64.51 57.86 64.51 57.86 64.02 54.12 64.02 54.12 61.69 57.07 61.69 57.07 61.2 54.12 61.2 54.12 58.77 57.86 58.77 57.86 58.27 52.67 58.27 52.67 64.51"/>
  <path class="cls-1" d="M64.94,61.26c-.3-.17-.62-.32-.96-.45-.33-.12-.64-.25-.93-.37-.28-.12-.51-.25-.69-.39-.15-.12-.22-.25-.22-.42,0-.12.03-.23.09-.34.06-.11.15-.2.27-.29.13-.09.29-.16.47-.21.34-.09.84-.12,1.23,0,.18.05.34.11.49.18.15.07.28.15.4.23.12.08.24.16.33.22l.17.11.36-.91-.18-.05c-.32-.09-.69-.17-1.1-.23-.42-.06-.89-.1-1.4-.1-.38,0-.72.05-1,.14-.28.09-.52.22-.71.37-.19.16-.34.34-.43.55-.09.2-.14.42-.14.63,0,.35.11.67.33.93.2.25.46.47.77.67.29.19.62.36.97.51.34.15.65.3.94.44.28.14.51.28.69.42.15.12.23.25.23.38,0,.1-.02.2-.06.3-.04.09-.11.18-.21.25-.11.08-.27.15-.47.2-.21.06-.49.08-.82.08s-.63-.07-.9-.2c-.28-.14-.52-.29-.71-.45-.23-.19-.44-.41-.62-.65l-.12-.16-.69.73.15.11c.27.21.56.39.86.54.26.14.57.27.91.39.35.12.72.17,1.11.17.92,0,1.58-.15,2.02-.45.46-.31.69-.76.69-1.32,0-.37-.11-.69-.33-.95-.2-.24-.46-.45-.77-.62Z"/>
  <polygon class="cls-1" points="68.72 58.77 70.99 58.77 70.99 64.51 72.46 64.51 72.46 58.77 74.73 58.77 74.73 58.27 68.72 58.27 68.72 58.77"/>
  <path class="cls-1" d="M78.66,58.27l-2.54,6.24h.53l.94-2.34h2.47l1,2.34h1.62l-2.8-6.24h-1.22ZM77.79,61.68l1.01-2.48,1.06,2.48h-2.07Z"/>
  <polygon class="cls-1" points="84.01 58.77 86.29 58.77 86.29 64.51 87.75 64.51 87.75 58.77 90.02 58.77 90.02 58.27 84.01 58.27 84.01 58.77"/>
  <polygon class="cls-1" points="98.19 58.77 98.19 58.27 92.99 58.27 92.99 64.51 98.19 64.51 98.19 64.02 94.45 64.02 94.45 61.69 97.39 61.69 97.39 61.2 94.45 61.2 94.45 58.77 98.19 58.77"/>
  <rect class="cls-1" x="38.03" y="61.02" width="9.91" height=".61"/>
</svg>