<?xml version="1.0" encoding="UTF-8"?>
<svg id="Layer_1" data-name="Layer 1" xmlns="http://www.w3.org/2000/svg" version="1.1" xmlns:xlink="http://www.w3.org/1999/xlink" viewBox="0 0 100 100">
  <defs>
    <style>
      .cls-1 {
        fill: url(#linear-gradient);
      }

      .cls-1, .cls-2, .cls-3, .cls-4, .cls-5 {
        stroke-width: 0px;
      }

      .cls-2 {
        fill: #000;
      }

      .cls-3 {
        fill: #f7d10d;
      }

      .cls-4 {
        fill: url(#linear-gradient-2);
      }

      .cls-5 {
        fill: #178943;
        fill-rule: evenodd;
      }
    </style>
    <linearGradient id="linear-gradient" x1="23.59" y1="49.97" x2="14.63" y2="54.13" gradientUnits="userSpaceOnUse">
      <stop offset="0" stop-color="#82b941"/>
      <stop offset="1" stop-color="#3d8640"/>
    </linearGradient>
    <linearGradient id="linear-gradient-2" x1="1.8" y1="43.83" x2="5.3" y2="47.17" xlink:href="#linear-gradient"/>
  </defs>
  <g>
    <g>
      <path class="cls-3" d="M37.2,56.35v-22.12h8.3c1.69,0,3.04.22,4.07.67,1.02.45,1.82,1.14,2.4,2.07.58.93.87,1.9.87,2.92,0,.95-.26,1.84-.77,2.67-.51.83-1.29,1.51-2.32,2.02,1.34.39,2.37,1.06,3.09,2.01.72.95,1.08,2.06,1.08,3.35,0,1.04-.22,2-.66,2.89s-.98,1.58-1.62,2.06c-.64.48-1.45.85-2.42,1.09-.97.25-2.16.37-3.57.37h-8.43ZM40.13,43.53h4.78c1.3,0,2.23-.09,2.79-.26.74-.22,1.3-.59,1.68-1.1s.57-1.16.57-1.93c0-.73-.18-1.38-.53-1.94-.35-.56-.86-.94-1.51-1.15-.65-.21-1.78-.31-3.36-.31h-4.42v6.68ZM40.13,53.74h5.51c.95,0,1.61-.04,1.99-.11.67-.12,1.24-.32,1.69-.6.45-.28.82-.69,1.12-1.23.29-.54.44-1.16.44-1.86,0-.82-.21-1.54-.63-2.15-.42-.61-1.01-1.04-1.76-1.28-.75-.25-1.83-.37-3.24-.37h-5.11v7.6Z"/>
      <path class="cls-3" d="M58.02,56.35v-22.12h2.93v9.08h11.5v-9.08h2.93v22.12h-2.93v-10.42h-11.5v10.42h-2.93Z"/>
      <path class="cls-3" d="M77.82,56.35l8.49-22.12h3.15l9.05,22.12h-3.33l-2.58-6.7h-9.25l-2.43,6.7h-3.11ZM84.2,47.27h7.5l-2.31-6.13c-.7-1.86-1.23-3.39-1.57-4.59-.28,1.42-.68,2.83-1.19,4.22l-2.43,6.49Z"/>
    </g>
    <path class="cls-1" d="M12.93,43.47s-5.48.65-6.61,6.95c-1.13,6.31,7.04,6.54,12.21,2.78s13.84-2.36,16.85,5.72c0,0-2.39-8.02-10.2-8.67-7.82-.65-9.6,4.49-14.53,4.62-4.93.13-4.33-4.79-3.43-6.08,0,0,1.93,2.35,5,.56s2.66-4.48,5.88-5.65c0,0-2.03-2.16-5.67-2.2s-6.7,2.48-5.9,5.99c0,0,1.93-4.16,6.4-4.04Z"/>
    <path class="cls-4" d="M6.21,45.19s-.06,1.25,0,2.03c0,0-.56-1.42-1.88-1.77,0,0,1.76,1.21,1.88,3.62,0,0-2.32.43-3.18-1.47-.86-1.9-.82-2.57-1.55-2.98,0,0,2.38-1.16,4.73.56Z"/>
  </g>
  <g>
    <path class="cls-2" d="M13.32,61.51h2.57c.61,0,1.09.15,1.44.44.35.29.53.64.53,1.05,0,.52-.27.91-.81,1.19.41.11.72.3.94.57.22.27.33.59.33.95,0,.52-.18.94-.53,1.26-.35.32-.88.49-1.57.49h-2.89v-5.94ZM14.8,62.6v1.27h.77c.24,0,.42-.06.56-.18.13-.12.2-.27.2-.46s-.07-.33-.2-.45c-.13-.12-.32-.18-.56-.18h-.77ZM14.8,64.97v1.4h.83c.39,0,.68-.05.85-.16.17-.11.26-.3.26-.57,0-.21-.08-.37-.25-.49-.16-.12-.38-.18-.66-.18h-1.04Z"/>
    <path class="cls-2" d="M21.11,61.51v5.94h-1.48v-5.94h1.48Z"/>
    <path class="cls-2" d="M25.81,61.44c1.01,0,1.83.31,2.46.92.63.61.94,1.32.94,2.13s-.32,1.54-.95,2.14c-.64.6-1.45.91-2.45.91s-1.83-.3-2.46-.9c-.63-.6-.95-1.32-.95-2.14s.31-1.53.94-2.14c.63-.61,1.45-.91,2.47-.91ZM25.81,66.3c.56,0,1.01-.17,1.36-.5.34-.33.51-.77.51-1.31s-.17-.98-.51-1.31c-.34-.33-.8-.5-1.36-.5s-1.02.17-1.36.5-.52.77-.52,1.31.17.98.52,1.31c.34.33.8.5,1.36.5Z"/>
    <path class="cls-2" d="M35.82,61.51v1.09h-2.15v4.85h-1.48v-4.85h-2.15v-1.09h5.79Z"/>
    <path class="cls-2" d="M41.29,66.37v1.09h-4.38v-5.94h4.32v1.09h-2.84v1.25h2.71v1.09h-2.71v1.43h2.9Z"/>
    <path class="cls-2" d="M48.14,65.65v1.3c-.74.39-1.52.59-2.34.59-1.06,0-1.9-.29-2.52-.87-.63-.58-.94-1.3-.94-2.15s.33-1.58.99-2.17c.66-.6,1.52-.89,2.58-.89.85,0,1.57.17,2.15.52v1.32c-.72-.41-1.4-.61-2.05-.61s-1.15.17-1.55.51c-.4.34-.6.77-.6,1.3s.2.96.59,1.31c.4.34.9.51,1.52.51.31,0,.6-.04.88-.12.28-.08.71-.26,1.27-.53Z"/>
    <path class="cls-2" d="M55.42,61.51v5.94h-1.48v-2.4h-2.96v2.4h-1.48v-5.94h1.48v2.39h2.96v-2.39h1.48Z"/>
    <path class="cls-2" d="M62.94,61.51v5.94h-1.25l-3.28-3.81v3.81h-1.48v-5.94h1.36l3.17,3.63v-3.63h1.48Z"/>
    <path class="cls-2" d="M67.6,61.44c1.01,0,1.83.31,2.46.92.63.61.94,1.32.94,2.13s-.32,1.54-.95,2.14c-.64.6-1.45.91-2.45.91s-1.83-.3-2.46-.9c-.63-.6-.95-1.32-.95-2.14s.31-1.53.94-2.14,1.45-.91,2.47-.91ZM67.6,66.3c.56,0,1.01-.17,1.36-.5.34-.33.51-.77.51-1.31s-.17-.98-.51-1.31c-.34-.33-.8-.5-1.36-.5s-1.02.17-1.36.5-.52.77-.52,1.31.17.98.52,1.31c.34.33.8.5,1.36.5Z"/>
    <path class="cls-2" d="M76.78,66.37v1.09h-4.53v-5.94h1.48v4.85h3.05Z"/>
    <path class="cls-2" d="M80.93,61.44c1.01,0,1.83.31,2.46.92.63.61.94,1.32.94,2.13s-.32,1.54-.95,2.14c-.64.6-1.45.91-2.45.91s-1.83-.3-2.46-.9c-.63-.6-.95-1.32-.95-2.14s.31-1.53.94-2.14,1.45-.91,2.47-.91ZM80.93,66.3c.56,0,1.01-.17,1.36-.5.34-.33.51-.77.51-1.31s-.17-.98-.51-1.31c-.34-.33-.8-.5-1.36-.5s-1.02.17-1.36.5-.52.77-.52,1.31.17.98.52,1.31c.34.33.8.5,1.36.5Z"/>
    <path class="cls-2" d="M91.25,61.93v1.3c-.76-.37-1.5-.55-2.22-.55s-1.24.18-1.61.53c-.38.35-.57.8-.57,1.34s.19.94.57,1.27c.38.32.87.48,1.49.48.33,0,.65-.07.98-.21v-.69h-.86v-1.09h2.34v2.43c-.24.24-.59.43-1.07.58-.48.15-.96.22-1.43.22-1.04,0-1.89-.29-2.55-.86-.67-.57-1-1.3-1-2.18s.33-1.64,1-2.21c.67-.57,1.53-.85,2.58-.85.87,0,1.65.16,2.34.49Z"/>
    <path class="cls-2" d="M94.52,67.46v-2.77l-2.34-3.17h1.79l1.29,1.87,1.29-1.87h1.79l-2.34,3.17v2.77h-1.48Z"/>
  </g>
  <path class="cls-5" d="M23,32.5l3.73-.04,6.18,16.4.02.77-3.47.04-2.42-6.77-2.21-6.18.07-.44s-.19-.15-.16.28c.02.43-8.32,23.16-8.32,23.16l-3.7-.05v-.54s1.59-4.33,1.59-4.33l8.68-22.3Z"/>
</svg>