<?xml version="1.0" encoding="UTF-8"?>
<svg id="Layer_1" data-name="Layer 1" xmlns="http://www.w3.org/2000/svg" version="1.1" viewBox="0 0 100 100">
  <defs>
    <style>
      .cls-1 {
        fill: #fff;
      }

      .cls-1, .cls-2, .cls-3, .cls-4, .cls-5, .cls-6 {
        stroke-width: 0px;
      }

      .cls-1, .cls-3, .cls-4, .cls-5, .cls-6 {
        fill-rule: evenodd;
      }

      .cls-2, .cls-4 {
        fill: #000;
      }

      .cls-3 {
        fill: #00a651;
      }

      .cls-5 {
        fill: #231f20;
      }

      .cls-6 {
        fill: #f58220;
      }
    </style>
  </defs>
  <g>
    <path class="cls-4" d="M41.09,76.65c-1.27,0-2.31-.11-3.13-.33-.82-.22-1.23-.52-1.23-.9,0-.55.3-1.03.91-1.44.61-.41,1.36-.62,2.26-.62.42,0,1.08.07,1.98.21.9.14,1.56.21,1.98.21h1.58c1-1.26,1.78-2.78,2.34-4.56.55-1.78.83-3.68.83-5.71,0-1.86-.28-3.52-.83-4.97-.55-1.45-1.33-2.53-2.34-3.24-2.48-1.48-3.8-2.3-3.96-2.46-.48.27-.98.48-1.51.62-.53.14-1.08.21-1.66.21-1.22,0-2.43-.21-3.64-.62-1.21-.41-2.38-1.03-3.49-1.85-.9-.66-1.8-1.16-2.69-1.52-.9-.36-1.72-.53-2.46-.53-.42,0-.83.07-1.23.21-.4.14-.78.34-1.15.62-.11-.22-.2-.44-.28-.66-.08-.22-.12-.41-.12-.57,0-1.04.42-2.11,1.27-3.2.85-1.09,2.01-2.08,3.49-2.96-2.96-1.09-5.35-3.49-7.17-7.18-1.82-3.69-2.73-8-2.73-12.93,0-2.9-.41-5.61-1.23-8.13-.82-2.52-1.99-4.73-3.53-6.65.32-.27.71-.48,1.19-.62.48-.14,1-.21,1.59-.21,2.8,0,5.53.79,8.2,2.38,2.67,1.59,4.95,3.8,6.85,6.65.26-1.04.4-1.86.4-2.46,0-.99-.28-2.08-.83-3.28-.55-1.2-1.33-2.44-2.34-3.69.21-.11.45-.21.71-.29.26-.08.55-.12.87-.12,2.69,0,5.32.88,7.88,2.63,2.56,1.75,4.69,4.16,6.38,7.22,1.37-3.06,3.62-6.9,6.74-11.49,1.69,2.08,3.54,5.36,5.55,9.85,1.58-2.35,3.41-4.28,5.47-5.79,2.06-1.5,4.2-2.45,6.42-2.83.42,0,.83.04,1.23.12.4.08.78.18,1.15.29-.63,1.15-1.12,2.28-1.47,3.41-.34,1.12-.51,2.18-.51,3.16,0,1.42.13,2.65.4,3.69,1.64-2.9,3.76-5.2,6.38-6.9,2.62-1.7,5.38-2.55,8.28-2.55.58,0,1.11.07,1.59.21.48.14.87.34,1.19.62-1.37,1.42-2.44,3-3.21,4.72-.77,1.72-1.15,3.43-1.15,5.13,0,.98.07,2.42.2,4.31.13,1.89.2,3.32.2,4.31,0,3.12-.66,6.12-1.98,8.99-1.32,2.87-3.17,5.35-5.55,7.43,1.11.82,1.98,1.74,2.61,2.75.63,1.01.95,2.01.95,3,0,.33-.13.88-.4,1.64-1.11-.82-1.9-1.23-2.38-1.23-.74,0-1.56.21-2.46.62-.9.41-1.8,1.03-2.69,1.85-1.06.93-2.21,1.64-3.45,2.13-1.24.49-2.47.74-3.68.74-1,0-1.86-.07-2.58-.21-.71-.14-1.31-.34-1.78-.62-1.74.33-3.17,1.11-4.28,2.34-1.11,1.23-1.66,2.64-1.66,4.23,0,3.56-.24,6.57-.71,9.03-.48,2.46-1.16,4.24-2.06,5.34l3.96-.41c.21,0,.4.08.55.25.16.16.24.36.24.57,0,.44-.2.82-.59,1.15-.4.33-.86.49-1.39.49h-2.77c-.32,0-.66-.19-1.03-.57-.37-.38-.69-.88-.95-1.48.9-.93,1.58-2.57,2.06-4.92.48-2.35.71-5.23.71-8.62,0-.22-.12-.41-.36-.57-.24-.16-.52-.25-.83-.25v2.87c0,4.82-.74,8.35-2.22,10.59-1.48,2.24-3.78,3.37-6.89,3.37h0Z"/>
    <path class="cls-6" d="M68.82,42.99c2.85,0,5.48-1.72,7.88-5.17,2.4-3.45,3.61-7.2,3.61-11.25,0-.99-.07-2.42-.2-4.31-.13-1.89-.2-3.32-.2-4.31,0-1.7.3-3.32.91-4.88.61-1.56,1.49-2.94,2.65-4.15-2.69,0-5.26.93-7.69,2.79-2.43,1.86-4.36,4.35-5.78,7.47,1.06,4.1,1.58,7.66,1.58,10.67,0,2.63-.45,5.05-1.35,7.26-.9,2.22-2.17,4.04-3.8,5.46.37.11.75.21,1.15.29.4.08.81.12,1.23.12h0Z"/>
    <path class="cls-6" d="M58.52,44.23c3.12-.27,5.74-1.67,7.88-4.19,2.14-2.52,3.21-5.5,3.21-8.95,0-4.05-.4-7.2-1.19-9.44-1.06-4.1-1.59-6.84-1.59-8.21,0-.93.11-1.81.32-2.63.21-.82.5-1.59.87-2.3-1.95.16-3.84.94-5.67,2.34-1.82,1.4-3.37,3.21-4.64,5.46,1.53,2.79,2.71,5.68,3.53,8.66.82,2.98,1.23,5.98,1.23,8.99,0,1.42-.34,3.01-1.03,4.76-.69,1.75-1.66,3.58-2.93,5.5h0Z"/>
    <path class="cls-6" d="M32.37,41.35c.85,0,1.64-.14,2.38-.41-1.64-1.7-2.91-3.94-3.8-6.73-.9-2.79-1.35-5.88-1.35-9.28,0-1.53.26-3.86.79-6.98-1.85-2.68-3.99-4.79-6.42-6.32-2.43-1.53-4.91-2.3-7.45-2.3,1.27,1.59,2.25,3.75,2.93,6.48.69,2.74,1.03,5.91,1.03,9.52,0,3.94,1.24,7.59,3.72,10.96,2.48,3.37,5.2,5.05,8.16,5.05h0Z"/>
    <path class="cls-6" d="M42.67,43.41c-1.16-1.42-2.05-3.12-2.65-5.09-.61-1.97-.91-4.1-.91-6.4,0-1.86.3-3.93.91-6.2.61-2.27,1.49-4.72,2.65-7.35-1.64-2.9-3.42-5.25-5.35-7.06-1.93-1.81-3.84-2.87-5.74-3.2.63.66,1.12,1.52,1.47,2.59.34,1.07.52,2.26.52,3.57s-.26,2.9-.79,4.93c-.53,1.48-.79,3.8-.79,6.98,0,4.21.99,7.92,2.97,11.12,1.98,3.2,4.56,5.24,7.73,6.12h0Z"/>
    <path class="cls-6" d="M50.99,45.05c2.54,0,4.69-1.12,6.46-3.37,1.77-2.24,2.65-4.95,2.65-8.13,0-3.78-.78-7.8-2.34-12.07-1.56-4.27-3.82-8.59-6.77-12.97-3.22,4.76-5.68,9.25-7.37,13.46-1.69,4.21-2.54,7.94-2.54,11.16s.96,6.09,2.89,8.41c1.93,2.33,4.27,3.49,7.01,3.49h0Z"/>
    <path class="cls-3" d="M64.07,52.02c.9,0,1.82-.21,2.77-.62.95-.41,1.88-1.03,2.77-1.85,1.11-.93,2.22-1.61,3.33-2.05,1.11-.44,2.11-.57,3.01-.41-.32-.88-.77-1.57-1.35-2.09-.58-.52-1.19-.78-1.82-.78-2.96.82-4.81,1.23-5.55,1.23-1.64,0-2.83-.14-3.57-.41-.58,0-1.14.07-1.66.21-.53.14-1.03.34-1.51.62.26.33.46.7.59,1.11.13.41.2.86.2,1.35,0,.71-.07,1.34-.2,1.89-.13.55-.33,1.01-.59,1.4.37.11.85.21,1.43.29.58.08,1.29.12,2.14.12h0Z"/>
    <path class="cls-3" d="M38.31,51.61c.85,0,1.64-.14,2.38-.41-.26-.77-.4-1.86-.4-3.28,0-.27.13-.66.4-1.15.26-.49.66-1.07,1.19-1.72-1.64-.33-3.35-1.01-5.15-2.05-.74.27-1.47.48-2.18.62-.71.14-1.44.21-2.18.21.16,0-.5-.14-1.98-.41-1.21.6-2.19,1.26-2.93,1.97-.74.71-1.21,1.42-1.43,2.13.85-.33,1.84-.31,2.97.04,1.14.36,2.26,1.03,3.37,2.01.9.66,1.86,1.16,2.89,1.52,1.03.36,2.05.53,3.05.53h0Z"/>
    <path class="cls-3" d="M50.99,57.36c.32,0,.66-.19,1.03-.57.37-.38.69-.88.95-1.48.16-.49.52-1,1.07-1.52.55-.52,1.25-.97,2.1-1.35.95-.27,1.72-.75,2.3-1.44.58-.68.87-1.44.87-2.26,0-.66-.15-1.25-.44-1.77-.29-.52-.67-.89-1.15-1.11-2.17.82-4.28,1.23-6.34,1.23-2.59,0-4.97-.41-7.13-1.23-.48.22-.86.63-1.15,1.23-.29.6-.44,1.29-.44,2.05,0,.6.17,1.19.51,1.77.34.57.83,1.08,1.47,1.52,2.11,1.26,3.43,2.35,3.96,3.28.26.49.61.89,1.03,1.19.42.3.87.45,1.35.45h0Z"/>
    <path class="cls-1" d="M41.88,75.42c.32,0,.59-.1.83-.29.24-.19.36-.42.36-.7-.16.11-.38.19-.67.25-.29.05-.59.08-.91.08h-2.38c-.21,0-.32.11-.32.33s.11.33.32.33h2.77Z"/>
    <path class="cls-1" d="M47.82,77.67h0s.04-.24.04-.24l.07-.22.1-.2.12-.19.14-.17.15-.16.17-.14.18-.13.18-.11.19-.09.2-.08.21-.06.21-.04.21-.02h.2s3.59,0,3.59,0h.16s.17.02.17.02l.17.03.16.04.16.05.16.07.15.08.14.09.14.1.13.12.12.14.11.15.09.17.07.19.04.2v.22s-.02.31-.02.31l-.11.31-.17.27-.1.11h0s.26-.03.26-.03l.26-.02h.24s.62-.03.62-.03l-.11-.05-.35-.32-.15-.47.02-.34.04-.22.07-.22.1-.2.12-.19.14-.17.15-.16.09-.07h-.02s-.17-.09-.17-.09l-.16-.09-.16-.11-.15-.12-.14-.15-.12-.18-.1-.2-.07-.23-.02-.24.03-.31.09-.3.15-.27.19-.23.21-.19.23-.16.25-.13.26-.11.14-.05.14-.04.14-.04.15-.04.15-.03.15-.03.16-.03.16-.02.16-.02.17-.02.17-.02h.17s.18-.02.18-.02h.18s.18-.01.18-.01h.19s.3,0,.3,0l.29.02.28.03.27.04.26.06.25.07.24.09.23.11.22.12.2.15.19.17.16.2.14.23.1.25.06.26.02.26v.2s-.04.19-.04.19l-.05.19-.08.18-.07.12.11.03.16.05.16.07.15.08.14.09.14.1.13.12.12.14.11.15.09.17.07.19.04.2v.19s0,.17,0,.17l-.02.16-.04.16-.06.15-.07.15-.08.14-.09.13-.1.12-.11.11-.12.1-.13.09-.14.07-.15.06-.15.04-.16.02h-.14s-1.14,0-1.14,0l.14.09.15.12.14.15.13.18.1.21.07.23.02.26-.05.35-.14.33-.2.27-.24.21-.26.17-.28.14-.3.12-.32.1-.18.05-.18.04-.18.04-.19.04-.19.03-.2.03-.2.03-.21.02-.21.02-.22.02h-.22s-.23.03-.23.03h-.24s-.24.02-.24.02h-.25s-.25,0-.25,0h-.18s-.18,0-.18,0h-.17s-.17,0-.17,0h-.17s-.16-.02-.16-.02h-.16s-.16-.02-.16-.02h-.15s-.15-.03-.15-.03l-.14-.02-.14-.02-.14-.02-.13-.02-.13-.03-.14-.03-.25-.07-.24-.08-.22-.1-.22-.13-.21-.18-.02-.02-.12.1-.24.15-.25.12-.27.09-.28.08-.15.03-.15.03-.15.03-.16.03-.16.02-.16.02-.16.02-.17.02h-.17s-.17.03-.17.03h-.18s-.18.02-.18.02h-.19s-.19.01-.19.01h-.19s-.2,0-.2,0h-.29s-.28-.01-.28-.01l-.26-.02-.25-.02-.24-.03-.23-.04-.22-.05-.21-.06-.21-.08-.2-.09-.19-.12-.19-.15-.17-.19-.13-.23-.08-.27-.03-.26.02-.21.04-.2.07-.19.03-.06-.16.06-.22.07-.23.05-.23.04-.24.02h-.22s-.12,0-.12,0h-.12s-.14.01-.14.01h-.15s-.16.03-.16.03l.06.06.12.19.09.24.03.26-.03.32-.09.3-.15.27-.19.23-.21.19-.23.16-.25.13-.26.11-.14.05-.14.04-.14.04-.14.04-.15.03-.15.03-.15.03-.16.02-.16.02-.16.02-.17.02h-.17s-.18.02-.18.02h-.18s-.18.01-.18.01h-.19s-.19,0-.19,0h-.18s-.18,0-.18,0h-.18s-.17-.02-.17-.02h-.17s-.16-.03-.16-.03l-.16-.02-.16-.02-.15-.02-.15-.03-.15-.03-.14-.03-.14-.03-.14-.04-.14-.04-.25-.09-.24-.11-.23-.13-.21-.16-.19-.21-.16-.25-.11-.3-.04-.32.03-.28.09-.25.13-.21.15-.17.16-.14.17-.11.18-.1.19-.08.19-.07h-.05s-.11-.05-.11-.05l-.11-.06-.1-.06-.09-.07-.09-.08-.08-.09-.07-.09-.06-.1-.06-.12-.04-.12-.03-.12-.02-.12v-.15s.02-.25.02-.25l.09-.25.13-.21.15-.17.16-.14.17-.11.18-.1.19-.08.19-.07.2-.06.2-.05.21-.04.21-.03.22-.02h.22s.23-.02.23-.02h.13s.14.02.14.02l.14.02.14.03.15.03.16.04.17.05.17.05.16.05.14.04.12.03.11.02.09.02h.07s.05.02.05.02h.03s.13,0,.13,0l.16-.02.19-.03.21-.04.23-.05.25-.06.27-.08.3-.09.32-.1.31-.09.3-.08.28-.06.27-.05.26-.04.25-.02h.24s.17,0,.17,0l.17.02.17.03.16.04.16.05.16.07.15.08.14.09.14.1.13.12.12.14.11.15.09.17.07.19.04.18h0ZM47.57,78.78l.15-.04.17-.03.17-.02h.09s-.16-.19-.16-.19l-.13-.28-.03-.17v.08s-.06.25-.06.25l-.1.23-.09.16h0Z"/>
    <path class="cls-5" d="M42.27,79.36c-.42,0-1.08-.11-1.98-.33-.9-.22-1.56-.33-1.98-.33-.11,0-.2-.04-.28-.12-.08-.08-.12-.18-.12-.29,0-.22.2-.41.59-.57.4-.16.86-.25,1.39-.25.21,0,.54.07.99.21.45.14.78.21.99.21.48,0,1.14-.14,1.98-.41.85-.27,1.51-.41,1.98-.41.32,0,.59.08.83.25.24.16.36.36.36.57,0,.33-.2.62-.59.86-.4.25-.86.37-1.39.37-.32,0-.78.04-1.39.12-.61.08-1.07.12-1.39.12h0ZM40.69,81.99c-.95,0-1.72-.1-2.3-.29-.58-.19-.87-.45-.87-.78,0-.22.2-.41.59-.57.4-.16.86-.25,1.39-.25h2.77c.42,0,.79.07,1.11.21.32.14.48.29.48.45,0,.38-.29.68-.87.9-.58.22-1.35.33-2.3.33h0ZM49.41,81.17c-.74,0-1.32-.07-1.74-.21-.42-.14-.63-.34-.63-.62,0-.22.12-.41.36-.57.24-.16.51-.25.83-.25.21,0,.54-.07.99-.21.45-.14.78-.21.99-.21s.54.07.99.21c.45.14.78.21.99.21s.4.07.55.2c.16.14.24.29.24.45,0,.33-.34.57-1.03.74-.69.16-1.53.25-2.54.25h0ZM51.39,78.7c-.79,0-1.45-.08-1.98-.25-.53-.16-.79-.36-.79-.57,0-.33.16-.62.48-.86.32-.25.69-.37,1.11-.37h3.57c.32,0,.59.08.83.25.24.16.36.36.36.57,0,.38-.33.68-.99.9-.66.22-1.52.33-2.58.33h0ZM56.93,81.17c-.95,0-1.72-.07-2.3-.21-.58-.14-.87-.34-.87-.62s.24-.52.71-.74c.48-.22,1.03-.33,1.66-.33l3.57-.16c.42,0,.79.08,1.11.25.32.16.48.36.48.57,0,.38-.4.68-1.19.9-.79.22-1.85.33-3.17.33h0ZM58.91,77.88c-1.32,0-1.98-.14-1.98-.41,0-.33.16-.62.48-.86.32-.25.69-.37,1.11-.37h3.57c.32,0,.59.08.83.25.24.16.36.36.36.57s-.08.41-.24.57c-.16.16-.34.25-.55.25h-3.57ZM58.12,75.42c-.42,0-.79-.08-1.11-.25-.32-.16-.48-.36-.48-.57,0-.38.29-.68.87-.9.58-.22,1.35-.33,2.3-.33.74,0,1.32.11,1.74.33.42.22.63.52.63.9,0,.27-.11.48-.32.62-.21.14-.5.21-.87.21h-2.77Z"/>
  </g>
  <g>
    <path class="cls-2" d="M37.36,82.99c1.01,0,2.02-.02,3.02,0,.57.02,1.16.06,1.71.2,1.16.3,1.97,1.01,2.12,2.27.11.92-.17,1.73-.82,2.39-.09.09-.2.17-.29.27-.22.27-.18.47.12.65.18.11.39.19.57.3,1.77,1.06,1.79,2.93,1.08,4.22-.64,1.15-1.64,1.8-2.91,2-.71.11-1.45.11-2.17.11-.99,0-1.98-.07-2.97-.07-.97,0-1.95.07-2.92.08-.26,0-.54-.02-.77-.12-.66-.27-.75-1-.16-1.39.51-.34.7-.8.76-1.37.24-2.12.31-4.25.29-6.38,0-.23-.05-.46-.07-.69-.03-.36-.24-.61-.54-.78-.14-.08-.3-.15-.43-.24-.46-.33-.46-.87,0-1.2.29-.21.63-.27.99-.26.84.03,1.68.05,2.53.08.3,0,.59,0,.89,0,0-.03,0-.06,0-.08ZM38.11,91.4c.04.49.06.97.12,1.44.05.44.26.67.61.74.7.14,1.33-.24,1.53-.94.16-.56.11-1.12-.04-1.66-.22-.76-.86-1.15-1.64-1.03-.3.05-.43.15-.49.47-.05.32-.06.66-.09.98ZM38.11,86.5c.03.41.04.85.08,1.3.02.24.16.39.4.43.49.08,1.05-.18,1.22-.65.28-.75.28-1.52-.06-2.26-.17-.37-.49-.57-.9-.61-.43-.04-.62.09-.68.52-.05.41-.05.82-.07,1.27Z"/>
    <path class="cls-2" d="M61.76,83.24c1.14-.08,2.27-.16,3.41-.23.99-.06,1.98-.13,2.95.18.85.27,1.61.69,2.17,1.41,1.09,1.4,1.04,3.98-.81,5.29-1.08.76-2.28,1.01-3.57.93-.35-.02-.69-.04-1.04-.06-.24-.01-.39.08-.38.34.02.58.05,1.15.07,1.73.02.36.23.61.53.79.18.11.37.22.53.36.31.29.32.61,0,.9-.18.16-.41.29-.64.36-.39.12-.8.21-1.21.25-1.14.11-2.28.12-3.4-.15-.28-.07-.57-.18-.81-.35-.47-.33-.43-.81.04-1.13.03-.02.05-.04.09-.05.69-.24.81-.77.81-1.42-.01-2.03,0-4.07,0-6.1,0-.08,0-.17,0-.25-.01-.97-.16-1.09-.94-1.33-.15-.05-.31-.13-.43-.24-.36-.31-.33-.86.09-1.09.24-.13.53-.19.8-.2.58-.03,1.16,0,1.73,0,0,.02,0,.05,0,.07ZM64.52,86.8h0c0,.48,0,.96,0,1.44,0,.26.08.5.38.57.76.17,1.65-.03,1.96-.98.19-.58.19-1.17.03-1.76-.27-.98-1.1-1.27-1.75-1.24-.48.02-.61.16-.62.64,0,.45,0,.89,0,1.34Z"/>
    <path class="cls-2" d="M52.19,89.65c-.05-1.14-.09-2.28-.14-3.42-.03-.77-.21-1.01-.95-1.24-.31-.1-.54-.27-.6-.59-.06-.33.06-.64.33-.83.24-.16.52-.3.8-.38,1.22-.37,2.47-.38,3.73-.25.49.05.98.15,1.46.26.2.05.41.15.58.27.46.34.44.92-.03,1.24-.08.06-.17.11-.26.15-.56.24-.76.67-.77,1.26-.02,1.59-.05,3.17-.12,4.75-.03.64-.13,1.28-.28,1.9-.23.92-.83,1.6-1.66,2.06-1.15.63-2.38.84-3.68.72-.88-.08-1.72-.28-2.53-.64-.9-.41-1.57-1.03-1.81-2.03-.12-.47-.12-.95.05-1.42.27-.76.82-1.2,1.61-1.29.73-.08,1.38.13,1.86.71.24.29.37.63.34,1.01,0,.15-.01.3-.05.44-.09.34-.11.66.21.89.33.24.69.2,1.03.04.3-.14.52-.38.62-.68.11-.36.2-.73.23-1.11.04-.61,0-1.22,0-1.83,0,0,.01,0,.02,0Z"/>
  </g>
</svg>