<?xml version="1.0" encoding="UTF-8"?>
<svg id="Layer_1" data-name="Layer 1" xmlns="http://www.w3.org/2000/svg" version="1.1" viewBox="0 0 100 100">
  <defs>
    <style>
      .cls-1, .cls-2 {
        stroke-width: 0px;
      }

      .cls-1, .cls-3 {
        fill: #58595b;
      }

      .cls-2 {
        fill: #f99d1c;
      }

      .cls-3 {
        font-family: Gilroy-Regular, Gilroy;
        font-size: 3.35px;
        letter-spacing: -.02em;
      }
    </style>
  </defs>
  <text class="cls-3" transform="translate(86.03 42.34)"><tspan x="0" y="0">TM</tspan></text>
  <path class="cls-2" d="M74.31,39.72c-5.58,0-10.11,4.53-10.11,10.11s4.53,10.11,10.11,10.11,10.11-4.53,10.11-10.11-4.53-10.11-10.11-10.11ZM74.31,57.32c-4.13,0-7.48-3.35-7.48-7.48s3.35-7.48,7.48-7.48,7.48,3.35,7.48,7.48-3.35,7.48-7.48,7.48Z"/>
  <path class="cls-1" d="M64.18,44.61l-.9,2.54c-.34-.17-.62-.26-.84-.26-.45,0-.83.28-1.13.83-.34.6-.5,1.69-.47,3.27v.57s.01,4.69.01,4.69h-2.92v-11.64h2.52v1.49c.55-1.18,1.4-1.78,2.54-1.78.38,0,.77.09,1.18.28M56.89,46.98l-2.43,1.34c-.81-.83-1.79-1.25-2.92-1.25-1.06,0-1.93.31-2.61.93-.7.64-1.05,1.48-1.05,2.52s.34,1.82,1,2.44c.65.6,1.49.9,2.52.9,1.3,0,2.32-.45,3.05-1.34l2.3,1.58c-1.25,1.62-3.01,2.43-5.29,2.43-1.86,0-3.4-.54-4.63-1.63-1.28-1.13-1.93-2.61-1.93-4.43,0-1.14.28-2.18.85-3.12.57-.94,1.36-1.68,2.36-2.22,1.01-.54,2.13-.81,3.38-.81,2.36,0,4.15.88,5.37,2.65ZM44.91,44.61l-.9,2.54c-.34-.17-.62-.26-.84-.26-.45,0-.83.28-1.13.83-.34.6-.5,1.69-.47,3.27v.57s.01,4.69.01,4.69h-2.92v-11.64h2.52v1.49c.55-1.18,1.4-1.78,2.54-1.78.38,0,.77.09,1.18.28ZM34.92,48.95c-.2-.66-.58-1.19-1.16-1.57-.57-.38-1.22-.58-1.94-.58-.81,0-1.52.22-2.13.67-.38.28-.74.77-1.06,1.48h6.29ZM37.88,50.72v.56h-9.38c.14.84.52,1.5,1.11,1.97.6.47,1.34.7,2.22.7,1.09,0,2.03-.37,2.81-1.12l2.46,1.15c-1.2,1.7-2.96,2.55-5.26,2.55-1.79,0-3.28-.56-4.45-1.69-1.17-1.12-1.75-2.58-1.75-4.35s.57-3.23,1.7-4.41c1.13-1.18,2.58-1.76,4.33-1.76s3.32.58,4.48,1.75c1.18,1.21,1.76,2.76,1.72,4.64ZM25.38,44.61l-4.95,11.64h-1.9l-4.97-11.64h2.97l2.94,6.86,2.93-6.86h2.96ZM10.4,48.95c-.2-.66-.58-1.19-1.16-1.57-.57-.38-1.22-.58-1.94-.58-.81,0-1.52.22-2.13.67-.38.28-.74.77-1.06,1.48h6.29ZM13.35,50.72v.56H3.97c.14.84.52,1.5,1.11,1.97.6.47,1.34.7,2.22.7,1.09,0,2.03-.37,2.81-1.12l2.46,1.15c-1.2,1.7-2.96,2.55-5.26,2.55-1.79,0-3.28-.56-4.45-1.69-1.17-1.12-1.75-2.58-1.75-4.35s.57-3.23,1.7-4.41c1.13-1.18,2.58-1.76,4.33-1.76s3.32.58,4.48,1.75c1.18,1.21,1.76,2.76,1.72,4.64Z"/>
  <path class="cls-1" d="M95.96,50.42c0-.95-.28-1.75-.85-2.38-.58-.66-1.35-.99-2.31-.99s-1.74.33-2.34.98c-.57.62-.85,1.42-.85,2.39s.28,1.78.84,2.43c.6.67,1.38,1,2.35,1s1.71-.34,2.31-1.03c.57-.65.85-1.45.85-2.39M98.88,50.45c0,1.63-.51,3.04-1.53,4.23-1.07,1.24-2.41,1.86-4.02,1.86-1.32,0-2.51-.51-3.59-1.53v5.5h-2.92v-15.89h2.92v1.29c1.06-1.05,2.28-1.58,3.68-1.58,1.64,0,2.97.62,4.01,1.87.97,1.17,1.45,2.59,1.45,4.26Z"/>
  <g>
    <path class="cls-2" d="M75.43,46.54c0,1.68-.5,3.04-1.12,3.04s-1.12-1.36-1.12-3.04,1.12-3.04,1.12-3.04c0,0,1.12,1.36,1.12,3.04Z"/>
    <g>
      <path class="cls-2" d="M75.63,48.86c-.63.63-1.09,1.29-1.32,1.84v1.13c.47.38,1.75-.22,2.91-1.38,1.19-1.19,1.36-2.94,1.36-2.94,0,0-1.75.17-2.94,1.36Z"/>
      <path class="cls-2" d="M72.98,48.86c.63.63,1.09,1.29,1.32,1.84v1.13c-.47.38-1.75-.22-2.91-1.38-1.19-1.19-1.36-2.94-1.36-2.94,0,0,1.75.17,2.94,1.36Z"/>
    </g>
    <g>
      <path class="cls-2" d="M75.63,52.4c-.63.63-1.09,1.29-1.32,1.84v1.13c.47.38,1.75-.22,2.91-1.38,1.19-1.19,1.36-2.94,1.36-2.94,0,0-1.75.17-2.94,1.36Z"/>
      <path class="cls-2" d="M72.98,52.4c.63.63,1.09,1.29,1.32,1.84v1.13c-.47.38-1.75-.22-2.91-1.38-1.19-1.19-1.36-2.94-1.36-2.94,0,0,1.75.17,2.94,1.36Z"/>
    </g>
    <rect class="cls-2" x="74.14" y="48.38" width=".34" height="9.93"/>
  </g>
</svg>