<?xml version="1.0" encoding="UTF-8"?>
<svg id="Layer_1" data-name="Layer 1" xmlns="http://www.w3.org/2000/svg" version="1.1" viewBox="0 0 100 100">
  <defs>
    <style>
      .cls-1 {
        fill: #000;
      }

      .cls-1, .cls-2 {
        stroke-width: 0px;
      }

      .cls-2 {
        fill: #7cc242;
      }
    </style>
  </defs>
  <path class="cls-2" d="M32,36.29s.79,8.38,9.67,7.54c2.86-.04,2.38,1.04,2.38,1.04h.59s-1.65-3.93-7.29-5.16c0,0-1.49-.19-2.16-.84,0,0,1.78.37,2.99.47s3.38.69,5.14,2.88c0,0,1.33-4.86-6.8-4.82-3.91.02-4.52-1.1-4.52-1.1Z"/>
  <g>
    <path class="cls-1" d="M57.3,45.64c.8-.26,1.67-.42,2.57-.15.94.29,1.38.86,1.38,1.85-.01,1.7-.04,3.4-.06,5.1,0,.14,0,.28,0,.48h8.29c-.11-2.45-.01-4.84-.41-7.24.88-.29,1.77-.47,2.7-.17.91.29,1.34.86,1.33,1.8-.02,2.61-.07,5.22-.08,7.82,0,1.83.05,3.66.11,5.49.03.88.14,1.76.21,2.65-.77.2-1.55.36-2.36.3-.79-.06-1.25-.44-1.47-1.2-.25-.86-.15-1.73-.13-2.6.02-1.49.07-2.97.1-4.46,0-.08-.01-.16-.02-.3h-8.26c0,.17,0,.3,0,.44.03,2.05.06,4.11.08,6.16.01,1.34-.63,1.97-1.98,1.97-.2,0-.4,0-.6-.03-.46-.08-.92-.17-1.33-.25.5-5.88.29-11.73-.04-17.64Z"/>
    <path class="cls-1" d="M17.99,55.42c0,1.05,0,1.96,0,2.88.01,1.16.04,2.31.05,3.47.01,1.15-.71,1.75-1.79,1.8-.3.01-.61,0-.92-.05-.44-.06-.87-.17-1.28-.24.35-2.74.34-5.46.31-8.18-.01-1.4,0-2.81-.04-4.21-.04-1.4-.1-2.81-.18-4.21-.02-.37-.13-.74-.2-1.15.32.02.64.05.95.05,1.69.01,3.38,0,5.06.03,1.35.03,2.68.24,3.89.9,2.04,1.11,2.84,2.96,2.3,5.21-.43,1.77-1.56,2.88-3.21,3.54-.17.07-.35.12-.57.2.29.4.55.8.84,1.16,1.21,1.49,2.41,2.99,3.67,4.45.45.52,1.06.9,1.56,1.37.12.11.14.34.14.52,0,.06-.16.18-.26.2-.84.12-1.68.31-2.52.3-1.26-.01-2.24-.73-3.02-1.65-.77-.91-1.44-1.92-2.13-2.9-.62-.88-1.2-1.78-1.82-2.65-.21-.3-.52-.52-.84-.83ZM18.03,47.52c-.02.11-.04.19-.04.27-.03,1.88-.05,3.75-.09,5.63,0,.26.13.34.34.35.67.03,1.34.1,2.01.07.63-.04,1.23-.23,1.69-.71.64-.66.79-1.49.77-2.35-.02-1.25-.53-2.24-1.7-2.79-.93-.44-1.93-.49-2.97-.46Z"/>
    <path class="cls-1" d="M88.48,43.38c.71.01,1.36.24,1.95.63,1.05.7,1.64,1.71,2.02,2.9,1.21,3.87,2.42,7.74,3.68,11.59.41,1.25.98,2.45,1.48,3.67.05.12.12.27.22.31.33.13.28.4.22.62-.03.11-.25.21-.4.25-.8.23-1.62.32-2.45.16-.96-.19-1.61-.73-1.88-1.7-.41-1.49-.85-2.97-1.26-4.46-.07-.26-.19-.37-.46-.36-1.7.03-3.4.05-5.09.06-.22,0-.28.1-.33.28-.36,1.29-.72,2.59-1.1,3.88-.13.45-.31.89-.53,1.31-.58,1.08-1.88,1.41-2.92.76-.27-.17-.23-.44-.09-.61,1-1.24,1.39-2.74,1.89-4.2,1.68-4.98,3.33-9.97,5-14.96.01-.03.03-.06.06-.11ZM89.03,48.03s-.07,0-.1,0c-.69,2.29-1.38,4.58-2.08,6.9h4.44c-.77-2.34-1.52-4.62-2.27-6.9Z"/>
    <path class="cls-1" d="M49.47,45.22c1.26.06,2.67.2,3.99.78,1.23.54,1.49,1.26.9,2.46-.17.33-.39.65-.63.94-.29.37-.61.36-.91,0-.74-.9-1.59-1.65-2.7-2.05-.98-.36-2.48-.32-3.3.57-.97,1.04-.86,2.49.28,3.33.97.71,2.09,1.12,3.2,1.57,1.24.51,2.42,1.11,3.44,2,1.98,1.73,1.94,4.96.09,6.82-1.17,1.18-2.6,1.79-4.21,1.99-1.99.25-3.93-.05-5.77-.86-.38-.17-.75-.42-1.06-.7-.46-.41-.6-.96-.38-1.55.13-.35.31-.68.5-1.01.17-.31.54-.34.79-.08,1.58,1.59,3.5,2.25,5.71,2.1,1.14-.08,1.99-.68,2.25-1.59.24-.83.09-1.62-.6-2.15-.66-.52-1.4-.95-2.15-1.35-.98-.52-2.01-.93-3-1.43-1.08-.54-2.03-1.27-2.66-2.32-1.09-1.81-.57-4.34,1.16-5.79,1.31-1.09,2.9-1.64,5.04-1.68Z"/>
    <path class="cls-1" d="M29.67,45.6c3.55-.06,7.17.12,10.82-.29-.06.65-.09,1.27-.4,1.83-.35.62-.96.83-1.62.84-1.53.02-3.07-.03-4.58-.31-.07-.01-.14,0-.26-.01v5.33s.01.02.03.02c1.37,0,2.74,0,4.1-.05.4-.02.8-.22,1.24-.35-.06.49-.08,1.02-.19,1.53-.13.61-.59.99-1.22,1-.95.02-1.91-.02-2.87-.03-.37,0-.75,0-1.1,0v6.02c2.69-.27,5.38.23,7.98-.78.07.73.16,1.47-.1,2.19-.25.7-.89.86-1.52.88-1.23.04-2.45.02-3.68.01-2.08-.02-4.15-.06-6.23-.09-.1,0-.21,0-.28-.01.39-5.91.29-11.79-.11-17.73Z"/>
    <path class="cls-1" d="M5.87,54.34c0,.17,0,.31,0,.45.04,2.14.08,4.27.12,6.41,0,.26-.01.52-.05.78-.13,1-.77,1.62-1.78,1.59-.72-.02-1.44-.17-2.16-.27.39-3.29.38-6.54.32-9.79-.06-3.24.05-6.49-.41-9.76,3.61-.05,7.24.11,10.9-.32-.07.74-.07,1.47-.45,2.11-.36.61-.97.8-1.63.82-1.5.05-2.99-.07-4.48-.32-.09-.01-.18-.02-.31-.04v6.04c.1,0,.21.02.32.02,1.09,0,2.17,0,3.26,0,.63,0,1.22-.1,1.8-.47-.07.61-.1,1.23-.24,1.83-.13.58-.55.96-1.15.99-.92.04-1.84,0-2.75-.01-.42,0-.84-.04-1.32-.06Z"/>
    <path class="cls-1" d="M76.27,45.68c.92-.3,1.81-.46,2.73-.17.88.28,1.32.87,1.31,1.79-.03,2.49-.08,4.98-.08,7.47,0,2.44.03,4.89.31,7.32.04.37.09.74.15,1.2-.79.08-1.54.23-2.3.21-1.13-.03-1.68-.63-1.68-1.76-.02-3.01.03-6.02-.02-9.03-.04-2.17-.21-4.33-.32-6.5,0-.16-.05-.32-.08-.52Z"/>
  </g>
</svg>