<?xml version="1.0" encoding="UTF-8"?>
<svg id="Layer_1" data-name="Layer 1" xmlns="http://www.w3.org/2000/svg" version="1.1" xmlns:xlink="http://www.w3.org/1999/xlink" viewBox="0 0 100 100">
  <defs>
    <style>
      .cls-1 {
        fill: url(#linear-gradient);
      }

      .cls-1, .cls-2, .cls-3, .cls-4 {
        stroke-width: 0px;
      }

      .cls-2 {
        fill: none;
      }

      .cls-3 {
        fill: #fff9ae;
      }

      .cls-3, .cls-4 {
        fill-rule: evenodd;
      }

      .cls-4 {
        fill: url(#linear-gradient-2);
      }

      .cls-5 {
        clip-path: url(#clippath);
      }
    </style>
    <clipPath id="clippath">
      <rect class="cls-2" x="5.54" y="5.74" width="88.93" height="88.52"/>
    </clipPath>
    <linearGradient id="linear-gradient" x1="50" y1="94.26" x2="50" y2="5.74" gradientUnits="userSpaceOnUse">
      <stop offset="0" stop-color="#000"/>
      <stop offset=".14" stop-color="#000002"/>
      <stop offset="1" stop-color="#0095da"/>
    </linearGradient>
    <linearGradient id="linear-gradient-2" x1="2.52" y1="50" x2="97.48" y2="50" gradientUnits="userSpaceOnUse">
      <stop offset="0" stop-color="#f8df7c"/>
      <stop offset=".23" stop-color="#ba882c"/>
      <stop offset=".27" stop-color="#bc8b2f"/>
      <stop offset=".31" stop-color="#c5973a"/>
      <stop offset=".35" stop-color="#d2aa4c"/>
      <stop offset=".39" stop-color="#e6c564"/>
      <stop offset=".42" stop-color="#f8df7c"/>
      <stop offset=".52" stop-color="#fee986"/>
      <stop offset=".65" stop-color="#f8df7c"/>
      <stop offset=".84" stop-color="#b47f2b"/>
      <stop offset=".94" stop-color="#e1bf61"/>
      <stop offset="1" stop-color="#f8df7c"/>
    </linearGradient>
  </defs>
  <g class="cls-5">
    <rect class="cls-1" x="5.54" y="5.74" width="88.93" height="88.52"/>
  </g>
  <path class="cls-4" d="M6.6,7.04h86.8v85.92H6.6V7.04ZM2.52,3h94.96v94H2.52V3Z"/>
  <path class="cls-3" d="M78.51,40.02v-11.67c-.37-.51-.84-.97-1.39-1.26-.59-.34-1.27-.45-1.94-.45-.71,0-1.38.12-2.04.38-.59.24-1.07.61-1.43,1.16-.47.67-.76,1.58-.93,2.38-.28,1.3-.33,2.75-.33,4.08,0,.92.09,1.85.28,2.75h0s0,.02,0,.02c.13.81.38,1.63.77,2.34.33.6.72,1.2,1.24,1.65.46.4.99.55,1.58.55.85,0,1.81-.13,2.56-.55.62-.37,1.19-.8,1.64-1.38M49.14,31.39c-.14,1.06-.19,2.12-.19,3.19,0,.98.05,1.97.19,2.94.13.9.34,1.84.73,2.66.35.74.84,1.41,1.46,1.93.66.55,1.43.71,2.26.71s1.59-.16,2.26-.66c.58-.53,1.06-1.14,1.4-1.86.34-.88.56-1.79.69-2.73.14-1.02.19-2.06.19-3.09s-.09-2.07-.24-3.09h0s0-.02,0-.02c-.08-.88-.27-1.78-.67-2.58v-.02s-.02-.02-.02-.02c-.29-.7-.71-1.32-1.29-1.79-.62-.45-1.38-.62-2.13-.62-.83,0-1.68.15-2.38.63-.63.48-1.11,1.11-1.49,1.82-.38.82-.6,1.73-.77,2.61ZM83.33,39.81c.03.49.13,1.04.34,1.49h0s0,.02,0,.02c.13.31.35.49.65.61.45.18,1.04.22,1.52.22.63,0,.85.58.85,1.14s-.25,1.09-.85,1.09c-1.04,0-2.3.26-3.32.5-.61.12-1.22.24-1.82.35-.27.05-.64.12-.91.12-.51,0-.81-.49-.96-.93v-.02s-.01-.03-.01-.03c-.08-.35-.14-.7-.17-1.06-.63.57-1.33,1.09-2.08,1.44-.97.42-2.02.6-3.07.6-1.19,0-2.38-.19-3.47-.71-1.01-.48-1.89-1.14-2.62-2.02-.72-.93-1.25-2.04-1.62-3.17-.38-1.33-.55-2.73-.55-4.12,0-1.77.24-3.54.9-5.19.55-1.32,1.29-2.6,2.32-3.57.94-.95,2.06-1.65,3.29-2.15,1.14-.41,2.36-.64,3.57-.64.64,0,1.27.06,1.89.16h.02s.02,0,.02,0c.43.1.85.23,1.26.39v-1.87c0-.96.02-1.96-.05-2.92-.03-.42-.12-1.09-.35-1.44h0s0-.02,0-.02c-.19-.32-.43-.54-.78-.65-.62-.13-1.19-.25-1.82-.29-.6-.01-.83-.61-.83-1.14s.22-1.13.83-1.14c.64-.05,1.27-.11,1.9-.25h.01s.01,0,.01,0c.66-.1,1.31-.2,1.97-.31.56-.09,1.12-.2,1.69-.26.33-.07.74-.16,1.08-.16.28,0,.52.08.74.24l.04.03.03.03c.19.2.32.46.32.74v21.98c0,.96.05,1.93.05,2.89ZM62.58,38.81c-.43,1.36-1.11,2.57-2.08,3.59-.93.98-2,1.73-3.25,2.21-1.34.51-2.72.74-4.15.74-1.25,0-2.53-.2-3.69-.7-1.16-.48-2.13-1.18-3-2.11-.88-.99-1.52-2.22-1.97-3.48-.51-1.56-.7-3.25-.7-4.9,0-1.44.22-2.84.71-4.2.48-1.22,1.13-2.32,2.03-3.28.93-.94,1.97-1.63,3.19-2.14,1.26-.5,2.62-.75,3.97-.75s2.6.19,3.85.64h.01s.01,0,.01,0c1.13.47,2.16,1.11,3.03,1.99.91.91,1.6,2.01,2.03,3.23.55,1.39.75,2.86.75,4.36,0,1.61-.2,3.28-.75,4.8ZM38.95,41.78c-.68.48-1.34.98-2.02,1.45-.71.52-1.5.89-2.32,1.18-.95.36-1.98.55-2.98.69-1.33.18-2.67.26-4,.26-2.09,0-4.16-.3-6.13-1.05-1.71-.67-3.22-1.67-4.5-3.03-1.27-1.41-2.15-3.1-2.75-4.92-.7-2.1-.94-4.32-.94-6.53s.33-4.56,1.09-6.7c.71-1.85,1.73-3.58,3.14-4.96,1.32-1.35,2.93-2.39,4.69-3.01,1.88-.72,3.88-1.05,5.88-1.05,1.34,0,2.64.2,3.93.58,1.11.34,2.24.79,3.26,1.36.35.18.85.46,1.23.51.24.03.34-.23.4-.43.03-.32.25-.56.55-.67.2-.07.38-.08.58-.08.28,0,.46.07.68.22.28.16.41.5.3.81-.25,1.14-.3,2.33-.22,3.51.05,1.37.14,2.74.29,4.1v.03s0,.03,0,.03c0,.28-.14.54-.32.74l-.03.03-.04.03c-.22.15-.41.27-.67.29-.23.06-.43,0-.67-.06h-.02s-.02-.01-.02-.01c-.32-.11-.53-.42-.55-.76-.34-2.15-1.19-4.08-2.9-5.43-1.73-1.4-3.79-1.94-5.97-1.94-1.34,0-2.65.31-3.79,1.05-1.1.73-1.96,1.65-2.65,2.81-.74,1.2-1.22,2.55-1.53,3.93-.32,1.43-.52,2.91-.52,4.38,0,1.86.15,3.78.56,5.59.37,1.49.9,2.99,1.72,4.29.69,1.1,1.58,1.99,2.68,2.65,1.1.66,2.35.9,3.61.9.93,0,1.89-.03,2.81-.2.73-.13,1.46-.39,2.1-.8.54-.33.95-.85,1.22-1.43.36-.76.48-1.66.48-2.49,0-.66-.06-1.3-.18-1.95-.06-.32-.17-.62-.41-.84-.32-.24-.65-.39-1.05-.47-.61-.13-1.29-.17-1.91-.25-.33,0-.61-.13-.79-.42l-.03-.05-.02-.06c-.06-.2-.12-.39-.12-.61s.06-.4.12-.61l.03-.11.08-.08c.19-.2.4-.3.67-.3.99,0,1.97.05,2.96.1.9.04,1.81.1,2.72.1.33,0,.66,0,.99-.05.37-.06.75-.06,1.13-.06s.78-.05,1.17-.05c.48-.06.99-.05,1.47-.05.3,0,.57.14.71.42v.03s.02.03.02.03c.06.2.12.39.12.61,0,.25-.08.49-.21.7-.13.24-.35.33-.59.42l-.06.02h-.06c-.41.04-.87.1-1.24.27-.2.09-.4.22-.51.42-.12.21-.15.55-.18.79-.05.43-.04.89-.04,1.32v3.98c0,.37-.1.72-.43.88Z"/>
  <path class="cls-3" d="M88.09,83.45c-.54.88-1.27,1.63-2.21,2.04-.97.42-2.02.6-3.07.6-1.46,0-3.25-.25-4.24-1.49-1.04-1.12-1.27-2.91-1.27-4.4v-11.12c0-.2.01-.51-.04-.7v-.06s-.01-.04-.01-.04c-.01-.01-.03-.02-.04-.03-.08-.06-.32-.07-.41-.07-.43,0-.86-.05-1.3-.05-.34,0-.58-.27-.68-.59v-.03s-.01-.03-.01-.03c-.05-.25-.1-.5-.1-.75,0-.28.01-.5.15-.74.13-.26.32-.44.62-.45.5-.04.98-.16,1.47-.33.38-.12.71-.33,1.01-.59.29-.36.51-.76.66-1.19.23-.72.38-1.44.46-2.2v-.03s.01-.03.01-.03c.09-.39.36-.59.71-.74.3-.13.58-.14.9-.14.25,0,.49,0,.74.07h.05s.05.04.05.04c.31.16.49.35.49.73v3.67c0,.1,0,.29.01.44.04,0,.07,0,.1,0h4.23c.37,0,.71.22.83.59v.02s0,.02,0,.02c.06.27.06.55.06.83s.01.65-.07.91l-.02.06-.03.05c-.18.28-.46.42-.77.42h-4.3v.14c-.06.19-.05.45-.05.65v9.64c0,1.01.08,2.44.49,3.37.28.64.78.89,1.45.89.56,0,1.09-.09,1.62-.28.35-.13.82-.33,1.11-.58l.04-.04.05-.03c.23-.12.48-.12.71,0,.16.08.28.16.41.3.13.13.2.27.28.43v.03s.02.03.02.03c.08.26.05.53-.12.74M65.78,82.68c.22.26.55.44.87.54h.02s.02.01.02.01c.55.23,1.38.33,1.96.43.6.09.88.53.88,1.13v.06c-.07.55-.28,1.03-.9,1.03-.97,0-1.97-.04-2.94-.16-.81-.1-1.63-.15-2.45-.15-.87,0-1.73.05-2.59.15-.85.1-1.7.16-2.55.16-.62,0-.9-.51-.9-1.09v-.05c.06-.55.3-1.06.89-1.09.49-.1,1.12-.2,1.58-.38.27-.1.51-.26.69-.49.16-.26.22-.57.25-.87,0-.58.05-1.17.05-1.76v-11.78c0-.06,0-.2,0-.26l-.03-.07h-2.23c-.29,0-.6-.18-.74-.44-.13-.22-.21-.5-.21-.75,0-.27.06-.56.2-.79.16-.33.39-.54.76-.55l2.21-.25c0-.1,0-.21,0-.29v-.09c.06-.28.05-.64.05-.93,0-1.23.14-2.47.56-3.63.38-1.11.93-2.11,1.73-2.97.75-.91,1.7-1.55,2.77-2.01,1.16-.47,2.43-.7,3.68-.7.7,0,1.4.1,2.09.21h.02s.02,0,.02,0c.68.15,1.35.41,1.95.76h.01s.01.02.01.02c.58.39,1.02.86,1.39,1.47.42.64.56,1.43.56,2.2,0,.31-.06.63-.18.9-.11.28-.27.54-.48.75-.23.24-.46.35-.75.5l-.03.02h-.03c-.33.13-.62.19-.97.19-.27,0-.53-.01-.78-.13-.24-.06-.46-.16-.66-.3-.26-.15-.46-.36-.6-.64-.14-.24-.2-.57-.2-.84,0-.39.06-.8.27-1.13l.05-.08.05-.04s.01-.1.01-.13c0-.36-.13-.68-.45-.87-.46-.3-1-.39-1.54-.39s-1.1.11-1.6.32c-.41.17-.73.43-1.01.77-.26.38-.48.75-.65,1.18-.14.49-.28.98-.36,1.49-.05.56-.09,1.11-.09,1.67v.04c-.05.53-.05,1.06-.05,1.59v.82c0,.05,0,.15,0,.23.06,0,.11,0,.15,0h3.94c.76,0,.94.75.94,1.4s-.18,1.4-.94,1.4h-4.1v12.02c0,.57.03,1.12.09,1.68.03.35.12.65.3.94ZM46.43,56.5c.25-.26.54-.49.89-.61h0s0,0,0,0c.37-.11.71-.17,1.09-.17s.72.06,1.06.18l.05.02.04.03c.27.17.54.35.76.58.26.27.45.57.58.92h0s0,.03,0,.03c.12.37.21.72.21,1.12,0,.36-.1.71-.22,1.04-.12.31-.29.61-.51.85-.23.29-.51.5-.85.64-.34.14-.67.24-1.04.24-.79,0-1.47-.3-2.08-.82-.6-.51-.89-1.21-.89-2,0-.4.1-.74.21-1.12h0s0-.03,0-.03c.13-.34.37-.65.65-.89ZM53.23,83.66c.26.01.44.16.63.35l.05.06.03.07c.09.19.14.41.14.62s-.06.4-.12.61l-.02.06-.03.05c-.17.27-.41.42-.73.42s-.6,0-.9-.05c-.36,0-.72-.06-1.08-.11-.38-.05-.77-.05-1.15-.1-.4-.05-.79-.05-1.2-.05-.84,0-1.66.05-2.49.15-.8.1-1.6.16-2.41.16-.32,0-.57-.15-.69-.44-.14-.19-.16-.41-.16-.65,0-.26.02-.47.16-.7.14-.25.42-.43.7-.44.44-.06,1.07-.15,1.46-.36h.02s.02-.02.02-.02c.27-.11.49-.28.64-.53.16-.26.21-.55.21-.86v-.05c.06-.53.05-1.1.05-1.63v-6.94c0-.96.02-1.95-.05-2.91-.05-.41-.14-1.14-.33-1.5h0s0-.02,0-.02c-.14-.29-.33-.46-.62-.58-.42-.17-.96-.25-1.41-.33-.33-.01-.58-.2-.69-.53-.06-.17-.12-.37-.12-.55,0-.25.05-.38.12-.61.11-.34.37-.53.71-.53.61-.05,1.22-.11,1.83-.2.59-.1,1.18-.19,1.77-.3.49-.09.99-.2,1.49-.26.29-.07.55-.11.85-.11.42,0,.85.17,1.04.57.12.26.19.48.19.77v13.77c0,.59,0,1.2.05,1.79v.02s0,.02,0,.02c0,.35.07.69.23.99h0s0,.02,0,.02c.1.22.27.39.49.49.4.18.87.3,1.3.37ZM35.86,56.27c.2-.13.4-.15.64-.15h.08l.07.03c.21.07.35.07.52.22.22.15.33.41.33.69v.11c-.27,1.13-.33,2.33-.29,3.48.1,1.37.19,2.74.33,4.11v.03s0,.03,0,.03c0,.31-.17.59-.4.77-.18.18-.41.29-.66.31-.26.07-.54.04-.77-.1-.26-.12-.43-.36-.52-.64v-.04s-.02-.04-.02-.04c-.33-2.15-1.17-4.1-2.86-5.46-1.72-1.4-3.86-1.89-6.01-1.89-1.35,0-2.65.29-3.79,1.05-1.07.69-1.97,1.61-2.59,2.75-.72,1.23-1.26,2.51-1.53,3.93h0s0,.03,0,.03c-.37,1.46-.51,2.92-.51,4.42,0,1.88.16,3.77.57,5.6.34,1.48.86,2.95,1.66,4.23.72,1.08,1.58,1.99,2.68,2.66,1.15.66,2.34.96,3.67.96.94,0,1.88-.08,2.81-.25.72-.13,1.42-.34,2.04-.75.56-.37.98-.87,1.27-1.49.35-.74.43-1.68.43-2.49,0-.63-.02-1.32-.13-1.94-.07-.32-.23-.65-.47-.86-.26-.23-.65-.34-.99-.4-.65-.12-1.31-.22-1.96-.3-.33,0-.56-.13-.74-.42-.14-.22-.22-.46-.22-.72s.08-.51.24-.7c.15-.23.37-.39.65-.39,1,0,2,.05,3,.1.89.04,1.78.1,2.67.1.34,0,.7,0,1.04-.05h.03s.03,0,.03,0c.35,0,.7-.05,1.06-.05.37,0,.75-.05,1.13-.05.48-.05.98-.05,1.47-.05.32,0,.55.15.73.42l.02.02v.03c.1.19.16.41.16.62,0,.25-.08.49-.21.7-.15.28-.46.43-.76.44-.33.03-.86.1-1.16.25h-.01s-.01.01-.01.01c-.2.09-.4.22-.51.42-.13.23-.18.47-.18.73v.06c-.06.45-.05.92-.05,1.37v3.93c0,.36-.14.71-.46.87-.64.53-1.32.99-1.99,1.46-.7.51-1.52.88-2.32,1.18-.96.36-1.97.6-2.98.74-1.33.18-2.71.21-4.05.21-2.06,0-4.16-.26-6.08-1.05-1.71-.66-3.25-1.64-4.5-3.03-1.28-1.41-2.19-3.09-2.74-4.91-.71-2.08-.94-4.34-.94-6.53s.29-4.55,1.09-6.7c.71-1.86,1.73-3.52,3.09-4.96,1.38-1.35,2.94-2.35,4.73-3.01,1.88-.72,3.88-1.05,5.88-1.05,1.32,0,2.62.19,3.88.58,1.16.34,2.27.81,3.32,1.42.37.21.8.4,1.23.45.2.03.32-.3.37-.44.09-.27.27-.48.52-.58Z"/>
</svg>