<?xml version="1.0" encoding="UTF-8"?>
<svg id="Layer_1" data-name="Layer 1" xmlns="http://www.w3.org/2000/svg" version="1.1" xmlns:xlink="http://www.w3.org/1999/xlink" viewBox="0 0 100 100">
  <defs>
    <style>
      .cls-1 {
        fill: url(#linear-gradient);
      }

      .cls-1, .cls-2, .cls-3, .cls-4, .cls-5, .cls-6 {
        stroke-width: 0px;
      }

      .cls-2 {
        fill: #137b46;
      }

      .cls-3 {
        fill: #f48220;
      }

      .cls-7 {
        fill: none;
        stroke: #231f20;
        stroke-miterlimit: 2.61;
        stroke-width: .8px;
      }

      .cls-4 {
        fill: url(#linear-gradient-2);
      }

      .cls-5 {
        fill: #231f20;
      }

      .cls-6 {
        fill: #a5cd39;
        fill-rule: evenodd;
      }
    </style>
    <linearGradient id="linear-gradient" x1="9.1" y1="48.91" x2="11.26" y2="48.91" gradientUnits="userSpaceOnUse">
      <stop offset="0" stop-color="#ba8b4a"/>
      <stop offset=".25" stop-color="#ba8b4a"/>
      <stop offset=".52" stop-color="#fef388"/>
      <stop offset=".76" stop-color="#ba8b4a"/>
      <stop offset="1" stop-color="#ba8b4a"/>
    </linearGradient>
    <linearGradient id="linear-gradient-2" x1="1.29" y1="52.31" x2="19.64" y2="52.31" xlink:href="#linear-gradient"/>
  </defs>
  <path class="cls-1" d="M10.18,46.89c.27,1.35,1.08,2.02,1.08,2.7s-.27,1.35-1.08,1.35-1.08-.67-1.08-1.35.81-1.35,1.08-2.7"/>
  <path class="cls-2" d="M88.16,39.25v6.87h.04c.77-1.19,1.71-1.79,2.83-1.79,1.91,0,2.87,1.41,2.87,4.24v5.39c0,.63.02,1.04.07,1.23.11.4.37.6.78.6v.55h-5.1v-.55c.47-.05.71-.51.71-1.38v-7.08c0-.84-.25-1.26-.75-1.26-.45,0-.93.53-1.45,1.6v6.29c0,.62.02,1.01.06,1.18.1.41.33.63.71.65v.55h-5.21v-.55c.6.04.9-.43.9-1.4v-12.75c0-.68-.02-1.09-.06-1.24-.1-.39-.38-.59-.83-.59v-.55h4.44-.01ZM82.33,53.49l.43.3c-.95,1.99-2.37,2.98-4.26,2.98-1.39,0-2.49-.54-3.32-1.61-.82-1.07-1.23-2.52-1.23-4.34,0-1.97.44-3.54,1.32-4.72s2.06-1.77,3.54-1.77c1.09,0,2,.3,2.74.89.74.6,1.11,1.33,1.11,2.21,0,.47-.12.85-.37,1.16s-.55.46-.91.46c-.49,0-.87-.25-1.13-.74-.22-.43-.33-.95-.33-1.57,0-.92-.29-1.38-.87-1.38-.53,0-.96.44-1.26,1.31-.26.73-.38,1.59-.38,2.58,0,1.53.29,2.83.86,3.92.58,1.09,1.27,1.63,2.08,1.63.64,0,1.3-.43,2-1.29l-.02-.02ZM70.26,38.51c.53,0,.99.22,1.36.65s.56.97.56,1.59-.18,1.16-.56,1.59c-.37.44-.82.65-1.36.65s-.99-.22-1.36-.65-.56-.97-.56-1.59.18-1.16.56-1.59c.37-.44.82-.65,1.36-.65ZM72.07,44.65v9.3c0,.7.03,1.14.08,1.32.13.38.43.55.92.51v.55h-5.67v-.55c.54.04.88-.11,1.02-.46.07-.19.1-.64.1-1.36v-7.63c0-.64-.37-1.01-1.12-1.12v-.55h4.67ZM65.77,39.25v14.68c0,.72.02,1.16.07,1.32.12.36.42.54.91.54v.55h-5.74v-.55c.49,0,.81-.09.97-.29s.24-.61.24-1.21v-12.7c0-.52-.02-.87-.05-1.05-.08-.38-.27-.61-.57-.68-.13-.03-.33-.05-.58-.05v-.55h4.75,0ZM60.35,44.65v1.39h-1.96v7.57c0,.99.21,1.48.64,1.48.36,0,.73-.35,1.11-1.05l.33.32c-.59,1.48-1.55,2.22-2.88,2.22-.85,0-1.51-.24-2.01-.72-.49-.49-.74-1.15-.74-2v-7.81h-1.2v-.93c1.94-.98,3.26-2.52,3.97-4.61h.77v4.14h1.97ZM53.25,44.65v1.39h-1.96v7.57c0,.99.21,1.48.64,1.48.36,0,.73-.35,1.11-1.05l.33.32c-.59,1.48-1.55,2.22-2.88,2.22-.85,0-1.51-.24-2.01-.72-.49-.49-.74-1.15-.74-2v-7.81h-1.2v-.93c1.94-.98,3.26-2.52,3.97-4.61h.77v4.14h1.97ZM42.8,39.03c.41,0,.76.17,1.05.5s.43.74.43,1.22-.15.88-.43,1.22c-.29.34-.64.51-1.05.51s-.75-.17-1.03-.51c-.29-.34-.43-.74-.43-1.22s.15-.89.43-1.22c.29-.33.63-.5,1.03-.5ZM38.9,39.03c.4,0,.75.17,1.03.5.29.33.43.74.43,1.22s-.15.88-.43,1.22c-.29.34-.63.51-1.03.51s-.76-.17-1.05-.51-.43-.74-.43-1.22.15-.89.43-1.22c.29-.33.64-.5,1.05-.5ZM40.86,45.2c-.58,0-.97.35-1.18,1.05s-.32,2.02-.32,3.96c0,1.69.04,2.81.11,3.38.2,1.53.66,2.29,1.39,2.29.58,0,.97-.44,1.19-1.33.2-.82.3-2.26.3-4.34,0-1.93-.1-3.25-.31-3.96-.21-.7-.6-1.05-1.18-1.05ZM40.86,44.32c1.53,0,2.75.56,3.68,1.69.93,1.12,1.39,2.62,1.39,4.48,0,1.76-.44,3.23-1.32,4.39-.94,1.25-2.19,1.88-3.75,1.88s-2.74-.58-3.68-1.74-1.41-2.67-1.41-4.52.47-3.35,1.4-4.48,2.16-1.69,3.69-1.69h0ZM26.8,58.97c0,1,.97,1.5,2.91,1.5,1.8,0,2.7-.49,2.7-1.48,0-.42-.22-.72-.68-.89-.45-.17-1.22-.26-2.32-.26-.97,0-1.65.08-2.03.25-.39.17-.58.46-.58.87h0ZM28.34,48.13c0,1.2.01,1.93.04,2.17.13.95.47,1.43,1.02,1.43.41,0,.69-.24.86-.72.16-.48.25-1.27.25-2.38,0-1.31-.07-2.19-.22-2.66s-.43-.7-.86-.7c-.72,0-1.08.95-1.08,2.86h-.01ZM34.97,46.44h-1.56c.46.5.69,1.19.69,2.07,0,1.24-.4,2.23-1.2,2.98-.8.74-1.86,1.12-3.17,1.12-.1,0-.29,0-.57-.02-.28,0-.46-.02-.55-.02-1.05,0-1.57.34-1.57,1.02,0,.41.19.69.56.82.29.1.87.16,1.74.16,1.47,0,2.57.09,3.3.28.69.18,1.22.5,1.6.94.47.55.7,1.26.7,2.12,0,2.4-1.73,3.6-5.21,3.6s-4.98-.85-4.98-2.55c0-.75.37-1.36,1.12-1.82-.64-.64-.96-1.37-.96-2.18,0-1.32.65-2.31,1.94-2.96-1.4-.76-2.1-1.92-2.1-3.5,0-1.21.43-2.21,1.28-2.99.85-.79,1.93-1.18,3.24-1.18,1,0,1.89.21,2.67.62h3.03v1.5h0Z"/>
  <path class="cls-2" d="M95.82,41.74h.2c.29,0,.47,0,.54-.03s.13-.06.17-.11.06-.12.06-.19-.02-.13-.06-.18-.1-.09-.17-.11-.25-.03-.54-.03h-.2v.66h0ZM95.32,43.12v-2.42h1.29c.17,0,.3.05.39.1s.17.13.23.23c.06.1.09.22.09.35,0,.17-.06.32-.18.45-.12.12-.28.2-.49.23.08.03.13.06.17.09s.1.09.17.19c.02.02.08.12.18.29l.29.49h-.62l-.21-.39c-.14-.26-.26-.43-.35-.5s-.21-.1-.35-.1h-.13v.99h-.5.02ZM96.38,40.06c-.32,0-.63.08-.93.23-.29.16-.53.38-.7.68-.17.29-.26.6-.26.92s.08.63.25.91c.17.29.4.52.69.68.3.16.61.24.93.24s.64-.08.94-.24.53-.39.69-.68c.17-.29.25-.59.25-.91s-.08-.63-.25-.92c-.17-.29-.4-.52-.7-.68-.3-.16-.61-.23-.93-.23h.02ZM96.38,39.62c.4,0,.79.1,1.15.29.37.19.66.48.87.84.21.37.32.75.32,1.15s-.1.78-.31,1.14-.5.64-.87.84-.76.3-1.16.3-.8-.1-1.17-.3c-.37-.2-.66-.48-.86-.84-.21-.36-.31-.74-.31-1.14s.11-.78.32-1.15c.21-.36.5-.65.87-.84.37-.2.75-.29,1.15-.29Z"/>
  <path class="cls-6" d="M3.42,38.31c1.28.73,1.78,1.81,2.03,3.06.41,1.99,1.34,3.53,3.43,3.66.02-1.08-.09-2.15-.72-3.23,1.4,1.01,1.51,2.78.72,5.07,1.54-2.63,1.61-5.35-.17-6.98-1.58-1.6-3.37-1.97-5.29-1.58Z"/>
  <path class="cls-7" d="M3.42,38.31c1.28.73,1.78,1.81,2.03,3.06.41,1.99,1.34,3.53,3.43,3.66.02-1.08-.09-2.15-.72-3.23,1.4,1.01,1.51,2.78.72,5.07,1.54-2.63,1.61-5.35-.17-6.98-1.58-1.6-3.37-1.97-5.29-1.58Z"/>
  <path class="cls-6" d="M17.21,38.31c-1.28.73-1.78,1.81-2.03,3.06-.41,1.99-1.34,3.53-3.43,3.66-.02-1.08.09-2.15.72-3.23-1.41,1.01-1.51,2.78-.72,5.07-1.54-2.63-1.61-5.35.17-6.98,1.58-1.6,3.37-1.97,5.29-1.58Z"/>
  <path class="cls-7" d="M17.21,38.31c-1.28.73-1.78,1.81-2.03,3.06-.41,1.99-1.34,3.53-3.43,3.66-.02-1.08.09-2.15.72-3.23-1.41,1.01-1.51,2.78-.72,5.07-1.54-2.63-1.61-5.35.17-6.98,1.58-1.6,3.37-1.97,5.29-1.58Z"/>
  <path class="cls-5" d="M15.84,45.89h-3.25c-.76-.35-1.64-.52-2.62-.52-1.34,0-2.47.37-3.37,1.09-.92.75-1.38,1.71-1.38,2.88,0,1.22.5,2.19,1.48,2.9-1.07.76-1.32,1.73-1.32,2.47,0,.63.21,1.21.63,1.73-.64.53-.79,1.14-.79,1.59,0,2.35,2.96,2.62,5.19,2.62,4.46,0,5.4-1.9,5.4-3.49,0-.84-.27-1.55-.8-2.11-.43-.44-1.02-.75-1.76-.92-.74-.16-1.82-.24-3.22-.24-1.02,0-1.36-.07-1.49-.11-.18-.06-.18-.12-.18-.2,0-.23.33-.35.98-.35.05,0,.13,0,.24,0h.25c.29.03.48.03.58.03,1.35,0,2.46-.35,3.31-1.04.87-.72,1.31-1.68,1.31-2.86,0-.45-.07-.86-.22-1.22h1.04v-2.26ZM7.17,59.21l.27-.25c.17.22.43.4.76.53-.43-.07-.76-.17-1.02-.28ZM10.38,58.82c-.84,0-2.24-.1-2.24-.75v-.08c.02-.06.07-.12.22-.18.17-.07.62-.18,1.73-.18,1.22,0,1.78.1,2.03.19.3.1.3.2.3.26,0,.64-1.28.73-2.04.73ZM10.03,54.89c1.33,0,2.34.07,3,.22.55.13.97.34,1.26.64.35.37.52.83.52,1.41,0,.5,0,1.81-2.3,2.3.6-.29.91-.74.91-1.37,0-.33-.13-.94-.98-1.21-.48-.16-1.24-.24-2.35-.24-.98,0-1.67.08-2.09.24-.56.22-.87.64-.87,1.2v1.12c-.91-.39-.91-.93-.91-1.17,0-.16,0-.64.8-1.07l.63-.34-.54-.48c-.49-.43-.73-.9-.73-1.43,0-.79.39-1.39,1.19-1.84-.17.24-.21.5-.21.71,0,.56.32.98.87,1.15.32.11.88.16,1.8.16ZM8.6,49.06c0,1.15.01,1.65.05,1.88.1.67.33,1.06.59,1.3-.13,0-.25.01-.37.02l-.95-.46c-1.14-.54-1.7-1.35-1.7-2.46,0-.86.33-1.55,1.02-2.1.58-.47,1.31-.76,2.17-.84-.53.38-.8,1.27-.8,2.66ZM10.45,51.26c-.11.26-.22.29-.35.29-.1,0-.35,0-.47-.76-.03-.23-.03-1.35-.03-1.73,0-1.16.2-1.88.52-1.88.19,0,.27.06.34.25.08.23.18.77.18,2.04,0,1.05-.11,1.56-.19,1.79ZM14.84,47.15h-.97l-.35.86c.34.33.5.77.5,1.36,0,.88-.31,1.56-.95,2.08-.56.46-1.26.72-2.12.79.18-.15.32-.36.43-.62.18-.47.26-1.18.26-2.16,0-1.17-.08-1.92-.24-2.38-.1-.28-.25-.49-.45-.65.48.08.92.21,1.31.4l2.58.05v.26Z"/>
  <path class="cls-3" d="M12.48,46.39c-.73-.35-1.57-.52-2.51-.52-1.23,0-2.25.33-3.05.98-.8.65-1.2,1.48-1.2,2.49,0,1.31.66,2.28,1.98,2.91-1.21.54-1.82,1.36-1.82,2.46,0,.67.3,1.28.9,1.81-.71.38-1.06.89-1.06,1.51,0,1.41,1.42,2.12,4.69,2.12s4.9-1,4.9-2.99c0-.71-.22-1.3-.66-1.76-.36-.37-.86-.63-1.51-.78-.69-.15-1.72-.23-3.11-.23-.82,0-1.37-.04-1.64-.13-.35-.11-.53-.34-.53-.68,0-.57.49-.85,1.48-.85.08,0,.26.01.52.02.27.02.45.02.54.02,1.24,0,2.23-.31,2.99-.93.75-.62,1.13-1.44,1.13-2.47,0-.73-.22-1.3-.65-1.72h1.47v-1.26h-2.86ZM8.18,57.35c.36-.14,1-.21,1.91-.21,1.04,0,1.77.07,2.19.21.43.14.64.39.64.74,0,.82-.85,1.23-2.54,1.23-1.83,0-2.74-.42-2.74-1.25h-.01c0-.34.19-.58.55-.72ZM10.91,51.45c-.16.4-.43.6-.81.6-.52,0-.84-.4-.96-1.19-.03-.2-.04-.8-.04-1.8,0-1.59.34-2.38,1.02-2.38.4,0,.67.19.81.58s.21,1.12.21,2.21c0,.92-.08,1.58-.23,1.98Z"/>
  <path class="cls-4" d="M15.94,42.8c2.24,1.93,3.7,5,3.7,8.47,0,5.83-4.11,10.56-9.17,10.56S1.29,57.1,1.29,51.27c0-3.47,1.46-6.55,3.7-8.48l.39.8c-2.01,1.76-3.3,4.55-3.3,7.67,0,5.33,3.75,9.65,8.38,9.65s8.38-4.32,8.38-9.65c0-3.16-1.32-5.97-3.37-7.73l.46-.74h0Z"/>
</svg>