<?xml version="1.0" encoding="UTF-8"?>
<svg id="Layer_1" data-name="Layer 1" xmlns="http://www.w3.org/2000/svg" version="1.1" viewBox="0 0 100 100">
  <defs>
    <style>
      .cls-1 {
        fill: #fef9ec;
      }

      .cls-1, .cls-2 {
        stroke-width: 0px;
      }

      .cls-2 {
        fill: #9b9f75;
      }
    </style>
  </defs>
  <path class="cls-2" d="M95.81,34.04c-2.87-4.77-8.59-7.8-14.16-7.32-6.32.54-12.31,3.96-18.51,4.89-5.4.81-10.89.41-16.31-.09-9.86-.92-20.39-2.4-29.65,2.09-7.56,3.68-13.37,10.93-15.21,19.16-.79,3.53-.86,7.63,1.11,10.82,2.27,3.68,6.48,4.38,10.46,3.83,4.86-.66,9.39-2.35,14.37-2.29,5.26.06,10.42,1.36,15.44,2.81,9.17,2.66,18.6,6.28,28.33,5.18,8.24-.94,15.89-5.48,20.92-12.04,5.71-7.45,8.3-18.58,3.2-27.05Z"/>
  <g>
    <path class="cls-1" d="M25.92,48.16c-.48-1.19-.42-1.09-.63-1.74-.98.84-.02.19-2.04,1.95-.19.16-.45.24-.76.24-.84,0-1.95-.61-2.45-1.79-.26-.6-.37-1.24-.37-1.93,0-2.53,1.54-5.49,3.33-7.31.31-.31.66-.53,1.09-.53.16,0,.34.03.51.11.84.32,1.19.37,1.59,1.19.06.11-.08.31-.23.31h-.02c-.26-.02-.53-.06-.85-.11-2.03,2.09-3.3,5.15-3.3,7.21,0,.43.05.84.18,1.16,1.01-.43,1.9-1.79,2.32-2.83.23-.53.35-.95.61-.95.05,0,.11,0,.16.03,1.27.6,1.72.72,1.87,1.69.43,2.83.37,3.07.64,3.72.03.06.03.11.03.16,0,.19-.18.29-.43.29-.42,0-1.03-.27-1.27-.87Z"/>
    <path class="cls-1" d="M31.69,48.06c-.8-3.11-.84-3.32-1.34-3.6-.03-.02-.56-.35-.56-.88,0-.19.05-.4.23-.63.11-.13.06,0,.27-.32-.14-.79-.29-1.61-.45-2.45-.31-.06-1.26-.19-1.26-.87,0-.24.11-.56.43-.98.37-.48.92-.74,1.42-1.08.53-.11.9-.18,1.21-.18.6,0,.95.21,1.67.63.77.43,1.08,1.01,1.08,1.67,0,.48-.16,1-.4,1.56-.76,1.72-1.43,1.9-1.43,2.51,0,.08.02.18.03.27.06.29-.05.58.43.87,3.46,2.16,3.62,2.53,3.93,2.91.1.11.13.26.13.37,0,.27-.16.48-.35.43-.39-.11-.82-.13-1.11-.51-.16-.23-.29-.32-2.14-1.43-.11-.06-.23-.1-.39-.16,0,.77.4,1.87.4,2.43,0,.26-.1.42-.34.37-.14-.02-1.26-.1-1.46-.93ZM32.53,39.02c0-.24-.06-.45-.19-.58l-.58.13c.1.55.19,1.06.27,1.59.35-.37.5-.79.5-1.14Z"/>
    <path class="cls-1" d="M38.18,49.57c-.45-.11-.61-.35-.61-.82,0-.42.14-1.01.32-1.87,2.11-9.41,2.24-10.06,2.98-10.49l1.21.61c.19.87.4.71.9,1.91,1.72,4.15.95,2.56,2.25,3.54.08.06.13.14.13.21,0,.21-.29.45-.51.69.92,2.35,1.56,3.59,1.56,4.1,0,.19-.1.29-.32.29h-.14c-1.08-.14-1.17-.76-2.24-2.85l-.35-.68-3.36,1.75c-.85,3.07-.87,3.7-1.3,3.7-.13,0-.27-.05-.5-.11ZM42.57,42.73c-1.09-2.06-.92-1.88-1.16-1.85-.1.23-.77,2.54-.74,2.88.68-.31,1.29-.6,1.9-1.03Z"/>
    <path class="cls-1" d="M50.27,43.07c-.05.1-.08.16-.08.21v.02c.08,3.38.08,3.64.31,4.06.03.06.05.16.05.26,0,.24-.11.5-.48.45-1.14-.16-1.29-.58-1.58-3.12-.14-1.3-.29-2.67-.29-4.02,0-.87.06-1.74.23-2.56.03-.13.13-.26.21-.39.11.02.14,0,.16.02,1.74.97.58-.31,3.8,6.28.14,0,.18-.03.18-.21,0-.23-.06-.71-.1-1.69-.06-1.64-.1-2.62-.1-3.23,0-.85.06-1.01.23-1.27.5,0,.29.05.55.13.77.27,1.01.87,1.03,1.63.13,7.68.19,7.56.4,8-.18.21-.37.4-.56.61-1.77.08-2.29-2.72-3.94-5.15Z"/>
    <path class="cls-1" d="M59.12,48.9c-1.79-.42-1.61-.51-2.33-6.97-.06-.53-.08-.97-.08-1.37,0-.6.05-1.14.13-1.88.11-1.11.79-1.58,1.66-1.58.95,0,2.09.55,2.98,1.4,1.03,1,1.53,2.46,1.53,3.93,0,1.09-.27,2.2-.82,3.11-1.67,2.78-1.93,3.44-2.58,3.44-.14,0-.29-.03-.48-.08ZM60.84,41.61c0-1.93-.82-3.19-1.66-3.19-.1,0-.18.02-.27.05.26,1.34.4,3.44.47,4.31.19,3.06,0,3.17.29,3.17.85-1.63,1.17-3.12,1.17-4.35Z"/>
    <path class="cls-1" d="M71.86,47.63c-.37-1.56-.27-5.34-.31-6.13-.43-.11-1.11,1.71-2.33,1.71-.53,0-1.14-.32-1.88-1.29-.79-1.03-1.03-1.48-1.63-2.16-.08.97,1.05,5.44,1.05,7.58,0,.72-.13,1.17-.48,1.13-.68-.08-.92-.34-.97-1-.26-3.54-1.35-7.31-1.35-9.09,0-.68.14-1.06.56-1.06.15,0,.32.05.55.16,1,.47,1.29.6,3.72,4.1.53-.16,2.38-2.7,2.85-3.48.13-.23.32-.63.63-.5,1.29.55,1.69.68,1.69,2.17,0,1.09-.23,2.91-.47,6.15,0,.11-.02.4-.02.74,0,.55.03,1.27.19,1.63.03.06.05.13.05.18,0,.21-.19.31-.45.31-.5,0-1.22-.35-1.4-1.14Z"/>
    <path class="cls-1" d="M75.05,49.57c-.45-.11-.61-.35-.61-.82,0-.42.14-1.01.32-1.87,2.11-9.41,2.24-10.06,2.98-10.49l1.21.61c.19.87.4.71.9,1.91,1.72,4.15.95,2.56,2.25,3.54.08.06.13.14.13.21,0,.21-.29.45-.52.69.92,2.35,1.56,3.59,1.56,4.1,0,.19-.1.29-.32.29h-.14c-1.08-.14-1.17-.76-2.24-2.85l-.35-.68-3.36,1.75c-.85,3.07-.87,3.7-1.3,3.7-.13,0-.27-.05-.5-.11ZM79.44,42.73c-1.09-2.06-.92-1.88-1.16-1.85-.1.23-.77,2.54-.74,2.88.68-.31,1.29-.6,1.9-1.03Z"/>
    <path class="cls-1" d="M18.94,55.76c-.05.1-.08.16-.08.21v.02c.08,3.38.08,3.64.31,4.06.03.06.05.16.05.26,0,.24-.11.5-.48.45-1.14-.16-1.29-.58-1.58-3.12-.14-1.3-.29-2.67-.29-4.02,0-.87.06-1.74.23-2.56.03-.13.13-.26.21-.39.11.02.14,0,.16.02,1.74.97.58-.31,3.8,6.28.14,0,.18-.03.18-.21,0-.23-.06-.71-.1-1.69-.06-1.64-.1-2.62-.1-3.23,0-.85.06-1.01.23-1.27.5,0,.29.05.55.13.77.27,1.01.87,1.03,1.63.13,7.68.19,7.56.4,8-.18.21-.37.4-.56.61-1.77.08-2.29-2.72-3.94-5.15Z"/>
    <path class="cls-1" d="M32.58,61.3c-1.29-.92-1.16-1.95-1.82-4.28-.61,1.51-1.09,3.44-2.53,3.44-.42,0-.93-.18-1.56-.58-1.34-.85-1.79-3.04-1.79-5.13,0-2.56.66-4.97,1.17-4.68.89.48,1.19.64,1.19,1.16,0,1.08-.19,2.66-.19,4.17,0,1.27.11,2.49.51,3.33,1.61-1.22,2.54-7.92,2.59-8.09.02-.1.14-.18.26-.18.05,0,.08,0,.11.03.51.43,1.72.35,1.8,1.69.18,2.64.51,6.18,1.32,9.11-.14.11-.27.14-.4.14-.24,0-.48-.13-.68-.13Z"/>
    <path class="cls-1" d="M37.73,60.75c-.8-3.11-.84-3.32-1.34-3.61-.03-.02-.56-.35-.56-.88,0-.19.05-.4.23-.63.11-.13.06,0,.27-.32-.14-.79-.29-1.61-.45-2.45-.31-.06-1.26-.19-1.26-.87,0-.24.11-.56.43-.98.37-.48.92-.74,1.42-1.08.53-.11.9-.18,1.21-.18.6,0,.95.21,1.67.63.77.43,1.08,1.01,1.08,1.67,0,.48-.16,1-.4,1.56-.76,1.72-1.43,1.9-1.43,2.51,0,.08.02.18.03.27.06.29-.05.58.43.87,3.46,2.16,3.62,2.53,3.93,2.91.1.11.13.26.13.37,0,.27-.16.48-.35.43-.39-.11-.82-.13-1.11-.51-.16-.23-.29-.32-2.14-1.43-.11-.06-.23-.1-.39-.16,0,.77.4,1.87.4,2.43,0,.26-.1.42-.34.37-.14-.02-1.26-.1-1.46-.93ZM38.57,51.71c0-.24-.06-.45-.19-.58l-.58.13c.1.55.19,1.06.27,1.59.35-.37.5-.79.5-1.14Z"/>
    <path class="cls-1" d="M47.79,61.52c-.48-.29-.45-.47-.69-3.46-.19-2.35-.23-3.65-.23-4.47,0-.74.03-1.08.03-1.43,0-.11-.02-.23-.02-.34-.08-.06-.24-.08-.42-.08-.26,0-.6.03-.93.03-.48,0-.98-.08-1.32-.47-.08-.1-.13-.23-.13-.35,0-.19.11-.37.32-.43.63-.18.58-.13,5.92-.47.43-.03.88-.05,1.34-.31.79.35,1.11.64,1.11.85,0,.68-3.11.77-4.1,1,.21,1.42.27,3.38.27,5.21,0,2.27-.1,4.33-.14,4.84-.13.05-.26.06-.37.06-.23,0-.43-.08-.64-.19Z"/>
    <path class="cls-1" d="M61.44,61.3c-1.29-.92-1.16-1.95-1.82-4.28-.61,1.51-1.09,3.44-2.53,3.44-.42,0-.93-.18-1.56-.58-1.34-.85-1.79-3.04-1.79-5.13,0-2.56.66-4.97,1.17-4.68.89.48,1.19.64,1.19,1.16,0,1.08-.19,2.66-.19,4.17,0,1.27.11,2.49.52,3.33,1.61-1.22,2.54-7.92,2.59-8.09.02-.1.14-.18.26-.18.05,0,.08,0,.11.03.51.43,1.72.35,1.8,1.69.18,2.64.52,6.18,1.32,9.11-.15.11-.27.14-.4.14-.24,0-.48-.13-.68-.13Z"/>
    <path class="cls-1" d="M66.59,60.75c-.8-3.11-.84-3.32-1.34-3.61-.03-.02-.56-.35-.56-.88,0-.19.05-.4.23-.63.11-.13.06,0,.27-.32-.14-.79-.29-1.61-.45-2.45-.31-.06-1.26-.19-1.26-.87,0-.24.11-.56.43-.98.37-.48.92-.74,1.42-1.08.53-.11.9-.18,1.21-.18.6,0,.95.21,1.67.63.77.43,1.08,1.01,1.08,1.67,0,.48-.16,1-.4,1.56-.76,1.72-1.43,1.9-1.43,2.51,0,.08.02.18.03.27.06.29-.05.58.43.87,3.46,2.16,3.62,2.53,3.93,2.91.1.11.13.26.13.37,0,.27-.16.48-.35.43-.39-.11-.82-.13-1.11-.51-.16-.23-.29-.32-2.14-1.43-.11-.06-.23-.1-.39-.16,0,.77.4,1.87.4,2.43,0,.26-.1.42-.34.37-.14-.02-1.26-.1-1.46-.93ZM67.42,51.71c0-.24-.06-.45-.19-.58l-.58.13c.1.55.19,1.06.27,1.59.35-.37.5-.79.5-1.14Z"/>
    <path class="cls-1" d="M76.05,61.12c-2-.48-2.62-2.12-2.62-4.04,0-1.01.18-2.09.42-3.12.42-1.74.76-2.32.76-2.67,0-.11-.05-.21-.13-.31-.05-.05-.06-.1-.06-.14,0-.26.5-.53.93-.82,2.41.79,2.99.05,3.99.93.05.05.08.11.08.18,0,.11-.06.23-.18.24-.9.14-1.37.08-2,.11-.19,0-.39.05-.6.06-.32,1-.56,1.98-.8,3.04.08,0,.16.02.24.02.45,0,.8-.13,1.19-.27.42.23.93.4.93.66,0,.08-.05.16-.14.24-.43.35-.77.34-2.4.55-.19.74-.26,1.35-.26,1.87,0,.97.24,1.61.47,2.11.13.29.47.39,1.11.39.9,0,1.19-.45,1.71-1.01.68.31,1.03.42,1.03.74,0,.1-.03.21-.1.35-.16.42-.43.72-.84.9-.53.24-.89.32-1.22.32-.45,0-.85-.16-1.51-.32Z"/>
    <path class="cls-1" d="M82.78,60.88c-.79-.48-1.61-1.09-1.61-1.82,0-.14.03-.29.1-.43.05-.1.18-.18.29-.29.93.48,1.09.5,1.18.9.08.47.4.68.77.68.47,0,1.03-.32,1.37-.87.06-.11.1-.24.1-.35,0-.1-.02-.19-.05-.29-.15-.45-.27-.9-.5-1.32-1.21-2.22-2.48-3.72-2.48-5.15,0-.34.06-.68.24-1.03.27-.55.89-.9,1.48-.9.21,0,.42.05.61.13,1.22.55,1.59,1.03,1.59,1.34,0,.19-.16.31-.34.29-.71-.05-.71-.56-1.06-.56-.06,0-.14.02-.24.06-.47.23-.64.55-.64.95,0,1.67,3.17,4.68,3.35,7.11.08,1.03-1,2.14-2.03,2.14-.77,0-1.48-.16-2.12-.58Z"/>
  </g>
</svg>