<?xml version="1.0" encoding="UTF-8"?>
<svg id="Layer_1" data-name="Layer 1" xmlns="http://www.w3.org/2000/svg" version="1.1" viewBox="0 0 100 100">
  <defs>
    <style>
      .cls-1, .cls-2 {
        stroke-width: 0px;
      }

      .cls-1, .cls-3 {
        fill: #231f20;
      }

      .cls-2 {
        fill: #43c4dc;
      }

      .cls-3 {
        font-family: Lufga-Medium, Lufga;
        font-size: 17.15px;
        font-weight: 500;
        letter-spacing: .04em;
      }
    </style>
  </defs>
  <path class="cls-2" d="M57.37,21.14s-11.07.36-12.87,5.29,6.49,7.94,8.66,9.02,13.59,6.74,8.9,14.31-21.05,10.34-25.02-2.04c0,0,4.58,8.89,13.51,6.9s9.7-9.38,2.49-13.31-14.67-7.3-12.19-14.67c2.49-7.38,16.52-5.49,16.52-5.49Z"/>
  <path class="cls-1" d="M54.61,33.77s10.46-.24,13.35,7.34c2.89,7.58-4.21,17.44-14.31,18.04-10.1.6-22.61-5.65-23.33-19.84-.72-14.19,11.31-25.98,31.75-24.05s25.62,11.91,25.98,21.29c.36,9.38-8.09,23.69-28.88,26.22-20.79,2.53-39.67-4.09-45.21-16.12-5.53-12.03,2.29-29.71,30.79-34.16,0,0-22.97-1.92-37.28,13.59-14.31,15.52,1.2,33.06,25.86,37.22s43.3-.65,55.57-10.28,12.87-24.29-2.41-34.52-45.94-5.36-58.57,2.43c-12.63,7.79-13.95,28.84,3.13,35.94,17.08,7.1,36.32,3.97,43.66-3.73,7.34-7.7,11.43-23.45-20.09-19.36Z"/>
  <text class="cls-3" transform="translate(20.59 83.52)"><tspan x="0" y="0">G . S . O</tspan></text>
</svg>