<?xml version="1.0" encoding="UTF-8"?>
<svg id="Layer_1" data-name="Layer 1" xmlns="http://www.w3.org/2000/svg" version="1.1" viewBox="0 0 100 100">
  <defs>
    <style>
      .cls-1 {
        stroke-width: 0px;
      }

      .cls-1, .cls-2 {
        fill: #44c8f5;
      }

      .cls-2 {
        font-family: ITCAvantGardeStd-Md, 'ITC Avant Garde Gothic Std';
        font-size: 18.18px;
        font-weight: 500;
        letter-spacing: .06em;
      }
    </style>
  </defs>
  <text class="cls-2" transform="translate(1.29 82.34) scale(.81 1)"><tspan x="0" y="0">HAIRMEDICS</tspan></text>
  <path class="cls-1" d="M67.23,18.42c-3.64,0-6.59,2.95-6.59,6.59v7.4h-20.75v-13.98h-1.14c-3.64,0-6.59,2.95-6.59,6.59v29.4h1.55c3.41,0,6.18-2.77,6.18-6.18v-8.02h20.75v14.2h1.55c3.41,0,6.18-2.77,6.18-6.18v-29.8h-1.14Z"/>
  <g>
    <path class="cls-1" d="M69.3,22.41v1.98c2.18,3.45,3.44,7.54,3.44,11.91s-1.27,8.46-3.44,11.91h0c0,.95-.19,1.84-.52,2.65,3.17-4.01,5.07-9.07,5.07-14.56,0-5.19-1.7-10-4.56-13.89Z"/>
    <path class="cls-1" d="M62.19,55.34h-.05c-3.43,2.13-7.47,3.37-11.8,3.37-4.91,0-9.46-1.59-13.15-4.28-.37.21-.76.38-1.16.52,3.97,3.06,8.93,4.88,14.32,4.88s10.46-1.87,14.45-4.99c-.81.32-1.69.5-2.61.5Z"/>
    <path class="cls-1" d="M31.24,47.99c-2.09-3.4-3.29-7.4-3.29-11.68s1.22-8.3,3.32-11.71c.06-1.14.37-2.22.89-3.17-3.33,4.06-5.33,9.24-5.33,14.89,0,5.1,1.64,9.83,4.41,13.69v-2.01Z"/>
    <path class="cls-1" d="M38.15,17.52c3.51-2.29,7.69-3.62,12.19-3.62,5.02,0,9.66,1.66,13.39,4.46.37-.2.77-.36,1.17-.5-4.01-3.17-9.07-5.08-14.57-5.08-5.86,0-11.23,2.16-15.35,5.72.95-.55,2.02-.9,3.17-.99Z"/>
  </g>
</svg>