<?xml version="1.0" encoding="UTF-8"?>
<svg id="Layer_1" data-name="Layer 1" xmlns="http://www.w3.org/2000/svg" version="1.1" viewBox="0 0 100 100">
  <defs>
    <style>
      .cls-1, .cls-2, .cls-3 {
        fill: #15509e;
      }

      .cls-1, .cls-3 {
        stroke-width: 0px;
      }

      .cls-2 {
        font-family: ArialMT, Arial;
        font-size: 5.2px;
      }

      .cls-3 {
        fill-rule: evenodd;
      }
    </style>
  </defs>
  <path class="cls-3" d="M68.34,68.99c-.47.27-.94.5-1.55.5-.45,0-.87-.08-1.26-.23s-.69-.41-.89-.76c-.15-.22-.23-.48-.24-.8,0-.32.02-.67.08-1.06.07-.39.17-.81.32-1.25.15-.44.32-.9.5-1.37.13-.34.26-.67.38-.99.12-.32.22-.61.29-.86.07-.25.11-.45.11-.6s-.06-.22-.17-.22c-.19,0-.4.17-.64.5-.24.34-.47.74-.7,1.21-.19.5-.4,1.01-.63,1.53-.23.52-.43,1.03-.6,1.51-.17.48-.27.94-.31,1.36-.04.42.05.78.25,1.08.19.28.16.5-.07.67-.23.16-.55.25-.95.26-.4.01-.81-.06-1.24-.22-.43-.16-.75-.42-.98-.77-.24-.39-.34-.84-.31-1.35.04-.51.15-1.05.35-1.6.2-.56.43-1.13.71-1.71.28-.58.54-1.13.77-1.67.23-.53.4-1.02.52-1.46.11-.44.09-.81-.06-1.11-.11-.23-2.72-.77-2.48-.88.23-.11,3.2.23,3.56.29.36.06.73.23,1.1.49.37.27.63.67.78,1.21.35-.51.78-.94,1.28-1.27.5-.34,1.04-.5,1.62-.5.89,0,1.47.29,1.73.88.26.59.17,1.48-.28,2.69-.09.26-.21.58-.36.96-.15.38-.29.77-.43,1.17-.14.4-.27.77-.39,1.12-.12.35-.21.62-.27.81-.09.32-.1.56-.01.71.08.15.2.22.35.22.17,0,.34-.06.47-.2,2.33-2.51,5.14-5.03,5.44-9.69,0-4.06-6.12-4.46-9.26-4.46-1.62,0-3.76.3-5.24.59-.83.16-1.52.27-2.32.58l-2.24.83c-.89-3.01.51-5.66,2.54-6.76,1.41-.77,2.31-.9,3.88-1.07,4.69-.49,10.46.64,13.67,3.77,1.31,1.28,2.29,3.39,1.95,5.41-.21,2.17-.98,4.87-2.52,6.94-1.75,2.35-3.43,3.93-6.29,5.56"/>
  <path class="cls-3" d="M85.56,48.36c4.61.42,9.55-1.13,8.9-5.44-.68-4.46-6.28-5.96-9.62-5.53-.67.09-.27-1-.44-1.84l-.04-.21c-.53-2.69-2.26-4.08-5.16-4.69-3.73-.79-7.6,1.38-11.26,2.41-4.02,1.13,4.08.05,4.5-.02,3.56-.63,9.49-1.51,10.88,2.9.61,1.95-2.14,4.63.4,2.9.87-.59,1.76-.49,2.77-.42,1.74.11,4.16,1.63,5.29,2.73,3.7,3.6-2.21,4.74-4.09,5.57-2.65,1.18-8.57-.91-6.49-2.29.51-.34,1.34-1.34.15-.77-1.3.63-4.47,1.36-2.84-1.11,2.57-3.87-.42-.54-2.31-.21-3.12.54-8.27-.04-10.45-2.54-1.66-1.9-2.15-3.29-.98.67.37,1.24.6,2.06-1.36,1.85-2.58-.28-4.61-2.37-4.59-4.93l.07-.89c.38-5.13,6.82-3.76,10.25-4.53,2.42-.54-3.43-.52-3.51-.52-.92.03-1.89.38-2.8.51-2.99.42-5.24,2.79-5.24,5.7,0,3.54,2.41,6.75,6.28,6.99,2.2.14,2.42-3.13,10.73-.73,2.42.7,5.89,2.29,5.16,5.31-.58,2.42-2.12.03-4.06-.13.58.67,2.1,1.25,3.4,2.78,2.93,3.43-1.96-4.27,6.46-3.5"/>
  <path class="cls-1" d="M17.55,46.63c.14-.38.28-.56.44-.54.17.02.19.24.05.64-.05.2-.17.52-.3.93-.14.44-.36.87-.61,1.29-.28.44-.61.82-1.02,1.15-.41.34-.94.5-1.54.5-.44,0-.85-.08-1.24-.24-.39-.14-.69-.4-.88-.74-.14-.22-.22-.48-.22-.8-.03-.3,0-.66.08-1.03.05-.38.17-.8.3-1.23s.3-.89.5-1.35c.14-.34.25-.66.39-.97.11-.32.19-.6.28-.86.08-.24.11-.44.11-.58s-.06-.22-.17-.22c-.19,0-.39.16-.63.5-.25.34-.47.74-.69,1.19-.19.5-.39.99-.61,1.51-.25.52-.44,1.01-.61,1.49-.17.48-.27.91-.3,1.33-.03.42.05.78.25,1.07.19.28.17.5-.05.66-.25.16-.55.24-.94.26-.41.02-.83-.06-1.24-.22-.41-.16-.74-.42-.96-.76-.25-.38-.33-.84-.3-1.33.03-.5.14-1.03.33-1.59.22-.54.44-1.09.72-1.67.27-.58.52-1.11.77-1.65.22-.52.38-.99.5-1.43.11-.44.08-.8-.06-1.09-.11-.22-.06-.4.19-.52.22-.1.52-.14.88-.08.36.06.72.24,1.07.5.36.26.63.66.77,1.19.36-.5.77-.91,1.27-1.25.5-.34,1.02-.5,1.6-.5.88,0,1.46.28,1.71.86.25.58.17,1.47-.28,2.66-.08.26-.22.56-.36.93-.14.38-.28.78-.41,1.15-.14.4-.28.78-.39,1.11-.14.34-.22.62-.27.8-.08.32-.08.56,0,.7.08.14.19.22.33.22.17,0,.33-.06.47-.2.14-.14.3-.3.44-.52.14-.2.25-.42.36-.66.11-.22.19-.44.28-.64M6.19,37.29c-.11-.22-.05-.4.19-.52.22-.1.52-.14.88-.08.36.06.72.24,1.07.5.36.26.63.66.77,1.19.08.32.05.78-.11,1.37-.19.62-.41,1.29-.72,2.03-.3.74-.63,1.51-.99,2.33s-.69,1.59-.94,2.33c-.28.74-.47,1.39-.58,1.97-.11.58-.05,1.01.14,1.29.19.28.17.5-.05.66-.22.16-.52.24-.91.26-.41.02-.83-.06-1.24-.22-.44-.16-.77-.42-.99-.76-.25-.38-.3-.91-.19-1.61.14-.68.33-1.43.66-2.25.3-.82.63-1.65,1.05-2.53.41-.87.77-1.71,1.13-2.51.33-.78.58-1.49.77-2.11.19-.62.19-1.05.05-1.35Z"/>
  <path class="cls-1" d="M21.46,48.24c.11.02.28-.1.47-.36.19-.26.39-.6.61-1.01.19-.42.41-.86.61-1.35.19-.48.33-.93.47-1.35.14-.42.22-.8.25-1.09.03-.3-.03-.46-.14-.48-.14-.02-.28.08-.47.34-.19.26-.39.6-.58,1.01-.22.42-.44.85-.63,1.35-.19.5-.36.95-.47,1.37-.14.42-.22.78-.25,1.07-.03.3,0,.48.14.5M23.96,40.21c.6,0,1.05.14,1.35.44.3-.76.55-1.43.69-2.03.14-.58.14-1.01,0-1.31-.11-.22-.05-.4.19-.52.22-.12.52-.16.88-.1.36.06.72.24,1.07.5.36.26.63.66.77,1.19.08.24.06.56-.03.97-.08.42-.22.89-.41,1.43-.19.54-.44,1.09-.69,1.69-.25.62-.52,1.21-.77,1.83-.25.62-.5,1.21-.72,1.79-.25.6-.41,1.13-.55,1.63-.08.32-.08.56,0,.7.08.14.19.22.33.22.17,0,.33-.06.47-.2.14-.14.3-.3.44-.52.14-.2.25-.42.36-.66.11-.22.19-.44.28-.64.14-.38.3-.56.47-.54.14.02.17.24.03.64-.05.2-.17.52-.3.93-.14.44-.36.87-.61,1.29-.25.44-.58.82-.99,1.15-.41.34-.94.5-1.54.5-.52,0-.94-.1-1.21-.3-.3-.2-.52-.42-.66-.68-.22.3-.52.54-.91.72-.41.18-.8.26-1.21.26-.91,0-1.54-.26-1.95-.78-.41-.5-.66-1.15-.69-1.93-.03-.78.14-1.61.44-2.51.3-.89.74-1.73,1.29-2.51.52-.78,1.16-1.41,1.9-1.93.72-.5,1.49-.76,2.28-.76Z"/>
  <path class="cls-1" d="M28.44,52.72c.25.04.47,0,.66-.1.19-.12.39-.28.58-.5.19-.22.36-.5.52-.8.14-.3.3-.62.47-.95-.41-.14-.8-.18-1.13-.12-.36.06-.63.16-.88.32-.25.16-.41.36-.55.58-.17.22-.25.46-.28.68-.03.22.03.4.11.58.08.18.25.28.5.32M37.38,46.73c-.25.68-.55,1.25-.85,1.75-.3.5-.63.93-.96,1.27-.33.36-.66.66-.99.89-.33.22-.63.4-.88.54-.58,1.05-1.29,1.85-2.12,2.39-.83.54-1.84.66-3.03.4-.69-.16-1.18-.44-1.43-.82-.25-.38-.36-.8-.28-1.23.08-.44.3-.86.66-1.23.36-.38.8-.66,1.32-.82-.41-.16-.69-.4-.88-.72-.19-.34-.28-.74-.25-1.19.03-.46.14-.93.3-1.47.14-.52.33-1.05.58-1.61.25-.54.47-1.07.69-1.59.22-.5.41-.97.55-1.41.14-.42.17-.78.14-1.07-.03-.24.11-.42.44-.52.3-.1.66-.14,1.07-.1.39.06.74.18,1.07.4.3.22.47.54.47.95,0,.38-.05.74-.17,1.09-.14.36-.28.76-.44,1.19-.19.44-.39.93-.61,1.47-.22.56-.44,1.21-.63,1.95-.08.3-.08.54,0,.68.08.14.22.22.36.22.19,0,.41-.22.63-.64.22-.42.47-.95.72-1.61.25-.64.5-1.33.77-2.09.25-.74.52-1.45.83-2.11.11-.24.3-.46.58-.66.25-.18.55-.34.88-.48.33-.12.66-.2.99-.26.33-.06.61-.08.85-.06.25.02.41.08.52.18.08.1.06.26-.08.44-.25.34-.52.82-.83,1.45-.3.64-.58,1.29-.85,1.99-.28.7-.52,1.37-.74,1.99-.25.64-.41,1.11-.52,1.43-.11.3-.22.6-.33.87-.11.28-.22.56-.36.82.41-.26.82-.62,1.24-1.07.41-.44.77-1.01,1.07-1.71.17-.38.33-.56.5-.54.14.02.14.24,0,.64Z"/>
  <path class="cls-1" d="M40.48,48.24c.11.02.28-.1.47-.36.19-.26.39-.6.61-1.01.19-.42.41-.86.61-1.35.19-.48.36-.93.5-1.35.14-.42.22-.8.25-1.09.03-.3-.03-.46-.14-.48-.14-.02-.28.08-.47.34-.19.26-.41.6-.61,1.01-.22.42-.41.85-.61,1.35-.19.5-.36.95-.5,1.37-.14.42-.22.78-.25,1.07-.03.3,0,.48.14.5M47.63,41.08c-.17.22-.33.52-.52.86-.19.36-.39.76-.58,1.17-.19.42-.36.85-.55,1.31-.19.46-.36.87-.49,1.29-.17.42-.3.82-.41,1.15-.14.36-.22.64-.3.85-.08.3-.11.54-.05.68.03.14.11.22.19.24.14-.02.3-.08.44-.22.14-.14.3-.3.44-.5.14-.2.25-.42.36-.66.08-.22.17-.44.25-.64.14-.38.28-.56.47-.54.17.02.19.24.05.64-.08.2-.17.52-.3.93-.14.44-.36.87-.61,1.29-.28.44-.61.82-1.02,1.15-.41.34-.94.5-1.54.5-.36,0-.69-.08-.99-.26-.3-.16-.52-.4-.63-.74-.22.32-.52.56-.91.74-.41.18-.8.26-1.18.26-.91,0-1.54-.26-1.95-.78-.41-.5-.66-1.15-.69-1.93-.03-.78.14-1.61.44-2.51.3-.89.74-1.73,1.29-2.51.52-.78,1.16-1.41,1.9-1.93.71-.5,1.49-.76,2.28-.76.47,0,.85.08,1.13.24.25.18.44.4.52.68.33-.2.72-.36,1.13-.48.41-.1.77-.16,1.1-.18.33-.02.58.02.74.12.17.1.17.28,0,.5Z"/>
  <path class="cls-1" d="M56.26,46.63c.14-.38.27-.56.44-.54.17.02.19.24.06.64-.06.2-.17.52-.3.93-.14.44-.36.87-.61,1.29-.28.44-.61.82-1.02,1.15-.41.34-.94.5-1.54.5-.44,0-.85-.08-1.24-.24-.39-.14-.69-.4-.88-.74-.14-.22-.22-.48-.22-.8-.03-.3,0-.66.08-1.03.05-.38.16-.8.3-1.23.14-.44.3-.89.49-1.35.14-.34.25-.66.39-.97.11-.32.19-.6.28-.86.08-.24.11-.44.11-.58s-.06-.22-.17-.22c-.19,0-.39.16-.63.5-.25.34-.47.74-.69,1.19-.19.5-.39.99-.61,1.51-.25.52-.44,1.01-.61,1.49-.17.48-.28.91-.3,1.33-.03.42.05.78.25,1.07.19.28.17.5-.05.66-.25.16-.55.24-.94.26-.41.02-.83-.06-1.24-.22-.41-.16-.74-.42-.96-.76-.25-.38-.33-.84-.3-1.33.03-.5.14-1.03.33-1.59.22-.54.44-1.09.72-1.67.28-.58.52-1.11.77-1.65.22-.52.39-.99.5-1.43.11-.44.08-.8-.06-1.09-.11-.22-.05-.4.19-.52.22-.1.52-.14.88-.08.36.06.72.24,1.07.5.36.26.63.66.77,1.19.36-.5.77-.91,1.27-1.25.5-.34,1.02-.5,1.6-.5.88,0,1.46.28,1.71.86.25.58.17,1.47-.28,2.66-.08.26-.22.56-.36.93-.14.38-.28.78-.41,1.15-.14.4-.28.78-.39,1.11-.14.34-.22.62-.28.8-.08.32-.08.56,0,.7.08.14.19.22.33.22.17,0,.33-.06.47-.2.14-.14.3-.3.44-.52.14-.2.25-.42.36-.66.11-.22.19-.44.28-.64"/>
  <path class="cls-3" d="M10.54,33.96c-.79-.8-2.13-.79-2.74-.24-.6.55-.45,1.65.34,2.45.79.8,1.93,1,2.53.45.6-.55.66-1.86-.14-2.66"/>
  <path class="cls-1" d="M15.92,53.75c-.13-.26-.07-.47.23-.61.26-.12.62-.16,1.04-.09.42.07.84.28,1.27.59.42.31.75.78.91,1.41.06.23.06.54,0,.92-.07.4-.16.82-.32,1.32-.16.49-.36,1.01-.58,1.55-.23.56-.45,1.15-.71,1.74.39-.16.71-.45,1.01-.82.29-.38.55-.8.81-1.29.23-.47.49-.96.71-1.5.23-.54.52-1.03.81-1.53.29-.49.65-.92,1.07-1.32.39-.4.88-.68,1.46-.89.49-.19,1.01-.26,1.56-.21.52.05.94.14,1.3.31.36.16.55.33.62.54.06.21-.1.4-.52.54-.62.21-1.14.56-1.49,1.08-.36.52-.71,1.08-1.01,1.69-.29.61-.62,1.2-.94,1.78-.33.59-.75,1.03-1.3,1.36-.68.4-1.33.66-2.01.78.36.23.65.54.91.89.29.47.42.99.36,1.55-.06.59-.13,1.15-.23,1.74-.1.59-.16,1.15-.13,1.69,0,.54.23.99.68,1.39.29.26.36.47.16.68-.2.21-.49.38-.91.45-.42.07-.91.07-1.43,0-.55-.07-.97-.28-1.33-.61-.55-.52-.84-1.1-.88-1.76-.03-.63,0-1.29.16-1.97.13-.68.26-1.32.39-1.95.1-.61.03-1.13-.26-1.57-.29.73-.58,1.43-.88,2.14-.29.7-.55,1.36-.71,1.97-.16.61-.29,1.15-.32,1.62-.03.47.03.82.19,1.08.23.33.2.59-.06.78-.26.19-.62.28-1.07.31-.49.02-.97-.07-1.46-.26-.52-.19-.91-.49-1.17-.89-.29-.45-.36-1.08-.23-1.9.16-.8.39-1.69.78-2.65.36-.96.75-1.95,1.23-2.98.49-1.03.91-2.02,1.33-2.96.39-.92.68-1.76.91-2.49.23-.73.23-1.24.07-1.6"/>
  <path class="cls-1" d="M30.2,57.62c0,.4-.2.75-.59,1.03-.39.28-.87.42-1.4.42-.56,0-1.03-.14-1.42-.42-.39-.28-.59-.63-.59-1.03s.2-.73.59-1.01c.39-.28.87-.42,1.42-.42s1.01.14,1.4.42c.39.28.59.63.59,1.01M25.42,69.51c-.45,0-.87-.08-1.28-.24-.42-.14-.73-.4-.89-.75-.14-.26-.2-.61-.22-1.03,0-.4.06-.85.14-1.31.08-.46.22-.97.39-1.47.14-.5.31-1.01.5-1.47.2-.46.36-.91.56-1.33.2-.42.36-.77.53-1.05.22-.42.56-.73,1.01-.93.45-.2.89-.3,1.31-.32s.75.06,1.01.22c.25.16.31.4.17.73-.2.42-.39.91-.59,1.41-.22.5-.45,1.03-.64,1.57-.2.54-.39,1.07-.56,1.59-.2.52-.34,1.01-.42,1.45-.08.32-.06.57.06.71.11.14.25.22.39.22s.31-.06.47-.2c.14-.14.28-.3.42-.52.14-.2.25-.42.36-.67.11-.22.2-.44.28-.65.08-.2.17-.34.25-.44.08-.08.14-.12.22-.1.06.02.08.08.11.18.03.1,0,.26-.08.46-.06.2-.17.52-.31.95-.14.44-.36.89-.61,1.31-.25.44-.59.83-1.01,1.17-.42.34-.95.5-1.56.5Z"/>
  <path class="cls-1" d="M32.16,57.84c.08-.18.14-.34.22-.5.06-.16.11-.32.17-.48.08-.24.22-.46.39-.65.17-.18.36-.28.59-.3.22-.02.47.08.73.28.25.22.5.61.75,1.15l.08.26c.75-.1,1.31-.2,1.73-.3.42-.08.73-.06.92.04.17.1.22.22.2.4-.03.18-.14.34-.34.52-.2.18-.42.32-.73.46-.31.14-.67.2-1.03.2h-.92c-.14.44-.31.95-.56,1.49-.25.54-.5,1.15-.78,1.8-.31.65-.59,1.33-.87,2.06-.31.73-.56,1.49-.78,2.3-.08.32-.08.57,0,.71.08.14.22.22.36.22s.31-.06.47-.2c.14-.14.28-.3.42-.52.14-.2.25-.42.36-.67.11-.22.2-.44.28-.65.14-.38.31-.56.47-.54.14.02.17.24.03.65-.06.2-.17.52-.31.95-.14.44-.36.89-.61,1.31-.25.44-.59.83-1.01,1.17-.42.34-.95.5-1.56.5-.45,0-.87-.08-1.28-.24-.42-.14-.7-.4-.89-.75-.25-.46-.34-1.07-.2-1.82.14-.75.39-1.55.73-2.42.34-.87.73-1.76,1.2-2.7.47-.95.89-1.86,1.31-2.72-.14-.02-.28-.02-.42-.02h-.36c-.36,0-.59-.06-.67-.16-.08-.1-.06-.2.08-.34.11-.12.31-.24.59-.34.25-.1.56-.14.89-.14h.34Z"/>
  <path class="cls-1" d="M37.3,69.4c-1.01-.14-1.76-.5-2.26-1.09-.53-.56-.84-1.23-.92-2.02-.08-.79,0-1.61.28-2.48.25-.87.67-1.66,1.2-2.4.53-.75,1.2-1.35,1.98-1.84.75-.46,1.59-.71,2.51-.71.53,0,1.01.08,1.42.24.39.18.7.4.92.67.22.28.36.61.45.97.06.36.03.73-.11,1.11-.14.5-.36.89-.64,1.19-.31.3-.61.52-.92.69-.34.16-.67.26-.98.28-.31.02-.59.02-.81-.04-.25-.04-.42-.12-.5-.22-.11-.1-.11-.22.03-.36.56-.57.87-1.05.95-1.45.06-.4-.06-.63-.33-.67-.14-.02-.34.1-.56.36-.22.26-.45.59-.64.99-.22.4-.42.85-.56,1.33-.17.5-.25.97-.28,1.41-.03.44.06.85.22,1.19.17.34.47.59.92.69.36.1.73.1,1.09.04.36-.06.73-.18,1.06-.36.34-.18.64-.4.92-.67.28-.26.5-.57.67-.89.22-.38.42-.57.56-.54.14.02.11.24-.03.65-.14.44-.36.93-.67,1.43-.31.5-.67.97-1.12,1.37-.47.4-1.01.73-1.65.95-.64.22-1.37.28-2.21.18"/>
  <path class="cls-1" d="M51.92,65.46c.14-.38.28-.56.47-.54.17.02.2.24.06.65-.08.2-.17.52-.31.95-.14.44-.36.89-.61,1.31-.28.44-.61.83-1.03,1.17-.42.34-.95.5-1.56.5-.45,0-.87-.08-1.26-.24-.42-.14-.73-.4-.92-.75-.14-.22-.2-.48-.22-.81-.03-.3,0-.67.08-1.05.06-.38.17-.81.31-1.25.14-.44.31-.91.5-1.37.14-.34.25-.67.39-.99.11-.32.2-.61.28-.87.08-.24.11-.44.11-.59s-.06-.22-.17-.22c-.14,0-.34.14-.56.42-.22.28-.45.63-.64,1.05-.25.61-.5,1.21-.73,1.8-.25.61-.45,1.17-.59,1.68-.14.5-.25.97-.28,1.35-.03.38.03.69.17.91.2.28.17.5-.06.67-.22.16-.53.24-.92.26-.42.02-.84-.06-1.26-.22-.45-.16-.78-.42-1.01-.77-.25-.38-.31-.93-.2-1.63.14-.69.34-1.45.67-2.28.31-.83.64-1.68,1.06-2.56.42-.89.78-1.74,1.14-2.54.34-.79.59-1.51.78-2.14.2-.63.2-1.07.06-1.37-.11-.22-.06-.4.2-.52.22-.1.53-.14.89-.08.36.06.73.24,1.09.5.36.26.64.67.78,1.21.06.24.06.48.03.75-.03.26-.11.52-.22.79-.11.26-.25.52-.39.77-.14.26-.28.48-.42.71.33-.34.7-.63,1.12-.85.42-.2.84-.3,1.28-.3.89,0,1.48.28,1.73.87.25.59.14,1.49-.31,2.7-.08.26-.2.56-.34.95-.14.38-.31.79-.45,1.17-.14.4-.28.79-.39,1.13-.14.34-.22.63-.28.81-.08.32-.08.57,0,.71.08.14.22.22.36.22.17,0,.34-.06.47-.2.14-.14.31-.3.45-.52.14-.2.25-.42.36-.67.08-.22.17-.44.25-.65"/>
  <path class="cls-1" d="M57.51,61.25c-.14-.02-.28.08-.47.28-.2.2-.36.46-.56.79-.2.34-.39.71-.56,1.13s-.28.83-.36,1.25c.5-.2.92-.48,1.23-.87.31-.38.53-.75.7-1.13.14-.38.22-.71.22-1.01,0-.28-.06-.42-.2-.44M60.2,65.35c.2-.38.39-.56.53-.54.14.02.11.24-.03.65-.14.44-.36.93-.67,1.43-.31.52-.7.99-1.14,1.39-.47.42-1.01.73-1.65.95-.64.24-1.34.28-2.15.16-.75-.12-1.37-.36-1.84-.73-.47-.36-.81-.81-1.01-1.33-.22-.5-.34-1.07-.34-1.7.03-.63.14-1.25.34-1.88.2-.63.5-1.25.87-1.84.36-.59.81-1.09,1.34-1.55.5-.46,1.06-.83,1.68-1.11.59-.26,1.23-.4,1.93-.4.53,0,1.01.08,1.42.26.39.18.7.44.95.75.22.3.36.67.42,1.09.03.42-.03.89-.2,1.37-.28.81-.64,1.45-1.12,1.92-.47.46-.98.83-1.48,1.05-.5.24-.98.38-1.45.4-.47.04-.84.02-1.14-.04,0,.38.06.73.2.99.11.26.36.46.78.59.34.1.7.12,1.06.06.36-.06.7-.2,1.06-.38.34-.18.64-.4.95-.67.28-.26.5-.57.7-.89Z"/>
  <text class="cls-2" transform="translate(90.02 35.3)"><tspan x="0" y="0">TM</tspan></text>
</svg>