<?xml version="1.0" encoding="UTF-8"?>
<svg id="Layer_1" data-name="Layer 1" xmlns="http://www.w3.org/2000/svg" version="1.1" viewBox="0 0 100 100">
  <defs>
    <style>
      .cls-1 {
        fill: #000;
      }

      .cls-1, .cls-2, .cls-3 {
        stroke-width: 0px;
      }

      .cls-2 {
        fill: #010101;
      }

      .cls-3 {
        fill: #6e6f71;
      }
    </style>
  </defs>
  <path class="cls-3" d="M61.21,10.93c-2.68-1.91-5.95-3.04-9.48-3.04-9.02,0-16.36,7.34-16.36,16.36,0,1.99.35,3.94,1.05,5.78-2.06,1.46-3.55,3.45-4.21,5.61l-.35,1.13,1.12.39c1.7.59,3.5.89,5.34.89.84,0,1.7-.06,2.53-.19.45-.07.92-.16,1.4-.28,1.31.94,2.74,1.66,4.24,2.17,1.66.57,3.45.88,5.31.88,9.03,0,16.34-7.32,16.34-16.34,0-5.52-2.74-10.4-6.93-13.36ZM53.42,18.56c-.64-2.95-1.96-5.79-3.75-8.06.68-.1,1.37-.15,2.06-.15,2.72,0,5.35.79,7.62,2.28-.17,4.81-2.25,9.43-5.73,12.79.37-2.17.31-4.53-.19-6.86ZM47.02,11.17c4.03,4.36,5.49,11.12,3.52,16.21-.61-.14-1.21-.24-1.8-.3-.58-.06-1.18-.1-1.8-.1-1.13,0-2.33.11-3.57.33-1.77.31-3.39.81-4.8,1.47-.5-1.45-.75-2.97-.75-4.53,0-5.86,3.69-11.1,9.2-13.08ZM38.26,35.58c-1.11,0-2.2-.13-3.24-.38.56-1.1,1.43-2.12,2.5-2.94.18-.14.36-.27.55-.4,1.52-1.02,3.45-1.74,5.73-2.14,1.09-.19,2.15-.29,3.14-.29.53,0,1.04.03,1.53.08.35.04.71.09,1.06.16-.79,1.23-1.79,2.33-2.91,3.18-1.85,1.42-4.25,2.35-6.74,2.63-.54.06-1.08.09-1.63.09ZM51.73,38.16c-2.28,0-4.51-.55-6.5-1.61,1.04-.48,2.01-1.07,2.9-1.75,1.54-1.18,2.88-2.72,3.88-4.46,2.9,1.1,5.68,2.98,8.25,4.88-2.43,1.89-5.45,2.93-8.53,2.93ZM62.08,33.53c-1.91-1.42-4.95-3.66-8.22-5.08,2.15-1.73,4-3.95,5.35-6.43,1.27-2.33,2.1-4.91,2.44-7.5,2.57,2.62,3.99,6.05,3.99,9.74,0,3.43-1.26,6.72-3.55,9.27Z"/>
  <g>
    <g>
      <path class="cls-3" d="M35.07,79.44h0c-1.11-1.03-2.29-2.53-3.31-4.25l-5.3-8.85-5.27-1.7c1.83-.35,3.59-1.11,5.1-2.22,2.17-1.66,3.7-3.88,4.42-6.41l1.15-3.84c.37-1.36,1.55-2.36,3-2.53l-.05-.94h-2.49c-2.72,0-5.07,1.75-5.85,4.36l-1.58,5.4c-.9,3.06-3.66,5.11-6.87,5.11h-.53v-11.34c0-1.36.99-2.47,2.3-2.59l-.04-.94h-9.42l-.03.94c.76.05,1.31.49,1.64.85.41.46.64,1.07.64,1.74v26.35c0,1.29-1.02,2.43-2.31,2.59l.06.94h9.42l.06-.94c-.63-.08-1.25-.39-1.66-.85-.42-.51-.65-1.13-.65-1.75v-13.7c1.58.18,2.98,1.06,3.81,2.42l6.36,10.51c1.69,2.89,4.15,4.3,7.53,4.3h2.82l.05-.94c-.84-.08-1.89-.7-2.97-1.74Z"/>
      <path class="cls-3" d="M88.74,76.67c-.11,1.09-.65,3.33-1.64,3.4h-.07c-.05-.02-.12-.04-.2-.04-.65-.17-.7-1.1-.7-2.31v-7.46c0-2.67-.54-9.13-5.55-11.36-1.15-.51-2.44-.77-3.84-.77-1.13,0-2.33.17-3.55.5-.78.21-1.55.5-2.31.86v-9.11c0-3.8-3.65-6.53-7.3-5.47h0s.07.54.07.54c.62.08,1.2.77,1.67,1.28.41.46.64,1.07.64,1.74v14.54c-.4.39-.8.81-1.19,1.24-.35.38-.73.81-1.14,1.27-1.21,1.35-2.67,2.99-4.28,4.67v-10.29h1.6v-1.42h-1.6v-6.82l-4.91,4.67v2.15h-1.62v1.42h1.62v14.98c-.95.81-1.88,1.53-2.75,2.14-.18.13-.37.25-.55.37-2.4,1.59-4.51,2.4-6.27,2.4-2.11,0-3.74-1.13-4.98-3.45l-.1-.18c-.27-.59-.5-1.26-.69-2h0s0-.03,0-.03c-.02-.07-.02-.23-.02-.33,0-.63.28-1.11.92-1.56l13.59-7.19-.22-.41c-.61-1.17-1.15-1.99-1.7-2.59h-.01c-.23-.24-.38-.42-.51-.55-.08-.09-.15-.16-.21-.23l-.05-.05c-1.92-1.87-4.18-2.81-6.74-2.81-2.9,0-5.4,1.18-7.43,3.51-2.04,2.34-3.03,5.08-3.03,8.39,0,1.38.19,2.69.58,3.91.02.15.08.28.13.38.49,1.39,1.15,2.63,1.98,3.68l.16.24c.1.15,2.6,3.79,8.11,3.79,2.02,0,4.21-.5,6.49-1.49,1.27-.55,2.49-1.26,3.72-2.15.78,2.23,2.61,3.49,5.13,3.49,4.09,0,4.67-4,4.67-4.04l-.91-.2s-.84,2.54-2.66,2.54c-.17,0-.26,0-.33-.02h-.03s-.03-.01-.03-.01c-1.2-.24-1.34-2.2-1.34-3.65v-2.22c.38-.42.77-.86,1.14-1.3.87-1.02,1.8-2.01,2.7-2.97.17-.18.34-.36.51-.54.44-.47.86-.97,1.27-1.46.32-.38.65-.77.98-1.14-.01,1.26,0,2.52,0,3.74,0,.79.01,1.6.01,2.4v5.3c0,1.29-1.02,2.43-2.31,2.59l.06.94h9.42l.05-.94c-.82-.1-1.35-.51-1.66-.85-.42-.51-.65-1.13-.65-1.75v-.27c-.1-.96-.09-1.97-.07-2.95,0-.28,0-.57,0-.85,0-1.24.02-2.49.04-3.71.02-1.29.03-2.61.04-3.92h0v-3.91c.67-.45,1.32-.83,1.94-1.15.91-.46,2.28-1.01,3.63-1.01.99,0,1.84.3,2.52.89,1.61,1.41,2,3.97,2.17,6.29.05.72.08,1.47.08,2.3v5.74c0,2.85.53,6.11,4.63,6.11,1.56,0,2.71-.9,3.33-2.59.46-1.25.48-2.56.48-2.8v-.05l-.94-.05ZM48.43,64.28c0,1.23-.6,2.23-1.83,3.04l-7.86,4.15c-.02-.38-.04-.76-.04-1.16,0-2.98.56-5.55,1.67-7.62,1.08-2.02,2.32-3,3.79-3,1.16,0,2.13.48,2.99,1.46.85,1.03,1.27,2.08,1.27,3.14Z"/>
    </g>
    <g>
      <path class="cls-1" d="M86.71,50.76c-1.66.03-3.06-1.39-3.04-3.04.02-1.54,1.19-2.99,2.97-3.03,1.88-.04,3.14,1.52,3.11,3.05.03,1.63-1.39,3.06-3.04,3.02ZM86.71,45.28c-1.53.01-2.46,1.3-2.44,2.51.03,1.28,1.14,2.42,2.52,2.39,1.27-.03,2.42-1.13,2.38-2.51-.04-1.34-1.14-2.39-2.46-2.38Z"/>
      <path class="cls-1" d="M86.02,49.34h-.65v-3.22s.03,0,.04,0c.5,0,1,0,1.51,0,.18,0,.37.02.54.09.29.12.45.35.51.65.03.17.02.33-.04.49-.09.25-.27.4-.5.49-.09.03-.19.05-.28.08,0,0-.01,0-.03,0,.01,0,.02.01.03.02.14.06.27.15.35.28.15.23.29.47.43.7.08.12.15.25.22.37,0,.01.01.02.02.04h-.04c-.24,0-.48,0-.72,0-.03,0-.04,0-.06-.03-.13-.25-.26-.5-.4-.75-.06-.11-.14-.21-.21-.31-.13-.16-.3-.23-.5-.24-.07,0-.14,0-.22,0v1.32ZM86.02,47.51s.02,0,.03,0c.2,0,.41,0,.61,0,.09,0,.18-.01.27-.03.21-.04.32-.15.35-.34.03-.2-.04-.36-.24-.44-.08-.03-.17-.05-.25-.06-.25,0-.5,0-.75-.01,0,0-.01,0-.02,0v.87Z"/>
    </g>
  </g>
  <g>
    <path class="cls-2" d="M10.99,91.58h3.02v.44h-3.54v-6.12h.52v5.68Z"/>
    <path class="cls-2" d="M20.77,92.02c-.03-.08-.05-.17-.07-.29s-.03-.23-.03-.35c-.08.1-.17.19-.27.28-.1.09-.22.16-.35.23-.13.06-.27.12-.42.16-.15.04-.32.06-.5.06-.22,0-.42-.03-.6-.1-.18-.06-.33-.15-.46-.27-.13-.12-.23-.25-.3-.41-.07-.16-.1-.33-.1-.51,0-.22.05-.42.14-.6.1-.18.23-.33.41-.45.18-.12.4-.22.65-.29.26-.07.54-.1.86-.1h.93v-.52c0-.32-.1-.58-.3-.77-.2-.19-.49-.28-.88-.28-.18,0-.34.02-.49.07-.15.05-.28.11-.38.2-.11.08-.19.18-.25.29-.06.11-.09.23-.09.35h-.5c0-.18.04-.34.13-.5.08-.16.2-.3.35-.43.15-.12.34-.22.55-.3s.45-.11.71-.11c.24,0,.46.03.67.09.2.06.38.15.52.28.15.12.26.28.34.46.08.18.12.4.12.65v2.2c0,.08,0,.16,0,.24,0,.08.01.17.03.24.01.08.03.15.04.22.02.07.04.13.06.19v.05h-.54ZM19.19,91.66c.18,0,.35-.02.51-.07.16-.05.3-.11.42-.19s.24-.18.33-.28c.09-.11.17-.22.22-.35v-1h-.86c-.26,0-.49.02-.69.07-.2.05-.37.11-.51.2-.14.09-.25.19-.32.32-.07.12-.11.27-.11.42,0,.12.02.24.07.35.05.11.12.2.2.28.09.08.2.14.32.19.13.05.27.07.42.07Z"/>
    <path class="cls-2" d="M29.18,89.8c0,.34-.04.65-.12.94-.08.28-.19.53-.34.73-.15.2-.33.36-.55.47-.22.11-.46.17-.74.17-.33,0-.62-.06-.85-.19-.24-.13-.43-.3-.58-.52l-.02.62h-.47v-6.45h.5v2.57c.15-.24.34-.42.58-.55s.51-.2.84-.2c.28,0,.52.05.74.16.22.11.4.26.55.47.15.2.26.44.34.73.08.28.12.6.12.96v.09ZM28.67,89.71c0-.26-.03-.51-.08-.74-.05-.23-.13-.43-.24-.6-.11-.17-.25-.3-.41-.4-.17-.1-.37-.14-.6-.14-.19,0-.36.03-.5.08-.15.05-.27.12-.38.21-.11.09-.2.19-.27.3s-.13.23-.18.35v2.05c.05.12.12.23.2.34.08.11.17.2.28.27.11.08.23.14.38.18s.3.07.48.07c.23,0,.42-.05.59-.14.17-.1.3-.23.41-.39.11-.17.19-.37.24-.59.05-.23.08-.48.08-.74v-.09Z"/>
    <path class="cls-2" d="M33.02,89.68c0-.33.05-.64.14-.92.1-.28.23-.52.41-.72.18-.2.39-.36.64-.48.25-.11.53-.17.83-.17s.59.06.84.17c.25.11.46.27.64.48.18.2.31.44.41.72.1.28.14.59.14.92v.14c0,.33-.05.64-.14.92-.1.28-.23.52-.41.72-.18.2-.39.36-.64.47-.25.11-.53.17-.84.17s-.59-.06-.84-.17c-.25-.11-.46-.27-.64-.47-.18-.2-.32-.44-.41-.72-.1-.28-.14-.59-.14-.92v-.14ZM33.52,89.82c0,.25.03.49.1.71.07.23.17.42.29.59.13.17.29.3.48.41.19.1.41.15.66.15s.46-.05.65-.15.35-.24.48-.41c.13-.17.23-.37.29-.59.07-.23.1-.46.1-.71v-.14c0-.24-.03-.48-.1-.7-.07-.23-.17-.42-.29-.59-.13-.17-.29-.31-.48-.41-.19-.1-.41-.15-.66-.15s-.46.05-.65.15c-.19.1-.35.24-.48.41-.13.17-.23.37-.29.59-.07.23-.1.46-.1.7v.14Z"/>
    <path class="cls-2" d="M43.23,87.91c-.11-.02-.22-.03-.34-.03-.17,0-.32.03-.46.08-.14.05-.26.12-.36.21-.11.09-.19.2-.26.32-.07.12-.13.26-.17.41v3.12h-.5v-4.55h.49v.72c.13-.25.3-.45.51-.59.21-.14.47-.22.78-.22.06,0,.12,0,.19.02.06.01.11.02.14.04v.46Z"/>
    <path class="cls-2" d="M49.73,92.02c-.03-.08-.05-.17-.07-.29-.02-.11-.03-.23-.03-.35-.08.1-.17.19-.27.28-.1.09-.22.16-.35.23-.13.06-.27.12-.42.16-.15.04-.32.06-.5.06-.22,0-.42-.03-.6-.1s-.33-.15-.46-.27c-.13-.12-.23-.25-.3-.41-.07-.16-.11-.33-.11-.51,0-.22.05-.42.14-.6.1-.18.23-.33.41-.45.18-.12.4-.22.65-.29.26-.07.54-.1.86-.1h.93v-.52c0-.32-.1-.58-.3-.77-.2-.19-.49-.28-.88-.28-.18,0-.34.02-.49.07-.15.05-.28.11-.38.2s-.19.18-.25.29c-.06.11-.09.23-.09.35h-.5c0-.18.04-.34.13-.5.08-.16.2-.3.35-.43.15-.12.34-.22.55-.3s.45-.11.71-.11c.24,0,.46.03.67.09.2.06.38.15.52.28.15.12.26.28.34.46.08.18.12.4.12.65v2.2c0,.08,0,.16,0,.24,0,.08.01.17.03.24.01.08.03.15.04.22.02.07.04.13.06.19v.05h-.54ZM48.15,91.66c.18,0,.35-.02.51-.07.16-.05.3-.11.42-.19s.24-.18.33-.28c.09-.11.17-.22.22-.35v-1h-.86c-.26,0-.49.02-.69.07-.2.05-.37.11-.51.2-.14.09-.25.19-.32.32-.07.12-.11.27-.11.42,0,.12.02.24.07.35.05.11.12.2.2.28.09.08.2.14.32.19.13.05.27.07.42.07Z"/>
    <path class="cls-2" d="M55.26,86.31v1.16h.94v.41h-.94v3.03c0,.16.02.29.05.38.03.1.08.17.13.23s.12.09.19.11c.07.02.15.03.22.03s.15,0,.22-.01c.07,0,.13-.02.19-.03l.02.41c-.06.02-.14.04-.24.05-.1.01-.2.02-.3.02-.14,0-.28-.02-.4-.06-.12-.04-.23-.1-.31-.2-.09-.09-.15-.21-.2-.37-.05-.15-.07-.34-.07-.57v-3.03h-.84v-.41h.84v-1.16h.5Z"/>
    <path class="cls-2" d="M59.9,89.68c0-.33.05-.64.14-.92.1-.28.23-.52.41-.72.18-.2.39-.36.64-.48.25-.11.53-.17.83-.17s.59.06.84.17c.25.11.46.27.64.48.18.2.31.44.41.72.1.28.14.59.14.92v.14c0,.33-.05.64-.14.92-.1.28-.23.52-.41.72-.18.2-.39.36-.64.47-.25.11-.53.17-.84.17s-.59-.06-.84-.17c-.25-.11-.46-.27-.64-.47-.18-.2-.32-.44-.41-.72-.1-.28-.14-.59-.14-.92v-.14ZM60.4,89.82c0,.25.03.49.1.71.07.23.17.42.29.59.13.17.29.3.48.41s.41.15.66.15.46-.05.65-.15c.19-.1.35-.24.48-.41.13-.17.23-.37.29-.59.07-.23.1-.46.1-.71v-.14c0-.24-.03-.48-.1-.7-.07-.23-.17-.42-.29-.59-.13-.17-.29-.31-.48-.41s-.41-.15-.66-.15-.46.05-.65.15-.35.24-.48.41c-.13.17-.23.37-.29.59-.07.23-.1.46-.1.7v.14Z"/>
    <path class="cls-2" d="M70.1,87.91c-.11-.02-.22-.03-.34-.03-.17,0-.32.03-.46.08-.14.05-.26.12-.36.21-.1.09-.19.2-.26.32-.07.12-.13.26-.17.41v3.12h-.5v-4.55h.49v.72c.13-.25.3-.45.51-.59.21-.14.47-.22.78-.22.06,0,.12,0,.19.02.06.01.11.02.14.04v.46Z"/>
    <path class="cls-2" d="M73.88,86.16c0-.1.03-.18.09-.24.06-.07.15-.1.25-.1s.19.03.25.1c.06.07.09.15.09.24s-.03.18-.09.24c-.06.06-.15.1-.25.1s-.19-.03-.25-.1c-.06-.06-.09-.14-.09-.24ZM74.47,92.02h-.5v-4.55h.5v4.55Z"/>
    <path class="cls-2" d="M80.61,92.11c-.3,0-.57-.06-.82-.17-.25-.11-.46-.26-.64-.46-.18-.2-.32-.43-.42-.7-.1-.27-.15-.57-.15-.89v-.18c0-.35.05-.67.16-.95.1-.28.25-.53.43-.73.18-.2.39-.35.62-.46.23-.11.48-.16.74-.16.29,0,.54.05.77.16.22.1.41.25.56.43.15.18.27.4.35.66.08.25.12.53.12.84v.31h-3.24v.1c0,.25.04.48.11.7.08.22.18.41.32.57.14.16.3.29.49.38.19.09.4.14.63.14.27,0,.51-.05.71-.15.21-.1.39-.25.56-.47l.32.24c-.08.11-.16.21-.26.31-.1.1-.21.18-.35.26-.13.07-.28.13-.45.17-.17.04-.35.06-.55.06ZM80.51,87.82c-.19,0-.37.04-.53.11-.16.07-.31.18-.43.31-.12.13-.23.3-.31.49-.08.19-.13.4-.16.63h2.73v-.05c0-.19-.04-.37-.09-.55-.06-.18-.14-.34-.25-.47-.11-.14-.24-.25-.4-.33-.16-.08-.35-.12-.56-.12Z"/>
    <path class="cls-2" d="M89.02,90.87c0-.09-.02-.18-.05-.28-.03-.09-.09-.18-.18-.26-.09-.08-.21-.16-.37-.23-.16-.07-.36-.13-.62-.19-.25-.05-.48-.11-.67-.18-.2-.07-.36-.15-.5-.25-.14-.1-.24-.22-.31-.35-.07-.14-.1-.3-.1-.48,0-.17.04-.33.11-.48.07-.15.18-.28.32-.39.14-.11.31-.2.5-.27.2-.07.42-.1.67-.1.26,0,.5.03.71.1.21.07.38.16.53.29.14.12.25.27.33.43.08.17.11.34.11.54h-.5c0-.12-.03-.23-.08-.34-.05-.11-.13-.21-.23-.3-.1-.09-.22-.15-.37-.21-.15-.05-.31-.08-.5-.08s-.36.02-.5.07c-.14.05-.25.11-.34.18-.09.08-.15.16-.19.25-.04.09-.06.19-.06.28,0,.1.02.19.05.28.03.08.09.16.18.23s.21.14.37.2c.16.06.36.12.62.18.27.06.51.14.71.21.2.08.36.17.49.28.13.11.23.23.29.37.06.14.09.3.09.48s-.04.36-.12.51c-.08.16-.19.29-.34.4-.15.11-.32.2-.53.26-.21.06-.44.09-.69.09-.29,0-.54-.04-.76-.11-.22-.07-.41-.17-.56-.3s-.27-.27-.34-.43c-.08-.16-.12-.33-.12-.51h.5c.01.18.06.33.14.45.08.12.18.21.3.29.12.07.25.12.4.15.15.03.29.05.43.05.19,0,.36-.02.5-.07s.27-.11.37-.18c.1-.08.17-.16.22-.26.05-.1.08-.2.08-.31Z"/>
  </g>
</svg>