<?xml version="1.0" encoding="UTF-8"?>
<svg id="Layer_1" data-name="Layer 1" xmlns="http://www.w3.org/2000/svg" version="1.1" viewBox="0 0 100 100">
  <defs>
    <style>
      .cls-1 {
        font-family: FertigoPro-Regular, 'Fertigo Pro';
        font-size: 4.28px;
        letter-spacing: -.02em;
      }

      .cls-1, .cls-2 {
        fill: #fff;
      }

      .cls-3 {
        fill: #00723b;
      }

      .cls-3, .cls-4, .cls-2 {
        stroke-width: 0px;
      }

      .cls-5 {
        opacity: .4;
      }

      .cls-4 {
        fill: #ffd400;
      }
    </style>
  </defs>
  <path class="cls-3" d="M98.57,50.69h0c-4.3,13.04-16.49,21.85-30.22,21.85H31.66c-13.53,0-25.59-8.56-30.05-21.34l-.11-.33c-2.63-7.53,2.96-15.41,10.94-15.41h75.12c7.9,0,13.48,7.72,11.01,15.22Z"/>
  <g>
    <g>
      <g>
        <path class="cls-2" d="M17.17,52.32v1.72c0,.95.07,1.99.07,3.08,0,.92-.51,1.16-1.11,1.16-.36,0-.72-.1-1.14-.17,0,0,.22-.48.22-4.72,0-1.02-.07-4.6-.1-5.42-.09-1.65-.17-1.81-.17-1.81.24-.07.48-.15.77-.15.77,0,1.52.39,1.52,1.06,0,.77-.05,2.83-.05,4.63v.61Z"/>
        <path class="cls-2" d="M16.14,58.52c-.27,0-.53-.05-.8-.1-.12-.02-.25-.05-.38-.07-.07-.01-.14-.06-.18-.13-.04-.07-.04-.15,0-.22,0-.01.2-.63.2-4.62,0-.99-.07-4.58-.1-5.41-.07-1.4-.14-1.69-.15-1.73-.02-.06-.02-.12,0-.18.03-.07.09-.12.16-.14l.1-.03c.21-.06.45-.13.73-.13.85,0,1.76.45,1.76,1.3,0,.3,0,.81-.02,1.42-.01.95-.03,2.12-.03,3.21v2.33c0,.46.02.93.03,1.43.02.53.04,1.08.04,1.65,0,.92-.47,1.4-1.35,1.4ZM15.28,57.92s.1.02.14.03c.26.05.49.1.71.1.61,0,.87-.27.87-.92,0-.56-.02-1.11-.04-1.64-.02-.51-.03-.98-.03-1.45v-2.33c0-1.09.02-2.27.03-3.22,0-.61.02-1.11.02-1.41,0-.51-.65-.81-1.27-.81-.17,0-.33.04-.49.08.05.31.09.85.13,1.62.03.83.1,4.43.1,5.43,0,2.88-.1,4.05-.18,4.52Z"/>
      </g>
      <g>
        <path class="cls-2" d="M25.76,53.99c0-3.88-.39-4.41-.41-4.41.29-.09.56-.15.83-.15.77,0,1.45.41,1.45,1.09,0,1.81-.09,3.85-.09,5.11,0,.77.02,1.79.85,1.79.34,0,.65-.24.65-.24l.07.05s-.43,1.06-1.89,1.06c-.75,0-1.53-.36-1.53-1.38s.07-1.96.07-2.91ZM25.48,46.84c0-.63.53-1.16,1.14-1.16s1.16.53,1.16,1.16-.53,1.14-1.16,1.14-1.14-.53-1.14-1.14Z"/>
        <path class="cls-2" d="M27.22,58.52c-.82,0-1.77-.42-1.77-1.62,0-.49.02-.99.03-1.48.02-.47.03-.96.03-1.43,0-3.43-.3-4.16-.35-4.25-.03-.03-.05-.08-.06-.12-.02-.12.06-.23.17-.27.33-.1.61-.16.9-.16.98,0,1.69.56,1.69,1.33,0,.99-.03,2.06-.05,3-.02.79-.04,1.54-.04,2.11,0,.98.1,1.55.61,1.55.25,0,.5-.19.5-.19.09-.07.21-.07.29,0l.07.05c.09.07.12.18.08.28-.02.05-.51,1.21-2.11,1.21ZM25.67,49.74c.26.8.33,2.64.33,4.25,0,.48-.02.97-.03,1.45-.02.48-.03.98-.03,1.46,0,1.03.9,1.14,1.29,1.14.59,0,.98-.18,1.24-.39-.02,0-.04,0-.07,0-1.09,0-1.09-1.32-1.09-2.03,0-.58.02-1.32.04-2.12.02-.94.05-2.01.05-2.99,0-.56-.61-.85-1.21-.85-.16,0-.33.03-.51.07ZM25.35,49.82h0,0ZM25.35,49.82h0,0ZM25.35,49.82h0,0ZM25.35,49.82h0,0ZM25.32,49.82s.02,0,.03,0c0,0-.02,0-.03,0ZM26.63,48.22c-.75,0-1.38-.63-1.38-1.38s.63-1.4,1.38-1.4,1.4.64,1.4,1.4-.64,1.38-1.4,1.38ZM26.63,45.92c-.49,0-.9.42-.9.92s.42.9.9.9.92-.41.92-.9-.42-.92-.92-.92Z"/>
      </g>
      <g>
        <path class="cls-2" d="M30.37,51.35c0-1.6-.03-3.13-.09-4.22-.09-1.57-.31-1.91-.31-1.91l.05-.07c1.14.02,2.2.2,2.2,1.26,0,1.72-.07,3.51-.07,5.31,0,1.52.02,3.07.07,4.56.02.58.17,1.12.77,1.12.34,0,.65-.24.65-.24l.07.05s-.43,1.06-1.89,1.06c-.75,0-1.53-.34-1.53-1.48,0-1.4.09-3.47.09-5.45Z"/>
        <path class="cls-2" d="M31.82,58.52c-1.11,0-1.77-.64-1.77-1.72,0-.64.02-1.43.04-2.27.02-.99.05-2.11.05-3.18,0-1.53-.03-3.06-.08-4.21-.08-1.43-.27-1.79-.27-1.8-.05-.08-.04-.19.01-.27l.05-.07c.05-.06.12-.1.2-.1.73.01,2.43.04,2.43,1.5,0,.85-.02,1.74-.03,2.6-.02.89-.03,1.81-.03,2.72,0,1.72.02,3.21.07,4.56.03.89.38.89.53.89.25,0,.5-.19.5-.19.09-.07.21-.07.29,0l.07.05c.09.07.12.18.08.28-.02.05-.51,1.21-2.11,1.21ZM30.3,45.4c.08.28.17.8.22,1.71.05,1.16.09,2.7.09,4.24,0,1.08-.03,2.2-.05,3.19-.02.84-.04,1.62-.04,2.26,0,1.03.7,1.24,1.29,1.24s.98-.18,1.24-.39c-.45.04-1.04-.18-1.08-1.36-.05-1.35-.07-2.84-.07-4.57,0-.92.02-1.84.03-2.73.02-.9.03-1.74.03-2.59,0-.65-.49-.96-1.68-1.01Z"/>
      </g>
      <g>
        <path class="cls-2" d="M38.73,49.34c2.86,0,4.33,1.99,4.33,4.05,0,2.54-1.57,4.97-4.5,4.97s-4.33-2.09-4.33-4.31c0-2.44,1.55-4.72,4.5-4.72ZM38.73,57.58c1.52,0,2.25-1.94,2.25-3.88,0-1.79-.8-3.58-2.44-3.58-1.52,0-2.23,1.82-2.23,3.64,0,1.92.8,3.81,2.42,3.81Z"/>
        <path class="cls-2" d="M38.56,58.61c-3.14,0-4.57-2.36-4.57-4.55,0-2.39,1.48-4.96,4.74-4.96s4.57,2.23,4.57,4.29c0,2.59-1.63,5.21-4.74,5.21ZM38.73,49.58c-2.92,0-4.25,2.32-4.25,4.48,0,1.96,1.28,4.07,4.08,4.07s4.25-2.45,4.25-4.73c0-1.84-1.28-3.81-4.08-3.81ZM38.73,57.82c-1.83,0-2.66-2.1-2.66-4.06s.76-3.89,2.47-3.89c1.84,0,2.68,1.98,2.68,3.82,0,1.99-.78,4.12-2.49,4.12ZM38.55,50.36c-1.37,0-1.99,1.76-1.99,3.4,0,1.72.68,3.57,2.18,3.57,1.38,0,2.01-1.89,2.01-3.64,0-1.61-.69-3.34-2.19-3.34Z"/>
      </g>
      <g>
        <path class="cls-2" d="M44.93,53.94c0-.85-.03-1.74-.07-2.55-.09-1.65-.34-1.81-.34-1.81.29-.09.56-.15.83-.15.78,0,1.33.41,1.33.94,0,.22-.07.43-.07.43l.07.02c.32-.83,1.55-1.38,2.64-1.38,1.6,0,2.25.61,2.32,1.36l.07.02c.37-.83,1.6-1.38,2.69-1.38,2.25,0,2.49,1.18,2.49,2.37s-.07,2.37-.07,3.83c0,.77.02,1.79.85,1.79.34,0,.65-.24.65-.24l.07.05s-.43,1.06-1.89,1.06c-.75,0-1.53-.36-1.53-1.38,0-1.46.05-2.49.05-4.22,0-1.12-.03-2.21-1.45-2.21-1.55,0-1.81,2.18-1.81,3,0,.03.03,2.95.03,3.05,0,1.21-.39,1.46-.66,1.77-.61-.09-1.24-.14-1.24-1.31,0-1.46.05-2.55.05-4.29,0-1.12-.03-2.21-1.5-2.21-.72,0-1.7.8-1.7,2.35s.07,2.69.07,4.31c0,.92-.48,1.16-1.07,1.16-.36,0-.8-.09-1.21-.17.12-.05.41-1.12.41-4.17Z"/>
        <path class="cls-2" d="M51.13,58.52s-.02,0-.03,0h-.05c-.59-.09-1.4-.2-1.4-1.55,0-.7.01-1.31.02-1.96.01-.7.03-1.43.03-2.33,0-1.23-.08-1.97-1.26-1.97-.61,0-1.46.73-1.46,2.11,0,.75.02,1.4.03,2.09.02.69.03,1.4.03,2.22,0,.92-.45,1.4-1.31,1.4-.38,0-.85-.09-1.26-.18-.1-.02-.18-.11-.19-.21,0-.08.02-.15.08-.2.09-.19.33-1.25.33-3.99,0-.84-.03-1.72-.07-2.54-.07-1.29-.23-1.59-.26-1.64-.06-.05-.09-.13-.08-.21.01-.1.08-.17.17-.2.33-.1.61-.16.9-.16.78,0,1.38.37,1.53.9.6-.59,1.6-.9,2.44-.9,1.6,0,2.2.59,2.43,1.1.6-.72,1.73-1.1,2.64-1.1,2.4,0,2.73,1.32,2.73,2.61,0,.6-.02,1.16-.03,1.76-.02.64-.04,1.31-.04,2.07,0,.98.1,1.55.61,1.55.25,0,.5-.19.5-.19.09-.07.21-.07.29,0l.07.05c.09.07.12.18.08.28-.02.05-.51,1.21-2.11,1.21-.82,0-1.77-.42-1.77-1.62,0-.7.01-1.3.02-1.93.01-.68.03-1.39.03-2.29,0-1.23-.08-1.97-1.21-1.97-1.55,0-1.56,2.64-1.56,2.76,0,.02,0,.41.01.91.01.88.02,2.07.02,2.13,0,1.17-.35,1.54-.63,1.83-.03.03-.06.07-.09.1-.05.05-.11.08-.18.08ZM53.57,50.22c1.69,0,1.69,1.42,1.69,2.46,0,.91-.01,1.62-.03,2.3-.01.63-.02,1.22-.02,1.92,0,1.03.9,1.14,1.29,1.14.59,0,.98-.18,1.24-.39-.02,0-.04,0-.07,0-1.09,0-1.09-1.32-1.09-2.03,0-.77.02-1.43.04-2.08.02-.6.03-1.16.03-1.75,0-1.12-.17-2.13-2.24-2.13-1.07,0-2.16.54-2.47,1.24-.05.11-.16.16-.28.14l-.07-.02c-.1-.03-.17-.11-.18-.21-.07-.74-.8-1.14-2.08-1.14-1.07,0-2.15.55-2.41,1.23-.04.11-.17.18-.28.15l-.07-.02c-.07-.02-.12-.06-.15-.12-.03-.06-.04-.13-.02-.19,0,0,.06-.17.06-.35,0-.4-.47-.7-1.09-.7-.15,0-.31.03-.48.07.14.41.2,1.07.23,1.64.03.83.07,1.72.07,2.57,0,.79-.03,3.06-.31,3.99.3.06.62.11.87.11.43,0,.83-.11.83-.92s-.02-1.52-.03-2.21c-.02-.66-.03-1.34-.03-2.1,0-1.77,1.16-2.59,1.94-2.59,1.74,0,1.74,1.42,1.74,2.46,0,.91-.01,1.64-.03,2.34-.01.64-.02,1.25-.02,1.95,0,.89.36.98.91,1.06h.01c.25-.27.5-.54.5-1.51,0-.06-.01-1.26-.02-2.13,0-.51-.01-.91-.01-.92,0-1.2.43-3.24,2.05-3.24ZM44.43,57.89s0,0,0,0c0,0,0,0,0,0ZM44.4,49.78s0,0,0,0c0,0,0,0,0,0ZM44.4,49.78s0,0,0,0t0,0ZM44.4,49.78s0,0,0,0t0,0ZM44.4,49.78h0s0,0,0,0Z"/>
      </g>
      <g>
        <path class="cls-2" d="M59.48,54.16c0-1.26-.02-2.59-.02-3.85,0-1.57-.02-4.75-.36-5.09l.05-.07c2.15.02,2.23.77,2.23,2.79,0,1.33-.17,2.72-.17,2.72l.05.02s.66-1.35,2.74-1.35c1.94,0,3.13,1.72,3.13,3.88,0,2.96-1.62,5.14-5.01,5.14-1.41,0-2.69-.53-2.69-1.55,0-.94.03-1.81.03-2.66ZM65.1,53.61c0-1.57-.66-3.18-1.84-3.18-1.02,0-1.79.77-1.94,2.06-.09.73-.09,1.53-.09,2.33,0,1.48.05,2.76,1.14,2.76,1.84,0,2.73-2.01,2.73-3.97Z"/>
        <path class="cls-2" d="M62.14,58.61c-1.46,0-2.93-.55-2.93-1.79,0-.48,0-.94.02-1.4,0-.43.02-.85.02-1.26,0-.63,0-1.28,0-1.92,0-.65,0-1.3,0-1.93,0-3.94-.18-4.78-.29-4.93-.09-.08-.09-.21-.02-.31l.05-.07c.05-.06.13-.1.2-.1,2.37.02,2.47,1,2.47,3.03,0,.74-.05,1.5-.1,2.03.44-.41,1.22-.88,2.48-.88,1.99,0,3.38,1.7,3.38,4.12,0,3.37-1.96,5.39-5.25,5.39ZM59.44,45.4c.15.53.26,1.79.26,4.91,0,.63,0,1.28,0,1.92,0,.65,0,1.3,0,1.93,0,.42,0,.84-.02,1.27,0,.45-.02.91-.02,1.39,0,.9,1.27,1.31,2.45,1.31,3.03,0,4.77-1.79,4.77-4.9,0-2.14-1.19-3.64-2.89-3.64-1.89,0-2.5,1.16-2.53,1.21-.05.11-.18.16-.29.12l-.05-.02c-.11-.04-.18-.14-.16-.26,0-.01.17-1.4.17-2.7,0-1.9-.07-2.48-1.7-2.54ZM62.37,57.82c-1.38,0-1.38-1.66-1.38-3,0-.79,0-1.62.09-2.36.16-1.38,1.02-2.27,2.18-2.27,1.35,0,2.08,1.77,2.08,3.43,0,2.03-.93,4.21-2.97,4.21ZM63.26,50.67c-.91,0-1.57.71-1.7,1.85-.08.72-.08,1.52-.08,2.3,0,1.71.13,2.52.9,2.52,1.71,0,2.48-1.93,2.48-3.73,0-1.45-.6-2.94-1.6-2.94Z"/>
      </g>
      <g>
        <path class="cls-2" d="M72.32,49.34c2.25,0,3.13,1.28,3.13,2.44,0,1.7-1.79,2.32-3.29,2.32-.99,0-1.87-.48-1.87-.48l-.07.03c0,2.04.95,3.44,2.71,3.44,1.4,0,2.67-.97,2.67-.97l.09.09s-.58,2.16-3.44,2.16c-2.28,0-3.97-1.79-3.97-4.29,0-2.35,1.55-4.73,4.04-4.73ZM71.83,53.24c.77,0,1.6-.43,1.6-1.48,0-.8-.36-1.63-1.33-1.63-1.21,0-1.86,2.06-1.86,2.71,0,.14.87.41,1.58.41Z"/>
        <path class="cls-2" d="M72.25,58.61c-2.44,0-4.21-1.91-4.21-4.53,0-2.45,1.6-4.98,4.28-4.98,2.33,0,3.38,1.34,3.38,2.68,0,1.77-1.77,2.56-3.53,2.56-.7,0-1.33-.22-1.69-.37.09,1.81,1,2.88,2.46,2.88,1.3,0,2.52-.91,2.53-.92.1-.07.23-.06.32.02l.09.09c.06.06.08.15.06.23,0,.02-.66,2.34-3.67,2.34ZM72.32,49.58c-2.38,0-3.79,2.28-3.79,4.49,0,2.35,1.57,4.05,3.73,4.05,1.8,0,2.62-.89,2.98-1.48-.52.3-1.38.68-2.3.68-1.82,0-2.95-1.41-2.95-3.68,0-.09.05-.18.13-.22l.07-.03c.07-.04.15-.03.22,0,0,0,.85.45,1.76.45,1.4,0,3.05-.54,3.05-2.07,0-1.01-.76-2.19-2.89-2.19ZM71.83,53.48c-.37,0-1.83-.17-1.83-.65,0-.76.72-2.95,2.1-2.95.95,0,1.57.74,1.57,1.88s-.93,1.72-1.84,1.72ZM70.49,52.73c.2.1.79.27,1.34.27.63,0,1.36-.32,1.36-1.24,0-.33-.08-1.39-1.09-1.39-.93,0-1.55,1.66-1.61,2.37Z"/>
      </g>
      <g>
        <path class="cls-2" d="M77.5,54.01c0-3.46-.36-4.36-.43-4.43.29-.09.56-.15.83-.15.78,0,1.38.39,1.38,1.09,0,.26-.12.63-.12.63l.07.02c.48-1.07,1.65-1.74,2.57-1.74.66,0,.83.29.83.66s-.07.85-.2,1.21l-.09.03c-.54-.27-.97-.48-1.36-.48-1.33,0-1.7,1.38-1.7,3.27,0,3.36.36,3.97.39,3.99-.43.07-.83.17-1.19.17-.63,0-1.07-.26-1.07-1.31s.09-2.03.09-2.96Z"/>
        <path class="cls-2" d="M78.48,58.52c-.88,0-1.31-.51-1.31-1.55,0-.53.02-1.05.04-1.56.02-.49.04-.95.04-1.41,0-3.39-.34-4.21-.38-4.28-.04-.06-.06-.13-.04-.21.02-.08.08-.15.17-.17.33-.1.61-.16.9-.16.88,0,1.49.44,1.6,1.11.64-.73,1.57-1.11,2.3-1.11.89,0,1.08.49,1.08.91,0,.35-.06.87-.22,1.3-.02.06-.07.11-.14.14l-.09.03c-.06.03-.14.02-.2,0-.55-.27-.93-.45-1.25-.45-.63,0-1.46.31-1.46,3.03,0,3.03.3,3.75.34,3.83.04.05.06.12.05.19-.02.1-.1.19-.2.2-.12.02-.24.04-.35.06-.31.06-.6.11-.88.11ZM77.39,49.74c.17.56.34,1.83.34,4.27,0,.46-.02.93-.04,1.43-.02.5-.04,1.02-.04,1.54,0,.99.39,1.07.83,1.07.23,0,.5-.05.79-.1.02,0,.05,0,.07-.01-.19-.64-.3-1.97-.3-3.8,0-1.51.2-3.51,1.94-3.51.39,0,.77.16,1.28.41.08-.28.13-.63.13-.93,0-.18,0-.42-.59-.42-.81,0-1.91.6-2.35,1.59-.05.11-.16.16-.28.14l-.07-.02c-.06-.02-.12-.06-.15-.12-.03-.06-.04-.13-.02-.19.03-.09.11-.38.11-.56,0-.63-.59-.85-1.14-.85-.16,0-.33.03-.51.07ZM79.79,57.89s0,0,0,0c0,0,0,0,0,0ZM79.78,57.89s0,0,0,0c0,0,0,0,0,0ZM76.9,49.75h0s0,0,0,0Z"/>
      </g>
      <g>
        <path class="cls-2" d="M87.63,49.34c2.86,0,4.33,1.99,4.33,4.05,0,2.54-1.57,4.97-4.5,4.97s-4.33-2.09-4.33-4.31c0-2.44,1.55-4.72,4.5-4.72ZM87.63,57.58c1.52,0,2.25-1.94,2.25-3.88,0-1.79-.8-3.58-2.44-3.58-1.52,0-2.23,1.82-2.23,3.64,0,1.92.8,3.81,2.42,3.81Z"/>
        <path class="cls-2" d="M87.46,58.61c-3.14,0-4.57-2.36-4.57-4.55,0-2.39,1.48-4.96,4.74-4.96s4.57,2.23,4.57,4.29c0,2.59-1.63,5.21-4.74,5.21ZM87.63,49.58c-2.92,0-4.25,2.32-4.25,4.48,0,1.96,1.28,4.07,4.08,4.07s4.25-2.45,4.25-4.73c0-1.84-1.28-3.81-4.08-3.81ZM87.63,57.82c-1.83,0-2.66-2.1-2.66-4.06s.76-3.89,2.47-3.89c1.84,0,2.68,1.98,2.68,3.82,0,1.99-.78,4.12-2.49,4.12ZM87.44,50.36c-1.37,0-1.99,1.76-1.99,3.4,0,1.72.68,3.57,2.18,3.57,1.38,0,2.01-1.89,2.01-3.64,0-1.61-.69-3.34-2.19-3.34Z"/>
      </g>
    </g>
    <g>
      <path class="cls-2" d="M17.24,52.42c.29-4.61,3.26-9.08,8.08-9.75,1.77-.31,3.64.01,5.4.21,4.15.45,8.52,1.07,12.59-.07,3.4-.94,5.65-3.54,7.06-6.68-2.19,9.8-11.8,9.64-19.87,8.48-.73-.1-1.86-.27-2.56-.36-5.66-.8-9.21,3.06-10.7,8.16h0Z"/>
      <path class="cls-4" d="M50.36,35.95c3.63-3.73,1.25-8.49,1.25-8.49-3.53,3.84-1.25,8.49-1.25,8.49Z"/>
      <path class="cls-4" d="M49.5,39.46c1.48-4.99,6.8-5.24,6.8-5.24-1.62,4.95-6.8,5.24-6.8,5.24Z"/>
      <path class="cls-4" d="M47.18,42.7c3.14-4.15,8.21-2.51,8.21-2.51-3.26,4.06-8.21,2.51-8.21,2.51Z"/>
      <path class="cls-4" d="M43.63,44.9c4.28-2.96,8.58.17,8.58.17-4.37,2.84-8.58-.17-8.58-.17Z"/>
      <path class="cls-4" d="M38.78,45.84c4.89-1.78,8.26,2.34,8.26,2.34-4.95,1.64-8.26-2.34-8.26-2.34Z"/>
      <path class="cls-4" d="M48.59,38.84c2.33-4.65-1.38-8.47-1.38-8.47-2.2,4.72,1.38,8.47,1.38,8.47Z"/>
      <path class="cls-4" d="M44.6,41.72c3.52-3.84,1-8.52,1-8.52-3.41,3.94-1,8.52-1,8.52Z"/>
      <path class="cls-4" d="M39.88,43.08c4.53-2.57,3.58-7.8,3.58-7.8-4.46,2.7-3.58,7.8-3.58,7.8Z"/>
      <path class="cls-4" d="M34.67,42.6c5.15-.74,6.18-5.96,6.18-5.96-5.14.88-6.18,5.96-6.18,5.96Z"/>
    </g>
    <path class="cls-2" d="M8.04,53.75c4.52-3.19,11.07-2.58,14.93,1.41.94.9,1.76,2.04,2.51,3.1,1.46,2.05,2.92,4.11,4.55,6.03.35.41.89,1.01,1.28,1.37.46.42.92.89,1.53,1.05-2.58-.07-6.06-3.89-7.72-5.76-.82-.93-1.63-2.01-2.41-2.97-3.6-4.58-9.11-5.82-14.67-4.24h0Z"/>
    <text class="cls-1" transform="translate(32.72 64.41)"><tspan x="0" y="0">From Our Farm To Your Plate</tspan></text>
  </g>
  <g class="cls-5">
    <path class="cls-2" d="M49.87,34.44c.21.92.5,1.5.5,1.5,2.18-2.24,2.19-4.85,1.85-6.58-.23,1.31-.85,3.81-2.35,5.08Z"/>
    <path class="cls-2" d="M51.05,39.15c-.91.27-1.55.3-1.55.3.89-3,3.16-4.28,4.84-4.83-1.03.84-2.91,2.6-3.28,4.53Z"/>
    <path class="cls-2" d="M48.74,42.96c-.94-.07-1.56-.27-1.56-.27,1.89-2.49,4.47-2.89,6.23-2.82-1.26.42-3.64,1.41-4.67,3.08Z"/>
    <path class="cls-2" d="M45.03,45.64c-.87-.36-1.4-.74-1.4-.74,2.57-1.78,5.15-1.36,6.8-.74-1.33.01-3.9.21-5.4,1.48Z"/>
    <path class="cls-2" d="M39.95,46.91c-.75-.57-1.17-1.07-1.17-1.07,2.94-1.07,5.32,0,6.76,1.01-1.29-.33-3.82-.79-5.59.06Z"/>
    <path class="cls-2" d="M47.67,37.55c.48.81.93,1.28.93,1.28,1.4-2.8.62-5.29-.23-6.83.18,1.32.34,3.89-.7,5.55Z"/>
    <path class="cls-2" d="M44.06,40.23c.24.91.54,1.49.54,1.49,2.11-2.3,2.05-4.91,1.66-6.63-.19,1.32-.74,3.83-2.2,5.14Z"/>
    <path class="cls-2" d="M39.83,41.5c-.05.94.06,1.58.06,1.58,2.72-1.54,3.46-4.04,3.62-5.8-.59,1.19-1.88,3.42-3.68,4.22Z"/>
    <path class="cls-2" d="M35.2,41.1c-.4.86-.53,1.49-.53,1.49,3.09-.44,4.7-2.5,5.49-4.08-.98.9-3,2.5-4.96,2.58Z"/>
  </g>
</svg>