<?xml version="1.0" encoding="UTF-8"?>
<svg id="Layer_1" data-name="Layer 1" xmlns="http://www.w3.org/2000/svg" version="1.1" viewBox="0 0 100 100">
  <defs>
    <style>
      .cls-1 {
        fill-rule: evenodd;
      }

      .cls-1, .cls-2, .cls-3 {
        stroke-width: 0px;
      }

      .cls-1, .cls-3 {
        fill: #fff;
      }

      .cls-2 {
        fill: #c33128;
      }
    </style>
  </defs>
  <path class="cls-2" d="M98.99,51.3c.78-17.69-20.51-32.62-47.56-33.34C24.38,17.24,1.53,37.53,1.01,49.26c-.78,17.69,20.54,32.04,47.59,32.76,27.05.72,49.61-13.03,50.39-30.72Z"/>
  <path class="cls-1" d="M75.87,50.04l-2.54,3.01,1.06-.31c.41.18.62.43.62.75,0,.12-.04.26-.13.44-.09.17-.35.29-.78.35-.43.06-.69.15-.77.27-.09.38-.09.68,0,.89.09.2.25.37.49.51.24.13.47.2.71.2.53,0,.96-.2,1.28-.6.32-.4.54-.8.66-1.22.12-.41.18-.81.17-1.2,0-.56-.06-1.07-.18-1.53-.12-.46-.32-.98-.59-1.57ZM78.16,54.81l1.89-1.68c-.59.68-1.18,1.29-1.77,1.84-.58.55-1.19.98-1.82,1.31.2-.21.46-.44.76-.69.3-.25.61-.51.94-.77ZM72.32,53.8c.7-.98,1.55-2.04,2.54-3.19.99-1.15,1.98-2.26,2.98-3.32-.09.68-.13,1.44-.13,2.3,0,.33,0,.66,0,1v1c0,1.12-.12,2.03-.37,2.72-.25.69-.8,1.29-1.65,1.79-.24.09-.48.17-.73.24-.25.07-.49.11-.73.11-.36,0-.69-.13-1.02-.37-.33-.25-.49-.71-.49-1.39,0-.32.09-.72.26-1.19l-.66.31ZM56.06,61.96c-.12.21-.17.44-.17.71,0,.41.16.78.49,1.11.17.06.39.1.64.13.25.03.47.05.64.05,1.27,0,2.43-.73,3.49-2.17.82-1.27,1.66-2.52,2.51-3.76-1.38.45-2.75.9-4.11,1.38-1.59.65-2.75,1.51-3.49,2.57ZM65.9,48.28c-1.21,1.03-2.15,2.02-2.82,2.97-.68.94-1.07,2.04-1.19,3.27.03.41.24.71.62.9.38.19.78.29,1.2.29,1.27-.62,2.31-1.68,3.13-3.17.82-1.49,1.5-2.72,2.03-3.7-.32-.56-.86-.84-1.59-.84-.21,0-.44.04-.71.11-.26.07-.48.13-.66.16ZM68.37,47.22c.32.09.69.22,1.11.4.41.17.72.26.93.26.32,0,.65-.12.97-.36-.5.98-1.44,2.64-2.82,5-1.38,2.36-2.13,3.66-2.25,3.89,1.33-.47,2.44-1,3.34-1.57.9-.58,1.71-1.44,2.45-2.59h.17c0,.47-.18.91-.55,1.33-.37.41-.93.94-1.7,1.57-.77.64-1.51,1.11-2.23,1.44s-1.41.61-2.05.84c-1.11,1.95-2.23,3.51-3.33,4.69-1.11,1.18-2.51,2.01-4.22,2.48-.18,0-.48.05-.93.16-.44.1-.79.16-1.06.16-.41,0-.78-.16-1.11-.47-.32-.31-.49-.76-.49-1.35,0-.32.12-.59.35-.79.88-1.36,2.21-2.39,4-3.1,1.78-.71,3.5-1.38,5.15-2,.17-.18.36-.35.55-.51.19-.16.28-.36.28-.6-.21,0-.58.09-1.11.27-.53.18-.96.26-1.28.27-.33,0-.75-.16-1.28-.46-.53-.31-.8-.92-.8-1.84,0-.35.06-.66.18-.93.44-1.62,1.39-2.97,2.84-4.03,1.46-1.06,3.09-1.79,4.88-2.17ZM56.17,47.95c.41-.09.78-.13,1.11-.13.44,0,.82.04,1.13.13s.52.37.64.85c-.18.65-.75,1.73-1.72,3.22-.97,1.5-1.56,2.62-1.76,3.36-.09.36.1.53.58.53.26,0,.63-.07,1.08-.22.46-.15,1.02-.43,1.7-.84.68-.41,1.31-1.11,1.9-2.08-.17.62-.41,1.07-.7,1.35s-.71.6-1.26.98c-.54.37-1.18.71-1.9,1.02-.72.31-1.33.47-1.84.47-.59,0-.93-.25-1.02-.75-.06-.41.03-.81.26-1.2.24-.38.47-.77.71-1.15.35-.77.76-1.5,1.21-2.19.46-.69.9-1.33,1.34-1.92.15-.27.08-.55-.2-.84-.28-.29-.57-.49-.86-.58h-.4ZM49.17,53.67l3.38-5.67c.18-.12.46-.18.84-.18.53,0,.75.22.66.66.12-.06.44-.16.97-.31.53-.15.87-.21,1.02-.18-1.47.5-2.8,1.65-3.97,3.46-.91,1.56-1.81,3.11-2.69,4.65-.35.09-.72.18-1.11.26-.24,0-.43-.07-.58-.22l1.11-1.85c.33-.37.7-.78,1.1-1.24l-.73.63ZM47.46,47.87l1.28.04c-1.26,2.54-2.53,5.07-3.79,7.61.15.35.38.53.71.53.17,0,.4-.07.69-.2.28-.13.48-.23.59-.29l2.23-1.9-.37.62c-.62.68-1.13,1.2-1.53,1.55-.6.53-1.38.8-2.32.8-.24,0-.52-.04-.84-.13-.56-.09-.84-.44-.84-1.06,0-.17.05-.31.13-.4,1.35-2.39,2.7-4.78,4.06-7.17ZM49.76,44.11c.53,0,.79.21.8.62.03.32-.15.59-.53.79-.53.18-.87.05-1.02-.4-.12-.23-.09-.46.09-.68.17-.22.4-.33.66-.33ZM54.89,28.89c.77.15,1.36.3,1.76.46.4.16.66.52.78,1.08.06.29.04.54-.07.75-.1.21-.3.43-.59.67h-.97c.12-.47.17-.81.17-1.02,0-.53-.26-.91-.8-1.15-1.97,0-3.45.49-4.42,1.47-.97.97-2.33,2.67-4.08,5.09-1.75,2.42-3.33,3.98-4.75,4.69l-2.56,1.2c.53.41.95.9,1.26,1.48.31.57.47,1.21.47,1.92-.17,1.18-.61,2.45-1.3,3.83-.69,1.37-1.36,2.68-2,3.92-.06.47-.01.9.13,1.3.15.4.41.69.8.86,1.56,0,2.84-.71,3.84-2.13v.79c-.35.15-1.01.53-1.98,1.15-.97.62-1.75.93-2.34.93-.44,0-.87-.1-1.28-.31-.06-.15-.21-.44-.47-.86-.25-.43-.38-.79-.38-1.08v-.49h.18c.09-.44.76-1.74,2-3.92,1.25-2.17,1.87-3.69,1.87-4.58,0-.41-.05-.79-.16-1.12-.1-.34-.29-.7-.56-1.08-.44-.24-.79-.4-1.04-.48-.25-.09-.52-.09-.82,0-2.73,4.04-4.61,6.74-5.64,8.1-1.03,1.36-2.54,2.73-4.52,4.12-1.99,1.39-4.31,2.08-6.96,2.09-1.47,0-2.79-.21-3.94-.63-1.15-.43-2.01-1.18-2.57-2.27-.09-.36-.18-.71-.27-1.08-.09-.37-.13-.72-.13-1.04,0-.41.12-.88.35-1.39.23-.52.72-.78,1.46-.78.24,0,.41.01.53.04l.58.44c-.97.65-1.46,1.52-1.45,2.61,0,.17.02.43.07.75.05.33.33.7.86,1.13.53.43,1.04.83,1.54,1.21,1.06.38,2.13.57,3.22.57,1.85,0,3.61-.51,5.28-1.51,1.68-1,3.23-2.38,4.67-4.12.73-1.15,1.94-3.15,3.61-6,1.66-2.85,3.1-5.19,4.3-7.04,1.2-1.84,2.55-3.65,4.05-5.42-.12-.12-.25-.18-.4-.18s-.29.04-.44.11-.32.21-.53.42c-.41.15-.91.22-1.5.22-.91,0-2.5-.42-4.77-1.27-2.27-.85-3.7-1.28-4.29-1.28-.81,0-1.5.26-2.06.76-.56.5-1.01,1.4-1.36,2.7-.03.44.07.87.31,1.28.36.47.61.82.75,1.06,1,.41,2.04.61,3.1.61,1.12,0,1.91-.13,2.37-.38.46-.25.83-.55,1.13-.89.29-.34.54-.54.75-.6-.26.68-.78,1.25-1.54,1.7-.77.46-1.68.87-2.74,1.22-.17.03-.41.05-.71.05-1.68,0-3-.54-3.98-1.63-.29-.74-.44-1.52-.45-2.34,0-.24.13-.63.37-1.17s.84-1.13,1.79-1.75c.94-.62,2.02-1.11,3.22-1.46,1.06,0,2.68.41,4.84,1.25,2.17.84,3.72,1.25,4.67,1.25.38,0,.78-.05,1.19-.16.41-.1,1.2-.49,2.34-1.18,1.15-.68,2.05-1.02,2.69-1.02-.03.3-.22.44-.58.44-.59,0-.95.06-1.07.18-1.84,1.27-3.27,2.75-4.3,4.43-1.02,1.68-2.25,4.09-3.67,7.21.26.12.58.18.93.18.41,0,.92-.13,1.53-.38.6-.25,1.05-.44,1.35-.55.86-.86,2.12-2.38,3.77-4.56,1.65-2.18,3.18-3.89,4.56-5.11,1.39-1.22,3.05-2,4.97-2.33Z"/>
  <path class="cls-3" d="M56.2,65.07c-.45,0-.86-.17-1.21-.51-.35-.34-.53-.82-.53-1.45,0-.36.13-.66.39-.89.9-1.37,2.26-2.43,4.05-3.14,1.76-.7,3.49-1.37,5.12-1.99.18-.18.36-.34.54-.5.11-.09.18-.2.21-.33-.2.03-.5.11-.89.25-.54.18-.98.27-1.32.28-.35,0-.8-.16-1.36-.48-.58-.34-.87-.99-.87-1.96,0-.09,0-.18.01-.26-.04.04-.08.09-.12.12-.29.28-.71.61-1.28.99-.55.37-1.19.72-1.92,1.03-.74.32-1.37.48-1.89.48-.83,0-1.09-.47-1.16-.87-.07-.44.03-.88.28-1.3.22-.36.45-.72.67-1.09l.04-.06c.35-.75.76-1.5,1.21-2.19.46-.7.91-1.35,1.35-1.93.06-.11.12-.33-.19-.65-.26-.27-.52-.45-.78-.53h-.35l-.11.04c-1.44.49-2.75,1.63-3.9,3.4-.91,1.55-1.8,3.1-2.68,4.64l-.03.05h-.06c-.35.1-.72.19-1.11.28h-.03c-.28,0-.5-.08-.68-.26l-.08-.08.49-.82c-.24.24-.45.44-.63.6-.63.55-1.44.83-2.42.83-.26,0-.55-.05-.88-.14-.61-.09-.95-.51-.95-1.2,0-.2.05-.37.16-.48,1.03-1.82,2.07-3.65,3.1-5.47l.99-1.75,1.6.05-3.86,7.75c.13.26.3.38.55.38.15,0,.36-.06.62-.19.26-.13.46-.22.58-.28l2.19-1.87,3.41-5.7c.2-.14.5-.2.92-.2.33,0,.57.08.7.25.08.09.12.21.12.34.15-.05.38-.12.77-.23.59-.16.85-.19.99-.19l.17-.04c1.03-.22,1.75-.16,2.3,0,.36.1.61.42.74.95v.04s0,.04,0,.04c-.18.67-.77,1.76-1.74,3.27-.95,1.47-1.54,2.58-1.75,3.32-.03.11-.02.19.02.24.06.07.21.11.41.11.25,0,.6-.07,1.04-.22.45-.15,1.01-.43,1.67-.83.66-.4,1.28-1.08,1.85-2.03l.11-.18c.52-1.26,1.39-2.34,2.6-3.22,1.46-1.07,3.13-1.81,4.94-2.2h.03s.03,0,.03,0c.33.09.71.22,1.12.4.39.17.69.25.87.25.29,0,.59-.11.88-.33l.5-.37-.28.55c-.5.97-1.45,2.66-2.83,5.01-1.22,2.08-1.8,3.08-2.06,3.55,1.15-.43,2.14-.91,2.94-1.43.87-.56,1.68-1.42,2.41-2.55l.04-.07h.4v.14c0,.51-.19.99-.59,1.43-.37.42-.95.95-1.72,1.59-.77.64-1.53,1.13-2.26,1.46-.7.32-1.38.6-2.02.83-1.1,1.92-2.22,3.49-3.32,4.67-1.12,1.2-2.56,2.05-4.29,2.53h-.04c-.16,0-.46.06-.89.16-.44.1-.81.16-1.09.16ZM64.94,55.97h.15v.15c0,.28-.11.52-.34.71-.18.15-.37.32-.54.5l-.05.03c-1.64.62-3.37,1.29-5.14,2-1.75.7-3.07,1.72-3.93,3.05l-.03.03c-.2.18-.3.4-.3.69,0,.54.15.96.44,1.24.3.29.63.43,1.01.43.26,0,.6-.06,1.03-.15.44-.1.75-.16.94-.16,1.67-.47,3.06-1.29,4.13-2.44,1.09-1.17,2.21-2.74,3.31-4.66l.03-.05.05-.02c.64-.23,1.33-.52,2.04-.84.71-.32,1.45-.8,2.2-1.42.75-.62,1.32-1.15,1.68-1.56.28-.31.44-.64.49-.98-.72,1.08-1.52,1.91-2.38,2.46-.91.58-2.05,1.12-3.37,1.59l-.34.12.16-.32c.12-.24.88-1.56,2.25-3.9,1.19-2.02,2.05-3.55,2.59-4.55-.2.08-.41.13-.61.13-.23,0-.55-.09-.99-.27-.39-.17-.75-.3-1.05-.38-.81.18-1.59.42-2.33.74.14-.03.3-.07.48-.12.28-.08.53-.12.75-.12.79,0,1.37.31,1.72.91l.04.07-.04.07c-.53.98-1.21,2.21-2.03,3.7-.83,1.51-1.91,2.59-3.2,3.23l-.06.02c-.43,0-.85-.1-1.26-.3-.43-.21-.66-.56-.7-1.02.12-1.28.53-2.41,1.22-3.37.66-.92,1.58-1.9,2.75-2.91-.75.35-1.46.76-2.13,1.25-1.42,1.04-2.36,2.37-2.79,3.95-.12.26-.17.56-.17.89,0,.87.24,1.43.73,1.71.51.29.91.44,1.21.44.31,0,.73-.09,1.23-.26.55-.19.93-.28,1.15-.28ZM47.55,48.02l-.9,1.6c-1.03,1.83-2.07,3.66-3.11,5.49l-.02.03c-.06.06-.09.16-.09.3,0,.55.23.84.72.92.32.09.59.13.82.13.9,0,1.65-.26,2.22-.76.32-.28.71-.68,1.18-1.17l-1.35,1.15c-.12.06-.32.16-.6.29-.31.14-.55.21-.75.21-.27,0-.63-.11-.85-.62l-.03-.06.03-.06,3.69-7.41-.97-.03ZM56.98,47.97c.19.11.37.26.55.45.33.34.4.68.22,1.01-.44.59-.89,1.24-1.35,1.93-.45.69-.85,1.42-1.2,2.17l-.05.08c-.22.36-.45.73-.67,1.09-.22.36-.3.72-.24,1.1.07.43.35.63.87.63.48,0,1.08-.15,1.78-.46.09-.04.17-.08.26-.11-.43.13-.77.2-1.04.2-.31,0-.51-.07-.63-.22-.1-.12-.12-.29-.07-.49.21-.77.81-1.91,1.78-3.4.94-1.45,1.5-2.51,1.69-3.15-.11-.4-.28-.63-.53-.7-.36-.1-.8-.16-1.38-.11ZM47.89,56.11c.1.07.22.1.37.11.36-.08.7-.16,1.03-.25.87-1.52,1.76-3.05,2.66-4.59.9-1.38,1.9-2.39,2.98-3.03-.44.12-.71.21-.8.26l-.27.14.06-.3c.03-.16.02-.27-.04-.35-.08-.09-.24-.14-.48-.14-.33,0-.58.05-.73.14l-2.91,4.88,1.51-1.29-1.24,1.44c-.37.43-.74.85-1.1,1.25l-1.02,1.72ZM65.96,48.42c-1.18,1.02-2.11,2-2.77,2.91-.66.92-1.05,2-1.16,3.2.03.34.21.59.54.76.35.18.72.27,1.1.27,1.22-.61,2.24-1.65,3.04-3.09.8-1.45,1.46-2.66,1.99-3.62-.3-.47-.77-.7-1.43-.7-.19,0-.41.04-.67.11-.25.07-.46.12-.64.15ZM57.66,64.09c-.17,0-.39-.02-.66-.05-.27-.03-.49-.08-.67-.14l-.06-.04c-.35-.35-.53-.76-.53-1.21,0-.29.07-.55.19-.78h0c.75-1.09,1.95-1.98,3.55-2.64,1.34-.47,2.72-.93,4.12-1.38l.41-.13-.24.35c-.84,1.22-1.68,2.49-2.51,3.76-1.09,1.48-2.3,2.23-3.61,2.24ZM56.46,63.65c.15.05.35.09.58.11.26.03.46.04.63.04,1.21,0,2.35-.71,3.37-2.11.75-1.15,1.51-2.3,2.27-3.41-1.26.41-2.5.83-3.7,1.24-1.55.63-2.7,1.48-3.41,2.51-.1.18-.15.39-.15.63,0,.36.14.68.42.98ZM75.71,56.83l.65-.66c.21-.21.46-.45.77-.7.3-.25.61-.51.94-.77l3.6-3.21-1.51,1.73c-.59.67-1.19,1.29-1.78,1.85-.59.55-1.21,1-1.85,1.33l-.82.43ZM20.43,56.73c-1.47,0-2.8-.22-3.95-.64-1.18-.44-2.07-1.23-2.65-2.34v-.03s-.28-1.08-.28-1.08c-.09-.38-.14-.75-.14-1.08,0-.44.12-.91.37-1.45.26-.57.79-.86,1.59-.86.26,0,.44.01.56.05l.05.03.74.57-.17.11c-.94.63-1.39,1.44-1.39,2.49,0,.17.02.42.07.73.04.29.31.63.81,1.03.52.42,1.03.82,1.52,1.2,1.02.37,2.07.55,3.13.55h.03c1.81,0,3.56-.5,5.21-1.49,1.66-.99,3.21-2.37,4.63-4.08.72-1.14,1.93-3.15,3.6-5.98,1.63-2.79,3.08-5.16,4.31-7.04,1.17-1.8,2.51-3.59,3.96-5.32-.17-.1-.36-.06-.56.04-.13.07-.3.2-.49.39l-.05.03c-.42.15-.94.23-1.55.23h-.01c-.93,0-2.5-.42-4.81-1.28-2.24-.84-3.67-1.27-4.24-1.27-.77,0-1.44.25-1.96.72-.53.48-.97,1.36-1.31,2.63-.02.39.07.78.3,1.17.34.45.58.78.73,1.01.97.39,1.97.59,3,.59,1.09,0,1.87-.13,2.29-.36.44-.24.81-.53,1.09-.85.32-.37.59-.58.82-.64l.28-.08-.11.27c-.28.71-.82,1.31-1.61,1.77-.77.46-1.7.88-2.77,1.23-.21.04-.47.05-.77.05-1.71,0-3.08-.56-4.07-1.68l-.03-.04c-.3-.75-.45-1.56-.46-2.4,0-.26.13-.66.39-1.23.26-.58.86-1.17,1.84-1.81.95-.63,2.05-1.13,3.26-1.48h.04s0,0,.01,0c1.07,0,2.72.42,4.88,1.26,2.14.83,3.69,1.24,4.61,1.24.36,0,.75-.05,1.16-.15.4-.1,1.18-.49,2.3-1.16,1.18-.7,2.08-1.04,2.77-1.04h.16s-.01.16-.01.16c-.02.21-.14.58-.73.58-.75,0-.92.1-.96.14-1.83,1.27-3.27,2.74-4.28,4.4-1.01,1.65-2.22,4.03-3.6,7.06.21.07.46.11.74.11.39,0,.89-.13,1.48-.37l.29-.12c.44-.18.79-.33,1.03-.42.84-.84,2.1-2.37,3.74-4.52,1.65-2.18,3.19-3.91,4.58-5.14,1.41-1.24,3.11-2.04,5.04-2.36h.03s.03,0,.03,0c.77.15,1.38.3,1.79.47.44.18.73.58.86,1.19.06.33.04.61-.08.84-.11.22-.32.46-.63.71l-.04.03h-1.21l.04-.18c.11-.46.17-.79.17-.98,0-.46-.22-.79-.68-1-1.91,0-3.35.49-4.28,1.42-.96.96-2.33,2.66-4.07,5.07-1.76,2.43-3.38,4.03-4.8,4.74l-2.35,1.1c.46.39.83.85,1.12,1.38.32.59.48,1.26.49,1.99-.18,1.21-.62,2.51-1.31,3.89-.65,1.29-1.32,2.6-1.99,3.89-.05.43,0,.84.13,1.21.13.35.36.6.69.77,1.49-.01,2.73-.71,3.69-2.07l.26-.37v1.35s-.08.04-.08.04c-.35.14-1.01.53-1.97,1.14-.99.63-1.8.95-2.42.96-.46,0-.91-.11-1.35-.32l-.05-.02-.02-.05c-.05-.14-.21-.42-.46-.84-.26-.45-.4-.84-.4-1.16v-.63h.21c.16-.54.8-1.77,1.99-3.84,1.23-2.14,1.85-3.65,1.85-4.51,0-.4-.05-.76-.15-1.08-.09-.31-.27-.65-.52-1.01-.43-.23-.75-.38-.99-.46-.21-.08-.43-.08-.68-.01-2.76,4.08-4.6,6.72-5.62,8.06-1.03,1.36-2.56,2.76-4.56,4.15-2.01,1.4-4.38,2.11-7.04,2.11h-.03ZM14.1,53.63c.54,1.04,1.38,1.78,2.48,2.19,1.13.42,2.42.63,3.88.62,2.61,0,4.92-.7,6.88-2.06,1.97-1.38,3.48-2.75,4.49-4.09,1.02-1.34,2.87-3.99,5.64-8.09l.03-.04.05-.02c.32-.1.63-.1.91,0,.26.09.6.25,1.06.49l.03.02.02.03c.28.4.47.77.58,1.12.11.35.16.74.16,1.17,0,.92-.61,2.44-1.89,4.65-1.24,2.15-1.9,3.46-1.99,3.87l-.02.12h-.15v.34c0,.27.12.61.36,1.01.23.39.38.66.45.83.38.18.77.27,1.17.27.48,0,1.1-.23,1.86-.66-.43.13-.89.2-1.37.2h-.06c-.42-.21-.71-.52-.87-.96-.15-.42-.2-.88-.14-1.37l.02-.05c.68-1.3,1.35-2.61,2-3.91.68-1.35,1.11-2.63,1.28-3.78,0-.66-.16-1.29-.45-1.83-.3-.56-.71-1.04-1.22-1.43l-.19-.15.75-.35c-.43.14-.81.22-1.13.22-.38,0-.72-.06-1-.19l-.13-.06.06-.13c1.41-3.11,2.65-5.54,3.68-7.23.87-1.43,2.05-2.73,3.52-3.87-.02.01-.04.03-.07.04-1.15.68-1.95,1.08-2.38,1.19-.02,0-.03,0-.05.01.14.03.27.1.38.21l.09.09-.09.1c-1.48,1.76-2.84,3.57-4.03,5.41-1.23,1.88-2.67,4.25-4.3,7.03-1.66,2.83-2.88,4.85-3.61,6-1.45,1.76-3.03,3.15-4.71,4.16-1.69,1.01-3.49,1.53-5.35,1.53-1.09.01-2.2-.19-3.27-.58l-.04-.02c-.5-.38-1.02-.79-1.54-1.21-.57-.46-.86-.85-.92-1.22-.05-.33-.07-.59-.07-.77,0-1.07.45-1.95,1.35-2.62l-.39-.3c-.1-.02-.26-.03-.47-.03-.68,0-1.12.23-1.32.69-.23.49-.34.94-.34,1.33,0,.31.04.65.13,1.01l.26,1.06ZM42.42,53.75c-.15.18-.3.35-.46.5.18-.1.33-.18.46-.24v-.27ZM54.89,29.04c-1.87.32-3.51,1.09-4.87,2.29-1.37,1.22-2.9,2.93-4.54,5.09-1.55,2.05-2.73,3.48-3.58,4.36,1.37-.7,2.94-2.25,4.66-4.63,1.75-2.42,3.13-4.14,4.1-5.11.99-1,2.51-1.51,4.52-1.51h.06c.59.27.88.7.88,1.29,0,.19-.04.48-.14.87h.74c.26-.21.43-.41.52-.58.09-.18.11-.39.06-.66-.11-.51-.33-.83-.69-.98-.39-.16-.97-.31-1.71-.45ZM26.83,35.89c.94,1.04,2.23,1.56,3.84,1.56.29,0,.52-.01.7-.04,1.03-.35,1.94-.75,2.69-1.2.55-.33.97-.72,1.25-1.17-.09.08-.18.17-.27.29-.31.35-.7.66-1.17.92-.48.27-1.28.4-2.43.4-1.08,0-2.14-.21-3.15-.62l-.04-.02-.02-.04c-.14-.22-.38-.57-.75-1.05-.26-.45-.37-.91-.34-1.38.31-1.18.71-2.04,1.19-2.58-.81.56-1.34,1.09-1.56,1.57-.24.53-.36.9-.36,1.11,0,.79.15,1.56.43,2.26ZM30.7,29.94c.62,0,2.04.42,4.34,1.29,2.24.84,3.83,1.26,4.71,1.26,0,0,0,0,0,0,.55,0,1.03-.07,1.42-.2.2-.2.39-.34.54-.42h0c-.2.02-.39.03-.57.03-.96,0-2.55-.43-4.72-1.26-2.13-.82-3.73-1.24-4.77-1.24-.58.17-1.14.38-1.66.62.22-.04.45-.07.69-.07ZM47.19,29.55c-.2.02-.42.07-.66.15.08,0,.17,0,.27,0,.22,0,.33-.06.39-.14ZM74.23,56.6c-.39,0-.76-.14-1.11-.41-.36-.28-.54-.78-.54-1.51,0-.26.05-.56.16-.92l-.86.4.33-.45c.69-.96,1.52-2,2.54-3.2.98-1.15,1.99-2.26,2.98-3.32l.31-.33-.06.44c-.08.66-.13,1.43-.13,2.28,0,.33,0,.65,0,.99v1c0,1.12-.12,2.06-.38,2.77-.26.72-.84,1.35-1.72,1.87-.27.1-.51.18-.76.26-.26.08-.52.12-.77.12ZM73.23,53.23l-.12.31c-.17.47-.26.84-.25,1.14,0,.63.14,1.06.43,1.28.38.3.78.38,1.21.33-.25,0-.51-.08-.76-.22-.26-.15-.44-.34-.55-.57-.1-.24-.1-.56,0-.98l.02-.05c.11-.16.38-.26.87-.33.49-.07.63-.2.67-.28.09-.19.11-.31.11-.38,0-.25-.16-.45-.48-.6l-1.15.34ZM73.47,54.62c-.07.33-.07.59,0,.76.08.17.22.32.42.44.21.12.43.18.64.18.48,0,.88-.18,1.17-.54.31-.39.52-.77.63-1.17.12-.4.17-.79.17-1.15,0-.53-.06-1.03-.18-1.49-.1-.4-.27-.85-.49-1.34l-2.08,2.47.65-.19.05.02c.47.2.71.5.71.89,0,.14-.05.31-.14.51-.12.23-.41.37-.89.43-.46.07-.61.15-.66.19ZM75.9,49.77l.1.2c.28.59.48,1.12.6,1.59.13.48.19,1.01.19,1.56,0,.39-.06.81-.18,1.24-.12.43-.35.85-.69,1.27-.12.14-.24.26-.38.36.03-.01.06-.02.09-.03.8-.47,1.33-1.05,1.57-1.71.24-.68.37-1.58.36-2.67v-1c0-.34,0-.67,0-1,0-.68.03-1.31.08-1.88-.9.96-1.79,1.97-2.68,2.99-.85,1-1.58,1.89-2.19,2.72l.36-.17-.22.07,2.99-3.55ZM49.62,45.74c-.48,0-.67-.33-.75-.57-.14-.26-.1-.55.11-.82.2-.25.46-.38.77-.39h0c.77,0,.94.42.94.76.03.37-.17.69-.61.92-.18.06-.34.09-.47.09ZM49.76,44.26c-.22,0-.4.09-.55.28-.14.18-.17.35-.07.53.09.27.26.52.84.33.31-.17.46-.38.43-.64,0-.23-.08-.49-.65-.49Z"/>
  <path class="cls-3" d="M60.62,46.58l-.06-3.33c5.78-1.61,11.56-1.73,17.35-.03v3.22c-5.98-1.48-11.76-1.54-17.28.14Z"/>
  <path class="cls-3" d="M60.48,46.77l-.07-3.64.11-.03c5.96-1.66,11.82-1.67,17.43-.03l.1.03v3.51s-.18-.04-.18-.04c-6.13-1.52-11.92-1.47-17.21.14l-.18.06ZM60.7,43.35l.06,3.03c5.24-1.55,10.95-1.6,17-.13v-2.92c-5.49-1.59-11.23-1.58-17.06.03Z"/>
  <path class="cls-3" d="M60.63,42.72c5.4-2.13,11.86-1.95,17.26-.17-.09-1.37.99-3.32,3.32-4.19l-.26-.57c-3.31-.04-5.08,2.03-7.51,2.69-2.07-1.46-3.8-4.6-3.8-7.11h-.85c0,2.72-1.62,5.7-4.04,7.12-2.78-1.16-3.96-2.48-7.26-2.79l-.19.57c2.74,1.13,3.35,3.36,3.34,4.45Z"/>
  <path class="cls-3" d="M60.48,42.93v-.22c0-.3-.05-3-3.25-4.31l-.13-.05.27-.81h.11c2.26.22,3.53.9,5,1.68.68.36,1.38.74,2.24,1.1,2.31-1.39,3.91-4.24,3.9-6.97v-.15s1.14.01,1.14.01v.14c0,2.38,1.65,5.48,3.69,6.95.87-.24,1.65-.67,2.48-1.12,1.43-.78,2.91-1.57,5.01-1.55h.09s.37.8.37.8l-.15.05c-2.21.83-3.31,2.7-3.22,4.04v.22s-.19-.07-.19-.07c-5.71-1.88-12.13-1.81-17.17.17l-.2.08ZM57.47,38.19c2.86,1.24,3.25,3.57,3.3,4.32,5.01-1.91,11.32-1.98,16.97-.17.01-1.42,1.11-3.19,3.27-4.07l-.16-.35h0c-1.98,0-3.39.77-4.77,1.52-.86.47-1.68.91-2.61,1.16l-.07.02-.06-.04c-2.12-1.49-3.79-4.58-3.86-7.08h-.56c-.05,2.8-1.72,5.71-4.11,7.11l-.06.04-.07-.03c-.9-.38-1.63-.76-2.33-1.14-1.41-.76-2.64-1.41-4.77-1.63l-.11.33Z"/>
  <path class="cls-3" d="M82.37,36.84c.82,0,1.48.44,1.48.98s-.66.98-1.48.98c-.81,0-1.48-.44-1.48-.98,0-.54.66-.98,1.48-.98Z"/>
  <path class="cls-3" d="M82.37,38.94c-.89,0-1.61-.5-1.62-1.12,0-.62.73-1.13,1.62-1.13h0c.53,0,1.03.18,1.33.48.19.19.29.41.29.64,0,.63-.71,1.13-1.62,1.13h0ZM82.37,36.98c-.72,0-1.33.38-1.33.84,0,.45.61.83,1.33.83h0c.73,0,1.33-.38,1.33-.84,0-.15-.07-.3-.2-.44-.25-.25-.67-.39-1.12-.39,0,0,0,0,0,0h0Z"/>
  <path class="cls-3" d="M56.14,36.88c.82,0,1.48.44,1.48.98s-.66.98-1.47.98c-.82,0-1.48-.44-1.48-.98,0-.54.66-.98,1.47-.98Z"/>
  <path class="cls-3" d="M56.14,38.99c-.91,0-1.63-.49-1.63-1.12,0-.23.1-.45.28-.64.3-.3.8-.48,1.33-.48h0c.53,0,1.03.18,1.33.48.19.19.29.41.29.64,0,.63-.71,1.12-1.62,1.13ZM56.14,37.03c-.46,0-.88.15-1.13.4-.13.13-.2.28-.2.44,0,.46.6.83,1.33.83.72,0,1.33-.39,1.33-.84,0-.15-.07-.3-.2-.44-.25-.25-.67-.39-1.12-.39h0Z"/>
  <path class="cls-3" d="M69.23,31.02c.95,0,1.72.58,1.72,1.29,0,.71-.77,1.29-1.72,1.29-.95,0-1.72-.58-1.72-1.29,0-.71.77-1.29,1.72-1.3Z"/>
  <path class="cls-3" d="M69.23,33.75c-.58,0-1.11-.2-1.47-.55-.25-.25-.39-.56-.39-.88,0-.32.13-.62.38-.88.35-.36.89-.56,1.48-.56h0c1.03,0,1.86.65,1.86,1.44,0,.32-.13.62-.38.88-.35.36-.89.56-1.48.56h0ZM69.23,31.17c-.5,0-.98.18-1.27.48-.2.2-.3.43-.3.67,0,.24.1.48.3.67.3.29.77.47,1.26.47h0c.5,0,.98-.18,1.27-.48.2-.2.3-.43.3-.67,0-.63-.71-1.15-1.57-1.15h0Z"/>
  <polygon class="cls-3" points="62.61 38.32 64.87 39.72 66.31 37.78 64.37 35.32 63.08 35.44 62.61 38.32"/>
  <path class="cls-3" d="M64.91,39.92l-2.45-1.52.5-3.09,1.48-.14,2.05,2.62-1.58,2.14ZM62.77,38.25l2.06,1.28,1.29-1.74-1.81-2.32-1.1.1-.43,2.68Z"/>
  <path class="cls-3" d="M63.05,33.51c.77-.25,1.56.02,1.76.6.2.58-.27,1.26-1.04,1.51-.77.25-1.56-.02-1.76-.6-.2-.58.27-1.26,1.04-1.51Z"/>
  <path class="cls-3" d="M63.19,35.85c-.62,0-1.15-.3-1.32-.79-.09-.27-.07-.56.08-.84.2-.39.58-.7,1.06-.85h0c.85-.27,1.72.04,1.94.69.09.27.07.56-.08.84-.19.39-.58.7-1.06.86-.21.07-.42.1-.62.1ZM63.63,33.56c-.17,0-.36.03-.54.09h0c-.4.13-.73.39-.89.7-.11.21-.13.42-.06.62.17.51.88.73,1.58.51.4-.13.73-.4.89-.71.1-.21.13-.42.06-.61-.13-.37-.55-.6-1.04-.6Z"/>
  <polygon class="cls-3" points="75.82 38.3 73.56 39.71 72.13 37.77 74.05 35.3 75.34 35.42 75.82 38.3"/>
  <path class="cls-3" d="M73.53,39.9l-1.58-2.13,2.04-2.63,1.48.14.51,3.09-2.45,1.53ZM72.31,37.78l1.29,1.74,2.06-1.28-.44-2.68-1.1-.1-1.81,2.32Z"/>
  <path class="cls-3" d="M75.37,33.49c-.78-.25-1.56.02-1.76.61-.2.58.27,1.25,1.05,1.5s1.56-.03,1.76-.61c.2-.58-.27-1.26-1.05-1.5Z"/>
  <path class="cls-3" d="M75.23,35.83c-.2,0-.41-.03-.62-.1-.48-.15-.87-.47-1.06-.85-.14-.28-.17-.57-.08-.84.22-.66,1.09-.97,1.94-.7h0c.48.15.87.46,1.06.85.14.28.17.57.08.84-.17.5-.7.8-1.32.8ZM74.79,33.54c-.49,0-.91.22-1.04.6-.07.19-.05.41.06.61.16.31.49.58.89.71.7.23,1.41,0,1.58-.51.07-.19.04-.41-.06-.62-.16-.31-.49-.58-.89-.7h0c-.18-.06-.36-.09-.54-.09Z"/>
  <path class="cls-1" d="M40.82,65.86c.25.02.48.03.69.04.2,0,.39.01.55.01.22,0,.45,0,.68-.03.24-.02.36-.02.38-.02.05,0,.09,0,.11.03.03.02.04.05.04.1,0,.01,0,.03,0,.03,0,0,0,.01,0,.02l-.13.6-.13.04v-.17c-.02-.17-.29-.29-.81-.35-.11-.01-.2-.02-.26-.03-.04.18-.08.38-.11.6-.04.22-.07.48-.11.78.16,0,.32-.02.47-.03.15,0,.3-.03.44-.05l.14-.34.15-.05c-.06.21-.11.41-.14.6-.03.18-.05.37-.06.54l-.13.08-.02-.46c-.15-.03-.3-.05-.45-.06-.15-.02-.29-.03-.44-.04-.04.32-.07.61-.09.86-.02.25-.04.47-.05.67l.47.09-.04.15c-.15,0-.29-.02-.43-.02-.14,0-.27,0-.4,0-.11,0-.23,0-.37,0-.13,0-.27.01-.41.02l.04-.15.4-.09c.1-.54.19-1.07.25-1.6.07-.53.12-1.04.15-1.54l-.42-.09.05-.15ZM37.74,67.93c.15,0,.28-.05.37-.14.09-.09.14-.21.14-.36,0-.08-.01-.14-.04-.18-.03-.04-.06-.06-.12-.06-.07,0-.14.05-.18.14-.05.09-.11.29-.17.59ZM37.72,68.12c-.02.08-.03.17-.04.26,0,.08-.01.17-.01.26,0,.13.02.22.06.28.05.06.11.1.19.09.09,0,.19-.05.31-.14.12-.09.24-.22.37-.39l.13.13c-.21.29-.43.51-.65.68s-.44.25-.63.25c-.15,0-.25-.05-.33-.16-.07-.1-.11-.26-.11-.46,0-.26.05-.52.13-.79.08-.27.2-.49.34-.68.14-.18.3-.32.49-.44.19-.12.37-.17.52-.17.11,0,.2.03.26.1.07.06.1.16.1.27,0,.2-.11.39-.32.57-.21.17-.48.29-.81.35ZM36.45,67.55c-.08-.13-.15-.22-.2-.28-.05-.05-.11-.08-.15-.08-.11,0-.21.15-.3.44-.09.29-.13.62-.13.99,0,.13.02.23.06.29.04.06.1.1.19.09.09,0,.19-.04.3-.13.11-.09.24-.22.37-.39l.13.13c-.21.29-.43.51-.66.68-.23.16-.45.25-.64.25-.15,0-.26-.05-.34-.15-.07-.1-.11-.26-.11-.47,0-.26.05-.52.13-.79.09-.27.2-.49.35-.67.14-.18.31-.32.51-.44.19-.12.37-.17.52-.17.12,0,.21.03.28.08.07.05.11.13.11.21,0,.07-.03.14-.1.21-.06.06-.17.14-.33.22ZM34.73,67.76c-.04-.08-.08-.14-.1-.16-.03-.03-.06-.04-.1-.04-.13,0-.27.17-.42.51-.16.34-.26.76-.31,1.24-.1.03-.22.07-.37.13-.15.06-.25.09-.29.11.09-.42.16-.82.21-1.19.05-.37.08-.63.07-.79,0-.05,0-.09-.01-.12-.01-.02-.03-.03-.05-.03s-.07.02-.12.06c-.05.05-.11.11-.17.18l-.1-.1c.18-.22.35-.39.52-.52.17-.13.3-.2.4-.2.06,0,.11.02.15.07.03.05.05.11.05.2s-.01.22-.04.39c-.03.17-.06.37-.11.61h.03c.18-.39.35-.69.52-.92.17-.23.32-.34.44-.34.07,0,.12.03.16.07.04.05.06.12.06.21,0,.11-.03.22-.1.33-.07.1-.17.2-.3.3ZM32.63,66.82c-.09.45-.16.86-.21,1.22-.05.37-.08.62-.08.76,0,.04,0,.06.02.08.01.02.03.03.05.03.02,0,.05-.02.09-.05.04-.03.08-.09.15-.16l.1.09c-.16.22-.31.39-.47.52-.16.12-.28.19-.39.19-.07,0-.12-.02-.15-.07-.03-.05-.05-.12-.05-.22,0-.07,0-.16.02-.28.01-.12.05-.32.1-.62-.24.36-.48.64-.72.86-.25.22-.44.32-.59.32-.06,0-.11-.02-.14-.05-.03-.04-.05-.09-.05-.17,0-.15.04-.42.11-.81.08-.39.11-.69.11-.89,0-.03,0-.06-.02-.08-.01-.02-.03-.03-.05-.03s-.05.02-.08.04c-.03.03-.08.09-.15.17l-.11-.1c.16-.22.32-.4.47-.53.15-.13.28-.19.39-.19.07,0,.12.02.16.07.04.05.05.13.05.23,0,.18-.04.47-.12.86-.08.39-.12.66-.12.82,0,.04,0,.06.02.08.01.02.03.03.05.03.13,0,.31-.19.52-.57.22-.38.36-.82.42-1.32.1-.03.26-.09.47-.17.08-.03.13-.05.17-.06ZM29.18,67.7c0-.18-.03-.32-.08-.41-.05-.09-.12-.14-.22-.14-.16,0-.28.14-.37.41-.09.27-.14.64-.14,1.1,0,.19.03.33.07.43.05.1.13.15.23.15.16,0,.28-.14.37-.41.09-.27.14-.65.14-1.12ZM29.23,66.84c.21,0,.37.06.47.19.1.13.16.32.16.57,0,.53-.15.98-.46,1.36-.31.37-.68.57-1.1.57-.19,0-.34-.06-.44-.19-.1-.13-.15-.32-.15-.57,0-.29.05-.56.14-.81.1-.26.23-.47.4-.65.14-.14.29-.26.47-.34.18-.08.35-.13.51-.13ZM27.05,66.65l-.05-.02c-.02-.17-.07-.3-.16-.38-.09-.09-.21-.13-.36-.13-.13,0-.24.05-.32.13-.08.09-.12.21-.12.36,0,.1.03.19.08.28.05.09.16.2.33.35.03.03.08.06.14.12.42.34.63.67.63.99,0,.35-.14.64-.43.87-.29.24-.65.36-1.08.36-.22,0-.38-.03-.51-.09-.12-.06-.18-.15-.18-.26,0-.09.04-.18.12-.27.07-.09.18-.18.32-.27l.05.02c.01.2.07.35.17.45.1.1.24.16.41.16.16,0,.29-.05.4-.16.1-.11.15-.25.15-.43,0-.25-.18-.53-.55-.84-.05-.05-.1-.08-.13-.11-.2-.17-.33-.31-.39-.42-.06-.11-.09-.24-.09-.38,0-.3.13-.56.38-.77.26-.22.57-.32.93-.32.21,0,.37.03.48.09.11.06.17.14.17.25,0,.07-.03.15-.1.23s-.16.16-.29.24ZM51.74,60.39c-.09.46-.19,1.06-.28,1.81-.1.75-.18,1.26-.26,1.53-.12.41-.33.75-.64,1-.31.25-.65.38-1.03.38-.16,0-.29-.03-.38-.09-.09-.06-.13-.15-.13-.26,0-.06.01-.12.03-.17.02-.05.05-.11.1-.15.11.12.23.21.36.28.13.06.26.1.38.1.41,0,.73-.76.95-2.28.04-.27.07-.47.09-.62-.24.36-.48.64-.72.86-.25.22-.44.32-.59.32-.06,0-.11-.02-.14-.05-.03-.04-.05-.09-.05-.17,0-.15.04-.42.12-.81.07-.39.11-.69.11-.89,0-.04,0-.06-.02-.08,0-.02-.03-.03-.05-.03-.03,0-.05.02-.09.05-.04.03-.08.08-.15.16l-.1-.1c.16-.22.32-.4.47-.53.16-.13.28-.19.39-.19.07,0,.12.03.16.07.04.05.05.12.05.22,0,.19-.04.47-.12.86-.08.39-.12.66-.12.82,0,.04,0,.06.02.08.01.02.03.03.05.03.13,0,.31-.19.52-.57.22-.38.36-.82.42-1.32.1-.03.25-.09.45-.17.08-.03.15-.06.19-.07ZM48.67,59.13c-.1-.07-.19-.12-.29-.16-.09-.04-.18-.05-.26-.05-.26,0-.49.63-.67,1.89-.05.35-.09.62-.12.83.24-.35.47-.64.72-.86.24-.22.44-.33.58-.33.06,0,.11.02.14.05.03.04.05.1.05.17,0,.15-.04.43-.12.82-.08.4-.12.69-.12.88,0,.04,0,.07.02.09,0,.02.03.03.05.03s.05-.02.08-.05c.03-.03.08-.08.15-.16l.11.1c-.16.22-.32.39-.47.52-.15.13-.28.19-.39.19-.07,0-.12-.02-.16-.07-.04-.05-.05-.12-.05-.22,0-.18.04-.47.11-.86.07-.39.11-.67.11-.83,0-.04,0-.06-.02-.08,0-.02-.03-.03-.05-.03-.05,0-.14.07-.26.21-.12.14-.24.31-.34.5-.08.15-.15.32-.19.51-.05.19-.09.41-.11.66-.07.02-.18.06-.33.12-.15.06-.26.1-.33.12.08-.4.18-1.02.29-1.86.11-.84.24-1.41.4-1.71.15-.28.35-.52.59-.71.25-.19.48-.28.7-.28.09,0,.16.02.21.07.05.05.08.11.08.19,0,.05,0,.1-.03.15-.02.05-.05.1-.09.16ZM44.35,61.35c-.04-.08-.07-.14-.1-.16-.03-.02-.06-.04-.1-.04-.13,0-.27.17-.43.51-.16.34-.26.76-.31,1.24-.09.03-.22.07-.37.13-.16.06-.25.1-.29.11.09-.43.16-.82.21-1.19.05-.37.08-.63.08-.79,0-.05,0-.09-.02-.11s-.03-.03-.05-.03c-.03,0-.07.02-.12.06-.05.05-.11.1-.17.18l-.1-.1c.18-.22.35-.39.52-.52.17-.13.3-.2.4-.2.06,0,.11.02.15.07.03.05.05.11.05.2s-.01.22-.04.38c-.02.17-.06.37-.11.61h.03c.17-.39.35-.7.52-.92.17-.23.32-.34.44-.34.07,0,.12.03.16.08.04.05.06.12.06.21,0,.07-.02.15-.05.22.18-.1.37-.25.59-.45.22-.19.45-.43.69-.72l.06.07c-.06.15-.11.28-.14.41-.03.12-.05.24-.06.35.12.01.2.02.26.03.06,0,.11,0,.15,0,.08,0,.15,0,.2-.02.05-.02.09-.04.13-.08l.04.06c-.1.14-.2.23-.3.28-.1.05-.22.08-.36.08h-.1s-.05,0-.07,0c-.05.34-.1.64-.13.91-.03.26-.05.44-.05.53,0,.04,0,.07.02.09,0,.02.02.03.05.03.03,0,.06-.02.11-.06.05-.04.1-.11.17-.21l.11.11c-.17.24-.34.42-.5.55-.16.13-.3.2-.42.2-.06,0-.11-.02-.15-.07-.04-.05-.05-.11-.05-.19,0-.12.02-.34.06-.67.04-.32.11-.74.2-1.26-.09,0-.17.02-.24.03-.08.02-.15.04-.23.08l-.04-.09s-.03.06-.05.1c-.07.11-.17.21-.3.3ZM41.67,61.28c0-.18-.03-.32-.07-.41-.05-.09-.13-.14-.22-.14-.16,0-.28.14-.37.41s-.14.64-.14,1.1c0,.19.02.33.07.43.05.09.13.14.22.14.16,0,.28-.14.37-.41.09-.27.14-.65.14-1.12ZM41.72,60.43c.21,0,.37.06.47.19.1.13.16.32.16.57,0,.53-.15.98-.46,1.36-.31.37-.68.57-1.1.57-.19,0-.34-.06-.44-.19-.1-.13-.15-.31-.15-.57,0-.29.05-.56.14-.81.09-.25.23-.47.4-.65.14-.14.29-.26.47-.34.18-.08.35-.13.5-.13ZM38.18,61.77c-.21.37-.48.69-.79.96-.31.27-.52.41-.63.41-.02,0-.04,0-.06-.02-.01-.02-.02-.03-.02-.05,0-.03.02-.11.05-.23.11-.49.17-.95.17-1.37,0-.12,0-.21-.03-.27-.02-.05-.05-.08-.1-.08-.03,0-.07.02-.11.06-.05.04-.1.09-.16.17l-.18-.1c.22-.26.4-.46.55-.59.15-.13.27-.19.36-.19.1,0,.16.05.21.16.05.1.07.26.07.48s-.01.44-.05.69c-.03.25-.07.5-.14.78.25-.22.45-.46.61-.74.16-.28.28-.61.36-.98.08-.06.16-.12.22-.18.06-.05.12-.11.17-.17l.1.06c-.02.11-.03.22-.04.34,0,.12-.01.25-.01.39,0,.4.02.71.07.93.04.23.1.34.17.34.04,0,.09-.04.14-.1s.12-.17.18-.3c.09-.17.16-.36.21-.55.05-.19.08-.35.08-.46,0-.06,0-.11-.02-.14-.02-.03-.04-.04-.08-.04-.02,0-.04,0-.07.03-.03.02-.06.05-.09.08l-.09-.09c.1-.17.2-.29.31-.38.1-.09.19-.14.28-.14.07,0,.13.03.16.08.04.05.06.12.06.22,0,.18-.05.42-.17.7-.11.28-.26.58-.46.89-.16.26-.31.45-.44.57-.13.12-.24.18-.35.18-.14,0-.25-.11-.32-.32-.07-.21-.12-.54-.13-.99ZM35.92,59.79l.06.07c-.06.15-.1.29-.14.41-.03.12-.05.24-.07.35.12,0,.2.02.26.02.06,0,.11,0,.15,0,.08,0,.15,0,.2-.02.05-.02.09-.04.13-.07l.04.05c-.1.14-.2.23-.3.29-.1.05-.22.08-.36.08h-.1s-.05,0-.07,0c-.05.34-.1.64-.13.91s-.05.45-.05.54c0,.04,0,.07.02.08,0,.02.03.03.05.03.03,0,.06-.02.11-.06.05-.04.1-.11.18-.21l.11.11c-.17.24-.34.42-.5.55-.16.13-.3.2-.42.2-.06,0-.12-.02-.16-.07-.04-.05-.05-.11-.05-.19,0-.12.02-.34.06-.67.05-.32.11-.74.2-1.26-.08,0-.16.02-.24.03-.08.02-.15.05-.23.08l-.05-.09c.18-.11.38-.26.6-.45.22-.19.45-.43.69-.72ZM34.29,61.12c-.07-.12-.15-.21-.24-.27-.08-.06-.16-.1-.24-.1-.07,0-.13.02-.18.07-.05.04-.07.1-.07.16,0,.08.08.2.23.37.02.03.04.04.05.05.16.16.26.3.31.41.05.11.08.23.08.36,0,.25-.11.47-.33.67-.22.19-.48.29-.77.29-.14,0-.24-.03-.31-.08-.07-.05-.11-.13-.11-.24,0-.06.02-.12.05-.19.04-.06.1-.14.2-.24.07.14.15.25.24.33.09.08.19.12.29.12.07,0,.13-.02.18-.07.05-.05.07-.11.07-.18,0-.05-.02-.11-.05-.16-.03-.05-.09-.13-.18-.22,0,0-.02-.02-.04-.04-.27-.28-.41-.54-.41-.78,0-.26.11-.47.32-.66.21-.18.46-.28.75-.28.13,0,.23.03.3.08.07.05.11.13.11.23,0,.07-.02.13-.06.19-.04.06-.11.12-.19.17ZM32.48,60.42c-.09.45-.16.86-.21,1.22-.05.36-.08.62-.08.76,0,.04,0,.06.02.08.01.02.03.03.05.03s.05-.02.09-.05c.04-.03.08-.08.15-.16l.1.1c-.16.22-.31.39-.47.52-.16.12-.28.18-.39.19-.07,0-.12-.03-.15-.07-.03-.05-.05-.12-.05-.21,0-.07,0-.16.02-.28.01-.12.05-.32.09-.62-.24.36-.47.64-.72.86-.25.22-.44.33-.59.33-.06,0-.11-.02-.14-.05-.03-.04-.05-.09-.05-.17,0-.15.04-.42.11-.81.08-.39.11-.69.11-.89,0-.04,0-.06-.02-.08-.01-.02-.03-.03-.05-.03s-.05.01-.08.04c-.03.03-.08.09-.15.17l-.11-.1c.16-.22.32-.4.47-.53.15-.13.28-.19.39-.19.07,0,.12.03.16.07.04.05.05.12.05.22,0,.18-.04.47-.12.86-.08.39-.12.66-.11.82,0,.04,0,.06.02.08s.03.03.05.03c.13,0,.31-.19.52-.57.22-.38.36-.82.42-1.32.1-.04.26-.09.47-.17.07-.03.13-.05.17-.07ZM29.43,61.37c-.04-.08-.07-.14-.1-.16-.03-.03-.06-.04-.1-.04-.13,0-.27.17-.43.51-.16.34-.26.76-.31,1.24-.09.03-.22.07-.37.13-.16.06-.25.1-.29.11.09-.42.16-.82.21-1.18.05-.37.08-.63.08-.79,0-.05,0-.09-.02-.11,0-.02-.03-.04-.05-.04-.03,0-.07.02-.12.07-.05.04-.11.1-.17.18l-.1-.1c.18-.22.35-.39.52-.53.17-.13.3-.19.4-.19.06,0,.11.02.15.07.03.05.05.11.05.2,0,.09-.01.22-.04.39-.02.17-.06.37-.11.61h.03c.17-.39.35-.7.52-.92.17-.23.32-.34.44-.34.07,0,.12.03.16.08.04.05.06.12.06.21,0,.11-.04.22-.1.33-.07.11-.16.21-.3.3ZM28.32,59.66l-.11.58-.14.06v-.12c0-.13-.06-.22-.17-.28-.11-.05-.37-.11-.76-.15-.11.63-.2,1.21-.26,1.73-.06.52-.1.99-.11,1.4l.47.09-.04.15c-.12,0-.25-.02-.37-.02-.13,0-.28,0-.46,0s-.32,0-.45,0c-.13,0-.26.01-.38.02l.05-.15.46-.09c.11-.56.19-1.1.26-1.62.06-.52.11-1.02.14-1.51-.31,0-.54.04-.68.1-.14.05-.25.16-.34.3l-.06.1-.15.06.13-.64c.01-.06.03-.11.05-.13.02-.03.06-.04.1-.04.03,0,.09,0,.2,0,.42.02.82.04,1.2.04.28,0,.56,0,.85-.03.28-.01.43-.02.43-.02.05,0,.09,0,.12.03.03.02.04.05.04.09v.03s0,.01,0,.02Z"/>
  <path class="cls-1" d="M78.51,68.68c.08,0,.14.03.19.08.05.05.07.13.07.21,0,.14-.04.26-.1.35-.07.09-.16.14-.26.14-.08,0-.15-.03-.2-.08-.05-.05-.07-.13-.07-.23,0-.13.04-.24.11-.33.07-.09.16-.14.26-.14ZM77.01,68.68c.07,0,.14.03.19.08.05.05.08.12.08.21,0,.14-.04.26-.11.35-.07.09-.16.14-.26.14-.08,0-.15-.03-.2-.08-.05-.05-.07-.13-.07-.23,0-.13.04-.24.11-.33.07-.09.16-.14.26-.14ZM75.51,68.69c.08,0,.14.03.19.08.05.05.08.12.08.21,0,.14-.04.26-.11.35-.07.1-.16.14-.26.14-.08,0-.15-.03-.19-.08-.05-.05-.07-.13-.07-.23,0-.13.04-.24.11-.33.07-.09.16-.14.26-.14ZM74.01,68.69c.08,0,.14.03.19.08.05.05.08.12.08.2,0,.14-.04.26-.1.35-.07.09-.16.14-.26.14-.08,0-.15-.03-.2-.08-.05-.05-.07-.13-.07-.23,0-.13.04-.24.11-.33s.16-.14.26-.14ZM73.04,67.45c-.07-.12-.15-.21-.24-.28s-.16-.1-.25-.1c-.07,0-.13.02-.17.07-.05.05-.07.1-.07.16,0,.08.08.2.23.37.02.02.04.04.05.05.16.17.26.3.31.41.05.11.07.23.07.36,0,.25-.11.47-.33.66-.22.19-.48.29-.78.29-.13,0-.24-.03-.31-.08-.07-.05-.11-.14-.11-.24,0-.06.02-.12.05-.18.04-.06.1-.15.19-.24.07.14.15.25.25.33s.19.12.29.12c.07,0,.13-.02.18-.07.05-.05.07-.11.07-.18,0-.05-.02-.11-.05-.16-.03-.05-.09-.13-.18-.22,0,0-.02-.02-.03-.04-.27-.28-.41-.54-.41-.78,0-.26.11-.48.32-.66.21-.19.46-.28.75-.28.13,0,.23.03.3.08.07.05.11.13.11.23,0,.07-.02.13-.06.19-.04.06-.1.11-.19.17ZM70.32,67.88c.16,0,.28-.05.37-.14.09-.09.14-.21.14-.36,0-.08-.01-.14-.04-.18-.03-.04-.06-.06-.12-.06-.07,0-.14.05-.18.14-.05.09-.1.29-.17.59ZM70.29,68.06c-.02.08-.03.17-.04.26,0,.09-.01.17-.01.26,0,.13.02.22.06.28.04.06.1.1.18.1.09,0,.19-.05.31-.14.12-.09.24-.22.37-.39l.13.13c-.21.29-.42.52-.65.68-.23.16-.44.25-.63.25-.15,0-.25-.05-.32-.16-.07-.1-.11-.26-.11-.46,0-.26.04-.52.13-.79.09-.27.2-.49.34-.68.14-.17.3-.32.49-.44s.37-.17.51-.17c.11,0,.2.03.27.1.06.06.1.16.1.27,0,.2-.11.39-.32.57-.21.17-.48.29-.81.35ZM69.06,66.13l.06.07c-.06.15-.11.29-.14.41-.03.12-.05.24-.06.35.12,0,.2.02.26.02.06,0,.11,0,.15,0,.08,0,.15,0,.2-.02.05-.02.09-.04.13-.07l.04.05c-.1.14-.2.23-.3.29-.1.05-.22.08-.36.08h-.17c-.05.34-.1.64-.13.9-.03.26-.05.45-.05.54,0,.04,0,.07.02.09,0,.02.02.03.05.03.03,0,.06-.02.11-.06.04-.04.1-.11.17-.21l.11.12c-.17.24-.34.42-.5.55-.16.13-.3.2-.42.2-.06,0-.11-.02-.15-.07-.04-.05-.05-.11-.05-.19,0-.12.02-.34.06-.67.04-.32.11-.74.2-1.26-.09,0-.17.02-.24.04-.08.02-.16.04-.23.07l-.04-.09c.18-.1.38-.26.59-.45.22-.2.45-.44.69-.72ZM66.79,67.24c-.05,0-.12-.01-.21-.02-.08-.01-.14-.02-.16-.02-.09,0-.17.02-.22.07-.05.05-.1.12-.14.23-.06.19-.12.41-.17.66-.05.25-.07.45-.07.6,0,.07,0,.12.03.15.02.03.04.05.07.05.13,0,.28-.17.47-.51.19-.34.32-.74.39-1.2ZM67.48,66.8c-.1.39-.18.78-.24,1.14-.06.36-.09.63-.09.8,0,.04,0,.07.02.09s.03.03.05.03c.02,0,.05-.01.08-.05.04-.03.08-.09.15-.17l.11.1c-.16.23-.32.4-.47.53-.16.13-.28.19-.39.19-.06,0-.12-.03-.15-.08-.04-.05-.05-.13-.05-.23s.03-.33.09-.69v-.08c-.18.32-.39.58-.6.79-.22.2-.39.3-.53.3-.09,0-.15-.03-.19-.1-.04-.06-.06-.16-.06-.28,0-.49.07-.89.23-1.22.15-.33.38-.59.7-.79.15-.09.29-.16.44-.2.15-.04.35-.06.61-.06h.14s.03,0,.06,0c.04,0,.07,0,.1,0ZM64.81,67.71c-.04-.08-.07-.14-.1-.16-.03-.03-.06-.04-.1-.04-.13,0-.27.17-.43.51-.16.34-.26.76-.31,1.24-.09.03-.22.07-.37.13-.16.06-.25.1-.29.11.09-.42.16-.82.21-1.18.05-.37.08-.63.08-.79,0-.05,0-.09-.02-.11,0-.02-.03-.04-.05-.04-.03,0-.07.02-.12.07-.05.04-.11.1-.17.18l-.1-.1c.18-.22.35-.39.52-.53.17-.13.3-.19.4-.19.06,0,.11.02.15.07.03.05.05.11.05.2s-.01.22-.04.39c-.02.17-.06.37-.11.61h.03c.17-.39.35-.7.52-.92.17-.23.32-.34.44-.34.07,0,.12.03.16.08.04.05.06.12.06.21,0,.11-.03.22-.1.33-.07.11-.17.21-.3.3ZM62.04,67.24c-.05,0-.12,0-.2-.02-.08-.01-.14-.02-.16-.02-.09,0-.17.02-.22.07-.05.05-.1.12-.14.23-.07.18-.12.4-.17.66-.05.25-.07.45-.07.6,0,.07,0,.12.03.15.02.03.04.05.07.05.12,0,.28-.17.47-.51.19-.34.32-.74.39-1.2ZM63.84,65.5c-.1-.07-.19-.13-.28-.16-.09-.04-.18-.06-.26-.06-.12,0-.22.05-.29.16-.07.1-.13.28-.18.53-.13.62-.23,1.2-.31,1.75-.08.55-.12.89-.12,1.03,0,.04,0,.07.02.09,0,.02.03.03.05.03.02,0,.05-.02.08-.05.04-.03.08-.09.15-.17l.11.1c-.16.23-.32.4-.47.53-.16.13-.28.19-.39.19-.06,0-.12-.03-.15-.08-.04-.06-.05-.14-.05-.24s.03-.33.09-.69v-.08c-.18.32-.39.58-.6.78-.22.2-.39.3-.53.3-.09,0-.15-.03-.19-.09-.04-.06-.06-.16-.06-.29,0-.65.14-1.17.43-1.57.29-.39.69-.62,1.21-.69.07-.54.27-.99.59-1.35.32-.37.65-.55,1-.55.09,0,.16.03.21.07.05.05.08.11.08.19,0,.05,0,.1-.03.15-.02.05-.05.1-.1.16ZM60.23,66.77c-.09.46-.19,1.06-.28,1.81-.1.75-.18,1.26-.26,1.53-.12.41-.33.75-.64,1-.31.25-.65.38-1.03.38-.16,0-.29-.03-.38-.09-.09-.06-.13-.15-.13-.26,0-.06,0-.12.03-.17.02-.05.05-.11.1-.15.11.12.24.21.36.28.13.06.25.1.37.1.41,0,.73-.76.95-2.28.04-.27.07-.47.09-.62-.24.36-.48.64-.72.86s-.44.33-.58.33c-.06,0-.11-.02-.14-.05-.03-.04-.05-.09-.05-.17,0-.15.04-.42.11-.81s.12-.69.11-.89c0-.04,0-.06-.02-.08-.01-.02-.03-.03-.05-.03s-.05.02-.09.05c-.04.03-.08.08-.15.16l-.1-.1c.16-.22.32-.4.47-.53.15-.13.28-.19.39-.19.07,0,.12.03.16.07.04.05.05.12.05.22,0,.18-.04.47-.12.86-.08.39-.12.66-.12.82,0,.04,0,.06.02.08.01.02.03.03.06.03.13,0,.3-.19.52-.57.22-.38.36-.82.41-1.32.1-.04.25-.09.45-.17.08-.04.14-.06.18-.07ZM57.16,65.51c-.1-.07-.19-.13-.28-.16-.09-.04-.18-.05-.26-.05-.27,0-.49.63-.67,1.89-.05.35-.09.62-.12.83.24-.35.47-.64.72-.86.25-.22.44-.33.58-.33.06,0,.11.02.14.05.03.04.05.1.05.17,0,.15-.04.43-.12.82-.08.4-.12.69-.12.88,0,.04,0,.07.02.09,0,.02.03.03.05.03s.05-.02.08-.05c.03-.03.08-.08.15-.16l.11.1c-.16.22-.32.39-.47.52-.16.13-.28.19-.39.19-.07,0-.12-.02-.16-.07-.03-.05-.05-.12-.05-.22,0-.18.04-.47.11-.86.07-.39.11-.67.11-.83,0-.04,0-.06-.02-.08-.01-.02-.03-.03-.06-.03-.05,0-.14.07-.26.21-.12.14-.23.31-.33.5-.08.15-.15.32-.2.51-.05.19-.09.41-.11.66-.07.02-.18.06-.33.12-.15.05-.26.1-.34.12.08-.4.18-1.02.29-1.86.11-.84.25-1.41.4-1.71.15-.28.35-.52.59-.71.25-.19.48-.28.71-.28.09,0,.16.02.21.07.05.05.08.11.08.19,0,.05,0,.1-.03.15-.02.05-.05.1-.1.16ZM53.7,67.91c.16,0,.28-.05.37-.14s.14-.21.14-.36c0-.08-.01-.14-.04-.18-.03-.04-.06-.06-.12-.06-.07,0-.14.05-.18.15-.05.09-.1.29-.17.59ZM53.67,68.09c-.02.08-.03.17-.04.26,0,.09-.01.17-.01.26,0,.12.02.22.06.28.04.06.1.09.18.09.09,0,.19-.05.31-.14.12-.09.24-.22.37-.39l.13.13c-.21.29-.43.51-.65.68-.23.16-.44.25-.63.25-.15,0-.25-.05-.33-.16-.07-.1-.11-.26-.11-.46,0-.26.04-.52.13-.79.09-.27.2-.5.34-.68.14-.17.3-.32.49-.44.19-.12.37-.17.52-.17.11,0,.2.03.26.1.07.06.1.16.1.27,0,.2-.11.38-.32.56-.21.18-.48.29-.81.35ZM50.13,69.18c.08.02.16.04.25.05.08,0,.18.02.27.02.43,0,.74-.15.95-.45.21-.3.31-.76.31-1.38,0-.46-.08-.8-.24-1.03-.16-.22-.4-.34-.73-.34-.06,0-.13,0-.19.02-.06,0-.14.03-.21.05-.09.41-.17.87-.24,1.39-.07.52-.12,1.08-.16,1.68ZM48.96,69.47l.04-.15.4-.09c.1-.54.19-1.08.25-1.6.07-.53.12-1.04.15-1.54l-.42-.09.05-.15c.16.01.31.02.45.03.14,0,.26,0,.37,0,.13,0,.32,0,.59-.03.26-.02.46-.03.6-.03.41,0,.71.11.91.32.2.21.3.54.3.98,0,.35-.05.67-.16.97-.11.3-.27.57-.48.79-.19.2-.4.35-.64.44-.24.1-.52.14-.84.14-.11,0-.26,0-.46-.01-.19,0-.33-.01-.42-.01-.07,0-.17,0-.27,0-.11,0-.25.01-.41.02ZM47.22,67.74c-.04-.08-.08-.14-.1-.16-.03-.03-.06-.04-.1-.04-.13,0-.27.17-.42.51-.16.34-.26.76-.31,1.24-.1.03-.22.07-.37.13-.15.06-.25.1-.29.11.09-.42.16-.82.21-1.18.05-.37.08-.63.08-.79,0-.05,0-.09-.02-.11s-.03-.03-.05-.03-.07.02-.12.06c-.05.05-.11.1-.17.18l-.1-.1c.18-.22.35-.39.52-.53.17-.13.3-.19.4-.19.06,0,.11.02.15.07.03.05.05.11.05.2s-.01.22-.04.39c-.03.17-.06.37-.11.61h.03c.18-.39.35-.7.52-.92.17-.23.32-.34.44-.34.07,0,.12.03.16.08.04.05.06.12.06.21,0,.11-.03.22-.1.33s-.17.21-.3.3ZM44.54,67.67c0-.18-.03-.32-.08-.41-.05-.09-.12-.14-.22-.14-.16,0-.28.14-.37.41-.09.27-.14.64-.14,1.1,0,.19.03.33.07.43.05.09.13.14.23.14.16,0,.28-.14.37-.41.09-.27.14-.65.14-1.12ZM44.59,66.82c.21,0,.37.06.47.19.1.13.16.32.16.57,0,.53-.16.98-.47,1.36-.31.37-.68.57-1.1.57-.19,0-.34-.06-.44-.19-.1-.13-.15-.32-.15-.57,0-.29.05-.56.14-.81.1-.26.23-.47.4-.65.14-.14.29-.26.48-.34.18-.08.35-.13.51-.13Z"/>
</svg>