<?xml version="1.0" encoding="UTF-8"?>
<svg id="Layer_1" data-name="Layer 1" xmlns="http://www.w3.org/2000/svg" version="1.1" viewBox="0 0 100 100">
  <defs>
    <style>
      .cls-1 {
        fill: #405dab;
      }

      .cls-1, .cls-2, .cls-3, .cls-4 {
        stroke-width: 0px;
      }

      .cls-1, .cls-3, .cls-4 {
        fill-rule: evenodd;
      }

      .cls-5 {
        fill: none;
        stroke: #12b24b;
        stroke-miterlimit: 22.93;
        stroke-width: .22px;
      }

      .cls-2, .cls-3 {
        fill: #010101;
      }

      .cls-4 {
        fill: #12b24b;
      }
    </style>
  </defs>
  <path class="cls-3" d="M55.32,42.43c1.19,0,2.7-.51,3.02.54-1.35.62-3.22-.5-4.98,1.58-1.3,1.53-1.28,2.98-1.41,5.32-.39.43-.57.74-1.43.53-1.47-1.74,1.55-5.68.85-7.96-.37-1.2-2.54-1.14-3.54-.75-1.2.47-1.85,1.34-2.71,2.07-.42-.75.15-1.55-.71-2.36-1.26-.27-1.62.15-2.11,1.01-.44.76-.74,1.34-1.12,2.06-.39.74-.68,1.22-1.17,1.97-.48.74-.95,1.52-1.75,1.59-.02-1.13.59-1.92.82-3,.26-1.23.37-2.39-.38-3.04-1.33-1.16-4.94-1.05-5.16,1.05.94.04,1.94-.31,2.24.57-.68.25-1.51.17-2.2.34-.93.23-1,.71-1.91.95-2.85-4.15-7.2-3.49-9.16-1.05-.56.7-1.34,2.18-1.49,3.19-.44,2.97,1.25,5.57,3.23,6.09,1.32.35,3.1-.04,4.08-.54,1.23-.62,1.66-1.35,2.56-2.07.65.51.93,1.48,2,1.69,1.36.27,2.07-.62,2.98-.93.52.31,1.52,1.73,3.42-.84.66-.9,1.81-2.94,2.62-3.35-.14,1.53-1.55,3.3-1.46,4.46.98.17,1.45.16,2.43.04.7-1.04,1.99-4.72,3.41-6.01,1.05-.95,1.38-.53,2.29.04-.03,1.42-.78,4.89-.48,5.85.26.82,1.49,1.05,2.38.78.76-.23,1.22-1.1,1.9-1.35.75.87.96,1.62,2.56,1.63,1.25,0,1.97-.82,2.7-1.47.72.3.92,1.25,2.2.89.8-.23,1.25-.99,2.07-1.2-.08,1.14-1.78,3.32-2.72,3.85-.46.25-1.15.35-1.37.84,4.01,1.66,6.44-3.5,7.5-6.15.74-1.85,1.55-1.24,3.16-.94-.03-1.95-.12-2.3-2.06-2.45-.17-.77.36-1.59.71-2.09,1.83-2.62,3.91.63,3.76-1.36-.14-1.84-3.11-3.68-5.58-.9-1.14,1.28-1.56,4.05-2.71,6.45-.42.88-.54,1.1-1.65,1.36-2.3.53-.68-3.09-.41-4.02.63-2.21.88-3.35-1.11-4.26-1.64-.75-3.64-.11-4.1,1.39M57.73,45.46c0,.74-.55,2.21-.79,2.96-.31.97-.85,2.2-2.07,1.08-1.41-1.29.71-4.54,2.86-4.04ZM24.89,50.15c-.63-1.04-.49-2.2.05-3.43.4-.93,1.57-2.11,2.82-1.3,1.38.89-.24,5.04-2.87,4.73ZM33.31,49.4c-.5-1.4,1.07-4.27,2.21-3.53.72.47-.02,1.78-.29,2.32-.43.86-.84,1.5-1.92,1.21Z"/>
  <path class="cls-3" d="M23.78,59.19h1.88l3.82-1.97c0-1.11-.57-1.13-2.34-1.42-2.73-.44-5.45-1.87-7.5-3.48-1.54-1.21-2.33-2.16-3.58-3.85-1.13-1.52-2.81-3.17-2.75-4.49.74-.67,3.63-.93,4.91-1.61,1.29-.69,2.58-1.91,3.59-2.84,3-2.75,3.48-3.65,5.32-7.41-1.03-.59-2.68-.5-4.05-.43l-1.71,2.94c-1.58,1.98-4.93,5.87-7.38,6.33,0-2.95,2.4-5.44,2.81-8.62-1.89-.04-4.33.39-6.27.51-1.79.12-5.02-.41-6.07.65-2.45,2.46,1.67,6.57,5.75,6.22l.69-3.97c-.79.19-1.68.4-2.51.18-.09-.81-.03-.9.75-1l4.75-.33c-.04,1.08-1.39,2.65-2.22,4.04-.8,1.33-1.19,2.83-1.85,4.31l-1.97.05c.21,2.12,2.45,1.05,1.42,4.83-.41,1.5-.96,4.2-2.56,4.3-.75-.45-.67-.91-1-1.82-.57.28-1.75,2.82-1.56,4.85.19,2.02,1,3.23,3.26,2.99,1.9-.2,2.56-1.52,3.34-3.06,1.14-2.24.8-2.53,1.16-5.16.66-.07,2.31,2.01,2.79,2.48.89.87,1.62,1.61,2.68,2.61.82.78,1.84,1.6,2.96,2.33,1.38.9,3.18,1.68,3.43,1.85"/>
  <path class="cls-3" d="M84.36,41.62c-2.09-.16-2.21-1.05-4.81,1.49-2.04,1.99-.95,2.85-2.7,4.08-.29.17-.13-.21-.32.39l1.03-.09.19.64c.3.84.14,1.87,1.62,3.05,1.04.83,2.33,1.01,3.75.54.97-.32.81-.49,1.98-.13,1.67.52,3.49.14,4.21-1.38l.28-.58c.14-.21.06-.1.21-.24.78.82,1.59,3.43,3.58,2.63.98-.39,2.72-2.83,1.54-4.16-.68.33-.72,1.59-1.9,1.19-.91-.37-1.51-2.35-.34-4.19,1.12-1.76,2.88-1.46,3.6-2.2-2.14-2.6-2.83-.98-4.61-1.05l-1.59,1.23c-.74-.29-1.2-1.14-2.28-1.49-1.05-.34-2.32-.38-2.65.59,1.04.6,1.21.13,1.97,1.27.36.53.86,1.43.94,2.19.17,1.57-.64,3.8-2.19,4.33.2-1.6.97-1.98.97-3.96-1.42.42-.09,1.04-2.62,2.58-1.12.68-3.86.46-3.23-.95.45-.5,1.39-.41,2.13-.73.69-.3,1.17-.72,1.57-1.14,1.8-1.9-.1-3.53-.32-3.93M80.61,46.35c.08-1.22,1.24-2.64,2.42-1.87.18,1.02-1.37,1.88-2.42,1.87Z"/>
  <path class="cls-3" d="M71.5,51.38c.98-1.18,1.54,1.3,3.76.03,1.13-.65,1.73-1.81,1.91-3.32-.83.12-.85.54-1.43,1.08-.49.45-2.19.69-1.71-.28.25-.51,1.91-1.67,2.7-2.68.51-1.01,2.02-4.22.69-5.53-.67-.66-2.19-.3-2.83.15-.6.43-1.23,1.24-1.62,1.94-2.45,4.36.15,6.11-3.89,6.85-1.88.34-1.66-.37-2.63-.79-.04,1.47.58,2.21,1.66,2.8,1.68.91,2.12-.09,3.39-.26M73.83,46.31c.09-1.35.5-2.89,1.71-2.88.12,1.38-.79,2.53-1.71,2.88Z"/>
  <path class="cls-4" d="M44.93,63.45c3.52-4.16,6.58-5.18,12.13-6.01,9.08-1.36,26.69.24,35.45,2.39.48.12.62.21,1.08.41h0c-.75,0-.38.02-1.13-.08h.01c-10.08-.8-20.11-2.16-30.13-1.38-6,.47-11.66,1.29-15.44,5.98-.32.52-1.02.64-1.57.28-.55-.36-.73-1.08-.41-1.6"/>
  <path class="cls-1" d="M47.43,66.55c3.52-4.16,6.58-5.18,12.13-6.01,9.08-1.36,26.69.24,35.45,2.39.48.12.62.21,1.08.41h0c-.75,0-.38.02-1.13-.08h.01c-10.08-.8-20.11-2.16-30.13-1.38-6,.47-11.66,1.29-15.44,5.98-.32.52-1.02.64-1.57.28-.55-.36-.73-1.08-.41-1.6Z"/>
  <path class="cls-5" d="M47.43,66.55c3.52-4.16,6.58-5.18,12.13-6.01,9.08-1.36,26.69.24,35.45,2.39.48.12.62.21,1.08.41h0c-.75,0-.38.02-1.13-.08h.01c-10.08-.8-20.11-2.16-30.13-1.38-6,.47-11.66,1.29-15.44,5.98-.32.52-1.02.64-1.57.28-.55-.36-.73-1.08-.41-1.6Z"/>
  <path class="cls-2" d="M92.85,39.38c.12.02.25.05.46.05.9,0,1.16-.82,1.42-1.52l1.36-3.76h-.69l-1.01,3.05h-.01l-.99-3.05h-.74l1.25,3.44c.04.12.13.31.13.39,0,.07-.2.91-.81.91-.12,0-.23-.03-.32-.06l-.04.56ZM92.31,34.14h-.98v-1.07l-.68.22v.85h-.83v.55h.83v2.15c0,.74.43,1.07,1.13,1.07.22,0,.43-.06.58-.1v-.58c-.1.07-.25.13-.46.13-.31,0-.57-.23-.57-.66v-2.02h.98v-.55ZM89.16,32.55h-.77v.77h.77v-.77ZM88.44,37.83h.68v-3.68h-.68v3.68ZM83.94,37.83h.68v-1.7c0-.9.35-1.52,1.12-1.52.59.04.78.46.78,1.31v1.91h.68v-2.19c0-.99-.43-1.58-1.38-1.58-.51,0-1,.25-1.21.67h-.01v-.59h-.66v3.68ZM81.13,37.83h.68v-1.68c0-.92.4-1.5,1-1.5.12,0,.25.01.38.07v-.61c-.14-.03-.25-.05-.45-.05-.39,0-.78.27-.96.66h-.01v-.57h-.64v3.68ZM77.59,35.63c.05-.48.32-1.03.99-1.03.59,0,.92.46.92,1.03h-1.91ZM79.93,36.99c-.17.14-.69.37-1.13.37-.64,0-1.21-.5-1.21-1.23h2.63c0-1.18-.4-2.08-1.63-2.08-1.04,0-1.73.77-1.73,1.86,0,1.2.6,1.99,1.91,1.99.61,0,.9-.14,1.16-.24v-.68ZM76.26,34.14h-.98v-1.07l-.68.22v.85h-.83v.55h.83v2.15c0,.74.43,1.07,1.13,1.07.22,0,.43-.06.58-.1v-.58c-.1.07-.25.13-.46.13-.31,0-.57-.23-.57-.66v-2.02h.98v-.55ZM70.38,37.83h2.82v-.64h-2.1v-1.66h1.91v-.64h-1.91v-1.47h2.1v-.64h-2.82v5.04ZM66.35,37.83h.68v-5.42h-.68v5.42ZM64.35,37.83h.68v-5.42h-.68v5.42ZM63.06,32.55h-.77v.77h.77v-.77ZM62.34,37.83h.68v-3.68h-.68v3.68ZM61.4,34.14h-.98v-1.07l-.68.22v.85h-.83v.55h.83v2.15c0,.74.43,1.07,1.13,1.07.22,0,.43-.06.58-.1v-.58c-.1.07-.25.13-.46.13-.31,0-.57-.23-.57-.66v-2.02h.98v-.55ZM53.5,39.38c.12.02.25.05.46.05.9,0,1.16-.82,1.42-1.52l1.36-3.76h-.69l-1.01,3.05h-.01l-.99-3.05h-.74l1.25,3.44c.04.12.13.31.13.39,0,.07-.2.91-.81.91-.12,0-.23-.03-.32-.06l-.04.56ZM52.97,34.14h-.98v-1.07l-.68.22v.85h-.83v.55h.83v2.15c0,.74.43,1.07,1.13,1.07.22,0,.43-.06.58-.1v-.58c-.1.07-.25.13-.46.13-.31,0-.57-.23-.57-.66v-2.02h.98v-.55ZM49.81,32.55h-.77v.77h.77v-.77ZM49.09,37.83h.68v-3.68h-.68v3.68ZM47.08,37.83h.68v-5.42h-.68v5.42ZM45.8,32.55h-.77v.77h.77v-.77ZM45.07,37.83h.68v-3.68h-.68v3.68ZM43.35,35.97c.01.58-.29,1.39-1.02,1.39-.77,0-1.08-.76-1.08-1.37,0-.69.35-1.39,1.09-1.39s1.03.7,1.01,1.37ZM40.57,37.83h.65v-.52h.01c.18.27.6.61,1.26.61,1.11,0,1.58-.98,1.58-1.99s-.52-1.86-1.59-1.86c-.64,0-1.01.25-1.22.59h-.01v-2.24h-.68v5.42ZM38.75,36.4c0,.55-.35.97-1.03.97-.31,0-.69-.21-.69-.6,0-.65.91-.71,1.28-.71.14,0,.29.01.43.01v.33ZM36.77,34.98c.27-.23.69-.38,1.07-.38.68,0,.91.32.91.96-.27-.01-.46-.01-.72-.01-.7,0-1.71.29-1.71,1.21,0,.8.56,1.15,1.35,1.15.62,0,.98-.34,1.14-.56h.01v.48h.64c-.01-.11-.03-.3-.03-.72v-1.52c0-1-.43-1.52-1.48-1.52-.47,0-.87.14-1.21.35l.04.58ZM35.7,34.14h-.98v-1.07l-.68.22v.85h-.83v.55h.83v2.15c0,.74.43,1.07,1.13,1.07.22,0,.43-.06.58-.1v-.58c-.1.07-.25.13-.46.13-.31,0-.57-.23-.57-.66v-2.02h.98v-.55ZM32.59,32.88c-.35-.12-.74-.18-1.08-.18-.91,0-1.62.48-1.62,1.37,0,1.57,2.17,1.26,2.17,2.38,0,.59-.58.82-.99.82-.37,0-.8-.14-1.05-.25l-.07.67c.33.11.68.21,1.03.21,1.01,0,1.84-.43,1.84-1.5,0-1.66-2.17-1.44-2.17-2.41,0-.53.48-.67.88-.67.38,0,.58.07.95.21l.1-.66Z"/>
</svg>