<?xml version="1.0" encoding="UTF-8"?>
<svg id="Layer_1" data-name="Layer 1" xmlns="http://www.w3.org/2000/svg" version="1.1" viewBox="0 0 100 100">
  <defs>
    <style>
      .cls-1 {
        fill: #4681c3;
      }

      .cls-1, .cls-2, .cls-3, .cls-4 {
        stroke-width: 0px;
      }

      .cls-2 {
        fill: #231f20;
      }

      .cls-5 {
        letter-spacing: 0em;
      }

      .cls-6 {
        fill: #010101;
        font-family: ITCAvantGardeStd-Bk, 'ITC Avant Garde Gothic Std';
        font-size: 3.51px;
      }

      .cls-3 {
        fill: #fff;
      }

      .cls-4 {
        fill: #030303;
      }

      .cls-7 {
        letter-spacing: .21em;
      }
    </style>
  </defs>
  <g>
    <g>
      <path class="cls-2" d="M12.76,39.66v10.09c0,.28.18.52.44.61l4.28,1.43c.5.17,1.04.15,1.53-.05l3.77-1.56c.24-.1.4-.33.4-.59v-10.54l-4.11,2.04c-.52.26-1.11.3-1.66.12l-4.64-1.54Z"/>
      <path class="cls-2" d="M19.09,40.95l4.09-1.91-4.97-1.5-5.22,1.38c-.29.08-.3.49-.01.58l4.45,1.53c.55.17,1.14.14,1.67-.09Z"/>
      <polygon class="cls-2" points="19.09 40.95 23.18 39.26 23.12 39.02 19.09 40.95"/>
    </g>
    <g>
      <path class="cls-2" d="M37.1,53.69c0-.85.55-1.44,1.21-1.44s1.21.62,1.21,1.44-.53,1.44-1.21,1.44-1.21-.63-1.21-1.42h0ZM37.36,53.68c0,.65.41,1.16.95,1.16s.95-.53.95-1.16-.4-1.16-.95-1.16-.95.52-.95,1.16h0Z"/>
      <path class="cls-2" d="M41.59,54.61v-2.32s.25,0,.25,0v2.77h-.25l-1.37-2.34v2.34s-.24,0-.24,0v-2.77h.26l1.36,2.32Z"/>
      <path class="cls-2" d="M42.39,52.29h1.28v.27h-1.03v.96h1.02v.27h-1.02v.99h1.03v.27h-1.28v-2.77Z"/>
      <path class="cls-2" d="M47.07,53.01c-.07-.12-.16-.22-.26-.3-.15-.12-.33-.2-.54-.2-.51,0-.95.46-.95,1.16s.44,1.17.95,1.17c.24,0,.46-.1.62-.25.16-.15.28-.36.31-.58h-1.15v-.25h1.45c0,.16-.03.36-.1.54-.2.52-.66.82-1.13.82-.68,0-1.21-.62-1.21-1.44s.54-1.43,1.21-1.43c.47,0,.9.31,1.09.77h-.29Z"/>
      <path class="cls-2" d="M47.82,53.69c0-.85.55-1.44,1.21-1.44s1.21.62,1.21,1.44-.53,1.44-1.21,1.44-1.21-.63-1.21-1.42h0ZM48.08,53.68c0,.65.41,1.16.95,1.16s.95-.53.95-1.16-.4-1.16-.95-1.16-.95.52-.95,1.16h0Z"/>
      <path class="cls-2" d="M50.63,55.07h-.28l.97-2.77h.25l.96,2.77h-.28l-.27-.78h-1.08l-.27.78ZM51.44,52.64l-.46,1.39h.92l-.46-1.39Z"/>
      <path class="cls-2" d="M52.88,52.29h.26v2.5h.88v.27h-1.14v-2.77Z"/>
      <path class="cls-2" d="M54.47,55.35h-.21l.2-.7h.25l-.23.7Z"/>
      <path class="cls-2" d="M55.88,53.69c0-.85.55-1.44,1.21-1.44s1.21.62,1.21,1.44-.53,1.44-1.21,1.44-1.21-.63-1.21-1.42h0ZM56.14,53.68c0,.65.41,1.16.95,1.16s.95-.53.95-1.16-.4-1.16-.95-1.16-.95.52-.95,1.16h0Z"/>
      <path class="cls-2" d="M60.36,54.61v-2.32s.25,0,.25,0v2.77h-.25l-1.37-2.34v2.34s-.24,0-.24,0v-2.77h.26l1.36,2.32Z"/>
      <path class="cls-2" d="M61.16,52.29h1.28v.27h-1.03v.96h1.02v.27h-1.02v.99h1.03v.27h-1.28v-2.77Z"/>
      <path class="cls-2" d="M64.53,52.29c.33,0,.48.05.62.18.15.14.25.4.25.66s-.1.53-.24.66c-.15.14-.31.19-.61.19h-.37v1.09h-.26v-2.77h.61ZM64.18,53.7h.37c.19,0,.31-.03.43-.12.1-.08.17-.25.17-.45s-.07-.37-.18-.45c-.12-.09-.23-.12-.43-.12h-.36v1.14Z"/>
      <path class="cls-2" d="M65.58,55.07h-.28l.97-2.77h.25l.96,2.77h-.28l-.27-.78h-1.08l-.27.78ZM66.38,52.64l-.46,1.39h.92l-.46-1.39Z"/>
      <path class="cls-2" d="M67.97,54.3c.04.46.32.56.46.56.24,0,.46-.22.46-.53,0-.39-.28-.48-.55-.58-.19-.07-.59-.21-.59-.73,0-.49.33-.76.69-.76.29,0,.62.19.66.72h-.26c-.03-.18-.1-.45-.41-.45-.23,0-.42.19-.42.48,0,.34.23.42.58.56.22.1.56.25.56.76,0,.45-.28.81-.72.81-.39,0-.71-.29-.73-.82h.26Z"/>
      <path class="cls-2" d="M69.74,54.3c.04.46.32.56.46.56.24,0,.46-.22.46-.53,0-.39-.28-.48-.55-.58-.19-.07-.59-.21-.59-.73,0-.49.33-.76.69-.76.29,0,.62.19.66.72h-.26c-.03-.18-.1-.45-.41-.45-.23,0-.42.19-.42.48,0,.34.23.42.58.56.22.1.56.25.56.76,0,.45-.28.81-.72.81-.39,0-.71-.29-.73-.82h.26Z"/>
      <path class="cls-2" d="M71.36,52.29h.26v2.77h-.26v-2.77Z"/>
      <path class="cls-2" d="M72.07,53.69c0-.85.55-1.44,1.21-1.44s1.21.62,1.21,1.44-.53,1.44-1.21,1.44-1.21-.63-1.21-1.42h0ZM72.33,53.68c0,.65.41,1.16.95,1.16s.95-.53.95-1.16-.4-1.16-.95-1.16-.95.52-.95,1.16h0Z"/>
      <path class="cls-2" d="M76.55,54.61v-2.32s.25,0,.25,0v2.77h-.25l-1.37-2.34v2.34s-.24,0-.24,0v-2.77h.26l1.36,2.32Z"/>
      <path class="cls-2" d="M78.97,53.88v.27h-.85v-.27h.85Z"/>
      <path class="cls-2" d="M80.2,55.07h-.28l.97-2.77h.25l.96,2.77h-.28l-.27-.78h-1.08l-.27.78ZM81,52.64l-.46,1.39h.92l-.46-1.39Z"/>
      <path class="cls-2" d="M82.45,52.29h.26v2.77h-.26v-2.77Z"/>
      <path class="cls-2" d="M83.24,52.29h.6c.36,0,.53.05.65.14.19.13.32.43.32.75,0,.19-.04.39-.14.54-.14.22-.3.28-.52.3l.58,1.04h-.28l-.65-1.21h.08c.16,0,.39,0,.51-.14.12-.14.18-.31.18-.51s-.08-.42-.23-.54c-.12-.09-.26-.1-.47-.1h-.36v2.5h-.26v-2.77Z"/>
      <path class="cls-2" d="M88.69,55.12c-.07,0-.13-.01-.19-.03-.25-.04-.37-.13-.49-.23-.17.13-.41.26-.69.26-.74,0-1.21-.69-1.21-1.44,0-.79.52-1.44,1.21-1.44s1.21.64,1.21,1.43c0,.56-.23.85-.33.99.14.11.27.16.49.19v.26ZM87.31,52.52c-.5,0-.9.44-.93,1.07,0,.17.02.27.03.35.11-.04.26-.1.47-.1s.43.06.62.2c.12.08.18.14.48.44.18-.2.28-.49.28-.8,0-.68-.43-1.16-.95-1.16h0ZM87.32,54.85c.22,0,.41-.1.5-.18-.06-.07-.3-.29-.32-.31-.21-.17-.42-.25-.65-.25-.18,0-.3.05-.4.09.22.55.65.65.86.65h0Z"/>
      <path class="cls-2" d="M89.27,52.29v1.76c0,.21,0,.37.11.56.08.14.23.23.4.23s.32-.09.4-.23c.11-.18.11-.34.11-.56v-1.76h.26v1.76c0,.32-.03.64-.26.85-.13.13-.3.21-.5.21-.16,0-.37-.06-.51-.21-.24-.24-.26-.55-.26-.85v-1.76h.26Z"/>
      <path class="cls-2" d="M91.07,55.07h-.28l.97-2.77h.25l.96,2.77h-.28l-.27-.78h-1.08l-.27.78ZM91.88,52.64l-.46,1.39h.92l-.46-1.39Z"/>
      <path class="cls-2" d="M93.32,52.29h.26v2.5h.88v.27h-1.14v-2.77Z"/>
      <path class="cls-2" d="M94.8,52.29h.26v2.77h-.26v-2.77Z"/>
      <path class="cls-2" d="M95.97,52.57h-.57v-.27h1.4v.27h-.57v2.5h-.26v-2.5Z"/>
      <path class="cls-2" d="M97.71,54.09l-.74-1.8h.28l.59,1.5.59-1.5h.28l-.74,1.8v.97h-.26v-.97Z"/>
    </g>
    <rect class="cls-2" x="34.02" y="38.72" width=".99" height="16.55"/>
    <path class="cls-3" d="M17.3,42.77l-3.79-1.25c-.09-.03-.15-.11-.15-.21h0c0-.15.15-.25.29-.21l3.79,1.25c.09.03.15.11.15.21h0c0,.15-.15.25-.29.21Z"/>
    <path class="cls-3" d="M17.3,44.05l-3.79-1.25c-.09-.03-.15-.11-.15-.21h0c0-.15.15-.25.29-.21l3.79,1.25c.09.03.15.11.15.21h0c0,.15-.15.25-.29.21Z"/>
    <path class="cls-3" d="M17.3,45.33l-3.79-1.25c-.09-.03-.15-.11-.15-.21h0c0-.15.15-.25.29-.21l3.79,1.25c.09.03.15.11.15.21h0c0,.15-.15.25-.29.21Z"/>
    <path class="cls-3" d="M17.3,46.62l-3.79-1.25c-.09-.03-.15-.11-.15-.21h0c0-.15.15-.25.29-.21l3.79,1.25c.09.03.15.11.15.21h0c0,.15-.15.25-.29.21Z"/>
    <path class="cls-3" d="M17.3,47.9l-3.79-1.25c-.09-.03-.15-.11-.15-.21h0c0-.15.15-.25.29-.21l3.79,1.25c.09.03.15.11.15.21h0c0,.15-.15.25-.29.21Z"/>
    <path class="cls-3" d="M17.3,49.18l-3.79-1.25c-.09-.03-.15-.11-.15-.21h0c0-.15.15-.25.29-.21l3.79,1.25c.09.03.15.11.15.21h0c0,.15-.15.25-.29.21Z"/>
    <path class="cls-3" d="M17.3,50.46l-3.79-1.25c-.09-.03-.15-.11-.15-.21h0c0-.15.15-.25.29-.21l3.79,1.25c.09.03.15.11.15.21h0c0,.15-.15.25-.29.21Z"/>
    <polygon class="cls-1" points="23.41 43.93 23.41 45.11 27.23 45.11 27.23 45.64 29.09 44.56 27.23 43.33 27.23 43.95 23.41 43.93"/>
    <path class="cls-1" d="M30.02,40.45l-1.99-1.02v.62c-.65.06-1.92.29-2.82,1.17-.88.85-1.71.74-1.78.73v.94s.09,0,.15,0c.47,0,1.38-.13,2.28-1,.65-.63,1.63-.83,2.17-.9v.69l1.99-1.24Z"/>
    <path class="cls-1" d="M29.83,48.75l-1.84-1.24v.76c-.34-.04-.87-.2-1.42-.73-1.09-1.06-2.73-1.17-3.14-1.19v.94c.35.02,1.66.13,2.48.92.78.75,1.56.95,2.07.99v.59l1.84-1.05Z"/>
    <path class="cls-2" d="M12.93,46.49l-1.99-1.02v.62c-.65.06-1.92.29-2.82,1.17-.88.85-1.71.74-1.78.73v.94s.09,0,.15,0c.47,0,1.38-.13,2.28-1,.65-.63,1.63-.83,2.17-.9v.69l1.99-1.24Z"/>
    <path class="cls-2" d="M12.74,42.38l-1.84-1.24v.76c-.34-.04-.87-.2-1.42-.73-1.09-1.06-2.73-1.17-3.14-1.19v.94c.35.02,1.66.13,2.48.92.78.75,1.56.95,2.07.99v.59l1.84-1.05Z"/>
    <circle class="cls-1" cx="29.46" cy="42.57" r="1.31"/>
    <path class="cls-3" d="M30.48,42.57c0-.54-.43-.99-.97-1.02-.18,0-.34.03-.49.1-.06.03-.03.13.03.12.09-.02.19-.02.29,0,.27.05.5.23.6.48.05.11.06.22.06.32s-.02.21-.06.32c-.1.25-.33.44-.6.48-.1.02-.2.02-.29,0-.07-.01-.1.09-.03.12.15.07.31.11.49.1.53-.03.97-.48.97-1.02,0,0,0,0,0,0,0,0,0,0,0,0Z"/>
    <circle class="cls-1" cx="31.8" cy="43.59" r="1.08"/>
    <path class="cls-3" d="M32.64,43.59c0-.44-.36-.82-.8-.84-.15,0-.28.02-.41.08-.05.03-.03.11.03.1.08-.01.16-.01.24,0,.22.04.41.19.5.4.04.09.05.18.05.26s-.01.17-.05.26c-.09.21-.28.36-.5.4-.08.02-.17.01-.24,0-.06,0-.08.07-.03.1.12.06.26.09.41.08.44-.02.8-.4.8-.84,0,0,0,0,0,0,0,0,0,0,0,0Z"/>
    <circle class="cls-1" cx="29.83" cy="46.22" r="1.58"/>
    <path class="cls-3" d="M31.06,46.22c0-.65-.52-1.19-1.16-1.23-.21-.01-.41.03-.59.12-.08.04-.04.15.04.14.11-.02.23-.02.35,0,.32.06.6.28.72.58.05.13.08.26.08.38s-.02.25-.08.38c-.13.3-.4.53-.72.58-.12.02-.24.02-.35,0-.08-.01-.12.1-.04.14.18.08.38.13.59.12.64-.03,1.16-.58,1.16-1.23,0,0,0,0,0,0,0,0,0,0,0,0Z"/>
    <path class="cls-4" d="M7.41,46.26c.05-.14.06-.32,0-.35-.03-.01-.05.01-.17.04-.07.02-.13.03-.2.04,0-.02,0-.05,0-.07,0-.08.05-.15.04-.22,0-.07-.02-.15-.04-.22-.02-.07-.11-.12-.13-.19-.01-.03,0-.06,0-.1,0,0,.02,0,.02,0,.11-.04.2-.03.29-.02.11.01.13.04.16.02.04-.02.04-.09.03-.17,0,0,0,0,0,0,0,0,0,0,0,0,0,0,0,0,0,0,0,0,0,0,0,0-.03-.13-.1-.27-.16-.26-.03,0-.03.03-.11.11-.06.06-.13.13-.22.17-.05-.05-.19-.04-.24-.1-.05-.06-.08-.12-.13-.17-.03-.03-.04-.1-.06-.16,0,0,.01-.01.02-.02.04-.04.08-.06.08-.07.1-.08.2-.11.3-.13.13-.03.15-.01.18-.04.03-.04.01-.12-.04-.2,0,0,0,0,0,0,0,0,0,0,0-.01,0,0,0,0,0,0,0,0,0,0,0,0-.08-.13-.21-.25-.28-.21-.03.02-.02.04-.07.16-.05.1-.09.2-.19.29-.01.01-.06.05-.12.1-.04-.02-.07-.04-.11-.06,0,0,0,0,0,0,0,0,0,0,0,0-.06-.04-.15-.05-.21-.08-.03-.01-.05-.03-.08-.05.04-.07.1-.12.15-.17.1-.09.13-.08.14-.12.01-.05-.05-.11-.13-.16,0,0,0,0,0,0,0,0,0,0,0,0,0,0,0,0,0,0,0,0,0,0,0,0-.13-.07-.3-.12-.35-.05-.02.03,0,.05.01.18,0,.09.01.17,0,.25,0,0,0,0,0,0,0,0,0,0-.01,0,0,0-.01,0-.02,0,0,0-.01,0-.02,0-.04.02-.09.04-.13.03-.07,0-.14-.11-.22-.11-.03,0-.06.02-.08.05-.01-.08-.02-.17-.02-.25,0-.06,0-.1,0-.11,0-.13.04-.23.09-.32.06-.12.09-.13.08-.16,0-.05-.08-.08-.18-.1,0,0,0,0,0,0,0,0,0,0-.01,0,0,0,0,0,0,0,0,0,0,0,0,0-.15-.02-.33,0-.34.08,0,.03.02.04.08.16.05.1.1.2.11.33,0,.04,0,.33-.03.45-.01,0-.02,0-.04-.01,0,0,0,0,0,0,0,0,0,0,0,0,0,0,0,0-.01,0,0,0-.01,0-.02,0,0,0,0,0-.01,0,0,0,0,0,0,0,0,0,0,0,0,0,0,0,0,0,0,0,0,0,0,0,0,0,0,0,0,0,0,0,0,0,0,0,0,0,0,0,0,0,0,0,0,0,0,0,0,0,0,0,0,0,0,0,0,0,0,0,0,0,0,0,0,0,0,0,0,0,0,0,0,0,0,0,0,0,0,0h0s0,0,0,0c0,0,0,0,0,0,0,0,0,0,0,0,0,0,0,0,0,0,0,0,0,0,0,0,0,0,0,0,0,0,0,0,0,0,0,0-.07.02-.13.07-.2.1-.02,0-.05.02-.07.03-.07-.09-.09-.18-.12-.27-.03-.12-.02-.15-.04-.18-.04-.03-.12,0-.2.04,0,0,0,0,0,0,0,0,0,0-.01,0,0,0,0,0,0,0,0,0,0,0,0,0-.12.08-.24.22-.21.28.02.03.05.02.16.07.08.04.16.07.24.13-.05.04-.08.09-.13.13-.01.01-.03.02-.04.03,0,0-.02.01-.03.02,0,0-.02.01-.02.02,0,0-.02.01-.03.02,0,0,0,0-.01.01-.01.01-.03.02-.04.03-.04.04-.08.07-.11.1-.01,0-.03-.01-.04-.02-.05-.03-.08-.05-.09-.05-.11-.06-.17-.15-.23-.23-.07-.11-.07-.14-.1-.15-.05-.02-.11.03-.17.1,0,0,0,0,0,0,0,0,0,0,0,.01,0,0,0,0,0,0,0,0,0,0,0,0-.09.12-.16.28-.1.33.02.02.05,0,.18.01.11,0,.22.01.34.08.01,0,.07.04.14.09,0,.04,0,.08-.02.11-.04.06-.21.06-.24.13-.03.07.08.18.06.25,0,0,0,0,0,0-.08-.03-.14-.07-.2-.1-.05-.03-.08-.06-.1-.07-.02-.02-.03-.03-.05-.03-.04,0-.09.06-.12.16,0,.03-.01.05-.02.08,0-.03,0-.06.02-.09-.04.14-.04.34.03.36.03,0,.05-.02.17-.06.07-.02.14-.05.21-.06,0,0,0,0,0,0,0,.07-.12.14-.12.21s.04.15.05.22c0,.02,0,.04,0,.06-.02,0-.03,0-.05.01-.05.01-.09.02-.1.02-.12.03-.23,0-.33-.02-.12-.03-.14-.06-.18-.05-.05.02-.06.1-.06.19,0,0,0,0,0,0,0,0,0,0,0,.01,0,0,0,0,0,0,0,0,0,0,0,0,.01.15.07.32.15.32.03,0,.04-.03.14-.11.09-.07.18-.14.3-.17.01,0,.06-.01.11-.02.02.07.06.14.09.21.02.05.05.09.08.13-.08.06-.16.09-.24.1-.05.01-.08.02-.1.02-.02,0-.03,0-.04.01-.02.03-.01.09.03.16,0,.02.02.03.03.05-.01-.02-.03-.03-.04-.05.06.11.18.22.24.18.02-.01.02-.04.06-.13.04-.08.07-.16.15-.23.04.03.09.06.13.1.05.06.01.19.07.24.04.04.12.06.17.09,0,0,0,.01-.01.02-.03.05-.06.08-.06.09-.07.1-.17.15-.26.2-.11.06-.15.05-.16.08-.02.04.02.12.08.18,0,0,0,0,0,0,0,0,0,0,0,0,0,0,0,0,0,0,0,0,0,0,0,0,.11.1.26.19.32.14.02-.02,0-.05.03-.18.02-.11.04-.22.12-.33,0-.01.05-.07.1-.13,0,0,0,0,0,0,0,0,0,0,0,0,.02,0,.03.01.04.02,0,0,.02,0,.02.01,0,0,.02.01.03.01,0,0,0,0,0,0,0,0,.02,0,.03,0,0,0,0,0,0,0,0,0,0,0,0,0,.04.01.08.02.12.03,0,0,0,0,0,0,0,0,.02,0,.02,0,0,0,.02,0,.02.01,0,0,0,0,0,0,0,0,0,0,.01.01,0,0,0,0,0,0,0,0,0,.01.01.02,0,0,0,0,0,0,0,0,.01.02.02.02,0,0,.01.02.02.02,0,0,0,0,0,0,0,0,0,.01.01.02,0,0,0,0,0,0,0,0,0,0,0,0,0,0,0,0,0,0,0,0,0,0,0,0,0,0,.02,0,.02.01,0,0,.01,0,.02,0,0,.03-.01.05-.01.06-.02.1-.08.17-.14.23-.03.04-.06.06-.07.07-.02.02-.03.02-.03.04,0,.04.04.08.12.11.02,0,.04.01.06.02-.02,0-.04-.01-.06-.02.11.05.27.07.3.01.01-.02,0-.04-.03-.14-.02-.09-.04-.18-.01-.28,0,0,0-.04.02-.07.02,0,.04,0,.06,0,.02,0,.04,0,.05,0,0,0,.01,0,.02,0,.01,0,.02,0,.04,0,0,0,.01,0,.02,0,.01,0,.02,0,.03,0,0,0,.01,0,.02,0,0,0,.01,0,.02,0,0,0,.02,0,.03,0,.08,0,.16,0,.23,0,.07,0,.14-.07.22-.09.02,0,.04-.01.05-.02.01.07.01.15.01.21,0,.13-.03.15-.01.18.03.04.11.04.2.02,0,0,0,0,0,0,0,0,0,0,.01,0,0,0,0,0,0,0,0,0,0,0,0,0,.14-.04.3-.13.28-.21,0-.03-.04-.03-.14-.11-.06-.05-.12-.1-.17-.17.05-.04.08-.11.14-.15.06-.04.11-.08.17-.13,0,0,0,0,0,0,0,0,0,0,.01,0,0,0,0,0,0,0,0,0,0,0,.01,0,0,0,0,0,0,0,0,0,.01,0,.02,0,0,0,0,0,0,0,0,0,.01,0,.02,0,.03,0,.06,0,.09,0,0,0,.01,0,.02,0,0,0,0,0,0,0,0,0,.01,0,.02,0,0,0,0,0,0,0,0,0,.01,0,.02,0,0,0,0,0,0,0,0,0,0,0,.01,0,0,0,0,0,0,0,0,0,.01,0,.01,0,0,0,.02-.02.03-.03.04.09.06.18.07.27.02.13,0,.15.03.18.06.06.23-.04.34-.14-.02.02-.04.03-.06.05.02-.01.04-.03.05-.05.08-.07.11-.14.09-.18,0-.01-.02-.02-.05-.03-.02,0-.06-.02-.11-.05-.08-.04-.16-.09-.23-.17,0,0,0,0,0,0,.05-.06-.02-.19.02-.26.04-.06.11-.11.14-.18.03-.07.11-.13.13-.2.01-.04,0-.09-.02-.13.03.02.05.04.08.06.1.08.11.11.14.12.05,0,.1-.07.13-.15,0,0,0,0,0,0,0,0,0,0,0-.01,0,0,0,0,0,0,0,0,0,0,0,0ZM7.4,45.06s0-.03,0-.05c0-.02-.01-.05-.02-.07,0,.02.01.04.02.07,0,.02,0,.04,0,.05ZM7.05,44.19s-.02-.03-.03-.05c-.01-.02-.03-.05-.05-.07.02.02.03.04.05.06.01.02.02.04.03.06ZM6.16,43.87s-.03-.02-.05-.03c-.02-.01-.04-.02-.06-.03.02,0,.04.02.06.03.02.01.03.02.05.04ZM5.24,43.28s.04,0,.06.01c-.02,0-.04,0-.06-.01-.03,0-.05,0-.08,0,.03,0,.05,0,.08,0ZM4.35,43.96s-.03.02-.05.03c-.02.01-.05.03-.07.05.02-.02.04-.03.06-.05.02-.01.04-.02.06-.03ZM3.48,44.45s-.03.03-.04.04c-.01.02-.03.04-.04.06.01-.02.02-.04.04-.06.01-.02.03-.03.04-.04ZM2.96,46.31s0,.04,0,.06c0,.03,0,.06.01.08,0-.03-.01-.05-.01-.08,0-.02,0-.04,0-.06ZM3.83,47.8s.02.03.04.04c.02.02.03.03.05.05-.02-.01-.04-.03-.05-.05-.01-.02-.03-.03-.04-.05ZM6.01,47.99s.04,0,.06-.01c.03,0,.05-.02.08-.03-.02.01-.05.02-.07.03-.02,0-.04,0-.06.01ZM7.38,46.32s.02-.03.02-.05c0-.03.02-.05.02-.08,0,.03-.01.05-.02.08,0,.02-.02.04-.03.06Z"/>
    <path class="cls-4" d="M6.02,41.82c.03-.09.04-.2,0-.22-.02,0-.03,0-.11.03-.04.01-.08.02-.13.02,0-.01,0-.03,0-.04,0-.05.03-.1.03-.14,0-.05-.01-.1-.02-.14-.01-.05-.07-.08-.09-.12,0-.02,0-.04,0-.06,0,0,.01,0,.01,0,.07-.02.13-.02.18-.01.07,0,.08.02.1.01.02-.01.03-.06.02-.11,0,0,0,0,0,0,0,0,0,0,0,0,0,0,0,0,0,0,0,0,0,0,0,0-.02-.08-.06-.17-.1-.17-.02,0-.02.02-.07.07-.04.04-.08.08-.14.11-.03-.03-.12-.03-.15-.06-.03-.04-.05-.08-.08-.11-.02-.02-.03-.07-.04-.1,0,0,0,0,.01-.01.03-.02.05-.04.05-.04.06-.05.13-.07.19-.08.08-.02.1,0,.11-.02.02-.02,0-.07-.02-.13,0,0,0,0,0,0,0,0,0,0,0,0,0,0,0,0,0,0,0,0,0,0,0,0-.05-.08-.13-.16-.18-.13-.02,0-.01.03-.05.1-.03.07-.06.13-.12.18,0,0-.04.03-.08.06-.02-.01-.05-.03-.07-.04,0,0,0,0,0,0,0,0,0,0,0,0-.04-.02-.09-.03-.14-.05-.02,0-.03-.02-.05-.03.03-.04.06-.08.1-.11.06-.05.08-.05.09-.08,0-.03-.03-.07-.08-.1,0,0,0,0,0,0,0,0,0,0,0,0,0,0,0,0,0,0,0,0,0,0,0,0-.08-.05-.19-.08-.22-.03-.01.02,0,.03,0,.11,0,.05,0,.11,0,.16,0,0,0,0,0,0,0,0,0,0,0,0,0,0,0,0-.01,0,0,0,0,0-.01,0-.03.01-.06.02-.08.02-.05,0-.09-.07-.14-.07-.02,0-.04.02-.05.03,0-.05-.01-.11-.01-.16,0-.04,0-.06,0-.07,0-.08.03-.14.05-.2.04-.07.06-.08.05-.1,0-.03-.05-.05-.11-.06,0,0,0,0,0,0,0,0,0,0,0,0,0,0,0,0,0,0,0,0,0,0,0,0-.09-.01-.21,0-.22.05,0,.02.01.03.05.1.03.06.06.13.07.21,0,.02,0,.21-.02.29,0,0-.02,0-.02,0,0,0,0,0,0,0,0,0,0,0,0,0,0,0,0,0,0,0,0,0,0,0-.01,0,0,0,0,0,0,0,0,0,0,0,0,0,0,0,0,0,0,0,0,0,0,0,0,0,0,0,0,0,0,0,0,0,0,0,0,0,0,0,0,0,0,0,0,0,0,0,0,0,0,0,0,0,0,0,0,0,0,0,0,0,0,0,0,0,0,0,0,0,0,0,0,0,0,0,0,0,0,0,0,0,0,0,0,0h0s0,0,0,0c0,0,0,0,0,0,0,0,0,0,0,0,0,0,0,0,0,0,0,0,0,0,0,0,0,0,0,0,0,0,0,0,0,0,0,0-.05.01-.08.04-.13.06-.01,0-.03.01-.04.02-.04-.06-.06-.12-.07-.17-.02-.08,0-.1-.03-.11-.02-.02-.07,0-.13.03,0,0,0,0,0,0,0,0,0,0,0,0,0,0,0,0,0,0,0,0,0,0,0,0-.08.05-.16.14-.13.18.01.02.03.01.1.04.05.02.11.05.15.09-.03.02-.05.06-.08.08,0,0-.02.01-.03.02,0,0-.01,0-.02.01,0,0-.01,0-.02.01,0,0-.01,0-.02.01,0,0,0,0,0,0,0,0-.02.01-.02.02-.02.02-.05.04-.07.06,0,0-.02,0-.02-.01-.03-.02-.05-.03-.06-.03-.07-.04-.11-.1-.15-.15-.05-.07-.04-.09-.06-.1-.03-.01-.07.02-.11.07,0,0,0,0,0,0,0,0,0,0,0,0,0,0,0,0,0,0,0,0,0,0,0,0-.06.07-.1.18-.06.21.02.01.03,0,.11,0,.07,0,.14,0,.22.05,0,0,.05.03.09.05,0,.03,0,.05-.01.07-.02.04-.13.04-.15.08-.02.04.05.12.04.16,0,0,0,0,0,0-.05-.02-.09-.04-.13-.07-.03-.02-.05-.04-.06-.05-.01-.01-.02-.02-.03-.02-.03,0-.06.04-.07.1,0,.02,0,.03-.01.05,0-.02,0-.04.01-.06-.03.09-.03.22.02.23.02,0,.03-.01.11-.04.04-.02.09-.03.14-.04,0,0,0,0,0,0,0,.05-.08.09-.08.14s.02.1.03.14c0,.01,0,.02,0,.04-.01,0-.02,0-.03,0-.03,0-.06.01-.07.02-.08.02-.15,0-.21-.01-.08-.02-.09-.04-.11-.03-.03.01-.04.06-.04.12,0,0,0,0,0,0,0,0,0,0,0,0,0,0,0,0,0,0,0,0,0,0,0,0,0,.09.05.2.09.2.02,0,.02-.02.09-.07.06-.04.11-.09.19-.11,0,0,.04,0,.07-.02.01.04.04.09.05.13.01.03.03.06.05.08-.05.04-.1.05-.15.07-.03,0-.05,0-.06.01-.01,0-.02,0-.03,0-.02.02,0,.06.02.1,0,.01.01.02.02.03,0-.01-.02-.02-.02-.03.04.07.11.14.15.12.01,0,.01-.02.04-.09.02-.05.05-.1.09-.15.03.02.06.04.08.07.03.04,0,.12.04.15.03.03.07.04.11.05,0,0,0,0,0,.01-.02.03-.04.05-.04.06-.05.07-.11.1-.16.13-.07.04-.09.03-.1.05-.02.03.01.07.05.12,0,0,0,0,0,0,0,0,0,0,0,0,0,0,0,0,0,0,0,0,0,0,0,0,.07.07.17.12.2.09.01-.01,0-.03.02-.11.01-.07.03-.14.07-.21,0,0,.03-.04.06-.08,0,0,0,0,0,0,0,0,0,0,0,0,0,0,.02,0,.03.01,0,0,.01,0,.01,0,0,0,.01,0,.02,0,0,0,0,0,0,0,0,0,.01,0,.02,0,0,0,0,0,0,0,0,0,0,0,0,0,.02,0,.05.01.07.02,0,0,0,0,0,0,0,0,.01,0,.02,0,0,0,0,0,.01,0,0,0,0,0,0,0,0,0,0,0,0,0,0,0,0,0,0,0,0,0,0,0,0,.01,0,0,0,0,0,0,0,0,0,0,.01.02,0,0,0,0,.01.01,0,0,0,0,0,0,0,0,0,0,0,0,0,0,0,0,0,0,0,0,0,0,0,0,0,0,0,0,0,0,0,0,0,0,0,0,0,0,0,0,.01,0,0,0,0,0,.01,0,0,.02,0,.03,0,.04-.02.07-.05.11-.09.15-.02.02-.04.04-.05.05-.01,0-.02.01-.02.02,0,.02.03.05.08.07.01,0,.02,0,.04.01-.01,0-.03,0-.04-.01.07.03.17.05.19,0,0-.02,0-.02-.02-.09-.01-.06-.02-.11,0-.18,0,0,0-.02.01-.05.01,0,.03,0,.04,0,.01,0,.02,0,.03,0,0,0,0,0,.01,0,0,0,.02,0,.02,0,0,0,0,0,.01,0,0,0,.01,0,.02,0,0,0,0,0,.01,0,0,0,0,0,.01,0,0,0,.01,0,.02,0,.05,0,.1,0,.15,0,.05,0,.09-.04.14-.05.01,0,.02,0,.03-.01,0,.05,0,.09,0,.14,0,.08-.02.1,0,.12.02.03.07.03.13.01,0,0,0,0,0,0,0,0,0,0,0,0,0,0,0,0,0,0,0,0,0,0,0,0,.09-.03.19-.09.18-.13,0-.02-.02-.02-.09-.07-.04-.03-.08-.07-.11-.11.03-.02.05-.07.09-.09.04-.02.07-.05.11-.08,0,0,0,0,0,0,0,0,0,0,0,0,0,0,0,0,0,0,0,0,0,0,0,0,0,0,0,0,0,0,0,0,0,0,.01,0,0,0,0,0,0,0,0,0,0,0,.01,0,.02,0,.04,0,.06,0,0,0,0,0,0,0,0,0,0,0,0,0,0,0,0,0,.01,0,0,0,0,0,0,0,0,0,0,0,.01,0,0,0,0,0,0,0,0,0,0,0,0,0,0,0,0,0,0,0,0,0,0,0,0,0,0,0,.01-.01.02-.02.03.06.04.11.05.17.01.08,0,.1.02.11.04.04.15-.02.21-.09-.01.01-.03.02-.04.03.01,0,.02-.02.03-.03.05-.05.07-.09.06-.11,0,0-.01-.01-.03-.02-.02,0-.04-.01-.07-.03-.05-.03-.1-.06-.15-.11,0,0,0,0,0,0,.03-.04-.01-.12.01-.16.02-.04.07-.07.09-.11.02-.04.07-.08.08-.13,0-.03,0-.06-.01-.09.02.01.03.03.05.04.06.05.07.07.09.07.03,0,.06-.04.08-.1,0,0,0,0,0,0,0,0,0,0,0,0,0,0,0,0,0,0,0,0,0,0,0,0ZM6.01,41.05s0-.02,0-.03c0-.02,0-.03-.01-.05,0,.01,0,.03.01.04,0,.01,0,.02,0,.03ZM5.79,40.5s-.01-.02-.02-.03c0-.02-.02-.03-.03-.04.01.01.02.03.03.04,0,.01.01.02.02.04ZM5.23,40.3s-.02-.01-.03-.02c-.01,0-.03-.01-.04-.02.01,0,.03.01.04.02.01,0,.02.01.03.02ZM4.64,39.92s.03,0,.04,0c-.01,0-.02,0-.04,0-.02,0-.03,0-.05,0,.02,0,.03,0,.05,0ZM4.07,40.36s-.02.01-.03.02c-.01,0-.03.02-.04.03.01-.01.03-.02.04-.03.01,0,.02-.01.04-.02ZM3.52,40.66s-.02.02-.03.03c0,.01-.02.02-.03.04,0-.01.02-.03.02-.04,0-.01.02-.02.03-.03ZM3.18,41.85s0,.02,0,.04c0,.02,0,.04,0,.05,0-.02,0-.03,0-.05,0-.01,0-.03,0-.04ZM3.74,42.8s.02.02.03.03c.01.01.02.02.03.03-.01,0-.02-.02-.03-.03,0,0-.02-.02-.02-.03ZM5.13,42.92s.02,0,.04,0c.02,0,.03-.01.05-.02-.01,0-.03.01-.05.02-.01,0-.03,0-.04,0ZM6,41.86s.01-.02.02-.03c0-.02.01-.03.02-.05,0,.02,0,.03-.01.05,0,.01-.01.03-.02.04Z"/>
    <path class="cls-4" d="M2.95,43.86c.02-.05.03-.13,0-.14-.01,0-.02,0-.07.02-.03,0-.05.01-.08.01,0,0,0-.02,0-.03,0-.03.02-.06.02-.09,0-.03,0-.06-.01-.09,0-.03-.04-.05-.05-.07,0-.01,0-.02,0-.04,0,0,0,0,0,0,.04-.02.08-.01.11,0,.04,0,.05.01.06,0,.02,0,.02-.04.01-.07,0,0,0,0,0,0,0,0,0,0,0,0,0,0,0,0,0,0,0,0,0,0,0,0,0-.05-.04-.11-.06-.1-.01,0-.01.01-.04.04-.03.03-.05.05-.08.07-.02-.02-.08-.02-.09-.04-.02-.02-.03-.05-.05-.07-.01-.01-.02-.04-.02-.06,0,0,0,0,0,0,.02-.01.03-.03.03-.03.04-.03.08-.04.12-.05.05-.01.06,0,.07-.01.01-.01,0-.05-.01-.08,0,0,0,0,0,0,0,0,0,0,0,0,0,0,0,0,0,0,0,0,0,0,0,0-.03-.05-.08-.1-.11-.08-.01,0,0,.02-.03.06-.02.04-.04.08-.07.11,0,0-.02.02-.05.04-.01,0-.03-.02-.04-.02,0,0,0,0,0,0,0,0,0,0,0,0-.02-.01-.06-.02-.08-.03-.01,0-.02-.01-.03-.02.02-.03.04-.05.06-.07.04-.03.05-.03.05-.05,0-.02-.02-.04-.05-.06,0,0,0,0,0,0,0,0,0,0,0,0,0,0,0,0,0,0,0,0,0,0,0,0-.05-.03-.12-.05-.14-.02,0,.01,0,.02,0,.07,0,.03,0,.07,0,.1,0,0,0,0,0,0,0,0,0,0,0,0,0,0,0,0,0,0,0,0,0,0,0,0-.02,0-.03.01-.05.01-.03,0-.06-.04-.09-.04-.01,0-.02,0-.03.02,0-.03,0-.07,0-.1,0-.02,0-.04,0-.04,0-.05.02-.09.03-.12.02-.05.03-.05.03-.06,0-.02-.03-.03-.07-.04,0,0,0,0,0,0,0,0,0,0,0,0,0,0,0,0,0,0,0,0,0,0,0,0-.06,0-.13,0-.13.03,0,.01,0,.02.03.06.02.04.04.08.04.13,0,.01,0,.13-.01.18,0,0,0,0-.01,0,0,0,0,0,0,0,0,0,0,0,0,0,0,0,0,0,0,0,0,0,0,0,0,0,0,0,0,0,0,0,0,0,0,0,0,0,0,0,0,0,0,0,0,0,0,0,0,0,0,0,0,0,0,0,0,0,0,0,0,0,0,0,0,0,0,0,0,0,0,0,0,0,0,0,0,0,0,0,0,0,0,0,0,0,0,0,0,0,0,0,0,0,0,0,0,0,0,0,0,0,0,0,0,0,0,0,0,0h0s0,0,0,0c0,0,0,0,0,0,0,0,0,0,0,0,0,0,0,0,0,0,0,0,0,0,0,0,0,0,0,0,0,0,0,0,0,0,0,0-.03,0-.05.03-.08.04,0,0-.02,0-.03.01-.03-.03-.04-.07-.05-.11-.01-.05,0-.06-.02-.07-.01-.01-.05,0-.08.02,0,0,0,0,0,0,0,0,0,0,0,0,0,0,0,0,0,0,0,0,0,0,0,0-.05.03-.1.08-.08.11,0,.01.02,0,.06.03.03.01.06.03.09.05-.02.02-.03.04-.05.05,0,0-.01,0-.02.01,0,0,0,0-.01,0,0,0,0,0,0,0,0,0,0,0-.01,0,0,0,0,0,0,0,0,0-.01,0-.02.01-.01.01-.03.03-.05.04,0,0-.01,0-.01,0-.02-.01-.03-.02-.04-.02-.04-.02-.07-.06-.09-.09-.03-.04-.03-.05-.04-.06-.02,0-.04.01-.07.04,0,0,0,0,0,0,0,0,0,0,0,0,0,0,0,0,0,0,0,0,0,0,0,0-.04.05-.06.11-.04.13,0,0,.02,0,.07,0,.04,0,.09,0,.13.03,0,0,.03.02.06.03,0,.02,0,.03,0,.04-.01.02-.08.02-.09.05-.01.03.03.07.02.1,0,0,0,0,0,0-.03,0-.06-.03-.08-.04-.02-.01-.03-.02-.04-.03,0,0-.01-.01-.02-.01-.02,0-.03.02-.05.06,0,.01,0,.02,0,.03,0-.01,0-.02,0-.04-.02.06-.02.13.01.14.01,0,.02,0,.07-.02.03,0,.05-.02.08-.02,0,0,0,0,0,0,0,.03-.05.05-.05.08s.02.06.02.09c0,0,0,.01,0,.02,0,0-.01,0-.02,0-.02,0-.04,0-.04,0-.05.01-.09,0-.13,0-.05-.01-.06-.02-.07-.02-.02,0-.02.04-.02.08,0,0,0,0,0,0,0,0,0,0,0,0,0,0,0,0,0,0,0,0,0,0,0,0,0,.06.03.12.06.12.01,0,.01-.01.05-.04.04-.03.07-.05.12-.07,0,0,.02,0,.04,0,0,.03.02.06.03.08,0,.02.02.04.03.05-.03.03-.06.03-.09.04-.02,0-.03,0-.04,0,0,0-.01,0-.02,0,0,.01,0,.03.01.06,0,0,0,.01.01.02,0,0-.01-.01-.02-.02.02.04.07.08.09.07,0,0,0-.01.02-.05.01-.03.03-.06.06-.09.02.01.04.02.05.04.02.02,0,.07.03.1.02.02.05.02.07.03,0,0,0,0,0,0-.01.02-.02.03-.02.03-.03.04-.07.06-.1.08-.04.02-.06.02-.06.03,0,.02,0,.05.03.07,0,0,0,0,0,0,0,0,0,0,0,0,0,0,0,0,0,0,0,0,0,0,0,0,.04.04.1.07.13.05,0,0,0-.02.01-.07,0-.04.02-.09.05-.13,0,0,.02-.03.04-.05,0,0,0,0,0,0,0,0,0,0,0,0,0,0,.01,0,.02,0,0,0,0,0,0,0,0,0,0,0,.01,0,0,0,0,0,0,0,0,0,0,0,0,0,0,0,0,0,0,0,0,0,0,0,0,0,.02,0,.03,0,.05.01,0,0,0,0,0,0,0,0,0,0,0,0,0,0,0,0,0,0,0,0,0,0,0,0,0,0,0,0,0,0,0,0,0,0,0,0,0,0,0,0,0,0,0,0,0,0,0,0,0,0,0,0,0,0,0,0,0,0,0,0,0,0,0,0,0,0,0,0,0,0,0,0,0,0,0,0,0,0,0,0,0,0,0,0,0,0,0,0,0,0,0,0,0,0,0,0,0,0,0,0,0,0,0,0,0,0,0,0,0,.01,0,.02,0,.03,0,.04-.03.07-.05.09-.01.01-.02.02-.03.03,0,0-.01,0-.01.01,0,.01.02.03.05.04,0,0,.01,0,.02,0,0,0-.02,0-.02,0,.04.02.11.03.12,0,0,0,0-.02-.01-.06,0-.04-.01-.07,0-.11,0,0,0-.01,0-.03,0,0,.02,0,.03,0,0,0,.01,0,.02,0,0,0,0,0,0,0,0,0,0,0,.01,0,0,0,0,0,0,0,0,0,0,0,.01,0,0,0,0,0,0,0,0,0,0,0,0,0,0,0,0,0,0,0,.03,0,.06,0,.09,0,.03,0,.06-.03.08-.03,0,0,.01,0,.02,0,0,.03,0,.06,0,.08,0,.05-.01.06,0,.07.01.02.04.02.08,0,0,0,0,0,0,0,0,0,0,0,0,0,0,0,0,0,0,0,0,0,0,0,0,0,.06-.02.12-.05.11-.08,0-.01-.01-.01-.05-.04-.02-.02-.05-.04-.07-.07.02-.01.03-.05.05-.06.03-.01.04-.03.07-.05,0,0,0,0,0,0,0,0,0,0,0,0,0,0,0,0,0,0,0,0,0,0,0,0,0,0,0,0,0,0,0,0,0,0,0,0,0,0,0,0,0,0,0,0,0,0,0,0,.01,0,.02,0,.04,0,0,0,0,0,0,0,0,0,0,0,0,0,0,0,0,0,0,0,0,0,0,0,0,0,0,0,0,0,0,0,0,0,0,0,0,0,0,0,0,0,0,0,0,0,0,0,0,0,0,0,0,0,0,0,0,0,0,0,.01-.01.02.03.02.07.03.1,0,.05,0,.06.01.07.02.02.09-.01.13-.06,0,0-.02.01-.02.02,0,0,.01-.01.02-.02.03-.03.04-.06.04-.07,0,0,0,0-.02-.01,0,0-.02,0-.04-.02-.03-.02-.06-.04-.09-.07,0,0,0,0,0,0,.02-.02,0-.08,0-.1.01-.02.04-.04.06-.07.01-.03.04-.05.05-.08,0-.02,0-.03,0-.05.01,0,.02.02.03.02.04.03.04.04.05.05.02,0,.04-.03.05-.06,0,0,0,0,0,0,0,0,0,0,0,0,0,0,0,0,0,0,0,0,0,0,0,0ZM2.95,43.39s0-.01,0-.02c0,0,0-.02,0-.03,0,0,0,.02,0,.03,0,0,0,.01,0,.02ZM2.81,43.05s0-.01-.01-.02c0,0-.01-.02-.02-.03,0,0,.01.02.02.03,0,0,0,.02.01.02ZM2.46,42.93s-.01,0-.02-.01c0,0-.02,0-.02-.01,0,0,.02,0,.03.01,0,0,.01,0,.02.01ZM2.1,42.69s.02,0,.02,0c0,0-.01,0-.02,0-.01,0-.02,0-.03,0,.01,0,.02,0,.03,0ZM1.75,42.96s-.01,0-.02.01c0,0-.02.01-.03.02,0,0,.02-.01.02-.02,0,0,.01,0,.02-.01ZM1.41,43.15s-.01.01-.02.02c0,0-.01.02-.02.02,0,0,0-.02.02-.02,0,0,.01-.01.02-.02ZM1.2,43.88s0,.01,0,.02c0,.01,0,.02,0,.03,0,0,0-.02,0-.03,0,0,0-.02,0-.02ZM1.55,44.46s0,.01.02.02c0,0,.01.01.02.02,0,0-.01-.01-.02-.02,0,0-.01-.01-.01-.02ZM2.4,44.54s.01,0,.02,0c.01,0,.02,0,.03-.01,0,0-.02,0-.03.01,0,0-.02,0-.02,0ZM2.94,43.88s0-.01,0-.02c0-.01,0-.02,0-.03,0,0,0,.02,0,.03,0,0,0,.02-.01.02Z"/>
    <path class="cls-2" d="M11.46,44.56l-1.87-1.22v.62h-2.25s.1.15.1.15h-.02c.04.13.04.23.02.31.12.06.21.18.28.34h.02s.04.2.04.2c0,.06.01.11.01.16h1.81v.53l1.86-1.08Z"/>
  </g>
  <g>
    <path class="cls-2" d="M42.18,46.33l3.67-6.13v8.04c0,1.19-.05,1.94-1.08,2.03v.15h3.99v-.15c-1.02-.09-1.08-.83-1.08-2.03v-6.96c0-1.19.05-1.94,1.08-2.03v-.15h-4.11v.16c.23.09.36.27.36.48,0,.15-.09.37-.25.62l-2.08,3.47-1.97-3.47c-.15-.26-.25-.47-.25-.62,0-.21.13-.39.36-.48v-.16h-4.11v.15c1.02.09,1.08.83,1.08,2.03v6.96c0,1.19-.05,1.94-1.08,2.03v.15h3.15v-.15c-1.01-.09-1.06-.8-1.06-2.03v-7.91l3.37,6.01Z"/>
    <path class="cls-2" d="M58.82,50.58l1.38-4.33h-.13c-1.1,2.27-2.76,3.47-4.78,3.47-1.73,0-1.81-.61-1.81-1.79v-4.87h1.02c1.55,0,2.16.45,2.72,2h.15l-.62-3.87h-.16c-.16.91-.63,1.08-1.84,1.08h-1.28v-1.06c0-1.11.26-1.37,1.4-1.37,1.92,0,3.49.95,4.2,2.55h.15l-.85-3.58c-.21.2-.54.29-1.02.29h-6.79v.15c1.01.09,1.06.8,1.06,2.03v6.96c0,1.23-.05,1.94-1.06,2.03v.15h7.29c.33,0,.65,0,.96.17Z"/>
    <path class="cls-2" d="M64.15,44.96c.64-.17,1.26-.34,1.81-.58h.03s.02.01.02.01c1.8,2.25,2.75,4.04,2.75,5.18,0,.37-.19.52-.58.68v.16h3.48v-.15c-.72-.22-.92-.76-1.18-1.51-.04-.11-.08-.23-.13-.36-.63-1.67-1.57-3.3-2.71-4.71l-.04-.04.05-.03c1.5-.85,2.37-1.58,2.37-2.81,0-1.12-.78-1.7-2.31-1.7h-6.5v.15c1.01.09,1.06.8,1.06,2.03v6.96c0,1.23-.05,1.94-1.06,2.03v.15h3.97v-.15c-1.01-.09-1.06-.8-1.06-2.03v-3.27h.04ZM64.12,41.16c0-1.05.15-1.28,1.79-1.28,1.54,0,2.22.44,2.22,1.43,0,1.19-1.18,2.06-3.95,2.9l-.06.02v-3.07Z"/>
    <path class="cls-2" d="M82.25,39.26v-.15h-3.19v.15c.57.13.82.39.82.84,0,.22-.08.55-.26,1.03l-2.63,7.4-2.42-7.37c-.04-.12-.07-.22-.1-.3-.06-.17-.07-.23-.07-.26,0-.01,0-.04-.01-.07-.02-.08-.05-.21-.05-.38,0-.47.21-.73.72-.89v-.15h-3.6v.15c.67.18.84.69,1.06,1.38.03.1.06.19.1.3l2.65,7.75c.02.06.04.12.06.18.1.28.18.53.18.76,0,.33-.19.56-.53.64v.15h3.17v-.15c-.27-.07-.44-.29-.44-.57,0-.06.03-.2.24-.8l2.86-7.71c.45-1.2.78-1.8,1.45-1.92Z"/>
    <path class="cls-2" d="M85.97,45.57h-2.03l-.1-.19h-.06l-.63,1.68c.47-.17.89-.26,1.3-.26h2.05l.1.19h.06l.62-1.68c-.47.17-.89.26-1.3.26Z"/>
    <path class="cls-1" d="M94.94,48.68c.21.34.28.65.28.83,0,.38-.24.66-.65.76v.15h4.23v-.15c-.91-.16-1.44-1.04-2.25-2.36l-2.65-4.3,1.71-2.61c.63-.98,1.24-1.51,2.03-1.74v-.15h-3.2v.15c.39.1.62.22.62.53,0,.18-.13.46-.4.9l-1.31,2.01-1.15-1.86c-.25-.39-.38-.67-.38-.85,0-.39.23-.66.63-.74v-.15h-3.94v.16c.68.26,1.11.88,1.72,1.85l2.03,3.24-.02.03-2.92,4.52c-.45.68-.77,1.17-1.49,1.35v.15h3.17v-.15c-.46-.06-.68-.29-.68-.69,0-.26.09-.52.31-.88l2.2-3.42,2.11,3.4Z"/>
  </g>
  <text class="cls-6" transform="translate(1.55 61.51)"><tspan class="cls-7" x="0" y="0">A UNIT OF NEPTUNE ENGINEERING PVT LT</tspan><tspan class="cls-5" x="94.12" y="0">D.</tspan></text>
</svg>