<?xml version="1.0" encoding="UTF-8"?>
<svg id="Layer_1" data-name="Layer 1" xmlns="http://www.w3.org/2000/svg" version="1.1" viewBox="0 0 100 100">
  <defs>
    <style>
      .cls-1 {
        fill: #8c6929;
        stroke-width: 0px;
      }
    </style>
  </defs>
  <g>
    <rect class="cls-1" x="54.59" y="67.68" width="1.4" height="16.82"/>
    <g>
      <rect class="cls-1" x="84.79" y="67.7" width="1.4" height="16.78"/>
      <rect class="cls-1" x="92.44" y="67.7" width="1.4" height="16.78"/>
      <rect class="cls-1" x="88.77" y="66.24" width="1.4" height="8.57" transform="translate(-17.11 110.76) rotate(-58.92)"/>
    </g>
    <g>
      <polygon class="cls-1" points="71.56 84.48 70.08 84.48 76.28 67.71 77.6 68.2 71.56 84.48"/>
      <polygon class="cls-1" points="82.69 84.48 76.29 68.21 77.59 67.7 84.2 84.48 82.69 84.48"/>
      <rect class="cls-1" x="72.74" y="78.6" width="8.69" height="1.4"/>
    </g>
    <g>
      <polygon class="cls-1" points="66.42 84.48 64.92 84.48 71.08 67.7 72.56 67.7 66.42 84.48"/>
      <polygon class="cls-1" points="64.88 84.48 58.32 67.7 59.83 67.7 66.39 84.48 64.88 84.48"/>
    </g>
    <path class="cls-1" d="M44.82,84.48h-3.64v-16.78h3.64c4.73,0,8.58,3.85,8.58,8.59s-3.85,8.2-8.58,8.2ZM42.59,83.08h2.23c3.96,0,7.18-2.83,7.18-6.79s-3.22-7.18-7.18-7.18h-2.23v13.97Z"/>
    <g>
      <rect class="cls-1" x="30.63" y="67.7" width="1.4" height="16.78"/>
      <rect class="cls-1" x="38.29" y="67.7" width="1.4" height="16.78"/>
      <rect class="cls-1" x="34.62" y="66.24" width="1.4" height="8.57" transform="translate(-43.31 64.37) rotate(-58.92)"/>
    </g>
    <g>
      <rect class="cls-1" x="6.15" y="67.7" width="1.4" height="16.78"/>
      <rect class="cls-1" x="13.81" y="67.7" width="1.4" height="16.78"/>
      <rect class="cls-1" x="10.14" y="66.24" width="1.4" height="8.57" transform="translate(-55.15 43.41) rotate(-58.92)"/>
    </g>
    <rect class="cls-1" x="76.28" y="67.7" width="1.3" height=".38"/>
    <g>
      <g>
        <polygon class="cls-1" points="17.17 84.48 15.7 84.48 21.89 67.71 23.21 68.2 17.17 84.48"/>
        <polygon class="cls-1" points="28.3 84.48 21.9 68.21 23.21 67.7 29.81 84.48 28.3 84.48"/>
        <rect class="cls-1" x="18.35" y="78.6" width="8.69" height="1.4"/>
      </g>
      <rect class="cls-1" x="21.89" y="67.7" width="1.3" height=".38"/>
    </g>
  </g>
  <g>
    <g>
      <path class="cls-1" d="M42.02,20.46c-1.21-.12-2.31.63-3.2,1.37-3.17,2.72-3.95,7.31-3.67,11.31.2,1.81.88,3.48,1.26,5.3.57,2.44.4,5.08-.58,7.38.51-2.4.43-4.83-.31-7.16-.51-1.75-1.31-3.51-1.58-5.37-.37-3.17.12-6.5,1.78-9.27,1.18-1.92,3.9-4.27,6.29-3.57h0Z"/>
      <path class="cls-1" d="M34.92,15.5c-3.47,4.35-3.83,6.28-2.35,11.63.41,1.37.94,2.7,1.55,4.05-2.59-2.7-4.15-6.69-3.47-10.45.59-2.22,2.37-4.06,4.26-5.23h0Z"/>
      <path class="cls-1" d="M34.92,15.5c-3.15.9-6.1,3.09-6.79,6.41-.66,3.26.48,6.49,1.4,9.66.34,1.16,1.17,3.77,1.44,4.93.14.57.17,1.25.07,1.84l-.63-.3c.36-.3.71-.54,1.1-.76,1.12-.63,2.5-1.03,3.77-.63-.85-.09-1.67.13-2.4.49-1.02.49-1.9,1.33-2.64,2.15.06-.83.15-1.77-.15-2.56-1.51-4.66-4.3-10.07-3.04-15.09.93-3.57,4.33-5.84,7.87-6.13h0Z"/>
      <path class="cls-1" d="M30.46,38.52c-.12.54-.12,1.1-.03,1.63.06.27.07.61-.06.88-.53,1.06-1.77,1.48-2.79,1.9-1.17.57-1.77,1.82-2.29,3.01-.42,1-.72,2.05-.96,3.12-.65,1.71-2,2.91-3.29,4.12-1.25,1.2-2.12,2.56-3.56,3.69-.45.35-.95.6-1.38.95-2.06,1.53-1.6,4.92.76,5.93,2.01,1.1,4.21.76,5.79-.92,0,0,.21.04.21.04,2.41.42,5.38.94,7.8,1.23.87.1,1.74.2,2.63.21-2.64.24-5.3-.02-7.93-.26-.88-.09-1.75-.18-2.63-.29l.39-.12c-1.76,1.95-4.43,2.35-6.75,1.17-3.22-1.3-3.82-5.91-1.05-7.98.44-.36.97-.62,1.41-.95,1.46-1.13,2.64-2.93,4.15-4.12.97-.84,1.95-1.84,2.49-3,.23-.87.67-2.19,1.14-3.15.51-1.01,1.1-2.03,2.06-2.77.9-.65,2.15-.67,3.03-1.36.43-.3.73-.73.63-1.28-.03-.56.05-1.13.23-1.65h0Z"/>
      <path class="cls-1" d="M44.86,41.41c3.41,1.26,7.41.93,10.32-1.27,3.84-3.05,9.24-6.08,12.86-.92.99,1.33,1.46,3.32,3.19,3.89.72.24,1.6.18,2.48.04,1.78-.28,3.63-.71,5.51-.82,1.87-.13,3.76,0,5.58.38-3.77-.21-7.25.62-10.9,1.52-3.07.68-4.82-.37-6.2-3.15-3.02-5.82-7.87-3.02-11.99-.17-3.17,2.16-7.51,2.26-10.84.5h0Z"/>
      <path class="cls-1" d="M35.78,44.45c-.82,1.67-.02,3.07,1.73,3.47,3.1.76,7.26-2.46,5.56-5.74-.5-1.08-1.06-2.24-1.55-3.32-2.35-5.45-5.45-14.18.5-18.4-3.8,3.48-2.62,9.09-1.13,13.41.78,2.28,1.79,4.49,2.8,6.68.31.72.82,1.63.91,2.43.48,2.85-2.07,5.22-4.68,5.69-2.58.62-6.1-1.37-4.14-4.22h0Z"/>
      <path class="cls-1" d="M46.39,56.8c-1.63,3.69-5.67,6.16-9.44,7.21.42-.3.85-.56,1.27-.83,2.92-1.87,5.86-3.76,8.17-6.38h0Z"/>
    </g>
    <path class="cls-1" d="M29.5,45.11c-1.04-.28-1.95-.81-2.69-1.6,1.04.28,1.95.82,2.69,1.6h0Z"/>
    <path class="cls-1" d="M25.91,45.03c1.04.28,1.95.81,2.69,1.6-1.04-.28-1.95-.82-2.69-1.6h0Z"/>
    <path class="cls-1" d="M29.05,45.86c-1.04-.28-1.95-.81-2.69-1.6,1.04.28,1.95.82,2.69,1.6h0Z"/>
  </g>
</svg>