<?xml version="1.0" encoding="UTF-8"?>
<svg id="Layer_1" data-name="Layer 1" xmlns="http://www.w3.org/2000/svg" version="1.1" viewBox="0 0 100 100">
  <defs>
    <style>
      .cls-1, .cls-2, .cls-3 {
        fill: #90301f;
      }

      .cls-1, .cls-4, .cls-3 {
        stroke-width: 0px;
      }

      .cls-2 {
        font-family: Insaniburger-with-Cheese, 'Insaniburger with Cheese';
        font-size: 3.3px;
        font-style: italic;
        letter-spacing: .2em;
      }

      .cls-4 {
        fill: #f69120;
      }

      .cls-3 {
        fill-rule: evenodd;
      }
    </style>
  </defs>
  <g>
    <g>
      <path class="cls-4" d="M68.58,39.17c.68.65.99,1.63.99,2.7,0,1.55-.65,3.27-1.89,4.45l-.31.28h1.92v10.62c0,2.56.23,4.98,2.2,5.35.25.06.84-.03,1.35-.25l.25.48c-.51.42-1.21.7-1.8.76-2.53.08-4.03-1.72-4.59-4.42l-3.27,2.99c-1.69-.51-4.62-2.11-4.62-6.31,0-8.14,9.97-12.7,9.43-16.47l.34-.17ZM66.47,47.54c-1.91,1.94-4.73,5.32-4.79,8.76.08,2.2,1.58,3.04,2.7,3.13l2.11-1.72c-.03-.37-.03-.76-.03-1.15v-9.01Z"/>
      <path class="cls-4" d="M76.1,57.96l-2.2,1.89c-1.83-.84-2.53-2.65-2.53-5.27v-6.08l2.53-1.75v7.52c0,1.92.34,3.29,1.38,3.21l.82-.62v-8.36l2.53-1.75v14.25c-.39,4.59-2.76,5.91-3.97,6.17-1.66.28-2.79-.39-3.29-1.27l.28-.08c.45.37.9.48,1.35.48.56,0,1.07-.2,1.32-.31,1.01-.51,1.61-2.53,1.77-4.98v-3.04Z"/>
      <path class="cls-4" d="M96.18,54.24c.45.87.65,1.77.65,2.65,0,2.76-2.08,5.18-5.29,5.29-2.7.08-6.59-2.42-6.59-7.52v-2.65c0-1.52-.62-2.62-1.72-3.07l-.39.37v10.53h-2.56v-11.71h2.56l1.44-1.41c1.75.48,3.18,1.72,3.27,5.89v4.11c0,2.87,3.13,3.21,4.25,3.13,2.51-.08,4.17-1.77,4.17-4.03,0-.48-.08-.96-.23-1.46l.45-.11Z"/>
    </g>
    <rect class="cls-1" x="53.7" y="53.8" width="3.34" height="1.86"/>
    <g>
      <path class="cls-1" d="M29.2,63.05c-.82.34-1.61.51-2.31.51-2.73,0-4.53-2.39-4.53-5.97v-9.91c0-1.86-1.18-2.48-1.94-2.56l-1.41,1.1v15.01l-2.7,1.86v-13.83c-.08-2.68-1.18-5.69-4.82-5.72-3.29-.06-5.27,3.1-5.27,5.91,0,.68.11,1.3.34,1.89.68,1.83,2.06,2.99,3.86,2.99.51,0,1.01-.11,1.58-.28l.17.56c-.9.56-1.89.82-2.87.82-2.11,0-4.25-1.18-5.32-3.01-.48-.87-.79-2.06-.79-3.29,0-1.32.34-2.7,1.1-3.86,1.61-2.48,4.25-3.58,6.81-3.58.28,0,.56,0,.82.03,2.82.31,4.79,1.83,5.94,3.89l3.69-2.84c1.18.14,3.63,1.32,3.63,4.7v10.03c0,2.06.31,5.13,2.59,5.13.34,0,.73-.06,1.18-.23l.25.68Z"/>
      <path class="cls-1" d="M31.28,60.8c-2.03.25-4.08-1.52-4.08-4.14v-5.94l4.08-3.01c2.11.76,2.96,2.96,3.04,6.22-.08,4-.93,6.17-3.04,6.87ZM28.91,43.37l1.66,1.63-1.66,1.61-1.61-1.61,1.61-1.63ZM31.79,54.04c0-1.69-.45-4.08-1.55-4.25l-.59.45v6.17c.03,1.32.34,3.1,1.27,3.27.62-.56.87-2.37.87-5.21v-.42ZM32.29,43.37l1.66,1.63-1.66,1.61-1.61-1.61,1.61-1.63Z"/>
      <path class="cls-1" d="M39.64,60.8c-2.03.25-4.08-1.52-4.08-4.14v-5.94l4.08-3.01c2.11.76,2.96,2.96,3.04,6.22-.08,4-.93,6.17-3.04,6.87ZM37.28,43.37l1.66,1.63-1.66,1.61-1.61-1.61,1.61-1.63ZM40.15,54.04c0-1.69-.45-4.08-1.55-4.25l-.59.45v6.17c.03,1.32.34,3.1,1.27,3.27.62-.56.87-2.37.87-5.21v-.42ZM40.66,43.37l1.66,1.63-1.66,1.61-1.61-1.61,1.61-1.63Z"/>
    </g>
    <path class="cls-1" d="M35.02,56.9c-.14.51-.23.99-.23,1.46,0,2.25,1.66,3.91,4.17,4.03,1.13.08,4.25-.25,4.25-3.13v-10.64l2.59,2.65v4.96c.51-.11.96-.17,1.35-.17.73,0,1.3.17,1.77.51.56-.59.79-1.27.79-1.91,0-.34-.06-.68-.17-.96-.79-2.03-4.48-3.63-5.66-6.14-.48-1.01-.68-2.34-.68-3.6,0-1.52.28-2.93.65-3.66l.28.14c.23,4.48,5.63,7.46,7.43,9.97.59.82.84,1.66.84,2.48,0,1.97-1.46,3.69-2.87,4.28.73.87,1.13,2.17,1.49,3.49.68,2.45,1.38,4.96,3.32,5.24.42.08,1.49.17,2.25-.51l.42.34c-.48.73-1.35,1.35-2.68,1.49-1.3.11-4.08,0-5.91-4.62-1.27-3.07-1.01-5.49-2.65-5.6v.51c0,5.1-3.89,7.6-6.59,7.52-3.21-.11-5.29-2.7-5.29-5.55,0-.9.2-1.83.65-2.7l.45.14Z"/>
  </g>
  <text class="cls-2" transform="translate(20.81 71.81)"><tspan x="0" y="0">PURE HERITAGE SPICES BLEND</tspan></text>
  <path class="cls-1" d="M52.12,36.94c2.62-1.04,3.79-4.16,2.2-6.54-1.98-2.76-6.97-2.58-8.64.42-.82,1.49-.64,3.33.02,4.84.72,1.6,2.15,2.71,3.63,3.64,1.15.73,2.42,1.39,3.54,2.2,2.22,1.62,2.64,4.01,1.59,6.47-.36.86-.84,1.65-1.33,2.44.92-1.96,1.97-4.29,1-6.4-.57-1.19-1.74-1.96-2.87-2.56-1.63-.9-3.32-1.72-4.75-2.99-2.24-1.92-3.22-5.48-1.75-8.14,1.99-3.6,7.95-3.75,10.14-.29,1.6,2.65.2,6.15-2.79,6.92h0Z"/>
  <path class="cls-4" d="M60.23,38.53c-2.78-1.35-3.46-5.05-1.37-7.33,2.83-2.96,8.64-1.64,9.88,2.29.92,2.91-.74,6.2-3.32,7.64-1.64.96-3.47,1.44-5.24,2-1.23.37-2.53.89-3.32,1.95-1.37,1.88-.8,4.37-.28,6.47-.32-.86-.64-1.73-.82-2.65-.55-2.62.33-4.87,2.83-6.03,1.25-.58,2.63-.97,3.9-1.46,1.63-.62,3.25-1.43,4.27-2.85.94-1.36,1.48-3.13.97-4.75-1.04-3.27-5.9-4.43-8.38-2.11-2.02,2.02-1.5,5.31.87,6.84h0Z"/>
  <path class="cls-3" d="M62.16,36.94c-1.98-2.11-.15-3.89,1.27-4.51-.34.75.07,1.23.13,1.78.16.82-.25,1.71-1.1,2.68-.36-.72-.6-1.57-.2-2.82-.37.45-.58,1.58-.09,2.86h0ZM62.98,36.56c2.22-.69,2.05-2.77,1.47-3.93-.17.5-.51.73-.85.94.06.19.13.39.16.62.08.43.01.86-.14,1.26.21-.25.41-.56.59-.93-.02.35-.28.88-.81,1.39-.12.22-.27.44-.42.64h0ZM61.8,36.78c-.08-.1-.15-.2-.22-.31-.82-.68-1.19-1.46-1.18-1.92.24.64.56,1.09.92,1.43-.26-.61-.28-1.26.05-1.93.02-.04.05-.09.07-.14-.39-.36-.95-.55-1.14-1.27-.71,1.17-1.04,3.39,1.5,4.13Z"/>
  <path class="cls-3" d="M55.73,38.08c-.33.18-.43.61-.24.97,0,0,0,.02.01.02.01,0,.02,0,.03-.01.04-.01.08-.03.12-.04.09-.03.18-.04.27-.05l.02-.18c.01-.14.15-.22.28-.15l.16.08c.06-.07.12-.14.19-.2.03-.03.06-.05.1-.08,0,0,.02-.01.03-.02,0,0,0-.02-.01-.02-.2-.36-.62-.5-.95-.32h0ZM56.08,39.75c-.08-.15-.28-.16-.39-.11-.11.06-.25.01-.31-.1-.06-.11-.01-.25.1-.31h0s0,0,0,0h0s.06-.03.09-.04c.03-.01.07-.02.11-.03.1-.03.23-.05.35-.06l.02-.29s.04-.07.09-.05l.26.13c.07-.1.16-.19.24-.27.03-.03.06-.05.09-.07.03-.02.06-.04.08-.06h0s0,0,0,0c.11-.07.25-.03.31.08.06.11.03.25-.08.31h0c-.13.08-.21.22-.11.39l.83,1.56c.3.56-.48.96-.78.41l-.92-1.49Z"/>
  <path class="cls-3" d="M48.79,30.08c-.12.39-.08.92.14,1.45.22.52.58.92.94,1.11.12-.39.08-.92-.14-1.45-.22-.52-.58-.92-.94-1.11h0ZM47.08,31.82c.39-.13.92-.1,1.45.11.53.21.93.56,1.12.93-.39.13-.92.1-1.45-.11-.53-.21-.93-.56-1.12-.93h0ZM47.1,34.26c.39.12.92.09,1.45-.14.52-.22.92-.58,1.11-.94-.39-.12-.92-.08-1.45.14-.52.22-.92.58-1.11.94h0ZM48.85,35.97c-.13-.39-.1-.92.11-1.45.21-.53.56-.93.93-1.12.13.39.1.92-.11,1.45-.21.53-.56.93-.93,1.12h0ZM51.29,35.95c.12-.39.09-.92-.14-1.45-.22-.52-.58-.92-.94-1.11-.12.39-.08.92.14,1.45.22.52.58.92.94,1.11h0ZM53,34.21c-.39.13-.92.1-1.45-.11-.53-.21-.93-.56-1.12-.93.39-.13.92-.1,1.45.11.53.21.93.56,1.12.93h0ZM52.98,31.77c-.39-.12-.92-.09-1.45.14-.52.22-.92.58-1.11.94.39.12.92.08,1.45-.14.52-.22.92-.58,1.11-.94h0ZM51.23,30.06c.13.39.1.92-.11,1.45-.21.53-.56.93-.93,1.12-.13-.39-.1-.92.11-1.45.21-.53.56-.93.93-1.12Z"/>
  <g>
    <path class="cls-3" d="M59.92,44.67c.33.18.43.61.24.97,0,0,0,.02-.01.02-.01,0-.02,0-.03-.01-.04-.01-.08-.03-.12-.04-.09-.03-.18-.04-.27-.05l-.02-.18c-.01-.14-.15-.22-.28-.15l-.16.08c-.06-.07-.12-.14-.19-.2-.03-.03-.06-.05-.1-.08,0,0-.02-.01-.03-.02,0,0,0-.02.01-.02.2-.36.62-.5.95-.32h0Z"/>
    <path class="cls-3" d="M59.57,46.33c.08-.15.28-.16.39-.11.11.06.25.01.31-.1.06-.11.01-.25-.1-.31h0s0,0,0,0h0s-.06-.03-.09-.04c-.03-.01-.07-.02-.11-.03-.1-.03-.23-.05-.35-.06l-.02-.29s-.04-.07-.09-.05l-.26.13c-.07-.1-.16-.19-.24-.27-.03-.03-.06-.05-.09-.07-.03-.02-.06-.04-.08-.06h0s0,0,0,0c-.11-.07-.25-.03-.31.08-.06.11-.03.25.08.31h0c.13.08.21.22.11.39l-1.07,1.96c-.13.24-.04.54.2.67h0c.24.13.54.04.67-.2l1.07-1.96h0Z"/>
  </g>
  <g>
    <path class="cls-3" d="M53.37,44.06c-.17.32-.52.62-.98.81-.46.19-.93.21-1.27.1.17-.32.52-.62.98-.81.46-.19.93-.21,1.27-.1h0Z"/>
    <path class="cls-3" d="M53.35,46.2c-.34.11-.81.07-1.27-.12-.46-.19-.81-.51-.97-.83.34-.11.81-.07,1.27.12.46.19.81.51.97.83h0Z"/>
    <path class="cls-3" d="M51.83,47.69c.11-.34.09-.81-.1-1.27-.19-.46-.49-.81-.81-.98-.11.34-.09.81.1,1.27.19.46.49.81.81.98h0Z"/>
    <path class="cls-3" d="M49.69,47.67c-.11-.34-.07-.81.12-1.27.19-.46.51-.81.83-.97.11.34.07.81-.12,1.27-.19.46-.5.81-.83.97h0Z"/>
    <path class="cls-3" d="M48.19,46.15c.34.11.81.09,1.27-.1.46-.19.81-.49.98-.81-.34-.11-.81-.09-1.27.1-.46.19-.81.49-.98.81h0Z"/>
    <path class="cls-3" d="M48.21,44.01c.34-.11.81-.07,1.27.12.46.19.81.51.97.83-.34.11-.81.07-1.27-.12-.46-.19-.81-.51-.97-.83h0Z"/>
    <path class="cls-3" d="M49.73,42.52c-.11.34-.09.81.1,1.27.19.46.49.81.81.98.11-.34.09-.81-.1-1.27-.19-.46-.49-.81-.81-.98h0Z"/>
    <path class="cls-3" d="M51.87,42.54c-.32.16-.63.51-.83.97-.19.46-.23.92-.12,1.27.32-.16.63-.51.83-.97.19-.46.23-.92.12-1.27h0Z"/>
  </g>
  <path class="cls-3" d="M50.45,36.24h0c.29.35-.38.75-.83.71.03-.45.54-1.05.83-.71h0ZM58.87,41.28h0c.07.06.18.05.25-.02.06-.07.05-.18-.02-.25-.07-.06-.18-.05-.25.02-.06.07-.05.18.02.25h0ZM58.91,39.63h0c-.45.02-.31.78.03,1.09.32-.33.42-1.1-.03-1.09h0ZM60.61,41h0c.08.05.19.02.24-.07.05-.08.02-.19-.07-.24-.08-.05-.19-.02-.24.07-.05.08-.02.19.07.24h0ZM60.3,39.38h0c-.44.11-.14.83.25,1.06.24-.38.19-1.16-.25-1.06h0ZM62.13,40.34h0c.09.04.19,0,.23-.09.04-.09,0-.19-.09-.23-.09-.04-.19,0-.23.09-.04.09,0,.19.09.23h0ZM61.67,38.75h0c-.42.15-.06.84.35,1.03.21-.41.08-1.18-.35-1.03h0ZM63.62,39.45h0c.09.02.19-.04.21-.13.02-.09-.04-.19-.13-.21-.09-.02-.19.04-.21.13-.02.09.04.19.13.21h0ZM62.88,37.97h0c-.39.22.09.84.53.95.13-.44-.14-1.17-.53-.95h0ZM64.89,38.3h0c.1,0,.18-.07.19-.16,0-.1-.07-.18-.16-.19-.1,0-.18.07-.19.16,0,.1.07.18.16.19h0ZM63.92,36.96h0c-.35.28.22.81.67.86.06-.45-.32-1.14-.67-.86h0ZM54.54,41.48h0c-.08.05-.19.02-.24-.07-.05-.08-.02-.19.07-.24.08-.05.19-.02.24.07.05.08.02.19-.07.24h0ZM54.83,39.85h0c.44.1.15.83-.24,1.06-.25-.38-.2-1.16.24-1.06h0ZM52.9,40.86h0c-.09.03-.19-.02-.22-.11-.03-.09.02-.19.11-.22.09-.03.19.02.22.11.03.09-.02.19-.11.22h0ZM53.52,39.33h0c.41.19-.03.84-.46.99-.16-.43.05-1.18.46-.99h0ZM51.53,39.91h0c-.09.02-.19-.04-.21-.13-.02-.09.04-.19.13-.21.09-.02.19.04.21.13.02.09-.04.19-.13.21h0ZM52.3,38.44h0c.39.23-.11.83-.55.94-.12-.44.16-1.17.55-.94h0ZM50.25,38.74h0c-.1,0-.18-.07-.18-.17,0-.1.07-.18.17-.18.1,0,.18.07.18.17,0,.1-.07.18-.17.18h0ZM51.27,37.43h0c.34.3-.26.8-.71.83-.04-.45.37-1.12.71-.83h0ZM49.23,37.36h0c-.1-.01-.16-.1-.15-.2.01-.1.1-.16.2-.15.1.01.16.1.15.2-.01.1-.1.16-.2.15Z"/>
</svg>