<?xml version="1.0" encoding="UTF-8"?>
<svg id="Layer_1" data-name="Layer 1" xmlns="http://www.w3.org/2000/svg" version="1.1" viewBox="0 0 100 100">
  <defs>
    <style>
      .cls-1 {
        fill: #ae2d31;
      }

      .cls-1, .cls-2, .cls-3, .cls-4 {
        stroke-width: 0px;
      }

      .cls-2 {
        fill: #90c740;
      }

      .cls-2, .cls-3, .cls-4 {
        fill-rule: evenodd;
      }

      .cls-3 {
        fill: #f58220;
      }

      .cls-4 {
        fill: #221f20;
      }
    </style>
  </defs>
  <path class="cls-2" d="M88.07,45.3c4.49,1.3,8.51,4.06,3.75,7.36-3.63,2.51-11.1,4.16-14.03,4.81-11.25,2.49-23.73,3-32.38,2.67-7.47-.27-13.66-1.33-18.31-2.79,3.28.76,6.64,1.33,10.07,1.72,8.1.91,16.49.81,24.63-.09,5.48-.61,13.88-1.87,20.52-3.9,5.75-1.76,13.75-6.07,5.75-9.79"/>
  <path class="cls-3" d="M92.42,50.96c3.49,1.3,6.48,3.02,5.26,4.98-.15.25-.37.5-.66.75-2.83,2.49-9.31,3.86-13.73,4.66-16.95,3.05-41.38,1.85-54.85-3.13,3.39,1.06,7,1.79,10.7,2.33,4.55.65,9.2,1.05,13.86,1.24,6.77.27,13.72.18,20.41-.39,3.74-.32,7.42-.82,10.91-1.61,2.25-.5,4.81-1.16,6.97-2.05,1.95-.81,4.35-2.05,4.14-3.7-.07-.53-.4-1.11-1.07-1.73-.47-.43-1.11-.88-1.93-1.34"/>
  <path class="cls-1" d="M2.04,41.25v-.37c1.6.02,3.22.03,4.85.01.75-.01,1.09-.04,1.82.23,3.83,1.46,1.77,6.85-2.25,6.65v-.33c3.88-.35,3.09-6.69-.9-5.74v10.42c.05.82.61,1.1,1.65.89v.4c-1.59-.06-3.19-.06-4.78,0v-.37c.74.18,1.16-.11,1.25-.84v-10.33c0-.55-.49-.64-.85-.63h-.78Z"/>
  <path class="cls-1" d="M22.13,41.89h3.16v10.57c0,.32-.31.58-.67.61l-.53.06v.31h4.9v-.37l-1.01-.03c-.38-.02-.68-.32-.68-.73v-10.48h2.72c.66.2,1.03.66,1.06,1.44h.33l-.04-2.55c-.17.11-.38.18-.62.22h-8.65c-.35-.03-.62-.14-.86-.27l-.47,2.46.3.04c.15-.66.45-1.15,1.06-1.28"/>
  <path class="cls-1" d="M31.87,51.14l4.12-10.5c.14-.13.28-.11.42,0l4.4,11.27c.32.73.85,1.15,1.7,1.1v.4h-3.81l-.03-.34c-.01-.09.48-.14.36-.59l-1.31-3.39h-3.9l-1.07,2.67c-.36.85-.36,1.49.9,1.31v.37h-3.76v-.38s.78-.01.78-.01c.79-.26.94-1.2,1.22-1.9M34.09,48.35h3.25l-1.54-4.52-1.71,4.52Z"/>
  <path class="cls-1" d="M44.35,40.5l8.86,9.67-.02-8.49c0-.5-.99-.52-1.6-.53v-.34h4.1v.34c-.47.04-1.35.08-1.36.48l-.15,11.7c0,.27-.37.17-.52,0l-8.35-9.04h-.22s.11,8.03.11,8.03c.28.77.86.67,1.62.68v.4h-4.4l.02-.39c.75.08,1.43-.08,1.64-.69l.08-11.54c0-.2.13-.37.19-.3"/>
  <path class="cls-1" d="M75.45,40.92h4.96v.32h-.99c-.28,0-.57.23-.57.62l.04,9.54c0,.45.2,1,.82,1h2.57c.65-.05,1.05-.44,1.22-1.53h.33c-.06.86-.17,1.69-.37,2.45h-7.65v-.35c.57.01.81-.17,1.08-.5v-10.54c.01-.53-.32-.71-.66-.71h-.77v-.29Z"/>
  <path class="cls-1" d="M85.3,40.92h4.59v.32h-.76c-.27,0-.56.23-.56.62l.03,7.51v2.98c.04.35.15.64.61.66h1.07v.42h-4.97v-.35s.76-.02.76-.02c.35,0,.58-.31.58-.78,0-3.46-.05-6.85-.05-10.35,0-.53-.33-.71-.67-.71h-.63v-.29Z"/>
  <path class="cls-1" d="M57.67,40.92h4.79v.32h-.76c-.27,0-.57.23-.56.62l.03,7.51v1.65c0,3.18-.63,4.82-3.47,6.23-.93.46-.72.39-.12-.17,1.75-1.61,1.66-3.46,1.65-5.8,0-3.11-.05-6.19-.05-9.35,0-.53-.33-.71-.67-.71h-.83v-.29Z"/>
  <path class="cls-4" d="M92.53,36.99c.33,0,.66.08.98.25.31.17.56.41.74.72.18.31.27.63.27.97s-.09.66-.26.96c-.18.31-.42.55-.74.72-.31.17-.65.25-.99.25s-.68-.09-.99-.25c-.32-.17-.56-.41-.74-.72-.18-.3-.26-.63-.26-.96s.08-.66.27-.97c.18-.31.43-.55.75-.72.32-.17.65-.25.98-.25M92.53,37.3c-.28,0-.56.07-.82.21-.27.14-.47.34-.63.6-.15.27-.22.53-.22.81s.07.54.22.81c.15.25.35.45.62.59.26.14.54.21.83.21s.56-.07.83-.21c.26-.14.47-.34.61-.59.15-.26.22-.53.22-.81s-.07-.55-.22-.81c-.15-.25-.36-.45-.62-.6-.27-.14-.54-.21-.82-.21ZM91.66,39.99v-2.08h.74c.25,0,.43.02.54.06.11.04.2.11.27.21.06.09.1.19.1.3,0,.15-.06.28-.17.4-.11.11-.26.17-.45.19.08.03.14.07.19.11.08.08.19.22.31.42l.26.4h-.42l-.19-.33c-.15-.25-.27-.42-.37-.48-.06-.04-.15-.07-.27-.07h-.21v.88h-.34ZM92,38.82h.42c.2,0,.34-.03.42-.09.07-.06.11-.14.11-.23,0-.06-.02-.12-.06-.17-.03-.05-.08-.08-.15-.11-.06-.02-.18-.03-.35-.03h-.4v.63Z"/>
  <path class="cls-1" d="M11.64,51.14l4.12-10.5c.14-.13.28-.11.42,0l4.39,11.27c.32.73.86,1.15,1.7,1.1v.4h-3.81l-.04-.34c0-.09.49-.14.37-.59l-1.31-3.39h-3.9l-1.07,2.67c-.36.85-.36,1.49.9,1.31v.37h-3.76v-.38s.78-.01.78-.01c.79-.26.94-1.2,1.22-1.9M13.86,48.35h3.25l-1.54-4.52-1.71,4.52Z"/>
  <path class="cls-1" d="M64.44,51.14l4.12-10.5c.14-.13.28-.11.42,0l4.4,11.27c.32.73.85,1.15,1.7,1.1v.4h-3.82l-.03-.34c-.01-.09.48-.14.36-.59l-1.31-3.39h-3.9l-1.07,2.67c-.37.85-.37,1.49.9,1.31v.37h-3.76v-.38s.78-.01.78-.01c.79-.26.94-1.2,1.21-1.9M66.66,48.35h3.25l-1.54-4.52-1.71,4.52Z"/>
</svg>