<?xml version="1.0" encoding="UTF-8"?>
<svg id="Layer_1" data-name="Layer 1" xmlns="http://www.w3.org/2000/svg" version="1.1" viewBox="0 0 100 100">
  <defs>
    <style>
      .cls-1 {
        fill: #f9a61c;
        fill-rule: evenodd;
        stroke-width: 0px;
      }
    </style>
  </defs>
  <path class="cls-1" d="M16.05,1.63s2.88,7.64,14.31,8.58l38.12.24s11.17-.12,15.47-8.72c0,0-.27,13.12-15.56,13.84l-13.34,23.17-2.88-3.85,11.17-19.21-26.82-.03,15.91,27.58-2.36,4L31.41,15.59s-13.95.44-15.36-13.96"/>
  <polygon class="cls-1" points="43.71 19.43 56.5 19.43 50.15 30.66 43.71 19.43"/>
  <path class="cls-1" d="M51.43,69.01l4.86,9.25v-18.53l-4.86,9.29ZM45.02,60.17v22.02h-1.64v-25.96h1.43l5.75,11.1,6.04-11.1h1.34v25.96h-1.43l-11.48-22.02ZM68.46,68.74v11.8h10.59v1.64h-12.27v-26.04h12.27v1.64h-10.59v9.26h9.06v1.7h-9.06ZM28.16,57.93c-.89,0-1.75.22-2.53.65-1.96,1.07-3.1,3.2-3.1,5.41v10.43c0,2.21,1.14,4.34,3.1,5.41.78.42,1.64.65,2.53.65s1.75-.22,2.53-.65c1.96-1.07,3.1-3.2,3.1-5.41v-10.43c0-2.21-1.14-4.34-3.1-5.41-.78-.42-1.64-.65-2.53-.65ZM28.16,56.34c3.97,0,7.21,3.24,7.21,7.21v11.3c0,3.97-3.24,7.21-7.21,7.21s-7.21-3.24-7.21-7.21v-11.3c0-3.97,3.24-7.21,7.21-7.21Z"/>
  <path class="cls-1" d="M72.54,87.45v5.83h2.29c.44,0,.88-.08,1.3-.23.39-.15.74-.36,1.05-.63.29-.26.53-.57.7-.93.17-.35.25-.73.25-1.12s-.09-.77-.25-1.12c-.17-.36-.41-.67-.7-.93-.31-.27-.67-.48-1.05-.63-.42-.16-.86-.23-1.3-.23h-2.29ZM21.65,93.26h2.26c.44,0,.87-.08,1.28-.23.38-.15.74-.36,1.04-.63.29-.26.53-.57.7-.93.17-.35.25-.73.25-1.12s-.08-.77-.25-1.12c-.17-.35-.4-.67-.7-.93-.31-.27-.66-.48-1.04-.63-.41-.16-.84-.23-1.28-.23h-2.26v5.82ZM46.94,94.85l-2.32-6.62-2.32,6.62h4.63ZM32.38,97.58h4.58v.79h-5.38v-11.71h.8v10.92ZM55.02,93.51v4.86h-.83v-4.83l-3.92-6.85h.95l3.38,5.91,3.38-5.91h.95l-3.9,6.82ZM63.01,92.36v5.22h4.8v.79h-5.61v-11.7h5.61v.79h-4.8v4.09h4.1v.82h-4.1ZM75.78,93.97l-.17.03c-.07.01-.13.02-.2.03-.2.03-.39.04-.59.04h-2.29v4.3h-.8v-11.7h3.09c.54,0,1.08.09,1.59.29.48.18.92.44,1.31.79.37.33.67.73.89,1.18.22.45.33.94.33,1.45s-.12,1.03-.35,1.5c-.23.46-.55.87-.95,1.2-.26.22-.55.4-.85.55l-.23.11,2.6,4.63h-.92l-2.45-4.4ZM21.65,94.04v4.33h-.8v-11.72h3.06c.54,0,1.07.09,1.58.29.47.18.92.45,1.29.79.37.33.67.73.88,1.18.22.45.33.94.33,1.44s-.11.99-.33,1.44c-.21.45-.51.84-.88,1.17-.38.34-.82.61-1.29.79-.5.2-1.04.29-1.58.29h-2.26ZM47.2,95.64h-5.15l-.81,2.73h-.89l3.93-11.71h.7l3.93,11.71h-.89l-.81-2.73Z"/>
</svg>