<?xml version="1.0" encoding="UTF-8"?>
<svg id="Layer_1" data-name="Layer 1" xmlns="http://www.w3.org/2000/svg" version="1.1" viewBox="0 0 100 100">
  <defs>
    <style>
      .cls-1 {
        fill: #8c373e;
        stroke-width: 0px;
      }
    </style>
  </defs>
  <path class="cls-1" d="M50.18,31c-.93-.5-2.11-.33-3.24-.5,0-.18,0-.57,0-.81,0-2.48,0-4.96,0-7.44,0-1.6-.61-2.48-2.06-2.55-.28-.01-.56-.22-.87-.36,3.6,0,7.13,0,10.67,0,1.78,0,3.49.29,5.03,1.23,1.92,1.17,2.78,3.1,2.33,5.27-.35,1.68-1.49,2.73-2.96,3.46-.65.32-1.35.53-2.07.81.04.1.07.23.15.32,2.15,2.79,4.3,5.58,6.44,8.37.47.61.99,1.07,1.81,1.06.11,0,.23.18.34.27-.12.09-.25.25-.37.25-1.13,0-2.26,0-3.38-.09-1.05-.09-1.85-.71-2.47-1.53-1.68-2.2-3.36-4.4-5.04-6.6-1.36-1.79-1.36-1.8-3.63-1.73-.27,0-.33.41-.69.57ZM50.19,24.85c0,1.39.01,2.79,0,4.18,0,.46.14.62.61.61,1.13-.03,2.26.03,3.39-.02,1.87-.1,3.3-.92,4.09-2.68.47-1.04.51-2.15.32-3.26-.41-2.37-1.82-3.54-4.21-3.54-1.2,0-2.39.02-3.59,0-.46,0-.62.13-.61.6.02,1.37,0,2.74,0,4.12Z"/>
  <path class="cls-1" d="M44.47,36.03c-7.45-1.34-9.79-8.23-8.8-12.94.44,6.01,3.09,10.52,8.8,12.94Z"/>
  <path class="cls-1" d="M34.37,29.03c2.25,5.62,6.4,8.41,12.46,8.39-5.1,1.55-11.53-1.46-12.46-8.39Z"/>
  <path class="cls-1" d="M49.42,38.7c-5.74,3.2-12.39.93-14.54-4.44,3.87,4.99,8.86,5.85,14.54,4.44Z"/>
  <path class="cls-1" d="M50.01,37.22c-1.05-.96-2.11-1.91-3.11-2.83.1.62,1.19,1.73,3.17,3.17-2.88-.68-5.59-3.86-5.27-6.28,2.71,1.12,3.93,3.55,5.22,5.94Z"/>
  <path class="cls-1" d="M49,32.09c2.43.37,4.12,3.44,4.37,6.74-.53-1.49-1.14-2.92-2.31-4.26.72,1.51,1.37,2.86,2.02,4.22-2.77-2.65-4.24-5.15-4.08-6.7Z"/>
  <path class="cls-1" d="M44.68,35.02c-.73-.66-1.46-1.33-2.19-1.99-.04.04-.08.08-.12.12.7.7,1.41,1.41,2.05,2.05-1.94-.54-3.71-2.72-3.52-4.52,1.97.83,2.92,2.54,3.79,4.34Z"/>
  <g>
    <path class="cls-1" d="M49.92,64.01c.31,0,.53.09.68.28.15.19.22.41.22.68,0,.31-.09.59-.27.83-.18.25-.4.45-.67.61-.33.21-.77.38-1.29.49-.53.11-1.15.17-1.87.17s-1.49-.05-2.21-.15c-.73-.1-1.44-.2-2.14-.3-.7-.1-1.39-.15-2.07-.15-.41,0-.84.02-1.27.06-.43.04-.76.13-.97.28.11.13.19.31.26.53.07.22.1.43.1.63,0,.27-.08.53-.24.78-.16.25-.41.38-.76.38-.29,0-.51-.09-.66-.28-.15-.19-.22-.43-.22-.72,0-.27.07-.54.22-.83.15-.29.43-.53.84-.73.31-.15.64-.25.99-.32.35-.07.69-.11,1-.12.31-.01.54-.02.69-.02.8,0,1.56.05,2.26.14.71.09,1.41.19,2.11.28.7.09,1.44.14,2.21.14.61,0,1.13-.04,1.55-.11.42-.07.8-.2,1.13-.39l-.02.14c-.13-.13-.26-.3-.39-.51-.13-.21-.19-.44-.19-.69,0-.27.08-.52.24-.75.16-.23.41-.35.74-.35ZM42.91,66.53c.24.03.45.05.63.08.18.03.36.05.54.08.18.03.39.05.63.08l-3,11.28c-.21.78-.23,1.28-.04,1.52.19.24.7.37,1.54.4l-.08.4c-.35-.03-.79-.04-1.32-.05-.53,0-1.09,0-1.66,0s-1.13,0-1.65,0c-.53,0-.95.02-1.27.05l.08-.4c.56-.03,1-.1,1.31-.21.31-.11.56-.31.74-.58.18-.27.34-.65.49-1.13l3.07-11.52Z"/>
    <path class="cls-1" d="M47.01,75.83c.75-.25,1.43-.5,2.03-.75.61-.25,1.09-.51,1.45-.79.48-.39.86-.85,1.14-1.4.28-.55.42-1.15.42-1.8,0-.39-.03-.64-.08-.74-.05-.11-.13-.16-.24-.16-.41,0-.87.22-1.36.67-.49.45-.96,1.05-1.4,1.8-.44.75-.81,1.59-1.09,2.49-.29.91-.43,1.82-.43,2.74,0,.68.13,1.17.38,1.47.25.3.59.45,1,.45.48,0,.99-.15,1.52-.44.53-.29,1.05-.81,1.56-1.56l.32.16c-.25.44-.59.87-1,1.28-.41.41-.88.75-1.39,1.01-.51.26-1.06.39-1.63.39-.81,0-1.46-.24-1.93-.71-.47-.48-.71-1.18-.71-2.11,0-.57.11-1.22.32-1.93.21-.71.52-1.43.91-2.14.39-.71.86-1.37,1.41-1.97.55-.6,1.16-1.08,1.82-1.44.67-.36,1.38-.54,2.14-.54.41,0,.76.11,1.05.33.29.22.43.55.43.99,0,.53-.16,1.03-.47,1.49-.31.46-.73.88-1.24,1.26-.51.38-1.07.72-1.67,1.01-.6.29-1.19.55-1.76.76-.57.21-1.08.39-1.52.52l.02-.34Z"/>
    <path class="cls-1" d="M56.57,80.01c.32,0,.69-.2,1.1-.61.41-.41.83-.96,1.26-1.65.43-.69.82-1.48,1.18-2.36.36-.88.65-1.8.86-2.74l-.34,2.16c-.76,2.14-1.53,3.65-2.29,4.53-.77.88-1.55,1.32-2.35,1.32-.63,0-1.1-.23-1.41-.68s-.47-1.03-.47-1.74c0-.64.11-1.34.32-2.09.21-.75.51-1.51.89-2.25.38-.75.82-1.43,1.31-2.04.49-.61,1.03-1.11,1.61-1.48.58-.37,1.17-.56,1.77-.56.47,0,.83.23,1.07.69.25.46.3,1.11.15,1.93l-.22.12c.09-.71.05-1.28-.14-1.71-.19-.43-.49-.65-.92-.65s-.9.26-1.37.78c-.47.52-.92,1.2-1.33,2.03-.41.84-.75,1.74-1,2.7-.25.97-.38,1.89-.38,2.78,0,.57.06.97.19,1.2.13.23.3.34.51.34ZM61.61,70.08c.32-.01.64-.04.96-.08.32-.04.61-.11.88-.2l-2.5,8.85c-.03.12-.06.28-.11.47-.05.19-.05.37,0,.53.05.16.18.24.41.24.27,0,.53-.15.78-.44.25-.29.51-.83.76-1.6l.24-.74h.38l-.5,1.46c-.29.8-.65,1.35-1.08,1.64-.43.29-.83.44-1.22.44-.52,0-.89-.17-1.1-.52-.17-.31-.22-.66-.14-1.07.08-.41.17-.82.28-1.23l1.96-7.75Z"/>
    <g>
      <rect class="cls-1" x=".95" y="66.13" width="28.9" height=".89"/>
      <rect class="cls-1" x="70.21" y="66.13" width="28.9" height=".89"/>
    </g>
    <path class="cls-1" d="M.89,61.54v-15.91h6.81c.7,0,1.35.15,1.94.44.59.29,1.1.68,1.52,1.17.43.49.76,1.03,1,1.64.24.61.36,1.22.36,1.85,0,.55-.08,1.09-.24,1.6-.16.52-.38.98-.67,1.4-.29.42-.64.78-1.05,1.08-.41.3-.87.52-1.38.65l3.86,6.1h-2.29l-3.63-5.72H2.91v5.72H.89ZM2.91,54.04h4.82c.42,0,.8-.09,1.13-.27.34-.18.62-.42.86-.73.24-.31.43-.66.56-1.06.13-.4.2-.82.2-1.26s-.08-.87-.24-1.27c-.16-.4-.37-.75-.63-1.05-.26-.31-.57-.55-.92-.72-.35-.17-.72-.26-1.11-.26H2.91v6.61Z"/>
    <path class="cls-1" d="M22.16,59.84c.93,0,1.7-.18,2.31-.54.61-.36,1.1-.83,1.47-1.4.37-.58.62-1.23.77-1.97.15-.74.22-1.49.22-2.25v-8.05h2.02v8.05c0,1.08-.12,2.1-.37,3.06-.25.96-.64,1.81-1.18,2.54-.54.73-1.24,1.31-2.1,1.74-.86.43-1.9.64-3.13.64s-2.34-.22-3.2-.67c-.87-.45-1.57-1.04-2.1-1.78-.53-.74-.91-1.59-1.14-2.56-.23-.96-.35-1.95-.35-2.97v-8.05h2.02v8.05c0,.79.08,1.56.24,2.3.16.74.42,1.39.78,1.96.37.57.85,1.03,1.46,1.38.61.35,1.36.53,2.28.53Z"/>
    <path class="cls-1" d="M43.77,59.39c-1.41,1.51-3.02,2.26-4.84,2.26-1.06,0-2.04-.23-2.95-.69-.9-.46-1.68-1.07-2.34-1.83-.66-.75-1.18-1.62-1.56-2.59-.38-.97-.57-1.97-.57-3s.19-2.1.56-3.06c.37-.96.89-1.81,1.55-2.55.66-.74,1.44-1.33,2.35-1.76.91-.43,1.9-.65,2.96-.65,1.54,0,2.81.32,3.8.96.99.64,1.75,1.48,2.28,2.51l-1.55,1.08c-.48-.93-1.11-1.61-1.91-2.06-.79-.45-1.68-.67-2.67-.67-.81,0-1.54.18-2.2.53-.66.35-1.22.82-1.68,1.39-.46.58-.82,1.24-1.08,1.99-.25.75-.38,1.54-.38,2.34,0,.85.14,1.66.43,2.41.28.75.67,1.42,1.16,2,.49.58,1.08,1.03,1.75,1.36.67.33,1.4.49,2.2.49,1.73,0,3.29-.84,4.68-2.51v-2.2h-3.43v-1.52h5.13v7.93h-1.7v-2.15Z"/>
    <path class="cls-1" d="M62.3,61.54v-12.3l-5.29,9.44h-1.14l-5.31-9.44v12.3h-2.02v-15.91h2.13l5.76,10.33,5.78-10.33h2.11v15.91h-2.02Z"/>
    <path class="cls-1" d="M72.97,45.63h1.7l6.5,15.91h-2.15l-1.88-4.66h-6.68l-1.86,4.66h-2.15l6.52-15.91ZM76.69,55.31l-2.87-7.35-2.96,7.35h5.83Z"/>
    <path class="cls-1" d="M97.07,61.54v-12.3l-5.29,9.44h-1.14l-5.31-9.44v12.3h-2.02v-15.91h2.13l5.76,10.33,5.78-10.33h2.11v15.91h-2.02Z"/>
  </g>
</svg>