<?xml version="1.0" encoding="UTF-8"?>
<svg id="Layer_1" data-name="Layer 1" xmlns="http://www.w3.org/2000/svg" version="1.1" xmlns:xlink="http://www.w3.org/1999/xlink" viewBox="0 0 100 100">
  <defs>
    <style>
      .cls-1, .cls-2, .cls-3, .cls-4, .cls-5, .cls-6, .cls-7, .cls-8, .cls-9, .cls-10, .cls-11, .cls-12, .cls-13 {
        stroke-width: 0px;
      }

      .cls-1, .cls-4, .cls-8, .cls-11 {
        fill-rule: evenodd;
      }

      .cls-1, .cls-9 {
        fill: #e01e26;
      }

      .cls-2 {
        fill: url(#linear-gradient);
      }

      .cls-14 {
        clip-path: url(#clippath-2);
      }

      .cls-3 {
        fill: url(#linear-gradient-5);
      }

      .cls-4 {
        fill: #e65525;
      }

      .cls-5, .cls-6 {
        fill: none;
      }

      .cls-15 {
        clip-path: url(#clippath-1);
      }

      .cls-16 {
        clip-path: url(#clippath-4);
      }

      .cls-6 {
        clip-rule: evenodd;
      }

      .cls-7 {
        fill: url(#linear-gradient-2);
      }

      .cls-8 {
        fill: #23418e;
      }

      .cls-10 {
        fill: url(#linear-gradient-3);
      }

      .cls-17 {
        clip-path: url(#clippath);
      }

      .cls-18 {
        clip-path: url(#clippath-3);
      }

      .cls-11 {
        fill: #389d47;
      }

      .cls-12 {
        fill: url(#linear-gradient-4);
      }

      .cls-13 {
        fill: #606161;
      }
    </style>
    <clipPath id="clippath">
      <path class="cls-5" d="M64.4,49.27c-2.51.52-5.07,1.6-7.65,3.17-.09.05-.19-.05-.13-.13l4.85-7.32c.04-.07.14-.07.18,0l2.8,4.14c.04.06,0,.13-.06.15"/>
    </clipPath>
    <linearGradient id="linear-gradient" x1="65.8" y1="41.67" x2="53.53" y2="58.05" gradientUnits="userSpaceOnUse">
      <stop offset="0" stop-color="#fac212"/>
      <stop offset=".15" stop-color="#fac212"/>
      <stop offset=".5" stop-color="#e01e26"/>
      <stop offset=".63" stop-color="#e01e26"/>
      <stop offset="1" stop-color="#e01e26"/>
    </linearGradient>
    <clipPath id="clippath-1">
      <path class="cls-6" d="M24.23,45.89c-.29-1.22-1.38-1.75-2.79-1.74.68.5,1.1,1.02,1.11,1.93-.08,1.35,1.98,1.31,1.68-.18"/>
    </clipPath>
    <linearGradient id="linear-gradient-2" x1="19.47" y1="40.53" x2="27.97" y2="53.23" xlink:href="#linear-gradient"/>
    <clipPath id="clippath-2">
      <path class="cls-6" d="M15.71,45.7c-3.6,1.89-2.95,6.15.69,8.53,2.37,1.12,6.06.72,8.49,1.55-2.73-1.93-7.29-.77-9.14-4.06-1.9-3.67,3.01-6.83,4.78-2.45.71-2.82-1.86-4.69-4.82-3.57"/>
    </clipPath>
    <linearGradient id="linear-gradient-3" x1="47.78" y1="22.88" x2="-13.18" y2="79.71" gradientUnits="userSpaceOnUse">
      <stop offset="0" stop-color="#fac212"/>
      <stop offset=".6" stop-color="#e01e26"/>
      <stop offset="1" stop-color="#e01e26"/>
    </linearGradient>
    <clipPath id="clippath-3">
      <path class="cls-6" d="M16.4,54.23c-3.51-2.62-4.11-6.53-.51-8.43,2.96-1.12,5.19.96,4.63,3.46,1.1-2.34.56-4.39-1.49-5.68,1.8-.59,1.54-2.87-.43-3.18-6.52-1.13-10.99,2.56-11,7.94.18,4.16,3.22,6.52,7.5,6.92-7.84-1.9-6.55-12.24.68-11.77-4.91,1.2-6.2,8.6.6,10.72"/>
    </clipPath>
    <linearGradient id="linear-gradient-4" x1="22.56" y1="36.96" x2="-3.07" y2="69.61" xlink:href="#linear-gradient-3"/>
    <clipPath id="clippath-4">
      <path class="cls-6" d="M24.58,55.67c-2.29-.98-5.47-.69-8.22-1.44-6.64-2.58-4.54-9.07-.73-10.75-7-.38-8.39,9.98-.5,11.82,2.31.35,6.24-.39,9.44.37"/>
    </clipPath>
    <linearGradient id="linear-gradient-5" x1="49.58" y1="17.99" x2="-19.74" y2="82.62" xlink:href="#linear-gradient-3"/>
  </defs>
  <path class="cls-13" d="M93.49,58.25c-.41,0-.61.23-.61.56v.25c0,.38.21.59.6.59h1.28c.12,0,.18.07.18.19v.14c0,.12-.05.19-.18.19h-1.8c-.05,0-.08.02-.08.08v.33c0,.05.03.08.08.08h1.9c.41,0,.61-.23.61-.56v-.27c0-.38-.21-.59-.6-.59h-1.28c-.12,0-.18-.07-.18-.19v-.12c0-.12.05-.19.18-.19h1.72c.05,0,.08-.02.08-.08v-.33c0-.05-.02-.08-.08-.08h-1.82ZM89.87,58.25c-.05,0-.08.02-.08.08v.34c0,.05.03.08.08.08h1.08v1.83c0,.05.02.08.08.08h.37c.05,0,.08-.02.08-.08v-1.83h1.08c.05,0,.08-.03.08-.08v-.34c0-.05-.03-.08-.08-.08h-2.67ZM86.89,58.25c-.21,0-.31.08-.31.36v1.97c0,.05.03.08.08.08h.36c.05,0,.08-.02.08-.08v-1.79s0-.03.03-.03h.03s.03,0,.04.02l1.28,1.67c.14.18.19.2.4.2h.29c.21,0,.31-.08.31-.36v-1.97c0-.05-.02-.08-.08-.08h-.36c-.05,0-.08.02-.08.08v1.79s-.01.03-.03.03h-.03s-.03,0-.04-.02l-1.27-1.67c-.13-.17-.18-.2-.4-.2h-.3ZM84.64,58.76s.02-.02.04-.02h.02s.03,0,.04.02l.54,1h-1.18l.54-1ZM84.57,58.25c-.14,0-.25.05-.36.26l-1.12,2.06s-.01.08.04.08h.45s.06-.01.08-.04l.24-.44h1.61l.24.44s.03.04.08.04h.43c.05,0,.07-.03.04-.08l-1.13-2.06c-.11-.21-.22-.26-.39-.26h-.2ZM81.26,58.25c-.69,0-.96.25-.96.9v.59c0,.66.27.9.96.9h1.54c.05,0,.08-.02.08-.08v-.34c0-.05-.02-.08-.08-.08h-1.52c-.35,0-.46-.11-.46-.47v-.49c0-.36.1-.47.46-.47h1.52c.05,0,.08-.03.08-.08v-.34c0-.05-.02-.08-.08-.08h-1.54ZM79.43,58.25c-.05,0-.08.02-.08.08v2.25c0,.05.03.08.08.08h.37c.05,0,.08-.02.08-.08v-2.25c0-.05-.02-.08-.08-.08h-.37ZM76.77,58.76s.01-.04.04-.04h1.27c.23,0,.32.1.32.3v.14c0,.21-.09.3-.32.3h-1.31v-.71ZM76.35,58.25c-.07,0-.1.03-.1.1v2.22c0,.05.03.08.08.08h.37c.05,0,.08-.02.08-.08v-.68h1.11l.54.71s.04.04.1.04h.44c.06,0,.07-.06.04-.09l-.59-.73c.36-.07.51-.29.51-.68v-.2c0-.46-.21-.71-.74-.71h-1.84ZM73.63,58.77s.01-.04.04-.04h1.4c.18,0,.25.07.25.21v.12c0,.13-.07.2-.29.2h-1.4v-.48ZM75.03,59.62c.23,0,.3.08.3.22v.13c0,.14-.07.21-.25.21h-1.4s-.04-.01-.04-.04v-.51h1.4ZM73.2,58.25c-.07,0-.1.03-.1.1v2.19c0,.07.03.1.1.1h2.03c.46,0,.61-.23.61-.59v-.2c0-.2-.08-.35-.24-.44.14-.1.22-.24.22-.43v-.16c0-.38-.18-.57-.65-.57h-1.97ZM69.83,58.25c-.05,0-.08.02-.08.08v1.42c0,.66.27.9.96.9h.99c.7,0,.96-.25.96-.9v-1.42c0-.05-.02-.08-.08-.08h-.37c-.05,0-.08.02-.08.08v1.37c0,.36-.1.47-.45.47h-.95c-.35,0-.46-.11-.46-.47v-1.37c0-.05-.02-.08-.08-.08h-.37ZM67.13,58.25c-.05,0-.08.02-.08.08v1.42c0,.66.27.9.96.9h1.41c.05,0,.08-.02.08-.08v-.34c0-.05-.02-.08-.08-.08h-1.39c-.35,0-.46-.11-.46-.47v-1.37c0-.05-.02-.08-.08-.08h-.37ZM63.99,58.25c-.69,0-.96.25-.96.9v1.42c0,.05.03.08.08.08h.37c.05,0,.08-.02.08-.08v-.89h1.92c.05,0,.08-.02.08-.08v-.27c0-.05-.02-.08-.08-.08h-1.92v-.07c0-.36.1-.47.46-.47h1.49c.05,0,.08-.02.08-.08v-.33c0-.05-.03-.08-.08-.08h-1.51ZM60.18,59.19c0-.36.1-.47.46-.47h1.02c.35,0,.46.11.46.47v.51c0,.36-.1.47-.46.47h-1.02c-.35,0-.46-.11-.46-.47v-.51ZM60.61,58.25c-.69,0-.96.25-.96.9v.59c0,.66.27.9.96.9h1.06c.7,0,.96-.25.96-.9v-.59c0-.66-.26-.9-.96-.9h-1.06ZM55.49,58.25c-.21,0-.31.08-.31.36v1.97c0,.05.03.08.08.08h.36c.05,0,.08-.02.08-.08v-1.79s0-.03.03-.03h.03s.03,0,.04.02l1.28,1.67c.14.18.19.2.4.2h.29c.21,0,.31-.08.31-.36v-1.97c0-.05-.02-.08-.08-.08h-.36c-.05,0-.08.02-.08.08v1.79s-.01.03-.03.03h-.03s-.03,0-.04-.02l-1.27-1.67c-.13-.17-.18-.2-.4-.2h-.3ZM53.24,58.76s.02-.02.04-.02h.02s.03,0,.04.02l.54,1h-1.18l.54-1ZM53.17,58.25c-.14,0-.25.05-.36.26l-1.12,2.06s-.01.08.04.08h.45s.06-.01.08-.04l.24-.44h1.61l.24.44s.03.04.08.04h.43c.05,0,.07-.03.04-.08l-1.13-2.06c-.11-.21-.22-.26-.39-.26h-.2ZM49.87,58.25c-.69,0-.96.25-.96.9v.59c0,.66.27.9.96.9h1.51c.05,0,.08-.02.08-.08v-.33c0-.05-.03-.08-.08-.08h-1.5c-.36,0-.46-.11-.46-.47v-.06h1.94c.05,0,.08-.02.08-.08v-.27c0-.05-.02-.08-.08-.08h-1.94v-.03c0-.36.1-.47.46-.47h1.5c.05,0,.08-.02.08-.08v-.33c0-.05-.03-.08-.08-.08h-1.51ZM46.95,58.25c-.69,0-.96.25-.96.9v.59c0,.66.27.9.96.9h1.54c.05,0,.08-.02.08-.08v-.34c0-.05-.02-.08-.08-.08h-1.52c-.35,0-.46-.11-.46-.47v-.49c0-.36.1-.47.46-.47h1.52c.05,0,.08-.03.08-.08v-.34c0-.05-.02-.08-.08-.08h-1.54ZM43.14,59.19c0-.36.1-.47.46-.47h1.02c.35,0,.46.11.46.47v.51c0,.36-.1.47-.46.47h-1.02c-.35,0-.46-.11-.46-.47v-.51ZM43.58,58.25c-.69,0-.96.25-.96.9v.59c0,.66.27.9.96.9h1.06c.7,0,.96-.25.96-.9v-.59c0-.66-.26-.9-.96-.9h-1.06Z"/>
  <path class="cls-9" d="M39.71,45.19c.22,0,.33.1.33.33v1.42c0,.22-.1.33-.33.33h-7.47c-.57,0-.79.31-.79.83v.51c0,.55.25.83.77.83h5.59c1.71,0,2.61.92,2.61,2.56v1.19c0,1.45-.83,2.43-2.64,2.43h-8.26c-.22,0-.34-.1-.34-.33v-1.42c0-.22.12-.33.34-.33h7.82c.57,0,.79-.31.79-.83v-.61c0-.55-.25-.83-.77-.83h-5.59c-1.71,0-2.61-.92-2.61-2.56v-1.09c0-1.45.83-2.43,2.64-2.43h7.9Z"/>
  <path class="cls-9" d="M72.23,51.53h0c0,1.56.45,2.03,1.98,2.03h4.43c1.53,0,1.98-.46,1.98-2.03v-2.24c0-1.56-.45-2.03-1.98-2.03h-4.43c-1.53,0-1.98.46-1.98,2.03v2.24ZM78.72,45.19c3.02,0,4.17,1.07,4.17,3.93v2.56c0,2.86-1.15,3.93-4.17,3.93h-4.6c-3.01,0-4.17-1.07-4.17-3.93v-2.56c0-2.86,1.16-3.93,4.17-3.93h4.6Z"/>
  <path class="cls-9" d="M86.51,45.19c.22,0,.33.1.33.33v5.95c0,1.58.45,2.04,1.98,2.04h6.04c.22,0,.33.1.33.33v1.46c0,.22-.1.33-.33.33h-6.12c-3.01,0-4.17-1.07-4.17-3.93v-6.17c0-.22.12-.33.34-.33h1.61Z"/>
  <g class="cls-17">
    <rect class="cls-2" x="56.57" y="44.91" width="7.93" height="7.57"/>
  </g>
  <path class="cls-1" d="M68.51,55.62h-13.58c-.18,0-.26-.22-.12-.33,3.28-2.85,6.6-4.81,9.95-5.74,1.27-.36,2.55-.56,3.83-.61,0,0,0,0,0,0-1.15.34-2.27.78-3.32,1.36-.51.28-1.01.59-1.5.94-.41.28-.8.6-1.18.93,1.31-.51,2.1-.8,3.2-.93.07,0,.14.02.17.08l.48.71h0s2.23,3.3,2.23,3.3c.09.13,0,.3-.16.3"/>
  <path class="cls-9" d="M53.16,46.94v-1.42c0-.22-.12-.33-.34-.33h-6.56c-3.01,0-4.17,1.07-4.17,3.93v2.56c0,2.86,1.16,3.93,4.17,3.93h6.56c.22,0,.34-.1.34-.33v-1.42c0-.22-.12-.33-.34-.33h-6.51c-1.55,0-1.98-.46-1.98-2.03v-2.09s0,0,0,0v-.15c0-1.56.43-2.03,1.98-2.03h6.51c.22,0,.34-.1.34-.33"/>
  <path class="cls-9" d="M52.72,51.27c.24,0,.36-.1.36-.33v-1.18c0-.22-.11-.33-.36-.33h-7.21v1.83h7.21Z"/>
  <path class="cls-8" d="M13.24,60.95c-3.8.7-6.88.31-8.98-1.56,3.28,1.2,5.87,1.1,8.95-.02,5.17-2.15,14.12-1.46,14.81,1,.6,2.03-3.68,2.09-7.52.64-2.45-.86-4.35-.58-7.26-.06"/>
  <path class="cls-1" d="M13.46,58.27c12.05-5.34,14.31,1.07,20.46.16-4.03,4.25-10.98-3.75-20.46-.16"/>
  <path class="cls-8" d="M4.71,48.55c-1.86,7.82,6.08,10.83,11.74,7.94-5.97,1.59-12.12-1.96-11.74-7.94"/>
  <g class="cls-15">
    <rect class="cls-7" x="21.44" y="44.15" width="3.1" height="3.27"/>
  </g>
  <path class="cls-11" d="M22.35,52.21c.29,1.35,1.45,1.99,3.1,2.33-1.56-1.33-1.78-2.48-.65-3.05-.21-1.61-2.71-1.14-2.45.72"/>
  <path class="cls-4" d="M7.86,48.36c0-5.39,4.24-9.07,10.76-7.94-.96-3.73-8.86-3.13-11.71,1.73-1.95,2.89-2.73,7.81,1.49,11.79,5.25,4.37,10.47.37,16.49,1.84-2.36-1-5.65-.76-8.49-1.55-6.83-2.66-4.57-9.09-.6-10.72-7.24-.48-8.82,9.82-.68,11.77-4.26-.57-7.08-2.76-7.27-6.92"/>
  <path class="cls-1" d="M7.86,48.36c0-5.39,4.24-9.07,10.76-7.94-.96-3.73-8.86-3.13-11.71,1.73-1.95,2.89-2.73,7.81,1.49,11.79,5.25,4.37,10.47.37,16.49,1.84-3.19-1.3-6.21-.39-9.77-.5-4.26-.57-7.08-2.76-7.27-6.92"/>
  <g class="cls-14">
    <rect class="cls-10" x="12.11" y="44.58" width="12.78" height="11.2"/>
  </g>
  <g class="cls-18">
    <rect class="cls-12" x="7.28" y="39.29" width="14.35" height="15.99"/>
  </g>
  <g class="cls-16">
    <rect class="cls-3" x="7.24" y="43.1" width="17.34" height="12.58"/>
  </g>
  <path class="cls-13" d="M93.5,45.76h0v-1.2h-.48v-.16h1.14v.16h-.48v1.2h-.19ZM94.36,45.76v-1.36h.29l.34.96c.03.09.05.16.07.2.02-.05.04-.12.08-.22l.35-.94h.26v1.36h-.18v-1.14l-.42,1.14h-.17l-.42-1.16v1.16h-.18Z"/>
</svg>