<?xml version="1.0" encoding="UTF-8"?>
<svg id="Layer_1" data-name="Layer 1" xmlns="http://www.w3.org/2000/svg" version="1.1" viewBox="0 0 100 100">
  <defs>
    <style>
      .cls-1 {
        fill: #231f20;
      }

      .cls-1, .cls-2, .cls-3 {
        stroke-width: 0px;
      }

      .cls-2 {
        fill: #2c5629;
      }

      .cls-3 {
        fill: #f8bd27;
      }
    </style>
  </defs>
  <g>
    <path class="cls-3" d="M48.36,48.77c.15-.29.29-.59.44-.9.49-1.03,1.93-1.03,2.41,0,.14.3.29.6.44.9,2.33,4.6,5.3,7.84,8.24,10.11.37-2.68-.2-5.57-1.69-7.81-2.7-4.07-5.41-9.35-7.25-13.16-1.9,3.88-4.72,9.41-7.28,13.38-1.14,1.77-1.72,3.95-1.78,6.09,2.34-2.14,4.61-4.93,6.47-8.61"/>
    <path class="cls-3" d="M50.72,26.31c1.74-2.73,3.69-4.93,5.68-6.7-.7-2.77-2.23-6.34-5.53-9.92-3.32,3.45-4.93,6.93-5.69,9.65,1.97,1.85,3.87,4.14,5.55,6.96"/>
    <path class="cls-3" d="M48.35,30.69c-1.54-3.03-3.37-5.47-5.29-7.43-.89-.91-1.81-1.73-2.72-2.45-3.21-2.53-6.4-3.93-8.71-4.68-.19,5.3.75,9.5,2.19,12.82.03.06,1.22,2.63,2.31,4.15,1.71,2.38,3.56,4.07,5.09,5.17.32.23.63.44.91.62.83.53.81,1.72-.02,2.25-.29.18-.6.39-.92.62-1.55,1.1-3.43,2.77-5.12,5.19-.6.85-1.17,1.8-1.69,2.85-1.69,3.38-2.86,7.82-2.74,13.56,1.6-.51,3.61-1.32,5.77-2.61.01,0,.02-.02.04-.02-.15-.42-.28-1.37-.28-1.37-.42-3.36.32-7.02,2.18-9.91,3.09-4.81,6.71-12.2,8.38-15.72.58-1.22.93-1.98.94-2l.09-.21c-.13-.28-.26-.55-.4-.82"/>
    <path class="cls-3" d="M35.69,38.78c-1.58-1.41-3.26-3.25-4.74-5.64-2.89.59-6.89,2.1-10.89,5.83,3.8,3.56,7.62,5.08,10.4,5.71,1.56-2.41,3.57-4.5,5.23-5.9"/>
    <path class="cls-3" d="M50.01,51.96c-2.31,3.97-5.07,6.91-7.83,9.09,1.61,2.59,4.45,3.99,8.29,4.03,3.43-.16,6.05-1.49,7.65-3.81-2.86-2.2-5.73-5.2-8.12-9.31"/>
    <path class="cls-2" d="M68,50.68c1.5,3.4,2.49,7.72,2.27,13.21-1.69-.39-4.56-1.27-7.71-3.17.91-3.76.25-8.07-1.89-11.29-3.35-5.04-6.81-12.25-8.41-15.7-.56-1.21-.89-1.96-.9-1.99l-.11-.26c.13-.27.25-.54.39-.8,1.55-3.06,3.38-5.52,5.3-7.49.89-.92,1.8-1.73,2.71-2.45-.15-.94-.39-2.01-.75-3.15-1.11-3.55-3.38-7.9-8-12.03l-.91-.81-.91.81c-4.62,4.13-6.89,8.49-8,12.03-6.23-4.49-12.17-5.22-12.59-5.26l-1.52-.17-.12,1.52c-.52,6.47.48,11.6,2.15,15.63,1.08-.25,2.08-.42,2.99-.54-1.5-3.39-2.49-7.72-2.28-13.2,2.19.53,6.39,1.89,10.61,5.22.91.72,1.83,1.53,2.72,2.45,1.92,1.96,3.75,4.41,5.29,7.43.14.27.27.54.4.82l-.09.21s-.36.79-.94,2c-1.67,3.52-5.29,10.91-8.38,15.72-1.86,2.89-2.6,6.54-2.18,9.91.95-.59,1.91-1.24,2.88-1.97.02-2.22.61-4.49,1.79-6.33,2.98-4.63,6.32-11.36,8.15-15.18,1.76,3.76,4.99,10.35,8.22,15.2,1.49,2.24,2.05,5.13,1.69,7.81-2.94-2.28-5.91-5.51-8.24-10.11-.15-.29-.29-.59-.44-.9-.49-1.03-1.93-1.03-2.41,0-.14.3-.29.6-.44.9-2.33,4.61-5.31,7.85-8.25,10.12-.91.71-1.82,1.32-2.71,1.85-3.14,1.88-5.99,2.75-7.66,3.14-.25-6.12.97-10.79,2.74-14.33.53-1.05,1.1-2.01,1.7-2.86,1.7-2.43,3.59-4.11,5.15-5.21.33-.23.64-.44.93-.62.83-.53.85-1.73.02-2.26-.29-.18-.59-.39-.92-.62-1.54-1.11-3.42-2.79-5.12-5.2-.61-.86-1.19-1.81-1.72-2.87-.87.09-1.9.25-3.04.53-3.76.92-8.74,3.14-13.44,8.39l-.81.91.81.91c4.7,5.25,9.69,7.48,13.45,8.4-1.95,4.19-3.19,9.66-2.62,16.73l.12,1.52,1.52-.17c.35-.04,4.74-.58,9.9-3.53.03.05.05.11.08.16,2.08,3.91,6.16,6.14,11.58,6.27,4.83-.15,8.63-2.08,10.84-5.45-.82-.49-1.66-1.02-2.51-1.61-1.69,2.56-4.56,3.98-8.35,4.1-4.28-.1-7.37-1.72-8.95-4.69-.07-.12-.11-.26-.17-.39,3.16-2.24,6.4-5.45,9.06-10.01,2.64,4.53,5.85,7.72,8.99,9.96.85.61,1.7,1.15,2.52,1.62,5.19,2.99,9.61,3.54,9.97,3.57l1.52.17.12-1.52c.52-6.47-.48-11.59-2.15-15.63-1.08.25-2.08.43-2.99.54M43.6,19.62c.75-3,2.49-6.95,6.4-10.82,3.91,3.87,5.64,7.81,6.4,10.81-2.27,2.02-4.49,4.6-6.4,7.89-1.91-3.28-4.12-5.86-6.39-7.88ZM19.27,39.73c4.25-4.3,8.6-5.96,11.68-6.59,1.84,2.97,3.99,5.11,5.87,6.6-1.88,1.48-4.03,3.63-5.86,6.59-3.08-.63-7.43-2.3-11.69-6.6Z"/>
    <path class="cls-2" d="M70.5,30.43c1.96-4.19,3.19-9.67,2.62-16.73l-.12-1.52-1.52.17c-.39.04-5.73.71-11.59,4.58.33,1.1.58,2.13.77,3.09,3.87-2.78,7.58-3.97,9.6-4.44.25,6.12-.97,10.8-2.74,14.33-.53,1.05-1.1,2.01-1.7,2.87-1.7,2.42-3.59,4.1-5.14,5.21-.33.23-.64.44-.93.62-.83.53-.85,1.73-.02,2.26.29.18.59.39.92.62,1.54,1.11,3.42,2.79,5.12,5.2.61.86,1.19,1.81,1.72,2.87.87-.09,1.9-.25,3.03-.53,3.76-.92,8.74-3.14,13.44-8.39l.81-.91-.81-.91c-4.7-5.25-9.69-7.48-13.45-8.4M69.05,46.32c-1.84-2.97-3.99-5.12-5.87-6.6,1.88-1.48,4.02-3.63,5.86-6.59,3.08.63,7.43,2.3,11.69,6.6-4.25,4.29-8.6,5.96-11.68,6.59Z"/>
    <path class="cls-3" d="M69.05,46.32c2.93-.6,7.01-2.14,11.06-5.99-3.8-3.56-7.62-5.07-10.41-5.7-1.71,2.64-3.66,4.6-5.42,6.02,1.59,1.41,3.28,3.27,4.77,5.67"/>
    <path class="cls-3" d="M68,50.68l-.52-1.12c-.53-1.05-1.11-2.01-1.72-2.87-1.7-2.41-3.58-4.09-5.12-5.2-.32-.23-.63-.44-.92-.62-.83-.53-.82-1.73.02-2.26.29-.18.6-.39.93-.62,1.56-1.11,3.45-2.78,5.14-5.21.6-.86,1.18-1.81,1.7-2.87,1.72-3.43,2.92-7.94,2.76-13.78-2.01.65-4.69,1.8-7.46,3.75-.06.05-1.31.96-1.36,1-.86.69-1.71,1.46-2.56,2.32-1.92,1.97-3.75,4.43-5.3,7.49-.13.26-.26.53-.39.8,0,0,.46,1.03,1.01,2.24,1.59,3.45,5.06,10.66,8.41,15.7,2.14,3.22,2.8,7.53,1.89,11.29,2.15,1.29,4.16,2.11,5.76,2.62.13-5.22-.84-9.38-2.29-12.66"/>
    <path class="cls-2" d="M63.76,79.39v2.32h2.88c.46,0,.87-.09,1.23-.28.35-.18.53-.48.53-.89s-.18-.7-.53-.88c-.35-.18-.76-.28-1.23-.28h-2.88ZM61.22,86.52v-8.41c0-.17.06-.33.18-.45.12-.13.27-.19.45-.19h5.57c1.03,0,1.88.28,2.54.83.66.55.99,1.3.99,2.24,0,1.31-.85,2.13-2.55,2.47.27.1.52.27.75.51.23.24.49.59.79,1.05l1.23,1.95c.07.13.11.24.11.34,0,.19-.11.29-.34.29h-1.62c-.17,0-.36-.06-.56-.19-.21-.12-.36-.27-.47-.45l-1.15-1.8c-.47-.74-1.04-1.11-1.72-1.11h-1.65v2.9c0,.18-.06.33-.18.45-.12.13-.28.19-.45.19h-1.27c-.17,0-.33-.06-.45-.19-.13-.12-.19-.27-.19-.45ZM53.04,80.74l-.59,2.17h4.3v-3.52h-1.93c-.43,0-.81.12-1.13.37-.32.25-.54.58-.65.99ZM48.98,87c-.08-.1-.11-.19-.11-.27,0-.08,0-.14.02-.2l1.69-6.43c.46-1.75,1.95-2.63,4.48-2.63h3.64c.17,0,.31.06.42.19.11.13.16.27.16.44v8.43c0,.17-.06.32-.19.44-.13.12-.28.18-.45.18h-1.27c-.18,0-.34-.06-.46-.18-.12-.12-.18-.27-.18-.46v-1.7h-4.8l-.45,1.7c-.04.18-.15.34-.3.46-.16.12-.32.18-.5.18h-1.33c-.18,0-.3-.05-.38-.15ZM39.27,78.75v-.64c0-.18.06-.34.18-.46.12-.12.27-.18.46-.18h8.57c.18,0,.34.06.46.18s.18.27.18.46v.64c0,.18-.06.34-.18.46-.12.12-.27.18-.46.18h-3.01v7.15c0,.17-.06.32-.18.44-.12.12-.27.18-.45.18h-1.28c-.18,0-.33-.06-.45-.18-.12-.12-.19-.27-.19-.44v-7.15h-3.01c-.18,0-.34-.06-.46-.18-.12-.12-.18-.27-.18-.46ZM28.98,84.68c0-.27.08-.46.24-.57.16-.11.31-.17.46-.17h.81c.4,0,.71.22.92.66.21.44.69.66,1.42.66l2.36.05c.79,0,1.19-.26,1.19-.78,0-.39-.48-.7-1.45-.92-.43-.1-.91-.21-1.43-.31-.52-.1-1.04-.23-1.56-.38-.51-.15-.99-.33-1.42-.54-.43-.21-.78-.49-1.05-.85-.27-.36-.4-.79-.4-1.28,0-.9.32-1.6.97-2.09.64-.49,1.75-.73,3.32-.73l1.72.04c.92,0,1.76.24,2.5.71.74.48,1.11,1.07,1.11,1.78,0,.27-.08.46-.23.57-.16.12-.31.17-.45.17h-.81c-.4,0-.71-.22-.92-.66-.21-.44-.69-.66-1.42-.66l-2.03-.04c-.79,0-1.19.26-1.19.78,0,.28.25.52.75.7.5.18,1.11.34,1.82.48.71.14,1.43.3,2.15.5.72.19,1.33.51,1.83.96.5.44.75,1,.75,1.66,0,.9-.32,1.6-.97,2.09s-1.75.73-3.32.73l-2.05-.04c-.92,0-1.76-.24-2.5-.71-.74-.48-1.11-1.07-1.11-1.78Z"/>
    <path class="cls-2" d="M69.72,93.7h1.7c-.03-.2-.13-.36-.28-.49-.16-.13-.34-.2-.55-.2s-.4.07-.56.2c-.16.13-.27.3-.32.49ZM69.33,93.91c0-.23.06-.45.17-.65.11-.2.27-.36.46-.48.19-.12.41-.18.64-.18.35,0,.65.12.88.36.23.24.35.54.35.9v.21h-2.11c.04.21.15.39.33.54.18.15.38.22.6.22.14,0,.27-.03.4-.1.13-.06.24-.15.32-.26l.31.24c-.12.16-.27.29-.46.38-.18.09-.38.14-.58.14-.24,0-.46-.06-.66-.18-.2-.12-.36-.28-.48-.49-.12-.2-.18-.42-.18-.66ZM66.62,93.92c0-.25.05-.47.16-.67.11-.21.26-.37.45-.49.19-.12.4-.18.64-.18.34,0,.64.14.89.41v.53h-.38v-.36c-.15-.12-.32-.18-.51-.18-.26,0-.47.09-.62.28-.16.18-.24.41-.24.68,0,.25.08.47.25.65.17.18.37.27.62.27.13,0,.25-.03.37-.09.11-.06.2-.14.26-.23l.31.22c-.1.14-.23.26-.4.36-.16.09-.35.14-.54.14-.24,0-.46-.06-.65-.18-.19-.12-.34-.28-.45-.48-.11-.2-.16-.42-.16-.66ZM65.65,92.26c-.17,0-.25-.09-.25-.25s.09-.26.25-.26.26.09.26.26-.09.25-.26.25ZM65.53,93.01h-.38v-.36h.77v2.15h.32v.38h-1.02v-.38h.32v-1.79ZM62.95,93.25c-.16.19-.24.41-.24.66s.08.47.24.66c.16.19.36.29.59.29.15,0,.3-.05.42-.14.13-.09.23-.21.3-.35.07-.14.11-.3.11-.46,0-.25-.08-.47-.24-.66-.16-.19-.36-.29-.59-.29s-.43.09-.59.29ZM62.47,94.58c-.1-.2-.15-.43-.15-.67s.05-.47.15-.67c.1-.2.24-.36.43-.48.19-.12.4-.18.64-.18s.45.06.64.18c.19.12.33.28.43.48.1.2.15.42.15.67s-.05.47-.15.67c-.1.2-.24.36-.43.48-.19.12-.4.18-.64.18s-.45-.06-.64-.18c-.19-.12-.33-.28-.43-.48ZM59.5,91.65h-.38v-.36h.77v1.73c.06-.06.1-.11.13-.14s.08-.07.13-.11c.06-.04.11-.08.16-.09.05-.02.12-.04.2-.05.08-.02.17-.02.27-.02.26,0,.46.07.61.22.15.15.22.36.22.63v1.36h.32v.38h-1.02v-.38h.32v-1.31c0-.18-.04-.3-.11-.39-.07-.08-.19-.12-.35-.12-.18,0-.34.04-.49.12-.15.08-.28.17-.39.28v1.42h.32v.38h-1.02v-.38h.32v-3.15ZM56.02,93.48c0-.34.08-.66.25-.94.16-.29.39-.51.67-.68.28-.17.6-.25.95-.25.09,0,.19.01.3.03.12.02.22.05.29.07l.11.03v.6h-.38v-.32c-.1-.02-.21-.03-.32-.03-.28,0-.53.06-.76.19-.23.13-.4.31-.53.54-.13.23-.19.48-.19.76,0,.26.06.49.17.69.11.21.27.37.47.49.2.12.42.18.67.18.23,0,.44-.06.64-.17l.2.33c-.26.16-.53.23-.84.23-.24,0-.47-.04-.68-.13-.21-.09-.39-.21-.54-.37-.15-.16-.26-.34-.34-.56-.08-.22-.13-.45-.13-.7ZM52.43,93.35c0-.16.05-.29.15-.42.1-.12.22-.21.36-.27.15-.06.3-.09.45-.09.13,0,.27.03.42.09.15.06.28.14.38.23v.56h-.38v-.38c-.13-.09-.27-.13-.42-.13-.14,0-.27.04-.39.11-.12.07-.18.17-.18.29,0,.05.02.1.05.15.03.04.08.07.14.1.06.03.12.05.2.07.07.02.15.04.23.06.08.02.16.04.25.06.08.02.16.05.24.09.07.04.14.08.2.13.06.05.1.11.14.18.03.08.05.16.05.26,0,.16-.05.3-.14.42-.09.12-.21.22-.36.28-.15.06-.31.09-.48.09-.14,0-.29-.03-.45-.09-.16-.06-.31-.13-.43-.22v-.53h.38v.32c.16.09.33.13.5.13.16,0,.3-.04.42-.11.12-.07.18-.17.18-.3,0-.08-.03-.14-.08-.19-.06-.05-.13-.09-.21-.11-.09-.03-.18-.05-.29-.07-.1-.02-.21-.05-.32-.08-.11-.03-.2-.07-.29-.12-.09-.04-.16-.11-.21-.2-.05-.09-.08-.2-.08-.33ZM51.91,92.69h-.38v-.96h.38v.96ZM49.13,93.01h-.38v-.36h.75v.28c.06-.06.11-.1.15-.13.04-.03.08-.06.15-.1.06-.04.13-.06.2-.08.07-.02.14-.03.23-.03.19,0,.35.03.49.1.14.07.26.17.37.3l.05.05v.52h-.39v-.37c-.07-.07-.15-.12-.23-.16-.08-.03-.18-.05-.3-.05-.08,0-.17.01-.25.04-.08.03-.14.06-.2.09-.06.04-.1.07-.15.11-.04.04-.08.07-.1.09l-.03.04v1.45h.32v.38h-1.01v-.38h.32v-1.79ZM46.12,93.7h1.7c-.03-.2-.13-.36-.28-.49-.16-.13-.34-.2-.55-.2s-.4.07-.56.2c-.16.13-.27.3-.32.49ZM45.73,93.91c0-.23.06-.45.17-.65.11-.2.27-.36.46-.48.19-.12.41-.18.64-.18.35,0,.65.12.88.36.23.24.35.54.35.9v.21h-2.11c.04.21.15.39.33.54.18.15.38.22.6.22.14,0,.27-.03.4-.1.13-.06.24-.15.32-.26l.31.24c-.12.16-.27.29-.46.38-.18.09-.38.14-.58.14-.24,0-.46-.06-.66-.18-.2-.12-.36-.28-.48-.49-.12-.2-.18-.42-.18-.66ZM42.78,91.65h-.38v-.36h.77v1.73c.06-.06.1-.11.13-.14.03-.03.07-.07.13-.11.06-.04.11-.08.16-.09.05-.02.12-.04.2-.05.08-.02.17-.02.26-.02.26,0,.46.07.61.22.15.15.22.36.22.63v1.36h.32v.38h-1.02v-.38h.32v-1.31c0-.18-.04-.3-.11-.39-.07-.08-.19-.12-.35-.12-.18,0-.35.04-.5.12-.15.08-.28.17-.39.28v1.42h.32v.38h-1.02v-.38h.32v-3.15ZM40.85,93.01h-.38v-.36h.38v-.64h.38v.64h.64v.36h-.64v1.23c0,.2.04.35.12.46.08.1.22.16.41.16h.11v.39h-.11c-.3,0-.53-.09-.68-.26-.15-.18-.23-.42-.23-.74v-1.23ZM38.28,93.25c-.16.19-.24.41-.24.66s.08.47.24.66c.16.19.36.29.59.29.15,0,.29-.05.42-.14.13-.09.23-.21.3-.35.07-.14.11-.3.11-.46,0-.25-.08-.47-.24-.66-.16-.19-.36-.29-.59-.29s-.43.09-.59.29ZM37.8,94.58c-.1-.2-.15-.43-.15-.67s.05-.47.15-.67c.1-.2.24-.36.43-.48.19-.12.4-.18.64-.18s.45.06.64.18c.19.12.33.28.43.48.1.2.15.42.15.67s-.05.47-.15.67c-.1.2-.24.36-.43.48-.19.12-.4.18-.64.18s-.45-.06-.64-.18c-.19-.12-.33-.28-.43-.48ZM33.52,95.19h-1.02v-.38h.33l.49-2.81h-.31v-.38h.42l.29-.03,1.15,2.5h0l1.15-2.5.29.04h.42v.38h-.3l.48,2.81h.33v.38h-1.02v-.38h.31l-.42-2.44h0l-1.06,2.32h-.34l-1.06-2.33h0l-.43,2.45h.3v.38ZM28.86,92.12l-.51,1.32h1.04l-.51-1.32h-.01ZM28.13,95.19h-1.04v-.38h.34l1.25-3.2h.36l1.25,3.2h.34v.38h-1.04v-.38h.29l-.38-.98h-1.3l-.38.98h.29v.38Z"/>
  </g>
  <g>
    <path class="cls-1" d="M77.59,9.77v.52h-1.04v3.37h-.64v-3.37h-1.04v-.52h2.72Z"/>
    <path class="cls-1" d="M82.34,9.77v3.9h-.64v-2.67l-1.19,2.67h-.44l-1.19-2.67v2.67h-.64v-3.9h.69l1.37,3.05,1.36-3.05h.68Z"/>
  </g>
</svg>