<?xml version="1.0" encoding="UTF-8"?>
<svg xmlns="http://www.w3.org/2000/svg" version="1.1" viewBox="0 0 150 150">
  <defs>
    <style>
      .cls-1 {
        fill: #f36f21;
        fill-rule: evenodd;
      }
    </style>
  </defs>
  <!-- Generator: Adobe Illustrator 28.7.5, SVG Export Plug-In . SVG Version: 1.2.0 Build 176)  -->
  <g>
    <g id="Layer_1">
      <path class="cls-1" d="M38.02,92.42l17.56.04c4.51,6.19,11.81,10.22,20.05,10.22s15.48-3.99,19.99-10.13l16.62.04c-7.65,12.27-21.24,20.48-36.77,20.59-.1,0-.2,0-.31,0h0c-15.69,0-29.45-8.29-37.15-20.75M20.15,87.59v4.79l12.87.03c8.18,15.04,24.17,25.2,42.49,25.07,18.01-.12,33.62-10.16,41.72-24.89l12.37.03-3.35,6.23h14.61l-9.82-2.16,5.75-9.1H20.15ZM38.35,50.63c7.8-12.25,21.53-20.34,37.13-20.24,15.45.11,28.97,8.23,36.65,20.4l-16.29-.04c-4.49-6.3-11.86-10.4-20.18-10.4s-15.62,4.07-20.12,10.31l-17.19-.04ZM13.8,55.62h116.63v-4.79l-13.3-.03c-8.13-14.64-23.69-24.6-41.63-24.72-.11,0-.23,0-.34,0-17.96,0-33.63,9.89-41.85,24.54l-12.33-.03,3.35-6.23h-14.61l9.82,2.16-5.75,9.1ZM125.59,81.53h5.9v-7.34h1.4l5.46,7.34h7.47l-7.72-9.78,7.3-9.45h-7.08l-5.43,7.37h-1.4v-7.37h-5.9v19.23ZM106.79,81.53h15.97v-5.25h-9.94v-2.21h9.97v-4.35h-9.97v-2.21h10.02v-5.21h-16.04v19.23ZM92.64,81.53h6.31v-14.03h5.63v-5.21h-17.84v5.21h5.9v14.03ZM65.81,81.53h5.72v-9.01c0-.68-.03-1.3-.07-1.88-.05-.57-.13-1.13-.24-1.67.26.56.5,1.06.72,1.5.22.44.4.77.55.99l6.33,10.07h5.72v-19.23h-5.72v6.49c0,.69.02,1.32.08,1.9.05.58.13,1.14.24,1.68-.32-.68-.57-1.21-.76-1.58-.19-.38-.36-.68-.5-.92l-4.69-7.57h-7.37v19.23ZM50.93,67.5h6.19v8.77h-6.19v-8.77ZM49.59,81.53h8.85c1.55,0,2.72-.43,3.49-1.3.78-.87,1.17-2.16,1.17-3.88v-8.85c0-1.78-.38-3.09-1.14-3.94-.76-.85-1.93-1.27-3.53-1.27h-8.85c-1.59,0-2.76.43-3.53,1.28-.77.85-1.15,2.16-1.15,3.92v8.85c0,1.72.39,3.01,1.18,3.88.78.87,1.95,1.3,3.51,1.3ZM30.25,67.5h6.16v2.49h-6.16v-2.49ZM24.3,81.53h5.95v-7.15h6.19v7.15h5.9v-6.51c0-.94-.16-1.63-.49-2.07-.33-.44-.92-.82-1.77-1.12.84-.29,1.42-.67,1.76-1.13.33-.46.5-1.14.5-2.04v-2.45c0-1.34-.37-2.33-1.09-2.96-.73-.63-1.88-.95-3.45-.95h-13.49v19.23ZM10.1,81.53h6.31v-14.03h5.63v-5.21H4.2v5.21h5.9v14.03Z"/>
    </g>
  </g>
</svg>