<?xml version="1.0" encoding="UTF-8"?>
<svg id="Layer_1" data-name="Layer 1" xmlns="http://www.w3.org/2000/svg" version="1.1" xmlns:xlink="http://www.w3.org/1999/xlink" viewBox="0 0 100 100">
  <defs>
    <style>
      .cls-1 {
        fill: #009ad0;
      }

      .cls-1, .cls-2, .cls-3, .cls-4, .cls-5, .cls-6, .cls-7, .cls-8, .cls-9, .cls-10, .cls-11, .cls-12, .cls-13, .cls-14, .cls-15, .cls-16, .cls-17 {
        stroke-width: 0px;
      }

      .cls-2 {
        fill: #dfcda0;
      }

      .cls-3 {
        fill: #f1c296;
      }

      .cls-4 {
        fill: #000;
      }

      .cls-5 {
        fill: #612c89;
      }

      .cls-6 {
        fill: #cd734c;
      }

      .cls-7 {
        fill: none;
      }

      .cls-8 {
        fill: #a23f41;
      }

      .cls-9 {
        fill: #05a7ba;
      }

      .cls-18 {
        clip-path: url(#clippath-1);
      }

      .cls-10 {
        fill: #418bca;
      }

      .cls-11 {
        fill: #ffd42a;
      }

      .cls-12 {
        fill: #50499e;
      }

      .cls-13 {
        fill: #c055a0;
      }

      .cls-14 {
        fill: #4b2b76;
      }

      .cls-19 {
        clip-path: url(#clippath);
      }

      .cls-15 {
        fill: #ee3237;
      }

      .cls-16 {
        fill: #fff;
      }

      .cls-17 {
        fill: #ed3995;
      }
    </style>
    <clipPath id="clippath">
      <path id="SVGID" class="cls-7" d="M62.01,55.35c0,2.26-1.43,3.82-3.63,3.82s-5.15-2.85-5.15-5.11,2.61-2.95,4.8-2.8c3.46.23,3.98,1.83,3.98,4.09Z"/>
    </clipPath>
    <clipPath id="clippath-1">
      <path id="SVGID-2" data-name="SVGID" class="cls-7" d="M37.97,55.35c0,2.26,1.43,3.82,3.63,3.82s5.15-2.85,5.15-5.11-2.61-2.95-4.8-2.8c-3.46.23-3.98,1.83-3.98,4.09Z"/>
    </clipPath>
  </defs>
  <path class="cls-14" d="M50,7.28C26.4,7.28,7.28,26.4,7.28,50s19.13,42.72,42.72,42.72,42.72-19.13,42.72-42.72S73.6,7.28,50,7.28ZM50,80.67c-16.94,0-30.67-13.73-30.67-30.67s13.73-30.67,30.67-30.67,30.67,13.73,30.67,30.67-13.73,30.67-30.67,30.67Z"/>
  <g>
    <circle class="cls-16" cx="50" cy="50" r="30.67"/>
    <path class="cls-14" d="M50,79.65c-16.35,0-29.65-13.3-29.65-29.65s13.3-29.65,29.65-29.65,29.65,13.3,29.65,29.65-13.3,29.65-29.65,29.65ZM50,21.6c-15.66,0-28.4,12.74-28.4,28.4s12.74,28.4,28.4,28.4,28.4-12.74,28.4-28.4-12.74-28.4-28.4-28.4Z"/>
    <g>
      <path class="cls-3" d="M62.63,63.05c-.12.43-.31.84-.57,1.21-.69,1-2.23,2.77-4.32,5.03-.1.11-.39.45-.48.56-2.43,2.67-2.41,3.05-6.24,3.12-3.97.07-5.1.13-7.29-2.46-.24-.27-1.08-.96-1.38-1.37-2.55-3.41-7.33-4.8-7.03-20.07.05-2.55,6.12-1.43,10.22-3.5,0,0,11.6.93,19.87,5.35.13.07-.56,4.22-2.76,12.13Z"/>
      <path class="cls-4" d="M36.91,43.73c-.12-.09-.23-.18-.35-.28.14-.28.26-.57.37-.86.04-.11.07-.21.11-.32,0,0,0-.01,0-.02,0,0,0,0,0,0h0s0,0,0,0h0s0,0,0,0h0s0,0,0,0h0s0,0,0,0c0-.03.02-.12.07-.13.55-.11,1.06-.35,1.53-.64,1.26-.77,2.38-1.87,3.29-3.03,0,0,.02-.01.03-.02.59.34,1.21.64,1.84.9.16.18.33.36.5.54.29.3.59.59.89.87-.58-.19-1.15-.4-1.71-.64-.25-.11-.49-.22-.73-.34-.23-.11-.5-.22-.7-.37-.09-.07-.06-.08-.14,0-.07.08-.14.17-.21.25-.58.67-1.21,1.31-1.9,1.88-.77.64-1.67,1.28-2.67,1.48-.07.25-.15.51-.25.76Z"/>
      <path class="cls-4" d="M38.95,64.7c-.17.06-.3.18-.41.33-.19-.3-.37-.61-.54-.94.12-.09.26-.17.4-.23.17.29.35.57.54.84Z"/>
      <path class="cls-4" d="M42.9,68.8c-.31.04-.63.05-.95.05-.7-.65-1.38-1.31-2.01-2.01.24,0,.49-.05.74-.14.28.28.56.56.84.83.45.43.92.84,1.38,1.27Z"/>
      <path class="cls-4" d="M60.56,66.55c-.72.78-1.52,1.48-2.29,2.21-.26-.04-.52-.09-.78-.16.25-.26.52-.52.78-.77.57-.54,1.17-1.07,1.73-1.62.18.13.37.24.57.34Z"/>
      <path class="cls-4" d="M62.37,63.69c-.13.31-.28.62-.44.92-.31,0-.59.11-.79.46-.05.09-.11.16-.19.29-.02-.05-.04-.09-.06-.13.38-.47.71-.97.99-1.51.05,0,.11-.02.16-.02.11,0,.21-.01.32,0Z"/>
      <path class="cls-4" d="M57.18,42.03c.08.04.16.08.23.12-1.4.03-2.8,0-4.2-.08-2.22-.13-4.45-.42-6.61-.97-.11-.03-.21-.05-.32-.08-.41-.41-.81-.84-1.21-1.26.69.23,1.4.42,2.11.59,2.57.6,5.22.85,7.86.91,1.12.33,1.91.68,2.1.77,0,0,0,0,0,0,.01,0,.02.01.03.02Z"/>
      <path class="cls-4" d="M65.82,48.55c0,.17-.02.33-.04.5-.08,0-.15,0-.23.01.02-.15.04-.31.06-.47-.12-.14-.24-.29-.36-.43-.73-.9-1.42-1.82-2.06-2.79-.16-.25-.33-.5-.49-.76.2.01.41.01.61.01.61.92,1.3,1.8,1.99,2.65.13.16.27.33.41.49.03.04.06.06.08.11.09.19.05.47.04.68Z"/>
      <path class="cls-14" d="M66.33,49.97c-.29.27-.57.54-.86.8-.11.1-.22.19-.34.28-.34.27-.72.49-1.16.63-.55.17-.77.1-1.07-.38-.36-.57-.92-.87-1.53-1.07-2.07-.71-4.28-.87-6.43-.4-.55.12-1.09.28-1.64.4-1.46.29-2.96.23-4.44.16-.79-.04-1.58-.07-2.35-.25-.83-.19-1.62-.54-2.38-.91-1.35-.66-2.66-1.42-3.76-2.45-.54-.5-1.02-1.07-1.54-1.59-.53-.53-1.12-.88-1.72-1.32-.07-.05-.13-.1-.2-.15-.12-.09-.23-.18-.35-.28-1-.84-1.91-1.9-2.45-3.07-1.2-2.61-.7-6.01.93-8.33.39-.55.85-1.05,1.39-1.45.27-.2.56-.37.87-.5.08-.04.94-.29.94-.29-.04.36-.4.58-.62.87-.26.35-.29.81-.27,1.24.03.62.18,1.26.54,1.77.44.63,1.13,1,1.75,1.42.68.45,1.33.99,1.88,1.59.78.85,1.51,1.74,2.28,2.59.16.18.33.36.5.54.29.3.59.59.89.87,1.99,1.85,4.3,3.28,6.77,4.44,1.03.48,2.1.87,3.15,1.31,1.09.45,2.19.87,3.3,1.26,1.07.36,2.15.73,3.22,1.09,0,0,0,0,.01,0,.41.12.82.22,1.24.33.4.1.81.16,1.22.28.31.09.65.06.98.08.13,0,.26.02.38.02.08,0,.17,0,.25,0,.12,0,.25,0,.37-.02.13-.01.24,0,.31.15.07.14.01.26-.07.34Z"/>
      <path class="cls-10" d="M43.1,49.22c0,.15-.35.11-.45.12-.44.04-.88.09-1.33.15-1.89.25-3.93.96-5.86.58-.08-.01-.15-.03-.23-.05-.08-.02-.16-.04-.23-.06-.99-.29-1.89-.88-2.63-1.59-.97-.93-1.43-2.29-1.51-3.61-.02-.25-.02-.51,0-.77.03-.87.2-1.77.53-2.55.33-.77.8-1.47,1.3-2.13.13-.18.33-.31.5-.46.04-.03.09-.07.13-.06.08.01.05.09.06.15.05.71.24,1.39.6,2.01.64,1.11,1.36,2.14,2.38,2.92.12.1.25.19.39.28.05.03.1.06.15.09.29.18.6.28.9.43.39.19.66.51.93.83.74.88,1.5,1.74,2.41,2.46.53.42,1.09.77,1.69,1.07.08.04.29.09.29.21Z"/>
      <path class="cls-2" d="M68.59,37.41s.06.07.09.1v1.11s-.06.07-.09.1c0-.44,0-.88,0-1.32Z"/>
      <path class="cls-4" d="M47.14,57.56c.02-.23.11-.4.24-.56.14-.16.19-.37.26-.57.02-.04.04-.09-.01-.13-.05-.04-.09,0-.14.02-.11.05-.16.14-.22.23-1,1.47-2.28,2.62-3.9,3.35-3.03,1.36-5.53-.51-6.28-2.89-.16-.5-.28-1.01-.39-1.53-.04-.17-.11-.29-.31-.3-.16,0-.23-.14-.25-.27,0-.1.03-.22.17-.24.29-.05.32-.26.31-.49-.04-.62.13-1.19.38-1.74.36-.78,1.04-1.18,1.79-1.48.91-.37,1.87-.5,2.84-.55.97-.05,1.95-.06,2.92.1,1.31.21,2.57.59,3.68,1.36.06.04.13.09.17.14.12.13.25.15.38.05.52-.41,1.13-.29,1.72-.26.29.01.56.08.79.28.07.06.12.07.2,0,1.37-1.02,2.94-1.48,4.62-1.64,1.7-.17,3.37-.04,5,.47,1.48.47,2.28,1.6,2.28,3.15,0,.09,0,.19,0,.28,0,.17.06.3.25.31.14.01.2.12.21.24.01.14-.07.28-.2.29-.27.01-.31.2-.37.4-.22.73-.39,1.47-.67,2.17-.68,1.71-2.83,3.15-5.19,2.43-1.1-.33-2.03-.94-2.9-1.66-.72-.6-1.35-1.29-1.85-2.08-.04-.07-.09-.17-.19-.13-.1.04-.03.15-.02.22.02.14.08.27.16.39.08.13.16.26.23.39.04.07.07.18,0,.23-.07.05-.18.05-.26,0-.2-.16-.41-.31-.51-.57-.2-.52-.41-1.04-.62-1.56-.03-.08-.05-.16-.04-.25.06-.62-.07-1.22-.17-1.82-.04-.28-.09-.56-.07-.85.02-.27-.07-.42-.34-.46-.56-.09-1.12-.09-1.68,0-.26.04-.35.24-.37.48-.05.72-.09,1.44-.25,2.15-.07.31.03.63-.05.95-.16.6-.44,1.14-.74,1.67-.13.23-.34.33-.63.3Z"/>
      <path class="cls-17" d="M37.8,31.3c.51-.69.92-1.49,1.89-1.68-.26.48-.7.86-.69,1.46.13-.01.17-.1.2-.17.35-.91,1.03-1.52,1.8-2.06,1.06-.74,2.24-1.22,3.45-1.65.7-.25,1.41-.49,2.13-.65,1.71-.38,3.42-.72,5.19-.54,1.34.13,2.61.51,3.81,1.11.16.08.26.37.2.53-.04.1-.13.06-.2.06-.63.04-1.26.08-1.88.2-.76.14-1.48.43-2.17.77-1.25.61-2.5,1.19-3.78,1.73-.28.12-.57.19-.85.32.32.05.62-.05.92-.12,1.54-.38,2.93-1.12,4.35-1.78,1.32-.62,2.73-.86,4.19-.68.36.05.7.19,1.04.32-.04.13-.15.09-.23.09-.41,0-.81,0-1.22,0-.1,0-.21-.02-.27.09-.93.04-1.84.18-2.67.61-.15.08-.32.15-.43.31.28-.08.56-.16.84-.24.51-.14,1.03-.24,1.56-.26,1.4-.07,2.79.05,4.16.3,1.01.19,1.92.63,2.76,1.21.54.37.8.95,1.04,1.54.06.15.12.31.18.47.06.15.03.26-.13.32-.83.33-1.66.67-2.49.99-.17.07-.34.03-.47-.13-.98-1.13-2.25-1.72-3.7-1.99-.35-.07-.71-.12-1.07-.18-.06-.01-.14,0-.19-.09,1.82-.44,3.65-.38,5.56-.28-.2-.17-.37-.22-.55-.24-1.46-.2-2.92-.19-4.38-.1-1.18.07-2.29.42-3.34.94-1.29.64-2.55,1.32-3.91,1.82-.7.26-1.42.44-2.13.66-.93.29-1.85.58-2.78.86-.61.18-1.19.43-1.76.71-.13.06-.26.09-.38,0-.86-.62-1.76-1.18-2.53-1.92-.4-.38-.72-.84-.87-1.38-.04-.15-.18-.27-.18-.44v-.81Z"/>
      <path class="cls-11" d="M68.59,37.41c0,.44,0,.88,0,1.32,0,.28-.12.52-.23.76-.08.16-.25.24-.44.24-.45,0-.89.05-1.33.12-.58.09-1.11.34-1.62.63-.23.13-.45.28-.68.42.06.09.13.06.18.03.55-.26,1.11-.49,1.7-.64.64-.16,1.29-.29,1.96-.25.19,0,.26.11.26.29-.01.29-.15.55-.24.81-.14.45-.32.89-.49,1.33-.09.24-.24.44-.39.63-.08.09-.18.13-.31.14,0-.17.2-.21.2-.41-2.11,1.31-4.27,1.71-6.6.59.54-.39,1.1-.69,1.67-1.01-.17-.07-.2-.06-.5.08-.36.17-.72.34-1.08.51-.35.17-.67.19-1.02-.02-.57-.34-1.15-.65-1.75-1,.28-.2.58-.23.86-.32.88-.28,1.69-.7,2.52-1.07,1.04-.47,1.9-1.21,2.78-1.91.63-.49,1.3-.84,2.12-.83.1,0,.19-.02.29-.09-.29-.22-.63-.12-.99-.17.18-.23.34-.44.51-.64.39-.45.57-.97.6-1.55,0-.16.03-.32.05-.48.02-.15.1-.2.22-.11.81.61,1.49,1.33,1.73,2.36.02.07.02.15.03.23Z"/>
      <path class="cls-4" d="M64.34,66.62c-.46,1.36-1.54,1.97-2.87,2.15-1.08.15-2.15.15-3.2-.01-.26-.04-.52-.09-.78-.16-.5-.12-.99-.28-1.48-.49-1.27-.54-2.32-1.38-3.25-2.38-.36-.39-.72-.79-1.08-1.18-.72-.78-1.15-.77-1.81.05-.8,1.01-1.68,1.94-2.77,2.65-1.32.86-2.72,1.39-4.21,1.55-.31.04-.63.05-.95.05-.32,0-.65-.01-.98-.04-.69-.06-1.38-.12-2.03-.37-1.65-.64-2.32-2.65-1.34-3.96.11-.15.25-.28.4-.39.12-.09.26-.17.4-.23.5-.22,1.08-.26,1.56-.07.47.18.82.64.82,1.07,0,.26-.07.37-.34.2-.34-.22-.67-.44-1.1-.43-.15,0-.28.03-.4.07-.17.06-.3.18-.41.33-.05.07-.09.15-.13.23-.18.43-.08.8.26,1.09.39.33.82.49,1.26.49.24,0,.49-.05.74-.14.04-.01.09-.03.13-.05.89-.37,1.52-1.07,2.14-1.78.59-.69,1.08-1.46,1.64-2.17,1.37-1.73,3.71-2.29,5.71-1.36.3.14.56.15.86.02,2.35-1,4.62-.36,6.13,1.72.51.7.96,1.44,1.55,2.07.36.39.73.76,1.15,1.06.18.13.37.24.57.34.24.12.5.21.78.27.48.1.91-.02,1.31-.29.36-.24.58-.57.49-1.02-.09-.44-.31-.78-.79-.86-.14-.02-.29-.04-.42-.04-.31,0-.59.11-.79.46-.05.09-.11.16-.19.29-.02-.05-.04-.09-.06-.13-.24-.68.22-1.36.99-1.51.05,0,.11-.02.16-.02.11,0,.21-.01.32,0,1.47.07,2.46,1.48,1.97,2.94Z"/>
      <path class="cls-6" d="M37.8,31.3v.81c-.1-.27-.16-.54,0-.81Z"/>
      <path class="cls-8" d="M64.39,33.17c-.37,0-.74,0-1.11,0,.37-.1.74-.09,1.11,0Z"/>
      <path class="cls-11" d="M59.41,34.29c-.92.4-1.84.8-2.76,1.2-.44.19-.88.38-1.31.57-.05.02-.11.03-.18.06.04-.16.15-.22.24-.3.35-.3.71-.59,1.06-.89.07-.06.21-.13.15-.22-.06-.1-.2-.05-.3-.02-1,.37-2.02.7-2.99,1.16-1.62.75-3.2,1.6-4.79,2.42-.3.16-.57.17-.88.04-.76-.32-1.55-.53-2.36-.71-.25-.06-.51-.11-.76-.16-.08-.02-.16-.04-.25-.06,0,0,0,0-.01,0-.05-.02-.11-.03-.16-.04t0,0c-1.41-.36-1.89-.63-2.05-.78,0,0,0,0,0,0-.04-.06-.04-.1,0-.14.02-.02.06-.05.12-.08.67-.36,1.4-.56,2.1-.82,1.71-.64,3.44-1.22,5.13-1.92.84-.34,1.65-.75,2.5-1.05.5-.18,1.02-.29,1.55-.39.88-.16,1.73-.15,2.59.02,1.32.26,2.48.85,3.49,1.74.18.16.16.28-.08.39Z"/>
      <path class="cls-15" d="M44.44,37.42c-.06-.01-.12-.03-.18-.05.09.02.17.04.25.06-.02,0-.05,0-.07-.01Z"/>
      <path class="cls-15" d="M50.42,44.42h-.01s0,0,.01,0Z"/>
      <path class="cls-10" d="M66.2,35.62c-.15.77-.67,1.23-1.18,1.72-.46.44-.93.87-1.4,1.28-.84.73-1.81,1.25-2.82,1.71-.78.35-1.57.71-2.35,1.07-.55.25-1.09.19-1.64,0-.58-.19-1.16-.39-1.76-.54,0,0,0,0,0,0-.55-.16-1.12-.26-1.47-.35-.28-.07.02-.27.14-.34.03-.02.05-.03.05-.03.77-.39,1.62-.56,2.46-.72,1.25-.22,2.5-.43,3.74-.68.63-.13,1.23-.33,1.8-.61.05-.02.13-.02.12-.1-.02-.1-.1-.08-.16-.06-.29.09-.57.19-.86.27-.75.21-1.52.38-2.29.48-1.3.16-2.61.24-3.87.6-.66.19-1.28.44-1.85.81-.22.15-.43.1-.65,0-.63-.13-1.24-.34-1.83-.6-.53-.23-1.05-.47-1.58-.7-.08-.03-.15-.07-.23-.18,1.99-1.1,4.03-2.06,6.13-2.89.01.02.02.04.04.06-.52.38-1.05.76-1.57,1.15-.08.06-.23.11-.18.2.07.12.19,0,.28-.04,1.88-.7,3.78-1.36,5.62-2.15.99-.42,1.96-.91,2.94-1.35.47-.21.95-.42,1.48-.46.37,0,.74,0,1.11,0,.79.08,1.43.38,1.72,1.18.15.4.18.81.09,1.26Z"/>
      <path class="cls-14" d="M68.63,45.96c0,.09.02.17.01.26,0,.14-.06.27-.1.4-.03.1-.04.21-.08.31-.06.18-.15.36-.25.53-.14.25-.3.48-.46.71-.4.54-.98.79-1.64.85-.11.01-.23.02-.34.02-.08,0-.15,0-.23.01-.47.01-.93-.01-1.39-.06-.06,0-.12-.02-.18-.02-.03,0-.06,0-.08-.01-.01,0-.02,0-.03,0-.43-.06-.85-.15-1.27-.26-.11-.03-.22-.05-.33-.07-.91-.3-1.76-.83-5.76-2.2-5.74-1.98-9.04-4.36-9.24-4.51,0,0,0,0,0,0-.34-.28-.66-.57-.97-.88-.41-.41-.81-.84-1.21-1.26-.16-.18-.33-.35-.5-.53-.5-.52-.99-1.05-1.49-1.57-.02-.02-.04-.04-.05-.06.1-.08.45-.2,1.63.12.08.02.17.05.26.07,1.23.37,2.41.87,3.58,1.4.67.3,1.34.61,2.03.86l1.32.39.91.27c.21.05.44.1.69.14.57.11,1.1.25,1.57.39,1.12.33,1.91.68,2.1.77,0,0,0,0,0,0,.01,0,.02.01.03.02.08.04.16.08.23.12.57.29,1.14.61,1.69.94.72.42,1.39.94,2.19,1.21.39.14.79.23,1.2.29.07,0,.14.01.2.02.2.01.41.01.61.01.34,0,.68-.02,1.02-.03.63-.03,1.25-.15,1.85-.38.71-.28,1.22-.77,1.6-1.42.12-.21.25-.41.38-.62.04-.07.09-.16.18-.15.07,0,.05.11.08.17.22.63.28,1.25,0,1.89-.2.47-.59.78-1.05.97-.22.09-.44.17-.67.23-.26.08-.51.15-.77.2-.06.01-.16.03-.18.09.06.02.12,0,.18,0,.66-.07,1.34-.2,1.97-.41.12-.04.25-.08.37-.13.06-.02.2-.1.26-.05.03.03.04.08.04.11.02.08.02.16.04.24.02.09.05.18.05.27,0,.03,0,.05,0,.08,0,.09-.02.19-.02.28Z"/>
      <path class="cls-15" d="M44.08,37.33c.05,0,.11.02.16.04-.06-.01-.11-.03-.16-.04Z"/>
      <path class="cls-7" d="M43.09,37.66s-.04-.04-.05-.06"/>
      <g class="cls-19">
        <g>
          <rect class="cls-16" x="48.54" y="50.13" width="20.01" height="13.46" transform="translate(38.27 -22.19) rotate(31.45)"/>
          <path class="cls-11" d="M70.44,56.38l-2.46-1.5c-.66.38-1.24.88-1.84,1.35-1.69,1.3-3.71,2.33-5.85,2.29-1.23-.02-2.43-.4-3.65-.58-.87-.13-1.78-.16-2.62.13-1.01.35-1.79,1.14-2.48,1.95-.05.06-.1.12-.14.18l1.58.97c.24-.29.53-.54.82-.77.46-.35.96-.66,1.51-.84,2.07-.65,4.25.74,6.41.59,2.7-.2,4.69-2.7,7.31-3.37.45-.12.94-.19,1.38-.34l.03-.06Z"/>
          <path class="cls-11" d="M68.72,59.19c-.67-.07-1.35.11-1.97.38-.69.3-1.32.71-1.99,1.04-.89.44-1.85.76-2.83.93.65.17,1.35.16,2-.02,1.09-.3,2.04-1.07,3.16-1.2.3-.03.61-.02.91.05l.72-1.18Z"/>
          <path class="cls-5" d="M70.23,56.73c-.25.02-.5.06-.74.12-.87.23-1.62.76-2.34,1.27l-.11.08c-.68.48-1.48,1.03-2.35,1.43-.91.43-1.8.65-2.62.65-.06,0-.13,0-.2,0-.3,0-.61,0-.9.1-.15.06-.26.14-.32.24-.1.16-.08.4.04.57.07.11.17.18.27.24.05.03.1.06.14.08.65.32,1.47.36,2.32.13.77-.21,1.48-.62,2.09-.98.05-.03.1-.06.15-.09.4-.24.82-.5,1.25-.67.55-.22,1.05-.29,1.51-.21,0,0,.01,0,.02,0l1.81-2.97Z"/>
          <path class="cls-11" d="M69.93,57.22c-.55-.05-1.12.18-1.59.49-.56.37-1.03.87-1.59,1.23-.31.2-.66.36-.96.59-.1.08-.2.23-.1.31.03.02.07.03.11.03.74,0,1.34-.77,2.08-.7.22.02.44.12.65.08.06-.01.12-.03.18-.06l1.2-1.96Z"/>
          <path class="cls-11" d="M65.54,53.38c-.22.15-.43.31-.65.46-.34.24-.68.48-1.04.67-.53.28-1.11.46-1.69.59-1.5.33-3.07.31-4.55-.07-.43-.11-.85-.24-1.27-.38-1.03-.33-2.06-.66-3.09-1,1.22.56,2.39,1.24,3.48,2.02.35.25.69.51,1.06.72,1.17.68,2.61.86,3.9.49.94-.27,1.78-.81,2.51-1.46.62-.56,1.15-1.2,1.66-1.86l-.32-.2Z"/>
          <path class="cls-14" d="M63.58,52.18c-1.17.94-2.33,1.98-3.8,2.15-1.53.18-2.97-.64-4.42-1.14-1.72-.6-3.64-.77-5.36-.16-.35.12-.69.28-1.01.46l-.86,1.4c1.22-.76,2.53-1.37,3.93-1.3,2.43.11,4.32,2.2,6.67,2.79,1.53.38,3.19.1,4.58-.64.99-.53,1.85-1.27,2.56-2.13l-2.3-1.41Z"/>
          <path class="cls-13" d="M56.94,54.21c-.78-.32-1.49-.79-2.3-1.06-1.07-.35-2.23-.31-3.33-.08-.9.19-1.76.52-2.61.86h0s.45-.17.45-.17c.88-.29,1.79-.53,2.72-.48,2.16.13,3.98,1.8,6.13,2.07,1.34.17,2.75-.24,3.79-1.11-1.54.6-3.31.59-4.84-.04Z"/>
          <path class="cls-1" d="M64.41,52.69c-.48.78-1.18,1.42-2,1.81-.33.16-.67.28-.98.47-.08.05-.17.14-.13.23.03.06.1.08.16.1.87.18,1.8-.09,2.53-.6.54-.38.99-.88,1.36-1.43l-.93-.57Z"/>
          <path class="cls-13" d="M55.19,47.05c-.38.01-.75.09-1.11.17-.49.11-.98.22-1.46.33l-1.51,2.47c.22-.13.44-.24.68-.34.76-.3,1.62-.39,2.4-.15.62.19,1.16.57,1.77.79.81.28,1.7.26,2.53.02.43-.12.85-.3,1.25-.52l-4.54-2.77Z"/>
          <path class="cls-5" d="M58.02,48.78c-.3.29-.69.49-1.1.57-.26.05-.53.05-.78.12-.09.02-.18.06-.22.13-.07.11-.02.26.08.35s.23.12.35.14c.51.1,1.04.13,1.55.03.47-.09.93-.3,1.29-.63l-1.16-.71Z"/>
          <path class="cls-11" d="M53.54,46.04l-1.68,2.75c.25-.11.51-.18.78-.21,1.09-.11,2.11.58,3.21.6.43,0,.86-.09,1.25-.29.2-.1.38-.23.57-.34l-4.11-2.52Z"/>
          <path class="cls-5" d="M56.94,48.12c-.29.09-.61.09-.91.03-.48-.09-.93-.31-1.38-.49-.45-.19-.93-.35-1.42-.32-.2.01-.39.06-.57.13l-.44.72c.3-.14.63-.21.96-.19.57.04,1.09.32,1.62.51.47.16.97.25,1.45.16.33-.06.64-.21.89-.43l-.2-.12Z"/>
          <path class="cls-13" d="M58.51,50.95c.73-.21,1.55-.28,2.22.08.26.14.5.36.59.65.08.28,0,.6-.17.83-.17.24-.42.41-.69.54-.59.29-1.27.38-1.92.33-.66-.04-1.3-.21-1.92-.42.97.18,2.01.01,2.88-.47.23-.13.45-.29.57-.52.12-.23.09-.56-.12-.71"/>
          <path class="cls-13" d="M60.94,51.67c-.06-.49-.59-.79-1.07-.87-.87-.15-1.75.13-2.63.16-.93.04-1.87-.21-2.66-.69-.27-.16-.53-.36-.83-.46-.52-.17-1.08-.04-1.59.15-.5.18-.98.42-1.43.7l-1.27,2.08c.4-.32.81-.63,1.28-.83,1.03-.44,2.23-.26,3.29.09,1.06.36,2.07.88,3.17,1.14,1.09.26,2.33.22,3.22-.47.32-.25.59-.62.54-1.02Z"/>
          <path class="cls-14" d="M55.09,51.24c.24.15.51.23.78.3.5.13,1.03.19,1.54.11.71-.12,1.37-.53,2.09-.48.29.02.6.14.73.39.12.23.06.53-.1.74-.16.21-.39.35-.64.46-1.25.54-2.8.29-3.8-.63-.3-.27-.56-.61-.93-.79"/>
          <path class="cls-11" d="M58.15,52.25c-.07-.19-.28-.27-.48-.31-.38-.09-.77-.1-1.15-.17-.57-.1-1.12-.34-1.6-.67-.49-.35-.95-.83-1.55-.88-.28-.03-.56.05-.82.14-.71.25-1.38.67-2.12.75l-.45.74c.33-.16.66-.31,1-.45.21-.08.42-.16.63-.21.29-.06.58-.06.88-.04.88.06,1.75.31,2.53.71.78.4,1.52.96,2.39.99.19,0,.38-.01.54-.12.16-.1.26-.31.19-.48Z"/>
          <path class="cls-11" d="M62.57,51.57c-.4.54-.73,1.14-1.25,1.58-.77.66-1.86.84-2.87.71-1.01-.13-1.95-.53-2.89-.93-.93-.4-1.88-.81-2.88-.94-.42-.06-.86-.06-1.27.03-.37.09-.72.26-1.05.44-.4.21-.79.44-1.16.69l-.6.98c1.78-.87,3.78-1.37,5.68-.86,1.71.46,3.23,1.71,5,1.69.62,0,1.22-.18,1.81-.38.72-.26,1.44-.58,1.99-1.12.32-.32.57-.69.85-1.05l-1.35-.82Z"/>
          <path class="cls-13" d="M52.44,55.69c1.53-.26,2.18.1,3.96.84,2.17.89,5.18,1.84,7.3.07-1.57,1.32-4.05,1.69-5.86,1.03-1.79-.64-3.53-1.94-5.51-1.65"/>
          <path class="cls-12" d="M52.45,60.84c.1-.18.2-.35.32-.51.69-.91,1.86-1.35,3-1.43,1.14-.08,2.27.14,3.4.31,1.13.18,2.29.3,3.4.03,1.13-.27,2.12-.94,3.07-1.6.97-.67,1.94-1.35,2.79-2.17.07-.06.13-.13.19-.2l-1.74-1.06c-.91.69-2.07,1.68-2.81,2.16-.85.56-1.73,1.12-2.71,1.38-1.96.51-4.03-.28-5.77-1.31-.51-.3-1.02-.63-1.6-.78-1.12-.28-2.31.18-3.18.94-.7.61-1.23,1.4-1.69,2.21l3.34,2.04Z"/>
          <path class="cls-9" d="M66.23,53.8c-.43.95-.96,1.86-1.64,2.65-.75.88-1.7,1.61-2.79,2.01,1.29-.22,2.39-1.04,3.41-1.87.8-.65,1.59-1.31,2.37-1.97l-1.35-.83Z"/>
          <path class="cls-16" d="M51.06,59.99l.86.53c.49-.73,1.13-1.41,1.96-1.69.53-.18,1.1-.2,1.66-.27.31-.04.68-.17.71-.48.02-.15-.06-.31-.15-.43-.41-.54-1.16-.76-1.84-.67-.68.09-1.29.44-1.83.87-.41.32-.79.69-1.05,1.14-.18.31-.3.66-.33,1.01Z"/>
          <path class="cls-13" d="M51.85,60.48c.33-.19.53-.56.77-.85.41-.5.97-.84,1.55-1.13.22-.11.46-.24.56-.46.14-.32-.09-.71-.41-.85s-.69-.07-1.02.07c-1.18.49-1.93,1.78-3.1,2.22l1.65,1.01Z"/>
          <path class="cls-11" d="M50.9,60.1c.4-.44.78-.9,1.2-1.33.11-.11.21-.21.32-.31.06-.06.13-.11.19-.16.14-.13-.03-.05-.07.05.03-.09.26-.18.34-.23-.01,0,.18-.1.18-.1-.32.13-.27.11.16-.07l.06-.03c-.41.18.13,0,.22-.03.21-.07-.36,0,0,0,.08,0,.15,0,.23,0s.15,0,.23,0c.32,0-.06,0-.06-.01,0,0,.51.12.55.13.15.05.31.1.46.15.08.03.17.07.25.1-.05-.02-.29-.14-.04,0,.32.17.64.34.96.5,1.4.7,2.83,1.22,4.4,1.29,1.42.06,2.91-.29,4.13-1.04.7-.43,1.34-1,1.95-1.55.3-.27.58-.54.89-.8.06-.05.12-.1.18-.15.03-.03.33-.26.16-.13-.16.12.04-.03.08-.06.11-.08.22-.16.33-.23.65-.43.99-1.34.54-2.05-.42-.65-1.35-1-2.05-.54-.66.44-1.3.95-1.88,1.49-.24.22-.47.44-.72.65-.13.11-.26.22-.39.33-.07.06-.15.12-.22.18-.04.03-.3.21-.11.09.2-.12-.09.06-.11.07-.06.04-.12.08-.18.11-.12.07-.24.14-.36.2-.08.04-.16.07-.23.11-.2.1.35-.12.03-.01-.16.06-.32.11-.49.16-.13.04-.27.07-.4.1-.07.01-.14.02-.2.04-.34.07.26-.02.04,0-.34.03-.67.05-1,.03-.15,0-.3-.02-.45-.03-.36-.03.24.05.01,0-.09-.02-.18-.03-.27-.05-.33-.07-.65-.18-.97-.26-.36-.08.19.09-.02,0-.07-.03-.14-.06-.21-.09-.16-.07-.31-.14-.46-.21-.33-.16-.66-.32-.99-.49-1.47-.77-3.14-1.35-4.8-.8-.16.05-.32.12-.47.19-.11.05-.1.05.04-.01.23-.1.15-.07-.24.1-.16.08-.3.17-.45.27-.36.24-.7.51-1.01.8-.51.48-.94,1.02-1.41,1.54-.53.58-.61,1.56,0,2.12.58.53,1.55.62,2.12,0h0Z"/>
          <path class="cls-9" d="M48.46,58.4c.28-.21.51-.51.73-.79.46-.59.96-1.15,1.57-1.59.6-.44,1.32-.74,2.07-.76.77-.02,1.52.25,2.28.24.08,0,.17-.02.2-.09.03-.07-.02-.15-.08-.21-.5-.54-1.19-.88-1.91-1.04-.72-.16-1.46-.15-2.19-.06-.68.08-1.36.23-1.97.55-.28.14-.53.32-.78.51-.26.19-.51.37-.76.57l-.96,1.57,1.81,1.11Z"/>
          <path class="cls-11" d="M47.69,57.93c.72-.98,1.75-1.73,2.8-2.37.09-.05.19-.15.14-.24-.02-.05-.08-.07-.12-.08-.37-.11-.77.02-1.13.18-.98.45-1.8,1.18-2.45,2.05l.77.47Z"/>
          <path class="cls-11" d="M66.96,62.07c-.63.57-1.25,1.16-1.99,1.51-1.13.53-2.34.39-3.48.21-.3-.05-.6-.1-.92-.09-.69.03-1.39.39-1.91.94l4.89,2.99,3.4-5.56Z"/>
          <path class="cls-9" d="M64.45,66.18c-.14-.03-.28-.07-.41-.13-.34-.15-.65-.37-.98-.54-1-.52-2.22-.59-3.26-.18l1.54.94c.29,0,.58.02.86.08.56.13,1.1.39,1.67.32.11-.01.21-.04.31-.07l.27-.44Z"/>
          <path class="cls-5" d="M61.17,66.17c.32-.04.64-.01.96.04.18.03.36.06.53.02.17-.05.33-.21.3-.39-.02-.1-.09-.18-.16-.25-.25-.24-.58-.38-.91-.47-.7-.18-1.46-.11-2.12.19l1.4.86Z"/>
          <path class="cls-12" d="M65.94,63.74c.03-.11.05-.21.05-.32-.45.38-.92.76-1.49.92-1,.27-2.04-.23-3.07-.28-.86-.04-1.72.27-2.38.82l.1.06c.71-.31,1.49-.45,2.25-.35.6.07,1.16.29,1.75.42.59.13,1.22.19,1.77-.05.17-.07.33-.18.47-.3l.56-.91Z"/>
          <path class="cls-12" d="M57.39,63.86c.14-.07.26-.17.38-.27.69-.51,1.56-.7,2.41-.75.85-.06,1.7.01,2.55-.04.85-.05,1.72-.23,2.42-.72-.6.26-1.28.33-1.94.28-.66-.05-1.3-.21-1.93-.4-.43-.13-.85-.26-1.3-.28-.53-.02-1.06.14-1.5.44-.58.41-.98,1.06-1.56,1.45l.46.28Z"/>
          <path class="cls-9" d="M67.64,60.97s0,0,0,0c-1.25.76-2.6,1.42-4.05,1.61-.87.11-1.74.05-2.61.11-.87.06-1.77.27-2.44.83l-.42.77h.02c.49-.49,1.01-1,1.69-1.17.39-.1.79-.08,1.19-.03,1.33.16,2.69.6,3.99.26.64-.17,1.22-.52,1.76-.92l.9-1.47Z"/>
          <path class="cls-13" d="M68.01,60.36c-.69.52-1.41.99-2.19,1.36-.98.46-2.06.75-3.14.7-.94-.04-1.87-.34-2.82-.29-1.1.06-2.15.64-2.84,1.51l1.16.71c.36-.4.79-.74,1.26-.99.23-.12.48-.22.73-.27.55-.1,1.1.03,1.65.11,1.09.16,2.22.1,3.24-.29.94-.36,1.74-1,2.44-1.73l.49-.81Z"/>
          <path class="cls-11" d="M53.89,61.72c.28-.03.55-.12.8-.25.5-.25.95-.61,1.45-.85.56-.27,1.2-.38,1.82-.31.26.03.52.09.73.24-.89-.88-2.38-1.06-3.45-.43-.63.37-1.11.98-1.71,1.38l.36.22Z"/>
          <path class="cls-9" d="M56.32,63.21c.21-.23.39-.51.6-.73.52-.54,1.31-.72,1.91-1.16.2-.15.4-.37.34-.62-.04-.16-.17-.27-.31-.35-1.05-.69-2.52-.67-3.55.05-.3.21-.57.47-.83.72-.21.2-.42.39-.64.58l2.47,1.51Z"/>
          <path class="cls-5" d="M55.67,62.81c.06-.05.12-.11.17-.18.45-.53,1.04-.95,1.7-1.19.17-.06.35-.12.47-.24.13-.12.19-.34.08-.48-.05-.06-.11-.09-.18-.12-.66-.29-1.45-.08-2.06.32-.5.33-.9.76-1.33,1.18l1.14.7Z"/>
        </g>
      </g>
      <g class="cls-18">
        <g>
          <rect class="cls-16" x="31.99" y="50.42" width="15.55" height="10.46" transform="translate(107.63 64.15) rotate(132.68)"/>
          <path class="cls-11" d="M30.77,57.82l1.52-1.65c.57.14,1.12.4,1.67.62,1.54.62,3.27.95,4.86.47.92-.28,1.73-.81,2.6-1.21.62-.28,1.3-.5,1.98-.46.83.05,1.58.47,2.27.93.05.03.1.07.14.1l-.98,1.06c-.24-.16-.51-.29-.78-.4-.42-.17-.86-.29-1.3-.31-1.68-.04-3.02,1.46-4.66,1.8-2.06.43-4.08-1.02-6.18-.97-.36,0-.74.06-1.11.04l-.04-.04Z"/>
          <path class="cls-11" d="M32.65,59.55c.49-.19,1.03-.2,1.55-.14.58.08,1.14.25,1.71.35.76.14,1.54.17,2.31.09-.45.26-.97.4-1.5.41-.88,0-1.75-.37-2.62-.22-.23.04-.46.12-.67.23l-.79-.73Z"/>
          <path class="cls-5" d="M31,58.04c.19-.04.38-.06.58-.07.7-.01,1.37.22,2.02.45l.1.03c.61.21,1.33.45,2.06.57.77.13,1.48.1,2.1-.07.05-.01.1-.03.15-.04.22-.07.45-.14.7-.11.13.01.22.05.29.11.11.1.15.28.09.44-.03.09-.09.17-.15.24-.03.03-.06.06-.09.09-.42.37-1.02.58-1.7.59-.62,0-1.24-.15-1.77-.29-.04-.01-.09-.02-.13-.04-.35-.1-.71-.2-1.08-.24-.46-.05-.85,0-1.17.16,0,0,0,0-.01,0l-1.99-1.83Z"/>
          <path class="cls-11" d="M31.33,58.34c.4-.16.87-.11,1.29.03.5.16.95.43,1.45.58.28.08.57.13.84.24.09.04.2.13.14.21-.02.02-.05.04-.08.04-.55.16-1.17-.29-1.7-.08-.16.06-.3.18-.47.2-.05,0-.1,0-.15,0l-1.31-1.21Z"/>
          <path class="cls-11" d="M33.79,54.54c.19.07.39.14.58.21.3.11.61.21.92.28.46.1.92.11,1.39.08,1.19-.07,2.36-.42,3.39-1.02.3-.17.58-.36.87-.55.7-.47,1.4-.93,2.1-1.4-.79.68-1.52,1.43-2.17,2.25-.21.26-.41.53-.64.77-.73.75-1.77,1.2-2.81,1.19-.76,0-1.5-.22-2.19-.56-.58-.28-1.12-.65-1.63-1.04l.2-.21Z"/>
          <path class="cls-14" d="M35.01,53.22c1.08.45,2.16.98,3.3.8,1.18-.19,2.08-1.11,3.06-1.79,1.16-.81,2.56-1.35,3.97-1.26.29.02.57.06.85.13l.94.87c-1.07-.31-2.18-.49-3.22-.14-1.79.6-2.76,2.56-4.4,3.5-1.06.61-2.36.75-3.56.49-.85-.18-1.65-.56-2.37-1.05l1.42-1.54Z"/>
          <path class="cls-13" d="M40.4,53.33c.51-.41.95-.91,1.49-1.28.72-.49,1.6-.71,2.48-.76.71-.04,1.42.01,2.13.09h0s-.37-.03-.37-.03c-.72-.03-1.45-.02-2.13.22-1.59.55-2.59,2.19-4.14,2.85-.97.41-2.11.4-3.07-.03,1.28.12,2.6-.27,3.61-1.06Z"/>
          <path class="cls-1" d="M34.49,53.78c.52.48,1.18.81,1.88.93.28.05.56.06.83.14.07.02.16.07.15.14,0,.05-.06.08-.1.11-.61.32-1.36.32-2.02.09-.49-.17-.92-.45-1.32-.78l.58-.62Z"/>
          <path class="cls-13" d="M40.18,47.61c.28-.07.58-.09.87-.11.39-.02.78-.05,1.16-.06l1.66,1.53c-.19-.05-.38-.09-.58-.11-.63-.07-1.3.05-1.83.4-.42.27-.74.67-1.15.96-.54.38-1.22.55-1.88.55-.35,0-.7-.05-1.04-.12l2.8-3.04Z"/>
          <path class="cls-5" d="M38.44,49.5c.29.15.62.22.94.19.2-.02.4-.07.61-.08.07,0,.14,0,.2.05.08.07.07.19.02.27-.05.08-.15.14-.24.18-.36.18-.75.32-1.15.35-.37.03-.76-.02-1.09-.19l.72-.78Z"/>
          <path class="cls-11" d="M41.2,46.5l1.84,1.7c-.21-.03-.42-.03-.63,0-.84.15-1.45.89-2.27,1.13-.32.1-.67.11-1,.05-.17-.03-.33-.09-.5-.14l2.54-2.75Z"/>
          <path class="cls-5" d="M39.1,48.78c.23,0,.47-.06.69-.17.34-.17.63-.43.93-.66.3-.24.62-.46,1-.54.15-.03.3-.04.45-.02l.48.45c-.25-.04-.51-.02-.75.06-.42.15-.74.47-1.11.73-.31.22-.67.39-1.05.42-.26.02-.53-.02-.75-.14l.12-.13Z"/>
          <path class="cls-13" d="M38.53,51.22c-.59,0-1.22.12-1.64.53-.17.16-.3.38-.3.61,0,.23.13.44.31.59s.4.22.63.26c.5.09,1.03.01,1.51-.16.48-.17.92-.44,1.35-.72-.69.34-1.5.44-2.25.26-.2-.05-.4-.12-.54-.27s-.18-.4-.06-.55"/>
          <path class="cls-13" d="M36.87,52.28c-.06-.38.27-.71.62-.88.62-.3,1.34-.28,2-.44.7-.17,1.35-.55,1.84-1.08.17-.18.32-.38.52-.52.35-.24.8-.26,1.22-.23.41.03.82.1,1.22.22l1.4,1.29c-.37-.15-.74-.3-1.14-.35-.87-.11-1.72.28-2.44.77-.72.49-1.36,1.1-2.12,1.53-.76.43-1.7.66-2.51.34-.29-.12-.57-.34-.62-.64Z"/>
          <path class="cls-5" d="M41.15,50.72c-.15.16-.33.28-.52.39-.35.2-.73.36-1.13.41-.56.06-1.14-.1-1.67.08-.21.08-.42.23-.46.45-.04.2.07.41.23.53.16.12.37.18.57.21,1.05.14,2.15-.38,2.71-1.28.17-.27.29-.57.52-.79"/>
          <path class="cls-11" d="M39.08,52.12c.01-.15.15-.26.29-.34.26-.14.55-.24.82-.37.41-.2.77-.49,1.05-.84.29-.36.54-.82.97-.99.2-.08.43-.08.64-.07.58.04,1.18.21,1.74.11l.49.46c-.28-.05-.56-.09-.84-.12-.17-.02-.34-.03-.52-.02-.23.02-.45.08-.66.16-.64.23-1.24.6-1.74,1.06-.5.46-.93,1.04-1.58,1.25-.14.05-.29.07-.43.03s-.26-.18-.25-.32Z"/>
          <path class="cls-11" d="M35.63,52.55c.42.32.79.7,1.27.92.72.33,1.57.23,2.3-.08.72-.31,1.35-.81,1.96-1.31.61-.5,1.23-1,1.95-1.32.3-.13.63-.23.96-.25.3-.01.59.04.88.1.34.07.68.16,1.02.27l.65.6c-1.51-.27-3.12-.22-4.42.56-1.18.71-2.05,1.97-3.38,2.32-.46.12-.95.13-1.43.1-.6-.04-1.2-.13-1.73-.41-.31-.17-.58-.4-.86-.61l.83-.9Z"/>
          <path class="cls-13" d="M44.07,53.48c-1.2.13-1.6.54-2.78,1.47-1.43,1.13-3.48,2.48-5.44,1.61,1.46.65,3.39.41,4.6-.47,1.2-.86,2.23-2.2,3.77-2.41"/>
          <path class="cls-14" d="M45.16,57.33c-.11-.11-.22-.22-.35-.32-.71-.53-1.67-.61-2.54-.44-.87.18-1.67.59-2.48.96-.81.37-1.65.71-2.54.75-.9.03-1.78-.25-2.64-.54-.87-.29-1.74-.6-2.55-1.03-.06-.03-.12-.07-.19-.11l1.07-1.16c.82.32,1.9.81,2.56,1.02.76.23,1.53.47,2.32.45,1.57-.04,2.95-1.07,4.04-2.21.32-.33.63-.69,1.03-.92.77-.45,1.77-.36,2.58.02.66.31,1.21.78,1.73,1.29l-2.06,2.23Z"/>
          <path class="cls-9" d="M33.37,54.99c.53.62,1.11,1.19,1.79,1.64.75.5,1.62.84,2.51.91-1.01.11-2.01-.27-2.95-.67-.73-.31-1.46-.64-2.19-.97l.83-.9Z"/>
          <path class="cls-16" d="M46.02,56.4l-.53.58c-.52-.44-1.14-.81-1.83-.85-.43-.02-.86.09-1.3.15-.24.03-.54.02-.63-.2-.05-.11-.02-.24.02-.35.19-.49.71-.81,1.23-.89.53-.08,1.06.06,1.55.26.37.15.73.35,1.02.63.2.19.36.43.46.68Z"/>
          <path class="cls-13" d="M45.53,56.93c-.28-.07-.51-.3-.76-.47-.41-.29-.91-.42-1.4-.52-.19-.04-.4-.08-.52-.23-.17-.21-.09-.55.13-.72.21-.17.51-.2.77-.16.99.12,1.82.92,2.79,1l-1.02,1.1Z"/>
          <path class="cls-11" d="M47.49,54.13c-.88-.54-1.74-1.17-2.78-1.38l-.4-.05.23.03c-.15-.01-.3-.05-.45-.06-.13,0-.25,0-.38,0-.36.03-.73.08-1.06.21-.66.24-1.21.6-1.75,1.04-.41.34-.78.72-1.18,1.07-.1.09-.21.17-.31.26-.08.07-.07.13-.03.03l.06-.05s-.09.06-.14.09c-.21.14-.42.26-.64.37-.06.03-.13.06-.19.09-.15.08.12-.05.12-.05-.09.07-.24.09-.35.13-.13.04-.25.08-.38.11-.06.01-.11.03-.17.04-.04,0-.07.02-.11.02-.11.02-.07.02.12-.01-.04-.03-.28.03-.34.03-.13,0-.26,0-.39,0-.06,0-.11,0-.17,0-.31-.01.05-.01.06.01-.02-.04-.39-.08-.44-.09-.15-.04-.29-.09-.43-.14-.03-.01-.21-.09-.04-.01.2.09-.13-.06-.14-.06-.26-.12-.53-.24-.78-.37-.64-.32-1.29-.62-1.97-.84-.75-.24-1.67.28-1.84,1.05-.19.82.25,1.59,1.05,1.84.13.04.25.08.37.13.05.02.1.04.16.06.22.09-.05-.03-.05-.02.03-.03.66.31.72.34.56.28,1.14.55,1.73.78,1.14.44,2.46.43,3.63.11,1.19-.33,2.18-.99,3.11-1.78.19-.16.37-.33.55-.5.1-.09.19-.18.29-.27.04-.04.09-.08.13-.11.27-.25-.17.11,0,0,.19-.13.38-.27.58-.38.04-.02.17-.06.19-.09-.02.02-.26.08-.11.06.05,0,.1-.03.15-.05s.35-.07.11-.03c-.27.04.22.01.23,0l-.2-.03.4.05c-.06-.03-.32-.08-.11,0,.1.04.29.13.39.13,0,0-.27-.13-.13-.05.07.04.15.07.23.11.47.25.91.56,1.37.84.67.41,1.68.17,2.05-.54.39-.73.18-1.61-.54-2.05h0Z"/>
          <path class="cls-9" d="M47.62,54.66c-.25-.1-.49-.27-.71-.43-.47-.34-.96-.66-1.51-.85-.54-.2-1.15-.27-1.71-.13-.58.15-1.08.51-1.65.66-.06.02-.13.02-.17-.02-.04-.05-.02-.12.01-.17.26-.51.7-.91,1.2-1.18s1.06-.42,1.63-.51c.52-.08,1.07-.12,1.59-.01.24.05.47.13.69.21.23.08.46.17.69.26l1.05.97-1.12,1.21Z"/>
          <path class="cls-11" d="M48.1,54.15c-.74-.58-1.67-.92-2.59-1.18-.08-.02-.17-.07-.16-.15,0-.04.04-.07.08-.09.26-.16.58-.15.88-.11.83.12,1.6.5,2.27,1.01l-.47.51Z"/>
          <path class="cls-11" d="M34.58,61.33c.59.29,1.18.6,1.81.7.96.16,1.84-.2,2.64-.58.21-.1.43-.2.67-.26.52-.13,1.12,0,1.63.3l-3.02,3.27-3.73-3.44Z"/>
          <path class="cls-9" d="M37.33,63.87c.1-.05.19-.11.28-.18.22-.18.41-.41.62-.61.63-.6,1.53-.91,2.4-.83l-.95,1.03c-.22.06-.43.14-.63.25-.39.21-.74.52-1.18.6-.08.01-.17.02-.25.02l-.29-.27Z"/>
          <path class="cls-5" d="M39.78,63.17c-.25.03-.48.13-.71.23-.13.06-.25.12-.39.12-.14,0-.29-.09-.3-.23,0-.08.03-.15.07-.22.14-.23.35-.41.58-.54.48-.28,1.07-.39,1.62-.31l-.87.94Z"/>
          <path class="cls-12" d="M35.7,62.36c-.04-.07-.08-.15-.11-.23.42.18.85.37,1.31.37.81-.01,1.47-.61,2.24-.86.63-.21,1.34-.17,1.95.11l-.06.06c-.6-.08-1.21-.02-1.76.22-.43.18-.81.46-1.22.69-.41.22-.87.4-1.33.34-.14-.02-.28-.06-.41-.13l-.61-.56Z"/>
          <path class="cls-12" d="M42.11,60.64c-.12-.02-.23-.08-.34-.12-.62-.23-1.31-.19-1.96-.05s-1.27.37-1.92.51c-.65.14-1.33.2-1.96-.02.51.07,1.03-.02,1.51-.2.48-.18.93-.44,1.36-.71.29-.18.58-.38.91-.48.39-.13.82-.12,1.21.01.52.18.96.58,1.47.75l-.28.31Z"/>
          <path class="cls-9" d="M33.84,60.65s0,0,0,0c1.1.3,2.25.51,3.37.34.67-.1,1.31-.33,1.98-.47.66-.14,1.38-.17,2,.1l.48.49h0c-.47-.26-.97-.53-1.51-.51-.31,0-.61.11-.89.23-.96.4-1.88,1.02-2.92,1.04-.52.01-1.02-.13-1.51-.31l-.98-.9Z"/>
          <path class="cls-13" d="M33.43,60.28c.62.24,1.26.44,1.92.55.83.14,1.7.12,2.5-.14.7-.23,1.33-.65,2.04-.81.84-.19,1.75.02,2.44.52l-.71.77c-.35-.22-.74-.39-1.15-.47-.2-.04-.4-.06-.61-.05-.43.04-.82.25-1.21.43-.78.35-1.64.55-2.49.47-.78-.07-1.51-.38-2.19-.78l-.54-.5Z"/>
          <path class="cls-11" d="M44.27,58.29c-.21.03-.44.02-.65-.02-.43-.08-.84-.26-1.27-.33-.48-.08-.98-.03-1.43.15-.19.08-.37.18-.49.34.48-.84,1.55-1.3,2.49-1.05.55.14,1.04.5,1.57.66l-.22.24Z"/>
          <path class="cls-9" d="M42.77,59.92c-.21-.12-.4-.3-.61-.42-.5-.29-1.13-.26-1.68-.46-.18-.07-.38-.19-.39-.39,0-.12.07-.24.16-.33.64-.74,1.74-1.04,2.67-.72.27.09.52.23.78.36.2.1.4.21.6.29l-1.53,1.66Z"/>
          <path class="cls-5" d="M43.17,59.49c-.06-.02-.11-.06-.16-.1-.45-.3-.98-.49-1.52-.53-.14-.01-.28-.01-.41-.08s-.21-.21-.16-.34c.02-.05.06-.09.11-.13.43-.36,1.07-.37,1.61-.2.44.14.84.38,1.24.6l-.71.77Z"/>
        </g>
      </g>
      <line class="cls-7" x1="62.53" y1="63.28" x2="62.12" y2="63.24"/>
      <line class="cls-7" x1="57.99" y1="69.03" x2="57.27" y2="68.84"/>
    </g>
  </g>
  <g>
    <path class="cls-11" d="M17.83,34.96l-4.17-2.45c-.14-.08-.17-.2-.09-.34l.68-1.16c.08-.14.2-.17.34-.09l4.09,2.4c.99.58,1.71.64,2.27-.31.57-.97.17-1.57-.82-2.16l-2.09-1.23c-1.32-.77-1.71-1.9-1.28-2.88l4.3,2.52c2,1.17,2.38,2.8,1.33,4.58-1.03,1.76-2.64,2.23-4.55,1.11Z"/>
    <path class="cls-11" d="M23.62,23.54l.9.81c.13.11.11.25-.04.34-.18.12-.32.24-.43.37-.44.49-.4,1.04.1,1.59l1.84,1.65c.12.11.13.23.02.35l-.9,1c-.11.12-.23.13-.35.02l-3.93-3.52c.6-.44,1.23-.59,1.84-.44-.33-.81-.14-1.46.29-1.94.09-.1.21-.19.31-.27.12-.08.24-.05.34.04Z"/>
    <path class="cls-11" d="M31.74,20.17c1.03,1.37.86,2.98-.41,3.94-.71.54-1.53.68-2.3.46.13.67-.1,1.25-.69,1.69l-5.59-7.44c1.1-.52,2.11-.25,2.87.76l1.18,1.58c.1-.64.45-1.23,1.05-1.68,1.27-.96,2.87-.67,3.89.69ZM30.17,21.36c-.5-.67-1.28-.81-1.88-.36-.6.45-.67,1.24-.17,1.91.5.67,1.28.81,1.88.36.6-.45.67-1.24.17-1.91Z"/>
    <path class="cls-11" d="M37.89,14.23l2.24,5.18c-.68.21-1.28.11-1.8-.32-.17.81-.71,1.48-1.56,1.85-1.46.63-2.94-.02-3.62-1.6-.68-1.56-.13-3.09,1.33-3.72.85-.37,1.71-.3,2.41.13.04-.66.38-1.17,1-1.52ZM37.33,17.56c-.33-.76-1.06-1.09-1.74-.79-.69.3-.95,1.05-.62,1.81.33.76,1.06,1.09,1.74.79.69-.3.95-1.05.62-1.81Z"/>
    <path class="cls-11" d="M46.36,14.83l.52,2.84c.03.16-.04.26-.2.28l-1.32.24c-.16.03-.26-.04-.28-.2l-.52-2.84c-.11-.63-.42-.93-.99-.83-.51.09-.85.57-.8,1.25l.5,2.75c.03.16-.04.26-.2.28l-1.32.24c-.16.03-.26-.04-.28-.2l-.95-5.19c.74.01,1.32.28,1.71.76.4-.91.99-1.33,1.69-1.46,1.42-.26,2.18.61,2.44,2.05Z"/>
    <path class="cls-11" d="M52.45,13.56c.47-2.59,2.68-3.86,4.97-3.45,1.8.32,3.14,1.58,3.3,3.29.02.18-.1.26-.26.23l-1.42-.26c-.13-.02-.21-.1-.24-.24-.17-.73-.84-1.23-1.68-1.38-1.33-.24-2.57.51-2.86,2.14-.29,1.64.61,2.77,1.93,3.01.86.15,1.66-.09,2.06-.72.08-.12.18-.17.31-.14l1.43.26c.17.03.25.14.17.3-.74,1.57-2.5,2.26-4.27,1.94-2.33-.42-3.91-2.42-3.45-4.97Z"/>
    <path class="cls-11" d="M67.06,19.11l-1.16,2.57c-.07.14-.18.19-.32.12l-1.23-.56c-.14-.07-.19-.18-.12-.32l1.16-2.57c.26-.58.18-.99-.34-1.23-.52-.24-1.19.13-1.49.8l-1.01,2.23c-.07.15-.18.19-.32.12l-1.23-.56c-.14-.07-.19-.18-.12-.32l3.69-8.15c.98.71,1.23,1.73.71,2.88l-.87,1.92c.52-.27,1.18-.32,1.83-.03,1.32.6,1.44,1.74.84,3.08Z"/>
    <path class="cls-11" d="M75.23,21.91l-3.42,4.49c-.52-.49-.73-1.06-.6-1.72-.79.25-1.64.11-2.37-.45-1.27-.96-1.42-2.58-.38-3.94,1.03-1.35,2.63-1.63,3.89-.67.74.56,1.09,1.34,1.07,2.16.6-.29,1.21-.24,1.82.13ZM72.05,23.05c.5-.66.43-1.46-.16-1.91-.59-.45-1.38-.31-1.88.35-.5.66-.43,1.46.16,1.91.59.45,1.38.31,1.88-.35Z"/>
    <path class="cls-11" d="M81.1,28.59l-4.37,3.57c-.39-.6-.46-1.2-.19-1.82-.82.06-1.62-.28-2.2-.99-1.01-1.23-.78-2.84.54-3.92,1.32-1.08,2.94-.97,3.94.26.59.72.75,1.56.54,2.35.65-.14,1.23.05,1.74.55ZM77.75,28.96c.65-.53.76-1.32.29-1.9s-1.27-.62-1.91-.1c-.65.53-.76,1.32-.29,1.9.47.58,1.27.62,1.91.1Z"/>
    <path class="cls-11" d="M83.84,33.72c.08.14.04.26-.1.33l-.82.44c-.14.08-.26.04-.33-.1l-.38-.7-3.29,1.77c-.14.08-.26.04-.33-.1l-.64-1.19c-.08-.14-.04-.26.1-.33l3.29-1.77-.37-.69c-.08-.14-.04-.26.1-.33l.82-.44c.14-.08.26-.04.33.1l.37.69c1.11-.6,2.14-.42,2.92.51l-2.05,1.1.38.7Z"/>
  </g>
  <g>
    <path class="cls-16" d="M16.41,69.98s-.04.05-.05.06c-.05.03-.1,0-.13-.06l-.45-.85c-.03-.06-.03-.11,0-.19l.94-1.85-.02-.04-.44.24c-.75.4-1.39.26-1.73-.23l4.08-2.17c.08-.04.14-.02.18.06l.35.66s.01.02.01.03h0s.29.54.29.54c.57,1.06.29,1.73-.49,2.15-.72.38-1.38.25-1.93-.68.12.48.07,1.01-.22,1.6l-.37.75ZM18.6,66.5l-.19-.37-1.07.57.19.37c.1.19.36.66.9.37.53-.28.28-.75.18-.94Z"/>
    <path class="cls-16" d="M19.94,72.71l-.1.07c-.07.05-.14.04-.19-.03l-1.24-1.8c-.33.26-.42.61-.2.92.17.25.39.33.59.29.08-.01.14,0,.18.06l.43.62c.05.08.03.16-.06.18-.69.19-1.3-.11-1.72-.73-.59-.85-.49-1.79.33-2.35.81-.55,1.75-.3,2.32.53.52.75.49,1.68-.33,2.24ZM19.57,71.65c.26-.2.32-.52.11-.82-.21-.31-.51-.33-.81-.19l.7,1.01Z"/>
    <path class="cls-16" d="M19.49,74.61c-.06-.07-.05-.14.02-.19l3.83-3.15c.31.6.19,1.16-.35,1.61l-2.83,2.33c-.07.06-.14.05-.19-.02l-.47-.58Z"/>
    <path class="cls-16" d="M20.95,76.32c-.06-.06-.06-.13,0-.19l2.15-1.99c.35.58.26,1.15-.26,1.62l-1.2,1.11c-.06.06-.13.06-.19,0l-.51-.55ZM23.71,73.2c.26-.24.66-.1.91.18.25.27.37.68.1.92-.27.25-.66.09-.91-.18-.25-.27-.37-.67-.1-.92Z"/>
    <path class="cls-16" d="M22.96,77.07c.05-.07.13-.08.19-.02l.54.5c.06.06.06.12.02.19-.16.29.07.59.21.72.23.22.43.23.54.1.38-.41-1.45-1.39-.63-2.28.39-.42,1.02-.37,1.7.25.58.54.78,1.1.49,1.63-.05.08-.12.09-.19.03l-.53-.49c-.06-.05-.06-.11-.04-.19.06-.19.02-.35-.2-.55-.17-.16-.31-.16-.38-.08-.35.38,1.44,1.4.6,2.31-.47.51-1.15.43-1.85-.22-.63-.58-.88-1.26-.47-1.9Z"/>
    <path class="cls-16" d="M29.05,81.15l-.93,1.26c-.05.07-.12.08-.19.03l-.6-.44c-.07-.05-.08-.12-.03-.19l.93-1.26c.21-.28.21-.52-.04-.71-.26-.19-.66-.06-.9.26l-.81,1.09c-.05.07-.12.08-.19.03l-.6-.44c-.07-.05-.08-.12-.03-.19l2.94-3.99c.45.5.47,1.08.06,1.64l-.69.94c.32-.08.68-.04.99.2.65.48.58,1.11.1,1.77Z"/>
    <path class="cls-16" d="M34.14,82.56c.08.04.1.1.06.18l-.24.46c-.04.08-.11.1-.18.06l-.39-.2-.96,1.84c-.04.08-.1.1-.18.06l-.66-.35c-.08-.04-.1-.11-.06-.18l.96-1.84-.39-.2c-.08-.04-.1-.11-.06-.18l.24-.46c.04-.08.11-.1.18-.06l.39.2c.32-.62.85-.86,1.5-.67l-.6,1.14.39.2Z"/>
    <path class="cls-16" d="M37.33,85.34l-.59,1.45c-.03.08-.1.11-.18.07l-.69-.28c-.08-.03-.11-.1-.07-.18l.59-1.45c.13-.33.08-.55-.22-.67s-.66.1-.81.48l-.51,1.26c-.03.08-.1.11-.18.07l-.69-.28c-.08-.03-.11-.1-.07-.18l1.87-4.59c.56.37.72.93.46,1.58l-.44,1.09c.28-.16.65-.2,1.01-.05.74.3.84.93.53,1.69Z"/>
    <path class="cls-16" d="M41.53,86.72l-.03.12c-.02.09-.08.12-.17.09l-2.11-.59c-.08.41.07.73.44.83.29.08.51,0,.64-.15.05-.06.1-.09.17-.07l.73.2c.09.03.13.1.07.18-.41.59-1.07.75-1.79.55-.99-.28-1.52-1.06-1.25-2.01.26-.94,1.15-1.35,2.11-1.08.88.24,1.45.97,1.18,1.93ZM40.57,86.15c.07-.32-.09-.6-.44-.7-.36-.1-.6.07-.75.37l1.18.33Z"/>
    <path class="cls-16" d="M46.74,86.07c.09.01.13.06.12.15l-.06.51c-.01.09-.06.13-.15.12l-.44-.05-.24,2.06c-.01.09-.06.13-.15.12l-.74-.09c-.09-.01-.13-.06-.12-.15l.24-2.06-.43-.05c-.09-.01-.13-.06-.12-.15l.06-.51c.01-.09.06-.13.15-.12l.43.05c.08-.7.49-1.11,1.16-1.17l-.15,1.28.44.05Z"/>
    <path class="cls-16" d="M51.08,86.16l-.05,3.13c-.39-.05-.68-.24-.84-.57-.27.37-.7.59-1.21.58-.88-.01-1.48-.68-1.47-1.64.02-.94.64-1.59,1.52-1.58.51,0,.93.24,1.19.61.17-.33.46-.51.86-.54ZM50.04,87.71c0-.46-.29-.79-.7-.8-.41,0-.72.31-.73.78,0,.46.29.79.7.8.41,0,.72-.31.73-.78Z"/>
    <path class="cls-16" d="M52.19,88.2c-.02-.09.03-.15.11-.15l.74-.07c.08,0,.13.04.15.11.11.31.49.34.67.32.32-.03.45-.17.44-.34-.05-.55-2,.16-2.12-1.05-.06-.57.4-1.01,1.32-1.1.79-.08,1.34.15,1.54.72.03.09-.01.15-.11.16l-.72.07c-.07,0-.13-.03-.17-.1-.1-.17-.25-.25-.54-.22-.24.02-.33.13-.32.23.05.52,2-.14,2.12,1.09.07.69-.45,1.14-1.4,1.24-.86.08-1.53-.18-1.73-.92Z"/>
    <path class="cls-16" d="M57.79,85.37c.09-.02.14.02.16.11l.1.51c.02.09-.02.14-.11.16l-.43.08.39,2.04c.02.09-.02.14-.11.16l-.73.14c-.09.02-.14-.02-.16-.11l-.39-2.04-.43.08c-.09.02-.14-.02-.16-.11l-.1-.51c-.02-.09.02-.14.11-.16l.43-.08c-.13-.69.14-1.2.76-1.46l.24,1.27.43-.08Z"/>
    <path class="cls-16" d="M62.24,85.64l.03.12c.02.08,0,.14-.09.17l-2.1.62c.14.39.45.58.81.48.29-.08.44-.27.46-.47.01-.08.04-.13.11-.15l.72-.21c.09-.03.16.02.15.12-.04.72-.51,1.2-1.23,1.41-.99.29-1.85-.09-2.13-1.05-.28-.94.26-1.75,1.22-2.04.87-.26,1.75.06,2.03,1.01ZM61.13,85.66c-.11-.31-.4-.46-.74-.36-.36.11-.47.38-.44.71l1.18-.35Z"/>
    <path class="cls-16" d="M65.26,84.53c-.42-.84-.14-1.73.81-2.2.95-.47,1.83-.16,2.24.68.42.84.14,1.72-.81,2.19-.96.48-1.83.17-2.25-.67ZM67.42,83.46c-.21-.41-.59-.63-.99-.43-.4.2-.46.64-.26,1.05.2.4.58.61.98.41.4-.2.47-.62.26-1.03Z"/>
    <path class="cls-16" d="M68.97,78.36c.07-.05.14-.03.19.04l.35.56c.05.07.03.14-.04.19-.29.18-.41.41-.09.93l.23.36.4-.25c.07-.05.14-.03.19.04l.27.44c.05.07.03.14-.04.19l-.4.25,1.1,1.76c.05.07.03.14-.04.19l-.63.4c-.07.05-.14.03-.19-.04l-1.1-1.76-.37.23c-.07.05-.14.03-.19-.04l-.27-.44c-.05-.07-.03-.14.04-.19l.37-.23-.23-.36c-.71-1.13-.11-1.9.34-2.18l.12-.08Z"/>
    <path class="cls-16" d="M73.23,76.85l1.78,2.12.4-.34c.07-.06.13-.05.19.02l.42.5c.06.07.05.13-.02.19l-1.58,1.33c-.07.06-.13.05-.19-.02l-.42-.5c-.06-.07-.05-.13.02-.19l.4-.34-.91-1.09c-.46-.54-.53-1.09-.3-1.51l-.97.81c-.07.06-.13.05-.19-.02l-.42-.5c-.06-.07-.05-.13.02-.19l1.58-1.33c.07-.06.13-.05.19.02l.42.5c.06.07.05.13-.02.19l-.4.34Z"/>
    <path class="cls-16" d="M77.89,75.05l1.15,1.12c.06.06.06.13,0,.19l-.52.54c-.06.06-.13.06-.19,0l-1.15-1.12c-.25-.25-.49-.29-.71-.06-.2.21-.2.53.04.82l1.11,1.08c.06.06.06.13,0,.19l-.52.54c-.06.06-.13.06-.19,0l-2.1-2.04c.34-.23.69-.3,1.02-.21-.11-.54.02-.92.3-1.21.56-.57,1.18-.42,1.77.15Z"/>
    <path class="cls-16" d="M77.46,70.24c.51-.44,1.09-.45,1.64-.02l3.07,2.36c-.25.33-.58.45-.94.38.12.43.03.88-.27,1.27-.54.7-1.43.78-2.19.2-.75-.58-.9-1.46-.36-2.16.25-.33.58-.52.94-.57l-1.89-1.45ZM80.31,72.43c-.37-.28-.81-.24-1.06.08s-.18.76.19,1.05c.37.28.81.24,1.06-.08s.18-.76-.19-1.05Z"/>
    <path class="cls-16" d="M79.19,69.44c-.3-.19-.26-.61-.06-.93.2-.31.56-.53.87-.34.31.2.26.62.06.93-.2.32-.56.53-.87.34ZM82.91,71.3c-.05.07-.11.09-.19.04l-2.47-1.57c.47-.48,1.05-.54,1.64-.17l1.38.88c.07.05.09.11.04.19l-.4.63Z"/>
    <path class="cls-16" d="M82.91,65.03l2.78,1.43c-.22.33-.51.5-.88.5.21.41.22.88-.02,1.34-.4.79-1.27,1.03-2.12.59-.84-.43-1.15-1.28-.74-2.06.24-.46.63-.73,1.08-.79-.22-.3-.25-.64-.1-1.01ZM83.84,66.66c-.41-.21-.84-.1-1.03.27s-.04.78.37,1c.41.21.84.1,1.03-.27.19-.37.04-.78-.37-1Z"/>
  </g>
  <path class="cls-14" d="M50,95.59c-25.14,0-45.59-20.45-45.59-45.59S24.86,4.41,50,4.41s45.59,20.45,45.59,45.59-20.45,45.59-45.59,45.59ZM50,5.66C25.55,5.66,5.66,25.55,5.66,50s19.89,44.34,44.34,44.34,44.34-19.89,44.34-44.34S74.45,5.66,50,5.66Z"/>
  <polygon class="cls-16" points="85.21 49.06 86.35 46.48 87.36 49.06 90.26 49.06 88.06 50.87 88.87 53.52 86.29 52.08 83.92 53.52 84.64 50.87 82.32 49.02 85.21 49.06"/>
  <polygon class="cls-16" points="12.18 49.06 13.32 46.48 14.33 49.06 17.23 49.06 15.03 50.87 15.83 53.52 13.25 52.08 10.89 53.52 11.6 50.87 9.29 49.02 12.18 49.06"/>
</svg>