<?xml version="1.0" encoding="UTF-8"?>
<svg id="Layer_1" data-name="Layer 1" xmlns="http://www.w3.org/2000/svg" version="1.1" viewBox="0 0 100 100">
  <defs>
    <style>
      .cls-1 {
        fill: #ed2029;
      }

      .cls-1, .cls-2, .cls-3, .cls-4, .cls-5, .cls-6, .cls-7 {
        stroke-width: 0px;
      }

      .cls-2 {
        fill: #000;
      }

      .cls-3 {
        fill: #f8fcff;
      }

      .cls-4 {
        fill: #6c1821;
      }

      .cls-5 {
        fill: #e1e2e1;
      }

      .cls-6 {
        fill: #fff;
      }

      .cls-7 {
        fill: #fffbfd;
      }
    </style>
  </defs>
  <path class="cls-2" d="M1.9,43.05l2.13,2.41,2.46,9.69,62.66-.11s.05.29-.36.64-2.5,2.59-2.5,2.59l4.19-.05s.71-.04,0,.7-9.45,10.08-9.45,10.08l24.65-13.85-7.74.03,14.78-11.82-8.18.03,13.57-12.37-13.65.33-11,12.01-71.56-.3Z"/>
  <polygon class="cls-2" points="1.9 43.05 4.03 45.46 6.49 55.14 69.15 55.03 77.94 55.17 84.53 47.46 78.93 41.91 73.45 43.35 1.9 43.05"/>
  <polygon class="cls-4" points="84.19 33.76 95.61 31.94 80.28 44.8 90.35 43.96 74.5 56.04 82.1 56.04 65.78 65.45 73.94 57.34 68.63 57.53 72.92 55.01 72.03 51.06 70.68 49.37 73.87 47.46 75.49 43.99 84.19 33.76"/>
  <polygon class="cls-1" points="84.38 34.41 88.54 33.57 93.89 32.5 76.74 47.04 88.57 44.24 73.75 56.04 79.86 56.87 69.65 62.42 74.5 56.87 71.24 56.41 73.47 55.29 73.33 51.84 72.03 51.06 70.9 49.59 74.01 47.86 84.38 34.41"/>
  <polygon class="cls-3" points="88.54 33.57 73.75 47.97 77.9 46.48 84.19 45.22 73.47 55.29 72.15 54.25 72.81 52.4 72.15 51.22 71.21 50 73.57 48.69 73.58 47.26 75.61 43.99 84.38 34.41 88.54 33.57"/>
  <polygon class="cls-7" points="72.98 55.54 73.52 56.73 71.24 56.41 72.98 55.54"/>
  <polygon class="cls-7" points="74.17 57.25 76.85 57.57 70.26 61.72 74.17 57.25"/>
  <path class="cls-2" d="M74.66,54.44h-12.26l1.94-6.54h5.53l-.98,3.18h3.34s.04-.04.04-.04c0,0,.02-.06.05-.16.04-.13.1-.29.17-.49.07-.2.14-.43.23-.68.08-.24.16-.49.24-.74.15-.47.32-.98.49-1.53h-9.02s.97-3.47.97-3.47h.4s.2,0,.52,0c.34,0,.78,0,1.32,0h3.9c1.66,0,3.54,0,5.64.01h.15s.12.08.12.08c.16.09.31.2.45.32.11.09.23.2.34.32.15.16.25.35.31.55.07.25.11.5.12.76.02.27,0,.54-.06.79,0,.03-.03.13-.11.41-.06.2-.13.43-.22.72l-.3.92c-.11.34-.22.68-.34,1.04-.27.82-.57,1.72-.9,2.72l-.02.07-.04.06c-.05.07-.1.15-.14.23-.05.09-.1.18-.16.28-.06.09-.11.17-.16.24-.08.14-.17.28-.28.41-.16.2-.36.35-.59.43-.07.03-.18.06-.31.09-.14.03-.26.05-.39.05ZM63.83,53.38h10.83s.08,0,.15-.02c.07-.02.13-.03.19-.05.04-.01.07-.03.11-.08.08-.1.15-.2.21-.31l.03-.04c.04-.05.08-.12.13-.19.05-.08.1-.17.14-.24.05-.09.1-.18.16-.26.32-.97.62-1.85.88-2.65.12-.35.23-.69.33-1.03l.3-.92c.09-.27.16-.51.22-.7.05-.16.08-.26.09-.31.04-.18.05-.35.04-.52-.01-.19-.04-.37-.08-.54-.01-.03-.03-.08-.07-.12-.08-.08-.16-.16-.23-.22-.06-.05-.13-.1-.2-.15-2.04,0-3.86-.01-5.48-.01h-3.9c-.54,0-.97,0-1.3,0-.05,0-.09,0-.13,0l-.38,1.37h8.12c.13-.01.31.02.5.19.22.2.28.48.17.72-.23.74-.44,1.4-.63,1.99-.08.26-.16.52-.25.77-.08.25-.16.47-.23.67-.07.2-.12.37-.17.5-.06.17-.1.26-.11.29-.09.17-.22.32-.39.44-.19.13-.39.19-.6.19h-4.78l.98-3.18h-3.3l-1.31,4.42Z"/>
  <g>
    <path class="cls-6" d="M11.47,53.91h-4.21l-2.18-9.42h3.81c.11,0,.22.02.32.07.11.05.2.11.29.2.09.08.16.17.22.28.06.1.11.2.13.3l1.02,4.33,4.75-5.18h4.99l-9.15,9.42Z"/>
    <path class="cls-6" d="M19.62,53.91c-.23,0-.43-.02-.6-.08-.17-.06-.3-.15-.4-.27-.1-.12-.16-.25-.19-.4-.03-.15-.02-.32.01-.5.32-1.24.62-2.36.89-3.38.12-.43.23-.86.34-1.28.11-.42.22-.8.31-1.14.09-.34.17-.63.24-.87.06-.24.11-.39.13-.45.14-.38.33-.65.54-.81.22-.16.45-.24.68-.24h9.54c.17,0,.32.04.44.12.12.08.21.19.28.32.06.13.09.29.08.46,0,.17-.06.36-.15.54l-2.53,7.97h-9.62ZM23.91,46.75c-.21.74-.39,1.42-.55,2.03-.07.26-.14.52-.22.77-.07.25-.14.48-.2.69-.06.21-.11.39-.15.53-.04.14-.07.23-.07.27-.06.21-.04.36.06.46.1.1.22.15.34.15h3.03l1.53-4.9h-3.78Z"/>
    <path class="cls-6" d="M30.63,52.86c-.04-.16-.07-.33-.09-.52-.02-.19-.02-.38-.01-.57,0-.19.08-.35.12-.48l2.29-6.81h4.2l-2.3,6.83,7.42.05-.71,2.54h-9.16c-.28,0-.56-.07-.85-.22-.29-.15-.53-.31-.74-.49"/>
    <path class="cls-6" d="M41.12,44.49c2.18,0,4.13.01,5.85.01h5.35c.34,0,.5,0,.5-.01-.05.14-.1.28-.14.4-.04.13-.09.27-.14.43s-.11.33-.16.5c-.13.39-.27.85-.43,1.36h-3.89c-.12.38-.22.72-.32,1.04-.09.31-.2.67-.33,1.08-.13.4-.25.82-.38,1.24-.3.99-.64,2.11-1.02,3.38h-3.9l2-6.73h-3.89l.89-2.69Z"/>
    <path class="cls-6" d="M53.17,44.5h11.91s-.71,2.34-.71,2.34h-7.6l-1.32,4.39c-.02.07,0,.16.05.26.05.1.11.15.18.15h.43c.24,0,.54,0,.91,0,.36,0,.77,0,1.22-.01.45,0,.9,0,1.36,0s.9,0,1.33,0c.43,0,.81,0,1.14,0s.59,0,.77,0c.19,0,.27.01.24.02l-.67,2.27h-9.94c-.11,0-.22-.02-.35-.05-.13-.04-.25-.09-.37-.15-.12-.06-.23-.13-.33-.22-.1-.08-.18-.17-.24-.26-.13-.2-.24-.42-.34-.66-.1-.24-.11-.48-.04-.7l2.38-7.37ZM57.45,48h5.99l-.73,2.1h-5.91l.65-2.1Z"/>
    <path class="cls-6" d="M65.53,44.49s.2,0,.53,0c.34,0,.77,0,1.31,0h3.9c1.66,0,3.54,0,5.64.01.13.08.26.17.38.27.1.08.2.17.29.28.09.1.16.22.2.34.05.21.09.42.1.65.01.22,0,.44-.05.65,0,.05-.04.18-.1.37-.06.19-.13.43-.22.71-.09.28-.19.59-.3.92-.11.34-.22.68-.34,1.03-.27.82-.57,1.72-.9,2.72-.06.09-.12.18-.17.28-.05.08-.09.17-.15.26-.05.09-.1.17-.15.23-.07.13-.15.25-.25.37-.09.12-.21.2-.34.25-.07.03-.16.05-.26.07-.1.02-.19.03-.27.03h-11.55l1.63-5.48h4.41l-.98,3.18h4.06c.1,0,.2-.03.3-.1.1-.07.17-.15.22-.24,0-.02.04-.09.08-.22.04-.13.1-.3.17-.5.07-.2.14-.43.23-.67.09-.25.17-.5.25-.76.2-.6.41-1.28.65-2.03.03-.04.02-.08-.03-.12-.05-.04-.1-.07-.14-.07h-8.81s.67-2.41.67-2.41Z"/>
    <polygon class="cls-6" points="33.24 44.49 31.97 44.49 32.83 45.35 33.24 44.49"/>
  </g>
  <g>
    <polygon class="cls-5" points="11.47 53.91 15.65 49.6 10.94 49.6 10.87 49.67 10.86 49.6 6.26 49.6 7.26 53.91 11.47 53.91"/>
    <path class="cls-5" d="M18.44,53.15c.03.15.09.29.19.4.1.12.23.21.4.27.17.06.37.09.6.08h9.62l1.37-4.31h-3.81l-.64,2.05h-3.03c-.13,0-.24-.05-.34-.15-.1-.1-.12-.25-.06-.46,0-.04.03-.13.07-.27.04-.14.09-.32.15-.53.05-.2.11-.41.18-.64h-3.88c-.25.93-.51,1.95-.8,3.06-.04.18-.04.35-.01.5Z"/>
    <path class="cls-5" d="M30.53,51.77c0,.19,0,.38.01.57.02.19.05.36.09.52l.17.33c.21.18.45.34.74.49.29.15.57.22.85.22h9.16l.71-2.54-7.42-.05.58-1.72h-4.2l-.57,1.7c-.04.13-.11.28-.12.48Z"/>
    <path class="cls-5" d="M46.02,53.91c.39-1.26.73-2.39,1.02-3.38.09-.32.19-.62.28-.93h-3.92l-1.28,4.31h3.9Z"/>
    <path class="cls-5" d="M50.82,52.57c.1.24.21.46.34.66.06.09.14.17.24.26.1.08.21.15.33.22.12.06.24.11.37.15.13.04.24.05.35.05h9.94l.67-2.27s-.05-.02-.24-.02c-.19,0-.45,0-.77,0s-.71,0-1.14,0c-.43,0-.87,0-1.33,0s-.91,0-1.36,0c-.45,0-.85,0-1.22.01-.36,0-.67,0-.91,0h-.43c-.07,0-.13-.05-.18-.15-.05-.1-.07-.19-.05-.26l.49-1.63h-4.41l-.73,2.28c-.07.22-.06.46.04.7Z"/>
    <polygon class="cls-5" points="62.72 50.1 62.89 49.6 56.96 49.6 56.8 50.1 62.72 50.1"/>
    <path class="cls-5" d="M74.38,53.91c.08,0,.17-.01.27-.03.1-.02.18-.05.26-.07.13-.04.25-.13.34-.25.09-.12.18-.24.25-.37.04-.06.09-.14.15-.23.05-.09.1-.17.15-.26.05-.1.11-.19.17-.28.33-1,.63-1.9.9-2.72.01-.03.02-.06.03-.1h-3.86c-.03.09-.06.19-.09.28-.09.25-.16.47-.23.67s-.12.37-.17.5c-.04.13-.07.2-.08.22-.04.09-.12.17-.22.24-.1.07-.2.1-.3.1h-4.06l.62-2.01h-4.4l-1.28,4.31h11.55Z"/>
  </g>
</svg>