<?xml version="1.0" encoding="UTF-8"?>
<svg id="Layer_1" data-name="Layer 1" xmlns="http://www.w3.org/2000/svg" version="1.1" viewBox="0 0 100 100">
  <defs>
    <style>
      .cls-1 {
        fill: #f37f82;
      }

      .cls-1, .cls-2 {
        stroke-width: 0px;
      }

      .cls-2 {
        fill: #785b4e;
      }
    </style>
  </defs>
  <g>
    <path class="cls-1" d="M14.23,47.12l5.12-11.86h1.83l-7.51,17.25h-.73l-5.66-13.13c-.6-1.36-1.16-2.3-1.68-2.82-.54-.53-1.25-.82-2.14-.87v-.72l1.25-.08c2.84,0,4.91,1.49,6.22,4.48l3.29,7.74Z"/>
    <path class="cls-1" d="M25.54,35.07h4.51c.64,0,1.39.17,2.25.51,1.26.56,2.15,1.42,2.68,2.59.14.34.25.68.33,1,.12.54.17.96.17,1.27l.02.49c2.09-.43,3.33-.69,3.7-.79.78-.28,1.3-.67,1.56-1.19.13-.26.19-.5.19-.72v-.06h.02c.15.37.23.73.23,1.08,0,.92-.51,1.72-1.52,2.4-.31.2-.65.37-1.02.49-.3.09-.7.17-1.21.25-.69.13-1.34.24-1.95.34v5.98c0,.56.1,1.1.29,1.65.1.24.26.47.46.68.28.23.57.34.87.34h.89l.02.02v.98l-.02.02h-3.04c-1.18,0-2-.62-2.47-1.87-.09-.19-.18-.49-.27-.91l-.04-.23c-1.95,1.93-3.95,2.89-5.99,2.89-.74,0-1.5-.14-2.25-.42-.26-.13-.52-.28-.79-.47-.99-.78-1.48-1.72-1.48-2.8v-.08c0-.79.27-1.63.81-2.5.45-.67,1.09-1.28,1.93-1.84.53-.35,1.1-.67,1.71-.96.73-.35,1.62-.69,2.68-1,.82-.23,1.43-.34,1.81-.34.44-.06.94-.15,1.5-.25v-1.34c0-.59-.14-1.27-.42-2.04-.1-.21-.24-.45-.42-.72-.23-.32-.55-.54-.96-.66-.08-.04-.41-.06-1-.08l-3.76-.11-.02-.02v-1.57l.02-.02ZM25.52,47.61v.02c0,.63.21,1.24.62,1.84.41.49.96.74,1.66.74.55,0,1.13-.16,1.73-.49l2.58-1.89v-4.58c-1.08.2-2.04.44-2.87.72-1.05.34-1.78.67-2.18.98-.42.33-.76.68-1.02,1.04-.35.53-.52,1.07-.52,1.63Z"/>
    <path class="cls-1" d="M47.44,52.25l-5.78-13.49c-.71-1.66-2.07-2.59-4.1-2.76v-.7h3.18c2.18,0,3.67.92,4.47,2.76l4.1,9.52,4.6-10.92h1.87l-7.22,17.48c-.72,1.83-1.55,3.08-2.48,3.76-.8.61-1.89.87-3.29.79l-1.91-.11v-1.78c3.17.45,5.11-.43,5.82-2.67l.75-1.89Z"/>
    <path class="cls-1" d="M60.09,35.07h4.51c.64,0,1.39.17,2.25.51,1.26.56,2.15,1.42,2.68,2.59.14.34.25.68.33,1,.12.54.17.96.17,1.27l.02.49c2.09-.43,3.33-.69,3.7-.79.78-.28,1.3-.67,1.56-1.19.13-.26.19-.5.19-.72v-.06h.02c.15.37.23.73.23,1.08,0,.92-.51,1.72-1.52,2.4-.31.2-.65.37-1.02.49-.3.09-.7.17-1.21.25-.69.13-1.34.24-1.95.34v5.98c0,.56.1,1.1.29,1.65.1.24.26.47.46.68.28.23.57.34.87.34h.89l.02.02v.98l-.02.02h-3.04c-1.18,0-2-.62-2.47-1.87-.09-.19-.18-.49-.27-.91l-.04-.23c-1.95,1.93-3.95,2.89-5.99,2.89-.74,0-1.5-.14-2.25-.42-.26-.13-.52-.28-.79-.47-.99-.78-1.48-1.72-1.48-2.8v-.08c0-.79.27-1.63.81-2.5.45-.67,1.09-1.28,1.93-1.84.53-.35,1.1-.67,1.71-.96.73-.35,1.62-.69,2.68-1,.82-.23,1.43-.34,1.81-.34.44-.06.94-.15,1.5-.25v-1.34c0-.59-.14-1.27-.42-2.04-.1-.21-.24-.45-.42-.72-.23-.32-.55-.54-.96-.66-.08-.04-.41-.06-1-.08l-3.76-.11-.02-.02v-1.57l.02-.02ZM60.07,47.61v.02c0,.63.21,1.24.62,1.84.41.49.96.74,1.66.74.55,0,1.13-.16,1.73-.49l2.58-1.89v-4.58c-1.08.2-2.04.44-2.87.72-1.05.34-1.78.67-2.18.98-.42.33-.76.68-1.02,1.04-.35.53-.52,1.07-.52,1.63Z"/>
    <path class="cls-1" d="M85.89,35.13h.37c1.75,0,3.26.63,4.53,1.89,1.25,1.36,1.87,2.93,1.87,4.71v6.22c0,1.77.35,2.81,1.06,3.14,0,.08.26.16.77.25h2l.06.06v.91l-.06.06h-4.76c-1.31,0-2.16-.94-2.56-2.82-.05-.21-.08-.44-.08-.68v-6.7c0-2.21-.8-3.64-2.41-4.29-.66-.23-1.34-.34-2.06-.34-1.32.04-2.63.69-3.91,1.95-.48.57-.71,1.14-.71,1.7v11.18l-.06.06h-3.47l-.08-.06v-13.13c0-1.11-.46-1.86-1.39-2.25l-.67-.09h-1.62l-.06-.06v-1.48l.06-.06h4.37c1.1,0,1.96.6,2.56,1.8l.17.59c1.89-1.66,3.91-2.52,6.07-2.55Z"/>
  </g>
  <g>
    <path class="cls-2" d="M25.69,65.04h-.63l-1.27-1.54v1.54h-.53v-3.23h.53v1.45l1.23-1.45h.63l-1.31,1.57,1.35,1.66Z"/>
    <path class="cls-2" d="M28.62,61.81h.53v3.23h-.41l-1.52-2.19v2.19h-.53v-3.23h.42l1.52,2.19v-2.19Z"/>
    <path class="cls-2" d="M30.44,61.81h.53v3.23h-.53v-3.23Z"/>
    <path class="cls-2" d="M34.36,61.81v.51h-.91v2.72h-.53v-2.72h-.91v-.51h2.35Z"/>
    <path class="cls-2" d="M37.49,61.81v.51h-.91v2.72h-.53v-2.72h-.91v-.51h2.35Z"/>
    <path class="cls-2" d="M39.06,64.53h1.43v.51h-1.96v-3.23h1.94v.51h-1.41v.84h1.29v.5h-1.29v.87Z"/>
    <path class="cls-2" d="M42.89,61.81c.44,0,.81.16,1.1.47.29.31.44.69.44,1.15s-.15.83-.44,1.15c-.29.31-.66.47-1.1.47h-1.27v-3.23h1.27ZM42.89,64.53c.3,0,.55-.1.74-.31.19-.21.29-.47.29-.79s-.1-.59-.29-.8c-.19-.21-.44-.31-.74-.31h-.74v2.21h.74Z"/>
    <path class="cls-2" d="M48.04,65.04l-.91-3.23h.56l.68,2.52.73-2.52h.49l.73,2.52.68-2.52h.56l-.91,3.23h-.61l-.68-2.36-.69,2.36h-.61Z"/>
    <path class="cls-2" d="M52.61,61.81h.53v3.23h-.53v-3.23Z"/>
    <path class="cls-2" d="M56.53,61.81v.51h-.91v2.72h-.53v-2.72h-.91v-.51h2.35Z"/>
    <path class="cls-2" d="M59.48,61.81h.53v3.23h-.53v-1.4h-1.38v1.4h-.53v-3.23h.53v1.32h1.38v-1.32Z"/>
    <path class="cls-2" d="M63.63,64.53h1.31v.51h-1.84v-3.23h.53v2.72Z"/>
    <path class="cls-2" d="M68.48,64.61c-.32.32-.72.49-1.19.49s-.86-.16-1.19-.49-.49-.72-.49-1.19.16-.86.49-1.19.72-.49,1.19-.49.86.16,1.19.49.49.72.49,1.19-.16.86-.49,1.19ZM66.48,64.25c.22.22.49.33.81.33s.59-.11.81-.33.33-.5.33-.83-.11-.61-.33-.83-.49-.33-.81-.33-.59.11-.81.33-.33.5-.33.83.11.61.33.83Z"/>
    <path class="cls-2" d="M70.77,65.04l-1.12-3.23h.58l.86,2.59.86-2.59h.58l-1.12,3.23h-.64Z"/>
    <path class="cls-2" d="M74.05,64.53h1.43v.51h-1.96v-3.23h1.94v.51h-1.41v.84h1.29v.5h-1.29v.87Z"/>
  </g>
</svg>